G04 #@! TF.GenerationSoftware,KiCad,Pcbnew,(5.1.4)-1*
G04 #@! TF.CreationDate,2019-11-10T16:51:08-05:00*
G04 #@! TF.ProjectId,UniAmp,556e6941-6d70-42e6-9b69-6361645f7063,rev?*
G04 #@! TF.SameCoordinates,Original*
G04 #@! TF.FileFunction,Soldermask,Top*
G04 #@! TF.FilePolarity,Negative*
%FSLAX46Y46*%
G04 Gerber Fmt 4.6, Leading zero omitted, Abs format (unit mm)*
G04 Created by KiCad (PCBNEW (5.1.4)-1) date 2019-11-10 16:51:08*
%MOMM*%
%LPD*%
G04 APERTURE LIST*
%ADD10C,0.100000*%
G04 APERTURE END LIST*
D10*
G36*
X139429591Y-74400585D02*
G01*
X139463569Y-74410893D01*
X139494890Y-74427634D01*
X139522339Y-74450161D01*
X139544866Y-74477610D01*
X139561607Y-74508931D01*
X139571915Y-74542909D01*
X139576000Y-74584390D01*
X139576000Y-75185610D01*
X139571915Y-75227091D01*
X139561607Y-75261069D01*
X139544866Y-75292390D01*
X139522339Y-75319839D01*
X139494890Y-75342366D01*
X139463569Y-75359107D01*
X139429591Y-75369415D01*
X139388110Y-75373500D01*
X138711890Y-75373500D01*
X138670409Y-75369415D01*
X138636431Y-75359107D01*
X138605110Y-75342366D01*
X138577661Y-75319839D01*
X138555134Y-75292390D01*
X138538393Y-75261069D01*
X138528085Y-75227091D01*
X138524000Y-75185610D01*
X138524000Y-74584390D01*
X138528085Y-74542909D01*
X138538393Y-74508931D01*
X138555134Y-74477610D01*
X138577661Y-74450161D01*
X138605110Y-74427634D01*
X138636431Y-74410893D01*
X138670409Y-74400585D01*
X138711890Y-74396500D01*
X139388110Y-74396500D01*
X139429591Y-74400585D01*
X139429591Y-74400585D01*
G37*
G36*
X137839591Y-74380585D02*
G01*
X137873569Y-74390893D01*
X137904890Y-74407634D01*
X137932339Y-74430161D01*
X137954866Y-74457610D01*
X137971607Y-74488931D01*
X137981915Y-74522909D01*
X137986000Y-74564390D01*
X137986000Y-75165610D01*
X137981915Y-75207091D01*
X137971607Y-75241069D01*
X137954866Y-75272390D01*
X137932339Y-75299839D01*
X137904890Y-75322366D01*
X137873569Y-75339107D01*
X137839591Y-75349415D01*
X137798110Y-75353500D01*
X137121890Y-75353500D01*
X137080409Y-75349415D01*
X137046431Y-75339107D01*
X137015110Y-75322366D01*
X136987661Y-75299839D01*
X136965134Y-75272390D01*
X136948393Y-75241069D01*
X136938085Y-75207091D01*
X136934000Y-75165610D01*
X136934000Y-74564390D01*
X136938085Y-74522909D01*
X136948393Y-74488931D01*
X136965134Y-74457610D01*
X136987661Y-74430161D01*
X137015110Y-74407634D01*
X137046431Y-74390893D01*
X137080409Y-74380585D01*
X137121890Y-74376500D01*
X137798110Y-74376500D01*
X137839591Y-74380585D01*
X137839591Y-74380585D01*
G37*
G36*
X129329591Y-74340585D02*
G01*
X129363569Y-74350893D01*
X129394890Y-74367634D01*
X129422339Y-74390161D01*
X129444866Y-74417610D01*
X129461607Y-74448931D01*
X129471915Y-74482909D01*
X129476000Y-74524390D01*
X129476000Y-75125610D01*
X129471915Y-75167091D01*
X129461607Y-75201069D01*
X129444866Y-75232390D01*
X129422339Y-75259839D01*
X129394890Y-75282366D01*
X129363569Y-75299107D01*
X129329591Y-75309415D01*
X129288110Y-75313500D01*
X128611890Y-75313500D01*
X128570409Y-75309415D01*
X128536431Y-75299107D01*
X128505110Y-75282366D01*
X128477661Y-75259839D01*
X128455134Y-75232390D01*
X128438393Y-75201069D01*
X128428085Y-75167091D01*
X128424000Y-75125610D01*
X128424000Y-74524390D01*
X128428085Y-74482909D01*
X128438393Y-74448931D01*
X128455134Y-74417610D01*
X128477661Y-74390161D01*
X128505110Y-74367634D01*
X128536431Y-74350893D01*
X128570409Y-74340585D01*
X128611890Y-74336500D01*
X129288110Y-74336500D01*
X129329591Y-74340585D01*
X129329591Y-74340585D01*
G37*
G36*
X131329591Y-74340585D02*
G01*
X131363569Y-74350893D01*
X131394890Y-74367634D01*
X131422339Y-74390161D01*
X131444866Y-74417610D01*
X131461607Y-74448931D01*
X131471915Y-74482909D01*
X131476000Y-74524390D01*
X131476000Y-75125610D01*
X131471915Y-75167091D01*
X131461607Y-75201069D01*
X131444866Y-75232390D01*
X131422339Y-75259839D01*
X131394890Y-75282366D01*
X131363569Y-75299107D01*
X131329591Y-75309415D01*
X131288110Y-75313500D01*
X130611890Y-75313500D01*
X130570409Y-75309415D01*
X130536431Y-75299107D01*
X130505110Y-75282366D01*
X130477661Y-75259839D01*
X130455134Y-75232390D01*
X130438393Y-75201069D01*
X130428085Y-75167091D01*
X130424000Y-75125610D01*
X130424000Y-74524390D01*
X130428085Y-74482909D01*
X130438393Y-74448931D01*
X130455134Y-74417610D01*
X130477661Y-74390161D01*
X130505110Y-74367634D01*
X130536431Y-74350893D01*
X130570409Y-74340585D01*
X130611890Y-74336500D01*
X131288110Y-74336500D01*
X131329591Y-74340585D01*
X131329591Y-74340585D01*
G37*
G36*
X135282091Y-74058085D02*
G01*
X135316069Y-74068393D01*
X135347390Y-74085134D01*
X135374839Y-74107661D01*
X135397366Y-74135110D01*
X135414107Y-74166431D01*
X135424415Y-74200409D01*
X135428500Y-74241890D01*
X135428500Y-74918110D01*
X135424415Y-74959591D01*
X135414107Y-74993569D01*
X135397366Y-75024890D01*
X135374839Y-75052339D01*
X135347390Y-75074866D01*
X135316069Y-75091607D01*
X135282091Y-75101915D01*
X135240610Y-75106000D01*
X134639390Y-75106000D01*
X134597909Y-75101915D01*
X134563931Y-75091607D01*
X134532610Y-75074866D01*
X134505161Y-75052339D01*
X134482634Y-75024890D01*
X134465893Y-74993569D01*
X134455585Y-74959591D01*
X134451500Y-74918110D01*
X134451500Y-74241890D01*
X134455585Y-74200409D01*
X134465893Y-74166431D01*
X134482634Y-74135110D01*
X134505161Y-74107661D01*
X134532610Y-74085134D01*
X134563931Y-74068393D01*
X134597909Y-74058085D01*
X134639390Y-74054000D01*
X135240610Y-74054000D01*
X135282091Y-74058085D01*
X135282091Y-74058085D01*
G37*
G36*
X133707091Y-74058085D02*
G01*
X133741069Y-74068393D01*
X133772390Y-74085134D01*
X133799839Y-74107661D01*
X133822366Y-74135110D01*
X133839107Y-74166431D01*
X133849415Y-74200409D01*
X133853500Y-74241890D01*
X133853500Y-74918110D01*
X133849415Y-74959591D01*
X133839107Y-74993569D01*
X133822366Y-75024890D01*
X133799839Y-75052339D01*
X133772390Y-75074866D01*
X133741069Y-75091607D01*
X133707091Y-75101915D01*
X133665610Y-75106000D01*
X133064390Y-75106000D01*
X133022909Y-75101915D01*
X132988931Y-75091607D01*
X132957610Y-75074866D01*
X132930161Y-75052339D01*
X132907634Y-75024890D01*
X132890893Y-74993569D01*
X132880585Y-74959591D01*
X132876500Y-74918110D01*
X132876500Y-74241890D01*
X132880585Y-74200409D01*
X132890893Y-74166431D01*
X132907634Y-74135110D01*
X132930161Y-74107661D01*
X132957610Y-74085134D01*
X132988931Y-74068393D01*
X133022909Y-74058085D01*
X133064390Y-74054000D01*
X133665610Y-74054000D01*
X133707091Y-74058085D01*
X133707091Y-74058085D01*
G37*
G36*
X115524549Y-72531116D02*
G01*
X115635734Y-72553232D01*
X115783850Y-72614584D01*
X115822515Y-72630599D01*
X115845203Y-72639997D01*
X116033720Y-72765960D01*
X116194040Y-72926280D01*
X116320003Y-73114797D01*
X116406768Y-73324266D01*
X116417813Y-73379793D01*
X116451000Y-73546635D01*
X116451000Y-73773365D01*
X116441702Y-73820110D01*
X116406768Y-73995734D01*
X116320003Y-74205203D01*
X116194040Y-74393720D01*
X116033720Y-74554040D01*
X115845203Y-74680003D01*
X115845202Y-74680004D01*
X115845201Y-74680004D01*
X115809321Y-74694866D01*
X115635734Y-74766768D01*
X115524549Y-74788884D01*
X115413365Y-74811000D01*
X115186635Y-74811000D01*
X115075451Y-74788884D01*
X114964266Y-74766768D01*
X114790679Y-74694866D01*
X114754799Y-74680004D01*
X114754798Y-74680004D01*
X114754797Y-74680003D01*
X114566280Y-74554040D01*
X114405960Y-74393720D01*
X114279997Y-74205203D01*
X114193232Y-73995734D01*
X114158298Y-73820110D01*
X114149000Y-73773365D01*
X114149000Y-73546635D01*
X114182187Y-73379793D01*
X114193232Y-73324266D01*
X114279997Y-73114797D01*
X114405960Y-72926280D01*
X114566280Y-72765960D01*
X114754797Y-72639997D01*
X114777486Y-72630599D01*
X114816150Y-72614584D01*
X114964266Y-72553232D01*
X115075451Y-72531116D01*
X115186635Y-72509000D01*
X115413365Y-72509000D01*
X115524549Y-72531116D01*
X115524549Y-72531116D01*
G37*
G36*
X118911000Y-73907265D02*
G01*
X118913402Y-73931651D01*
X118920515Y-73955100D01*
X118932066Y-73976711D01*
X118947611Y-73995653D01*
X118966553Y-74011198D01*
X118988164Y-74022749D01*
X119011613Y-74029862D01*
X119035999Y-74032264D01*
X119060385Y-74029862D01*
X119083834Y-74022749D01*
X119105445Y-74011198D01*
X119124387Y-73995653D01*
X119139932Y-73976711D01*
X119146233Y-73966198D01*
X119169644Y-73922400D01*
X119238499Y-73838499D01*
X119248721Y-73830110D01*
X119322400Y-73769643D01*
X119415448Y-73719908D01*
X119418121Y-73718479D01*
X119521985Y-73686973D01*
X119602933Y-73679000D01*
X119657067Y-73679000D01*
X119738015Y-73686973D01*
X119841879Y-73718479D01*
X119844552Y-73719908D01*
X119937600Y-73769643D01*
X120021501Y-73838499D01*
X120090357Y-73922400D01*
X120122882Y-73983250D01*
X120141521Y-74018121D01*
X120145388Y-74030869D01*
X120154760Y-74053496D01*
X120168374Y-74073870D01*
X120185701Y-74091197D01*
X120206075Y-74104811D01*
X120228714Y-74114188D01*
X120252747Y-74118969D01*
X120277251Y-74118969D01*
X120301285Y-74114189D01*
X120323924Y-74104812D01*
X120344298Y-74091198D01*
X120361625Y-74073871D01*
X120375239Y-74053497D01*
X120384612Y-74030869D01*
X120388479Y-74018121D01*
X120407118Y-73983250D01*
X120439643Y-73922400D01*
X120508499Y-73838499D01*
X120592400Y-73769643D01*
X120685448Y-73719908D01*
X120688121Y-73718479D01*
X120791985Y-73686973D01*
X120872933Y-73679000D01*
X120927067Y-73679000D01*
X121008015Y-73686973D01*
X121111879Y-73718479D01*
X121114552Y-73719908D01*
X121207600Y-73769643D01*
X121291501Y-73838499D01*
X121360357Y-73922400D01*
X121392882Y-73983250D01*
X121411521Y-74018121D01*
X121415388Y-74030869D01*
X121424760Y-74053496D01*
X121438374Y-74073870D01*
X121455701Y-74091197D01*
X121476075Y-74104811D01*
X121498714Y-74114188D01*
X121522747Y-74118969D01*
X121547251Y-74118969D01*
X121571285Y-74114189D01*
X121593924Y-74104812D01*
X121614298Y-74091198D01*
X121631625Y-74073871D01*
X121645239Y-74053497D01*
X121654612Y-74030869D01*
X121658479Y-74018121D01*
X121677118Y-73983250D01*
X121709643Y-73922400D01*
X121778499Y-73838499D01*
X121862400Y-73769643D01*
X121955448Y-73719908D01*
X121958121Y-73718479D01*
X122061985Y-73686973D01*
X122142933Y-73679000D01*
X122197067Y-73679000D01*
X122278015Y-73686973D01*
X122381879Y-73718479D01*
X122384552Y-73719908D01*
X122477600Y-73769643D01*
X122561501Y-73838499D01*
X122630357Y-73922400D01*
X122662882Y-73983250D01*
X122681521Y-74018121D01*
X122685388Y-74030869D01*
X122694760Y-74053496D01*
X122708374Y-74073870D01*
X122725701Y-74091197D01*
X122746075Y-74104811D01*
X122768714Y-74114188D01*
X122792747Y-74118969D01*
X122817251Y-74118969D01*
X122841285Y-74114189D01*
X122863924Y-74104812D01*
X122884298Y-74091198D01*
X122901625Y-74073871D01*
X122915239Y-74053497D01*
X122924612Y-74030869D01*
X122928479Y-74018121D01*
X122947118Y-73983250D01*
X122979643Y-73922400D01*
X123048499Y-73838499D01*
X123132400Y-73769643D01*
X123225448Y-73719908D01*
X123228121Y-73718479D01*
X123331985Y-73686973D01*
X123412933Y-73679000D01*
X123467067Y-73679000D01*
X123548015Y-73686973D01*
X123651879Y-73718479D01*
X123654552Y-73719908D01*
X123747600Y-73769643D01*
X123831501Y-73838499D01*
X123900357Y-73922400D01*
X123932882Y-73983250D01*
X123951521Y-74018121D01*
X123983027Y-74121985D01*
X123993666Y-74230000D01*
X123983027Y-74338015D01*
X123951521Y-74441879D01*
X123947094Y-74450161D01*
X123900357Y-74537600D01*
X123831501Y-74621501D01*
X123747600Y-74690357D01*
X123680916Y-74726000D01*
X123651879Y-74741521D01*
X123548015Y-74773027D01*
X123467067Y-74781000D01*
X123412933Y-74781000D01*
X123331985Y-74773027D01*
X123228121Y-74741521D01*
X123199084Y-74726000D01*
X123132400Y-74690357D01*
X123048499Y-74621501D01*
X122979643Y-74537600D01*
X122932906Y-74450161D01*
X122928479Y-74441879D01*
X122924612Y-74429131D01*
X122915240Y-74406504D01*
X122901626Y-74386130D01*
X122884299Y-74368803D01*
X122863925Y-74355189D01*
X122841286Y-74345812D01*
X122817253Y-74341031D01*
X122792749Y-74341031D01*
X122768715Y-74345811D01*
X122746076Y-74355188D01*
X122725702Y-74368802D01*
X122708375Y-74386129D01*
X122694761Y-74406503D01*
X122685388Y-74429131D01*
X122681521Y-74441879D01*
X122677094Y-74450161D01*
X122630357Y-74537600D01*
X122561501Y-74621501D01*
X122477600Y-74690357D01*
X122410916Y-74726000D01*
X122381879Y-74741521D01*
X122278015Y-74773027D01*
X122197067Y-74781000D01*
X122142933Y-74781000D01*
X122061985Y-74773027D01*
X121958121Y-74741521D01*
X121929084Y-74726000D01*
X121862400Y-74690357D01*
X121778499Y-74621501D01*
X121709643Y-74537600D01*
X121662906Y-74450161D01*
X121658479Y-74441879D01*
X121654612Y-74429131D01*
X121645240Y-74406504D01*
X121631626Y-74386130D01*
X121614299Y-74368803D01*
X121593925Y-74355189D01*
X121571286Y-74345812D01*
X121547253Y-74341031D01*
X121522749Y-74341031D01*
X121498715Y-74345811D01*
X121476076Y-74355188D01*
X121455702Y-74368802D01*
X121438375Y-74386129D01*
X121424761Y-74406503D01*
X121415388Y-74429131D01*
X121411521Y-74441879D01*
X121407094Y-74450161D01*
X121360357Y-74537600D01*
X121291501Y-74621501D01*
X121207600Y-74690357D01*
X121140916Y-74726000D01*
X121111879Y-74741521D01*
X121008015Y-74773027D01*
X120927067Y-74781000D01*
X120872933Y-74781000D01*
X120791985Y-74773027D01*
X120688121Y-74741521D01*
X120659084Y-74726000D01*
X120592400Y-74690357D01*
X120508499Y-74621501D01*
X120439643Y-74537600D01*
X120392906Y-74450161D01*
X120388479Y-74441879D01*
X120384612Y-74429131D01*
X120375240Y-74406504D01*
X120361626Y-74386130D01*
X120344299Y-74368803D01*
X120323925Y-74355189D01*
X120301286Y-74345812D01*
X120277253Y-74341031D01*
X120252749Y-74341031D01*
X120228715Y-74345811D01*
X120206076Y-74355188D01*
X120185702Y-74368802D01*
X120168375Y-74386129D01*
X120154761Y-74406503D01*
X120145388Y-74429131D01*
X120141521Y-74441879D01*
X120137094Y-74450161D01*
X120090357Y-74537600D01*
X120021501Y-74621501D01*
X119937600Y-74690357D01*
X119870916Y-74726000D01*
X119841879Y-74741521D01*
X119738015Y-74773027D01*
X119657067Y-74781000D01*
X119602933Y-74781000D01*
X119521985Y-74773027D01*
X119418121Y-74741521D01*
X119389084Y-74726000D01*
X119322400Y-74690357D01*
X119238499Y-74621501D01*
X119169645Y-74537601D01*
X119169644Y-74537600D01*
X119146236Y-74493807D01*
X119132625Y-74473437D01*
X119115298Y-74456110D01*
X119094924Y-74442496D01*
X119072285Y-74433119D01*
X119048252Y-74428338D01*
X119023748Y-74428338D01*
X118999714Y-74433118D01*
X118977076Y-74442495D01*
X118956701Y-74456109D01*
X118939374Y-74473436D01*
X118925760Y-74493810D01*
X118916383Y-74516449D01*
X118911602Y-74540482D01*
X118911000Y-74552735D01*
X118911000Y-74781000D01*
X117809000Y-74781000D01*
X117809000Y-73679000D01*
X118911000Y-73679000D01*
X118911000Y-73907265D01*
X118911000Y-73907265D01*
G37*
G36*
X127609591Y-73753085D02*
G01*
X127643569Y-73763393D01*
X127674890Y-73780134D01*
X127702339Y-73802661D01*
X127724866Y-73830110D01*
X127741607Y-73861431D01*
X127751915Y-73895409D01*
X127756000Y-73936890D01*
X127756000Y-74538110D01*
X127751915Y-74579591D01*
X127741607Y-74613569D01*
X127724866Y-74644890D01*
X127702339Y-74672339D01*
X127674890Y-74694866D01*
X127643569Y-74711607D01*
X127609591Y-74721915D01*
X127568110Y-74726000D01*
X126891890Y-74726000D01*
X126850409Y-74721915D01*
X126816431Y-74711607D01*
X126785110Y-74694866D01*
X126757661Y-74672339D01*
X126735134Y-74644890D01*
X126718393Y-74613569D01*
X126708085Y-74579591D01*
X126704000Y-74538110D01*
X126704000Y-73936890D01*
X126708085Y-73895409D01*
X126718393Y-73861431D01*
X126735134Y-73830110D01*
X126757661Y-73802661D01*
X126785110Y-73780134D01*
X126816431Y-73763393D01*
X126850409Y-73753085D01*
X126891890Y-73749000D01*
X127568110Y-73749000D01*
X127609591Y-73753085D01*
X127609591Y-73753085D01*
G37*
G36*
X125969591Y-73743085D02*
G01*
X126003569Y-73753393D01*
X126034890Y-73770134D01*
X126062339Y-73792661D01*
X126084866Y-73820110D01*
X126101607Y-73851431D01*
X126111915Y-73885409D01*
X126116000Y-73926890D01*
X126116000Y-74528110D01*
X126111915Y-74569591D01*
X126101607Y-74603569D01*
X126084866Y-74634890D01*
X126062339Y-74662339D01*
X126034890Y-74684866D01*
X126003569Y-74701607D01*
X125969591Y-74711915D01*
X125928110Y-74716000D01*
X125251890Y-74716000D01*
X125210409Y-74711915D01*
X125176431Y-74701607D01*
X125145110Y-74684866D01*
X125117661Y-74662339D01*
X125095134Y-74634890D01*
X125078393Y-74603569D01*
X125068085Y-74569591D01*
X125064000Y-74528110D01*
X125064000Y-73926890D01*
X125068085Y-73885409D01*
X125078393Y-73851431D01*
X125095134Y-73820110D01*
X125117661Y-73792661D01*
X125145110Y-73770134D01*
X125176431Y-73753393D01*
X125210409Y-73743085D01*
X125251890Y-73739000D01*
X125928110Y-73739000D01*
X125969591Y-73743085D01*
X125969591Y-73743085D01*
G37*
G36*
X141063648Y-73041319D02*
G01*
X141107182Y-73049978D01*
X141230206Y-73100936D01*
X141340925Y-73174916D01*
X141435084Y-73269075D01*
X141509064Y-73379794D01*
X141556473Y-73494250D01*
X141560022Y-73502819D01*
X141586000Y-73633418D01*
X141586000Y-73766582D01*
X141575267Y-73820539D01*
X141560022Y-73897182D01*
X141509064Y-74020206D01*
X141435084Y-74130925D01*
X141340925Y-74225084D01*
X141230206Y-74299064D01*
X141107182Y-74350022D01*
X141081693Y-74355092D01*
X140976582Y-74376000D01*
X140843418Y-74376000D01*
X140738307Y-74355092D01*
X140712818Y-74350022D01*
X140589794Y-74299064D01*
X140479075Y-74225084D01*
X140384916Y-74130925D01*
X140310936Y-74020206D01*
X140259978Y-73897182D01*
X140244733Y-73820539D01*
X140234000Y-73766582D01*
X140234000Y-73633418D01*
X140259978Y-73502819D01*
X140263527Y-73494250D01*
X140310936Y-73379794D01*
X140384916Y-73269075D01*
X140479075Y-73174916D01*
X140589794Y-73100936D01*
X140712818Y-73049978D01*
X140756352Y-73041319D01*
X140843418Y-73024000D01*
X140976582Y-73024000D01*
X141063648Y-73041319D01*
X141063648Y-73041319D01*
G37*
G36*
X139429591Y-72825585D02*
G01*
X139463569Y-72835893D01*
X139494890Y-72852634D01*
X139522339Y-72875161D01*
X139544866Y-72902610D01*
X139561607Y-72933931D01*
X139571915Y-72967909D01*
X139576000Y-73009390D01*
X139576000Y-73610610D01*
X139571915Y-73652091D01*
X139561607Y-73686069D01*
X139544866Y-73717390D01*
X139522339Y-73744839D01*
X139494890Y-73767366D01*
X139463569Y-73784107D01*
X139429591Y-73794415D01*
X139388110Y-73798500D01*
X138711890Y-73798500D01*
X138670409Y-73794415D01*
X138636431Y-73784107D01*
X138605110Y-73767366D01*
X138577661Y-73744839D01*
X138555134Y-73717390D01*
X138538393Y-73686069D01*
X138528085Y-73652091D01*
X138524000Y-73610610D01*
X138524000Y-73009390D01*
X138528085Y-72967909D01*
X138538393Y-72933931D01*
X138555134Y-72902610D01*
X138577661Y-72875161D01*
X138605110Y-72852634D01*
X138636431Y-72835893D01*
X138670409Y-72825585D01*
X138711890Y-72821500D01*
X139388110Y-72821500D01*
X139429591Y-72825585D01*
X139429591Y-72825585D01*
G37*
G36*
X137839591Y-72805585D02*
G01*
X137873569Y-72815893D01*
X137904890Y-72832634D01*
X137932339Y-72855161D01*
X137954866Y-72882610D01*
X137971607Y-72913931D01*
X137981915Y-72947909D01*
X137986000Y-72989390D01*
X137986000Y-73590610D01*
X137981915Y-73632091D01*
X137971607Y-73666069D01*
X137954866Y-73697390D01*
X137932339Y-73724839D01*
X137904890Y-73747366D01*
X137873569Y-73764107D01*
X137839591Y-73774415D01*
X137798110Y-73778500D01*
X137121890Y-73778500D01*
X137080409Y-73774415D01*
X137046431Y-73764107D01*
X137015110Y-73747366D01*
X136987661Y-73724839D01*
X136965134Y-73697390D01*
X136948393Y-73666069D01*
X136938085Y-73632091D01*
X136934000Y-73590610D01*
X136934000Y-72989390D01*
X136938085Y-72947909D01*
X136948393Y-72913931D01*
X136965134Y-72882610D01*
X136987661Y-72855161D01*
X137015110Y-72832634D01*
X137046431Y-72815893D01*
X137080409Y-72805585D01*
X137121890Y-72801500D01*
X137798110Y-72801500D01*
X137839591Y-72805585D01*
X137839591Y-72805585D01*
G37*
G36*
X129329591Y-72765585D02*
G01*
X129363569Y-72775893D01*
X129394890Y-72792634D01*
X129422339Y-72815161D01*
X129444866Y-72842610D01*
X129461607Y-72873931D01*
X129471915Y-72907909D01*
X129476000Y-72949390D01*
X129476000Y-73550610D01*
X129471915Y-73592091D01*
X129461607Y-73626069D01*
X129444866Y-73657390D01*
X129422339Y-73684839D01*
X129394890Y-73707366D01*
X129363569Y-73724107D01*
X129329591Y-73734415D01*
X129288110Y-73738500D01*
X128611890Y-73738500D01*
X128570409Y-73734415D01*
X128536431Y-73724107D01*
X128505110Y-73707366D01*
X128477661Y-73684839D01*
X128455134Y-73657390D01*
X128438393Y-73626069D01*
X128428085Y-73592091D01*
X128424000Y-73550610D01*
X128424000Y-72949390D01*
X128428085Y-72907909D01*
X128438393Y-72873931D01*
X128455134Y-72842610D01*
X128477661Y-72815161D01*
X128505110Y-72792634D01*
X128536431Y-72775893D01*
X128570409Y-72765585D01*
X128611890Y-72761500D01*
X129288110Y-72761500D01*
X129329591Y-72765585D01*
X129329591Y-72765585D01*
G37*
G36*
X131329591Y-72765585D02*
G01*
X131363569Y-72775893D01*
X131394890Y-72792634D01*
X131422339Y-72815161D01*
X131444866Y-72842610D01*
X131461607Y-72873931D01*
X131471915Y-72907909D01*
X131476000Y-72949390D01*
X131476000Y-73550610D01*
X131471915Y-73592091D01*
X131461607Y-73626069D01*
X131444866Y-73657390D01*
X131422339Y-73684839D01*
X131394890Y-73707366D01*
X131363569Y-73724107D01*
X131329591Y-73734415D01*
X131288110Y-73738500D01*
X130611890Y-73738500D01*
X130570409Y-73734415D01*
X130536431Y-73724107D01*
X130505110Y-73707366D01*
X130477661Y-73684839D01*
X130455134Y-73657390D01*
X130438393Y-73626069D01*
X130428085Y-73592091D01*
X130424000Y-73550610D01*
X130424000Y-72949390D01*
X130428085Y-72907909D01*
X130438393Y-72873931D01*
X130455134Y-72842610D01*
X130477661Y-72815161D01*
X130505110Y-72792634D01*
X130536431Y-72775893D01*
X130570409Y-72765585D01*
X130611890Y-72761500D01*
X131288110Y-72761500D01*
X131329591Y-72765585D01*
X131329591Y-72765585D01*
G37*
G36*
X133707091Y-72438085D02*
G01*
X133741069Y-72448393D01*
X133772390Y-72465134D01*
X133799839Y-72487661D01*
X133822366Y-72515110D01*
X133839107Y-72546431D01*
X133849415Y-72580409D01*
X133853500Y-72621890D01*
X133853500Y-73298110D01*
X133849415Y-73339591D01*
X133839107Y-73373569D01*
X133822366Y-73404890D01*
X133799839Y-73432339D01*
X133772390Y-73454866D01*
X133741069Y-73471607D01*
X133707091Y-73481915D01*
X133665610Y-73486000D01*
X133064390Y-73486000D01*
X133022909Y-73481915D01*
X132988931Y-73471607D01*
X132957610Y-73454866D01*
X132930161Y-73432339D01*
X132907634Y-73404890D01*
X132890893Y-73373569D01*
X132880585Y-73339591D01*
X132876500Y-73298110D01*
X132876500Y-72621890D01*
X132880585Y-72580409D01*
X132890893Y-72546431D01*
X132907634Y-72515110D01*
X132930161Y-72487661D01*
X132957610Y-72465134D01*
X132988931Y-72448393D01*
X133022909Y-72438085D01*
X133064390Y-72434000D01*
X133665610Y-72434000D01*
X133707091Y-72438085D01*
X133707091Y-72438085D01*
G37*
G36*
X135282091Y-72438085D02*
G01*
X135316069Y-72448393D01*
X135347390Y-72465134D01*
X135374839Y-72487661D01*
X135397366Y-72515110D01*
X135414107Y-72546431D01*
X135424415Y-72580409D01*
X135428500Y-72621890D01*
X135428500Y-73298110D01*
X135424415Y-73339591D01*
X135414107Y-73373569D01*
X135397366Y-73404890D01*
X135374839Y-73432339D01*
X135347390Y-73454866D01*
X135316069Y-73471607D01*
X135282091Y-73481915D01*
X135240610Y-73486000D01*
X134639390Y-73486000D01*
X134597909Y-73481915D01*
X134563931Y-73471607D01*
X134532610Y-73454866D01*
X134505161Y-73432339D01*
X134482634Y-73404890D01*
X134465893Y-73373569D01*
X134455585Y-73339591D01*
X134451500Y-73298110D01*
X134451500Y-72621890D01*
X134455585Y-72580409D01*
X134465893Y-72546431D01*
X134482634Y-72515110D01*
X134505161Y-72487661D01*
X134532610Y-72465134D01*
X134563931Y-72448393D01*
X134597909Y-72438085D01*
X134639390Y-72434000D01*
X135240610Y-72434000D01*
X135282091Y-72438085D01*
X135282091Y-72438085D01*
G37*
G36*
X127609591Y-72178085D02*
G01*
X127643569Y-72188393D01*
X127674890Y-72205134D01*
X127702339Y-72227661D01*
X127724866Y-72255110D01*
X127741607Y-72286431D01*
X127751915Y-72320409D01*
X127756000Y-72361890D01*
X127756000Y-72963110D01*
X127751915Y-73004591D01*
X127741607Y-73038569D01*
X127724866Y-73069890D01*
X127702339Y-73097339D01*
X127674890Y-73119866D01*
X127643569Y-73136607D01*
X127609591Y-73146915D01*
X127568110Y-73151000D01*
X126891890Y-73151000D01*
X126850409Y-73146915D01*
X126816431Y-73136607D01*
X126785110Y-73119866D01*
X126757661Y-73097339D01*
X126735134Y-73069890D01*
X126718393Y-73038569D01*
X126708085Y-73004591D01*
X126704000Y-72963110D01*
X126704000Y-72361890D01*
X126708085Y-72320409D01*
X126718393Y-72286431D01*
X126735134Y-72255110D01*
X126757661Y-72227661D01*
X126785110Y-72205134D01*
X126816431Y-72188393D01*
X126850409Y-72178085D01*
X126891890Y-72174000D01*
X127568110Y-72174000D01*
X127609591Y-72178085D01*
X127609591Y-72178085D01*
G37*
G36*
X125969591Y-72168085D02*
G01*
X126003569Y-72178393D01*
X126034890Y-72195134D01*
X126062339Y-72217661D01*
X126084866Y-72245110D01*
X126101607Y-72276431D01*
X126111915Y-72310409D01*
X126116000Y-72351890D01*
X126116000Y-72953110D01*
X126111915Y-72994591D01*
X126101607Y-73028569D01*
X126084866Y-73059890D01*
X126062339Y-73087339D01*
X126034890Y-73109866D01*
X126003569Y-73126607D01*
X125969591Y-73136915D01*
X125928110Y-73141000D01*
X125251890Y-73141000D01*
X125210409Y-73136915D01*
X125176431Y-73126607D01*
X125145110Y-73109866D01*
X125117661Y-73087339D01*
X125095134Y-73059890D01*
X125078393Y-73028569D01*
X125068085Y-72994591D01*
X125064000Y-72953110D01*
X125064000Y-72351890D01*
X125068085Y-72310409D01*
X125078393Y-72276431D01*
X125095134Y-72245110D01*
X125117661Y-72217661D01*
X125145110Y-72195134D01*
X125176431Y-72178393D01*
X125210409Y-72168085D01*
X125251890Y-72164000D01*
X125928110Y-72164000D01*
X125969591Y-72168085D01*
X125969591Y-72168085D01*
G37*
G36*
X139439591Y-71280585D02*
G01*
X139473569Y-71290893D01*
X139504890Y-71307634D01*
X139532339Y-71330161D01*
X139554866Y-71357610D01*
X139571607Y-71388931D01*
X139581915Y-71422909D01*
X139586000Y-71464390D01*
X139586000Y-72065610D01*
X139581915Y-72107091D01*
X139571607Y-72141069D01*
X139554866Y-72172390D01*
X139532339Y-72199839D01*
X139504890Y-72222366D01*
X139473569Y-72239107D01*
X139439591Y-72249415D01*
X139398110Y-72253500D01*
X138721890Y-72253500D01*
X138680409Y-72249415D01*
X138646431Y-72239107D01*
X138615110Y-72222366D01*
X138587661Y-72199839D01*
X138565134Y-72172390D01*
X138548393Y-72141069D01*
X138538085Y-72107091D01*
X138534000Y-72065610D01*
X138534000Y-71464390D01*
X138538085Y-71422909D01*
X138548393Y-71388931D01*
X138565134Y-71357610D01*
X138587661Y-71330161D01*
X138615110Y-71307634D01*
X138646431Y-71290893D01*
X138680409Y-71280585D01*
X138721890Y-71276500D01*
X139398110Y-71276500D01*
X139439591Y-71280585D01*
X139439591Y-71280585D01*
G37*
G36*
X137839591Y-71270585D02*
G01*
X137873569Y-71280893D01*
X137904890Y-71297634D01*
X137932339Y-71320161D01*
X137954866Y-71347610D01*
X137971607Y-71378931D01*
X137981915Y-71412909D01*
X137986000Y-71454390D01*
X137986000Y-72055610D01*
X137981915Y-72097091D01*
X137971607Y-72131069D01*
X137954866Y-72162390D01*
X137932339Y-72189839D01*
X137904890Y-72212366D01*
X137873569Y-72229107D01*
X137839591Y-72239415D01*
X137798110Y-72243500D01*
X137121890Y-72243500D01*
X137080409Y-72239415D01*
X137046431Y-72229107D01*
X137015110Y-72212366D01*
X136987661Y-72189839D01*
X136965134Y-72162390D01*
X136948393Y-72131069D01*
X136938085Y-72097091D01*
X136934000Y-72055610D01*
X136934000Y-71454390D01*
X136938085Y-71412909D01*
X136948393Y-71378931D01*
X136965134Y-71347610D01*
X136987661Y-71320161D01*
X137015110Y-71297634D01*
X137046431Y-71280893D01*
X137080409Y-71270585D01*
X137121890Y-71266500D01*
X137798110Y-71266500D01*
X137839591Y-71270585D01*
X137839591Y-71270585D01*
G37*
G36*
X136089591Y-70980585D02*
G01*
X136123569Y-70990893D01*
X136154890Y-71007634D01*
X136182339Y-71030161D01*
X136204866Y-71057610D01*
X136221607Y-71088931D01*
X136231915Y-71122909D01*
X136236000Y-71164390D01*
X136236000Y-71765610D01*
X136231915Y-71807091D01*
X136221607Y-71841069D01*
X136204866Y-71872390D01*
X136182339Y-71899839D01*
X136154890Y-71922366D01*
X136123569Y-71939107D01*
X136089591Y-71949415D01*
X136048110Y-71953500D01*
X135371890Y-71953500D01*
X135330409Y-71949415D01*
X135296431Y-71939107D01*
X135265110Y-71922366D01*
X135237661Y-71899839D01*
X135215134Y-71872390D01*
X135198393Y-71841069D01*
X135188085Y-71807091D01*
X135184000Y-71765610D01*
X135184000Y-71164390D01*
X135188085Y-71122909D01*
X135198393Y-71088931D01*
X135215134Y-71057610D01*
X135237661Y-71030161D01*
X135265110Y-71007634D01*
X135296431Y-70990893D01*
X135330409Y-70980585D01*
X135371890Y-70976500D01*
X136048110Y-70976500D01*
X136089591Y-70980585D01*
X136089591Y-70980585D01*
G37*
G36*
X119955295Y-66895323D02*
G01*
X119962310Y-66897451D01*
X119968776Y-66900908D01*
X119974442Y-66905558D01*
X119979092Y-66911224D01*
X119982549Y-66917690D01*
X119984677Y-66924705D01*
X119985603Y-66934109D01*
X119990383Y-66958142D01*
X119999761Y-66980781D01*
X120013374Y-67001155D01*
X120030701Y-67018482D01*
X120051076Y-67032096D01*
X120073715Y-67041474D01*
X120097748Y-67046254D01*
X120122252Y-67046254D01*
X120146285Y-67041474D01*
X120168924Y-67032096D01*
X120189298Y-67018483D01*
X120206625Y-67001156D01*
X120220239Y-66980781D01*
X120229617Y-66958142D01*
X120234397Y-66934109D01*
X120235323Y-66924705D01*
X120237451Y-66917690D01*
X120240908Y-66911224D01*
X120245558Y-66905558D01*
X120251224Y-66900908D01*
X120257690Y-66897451D01*
X120264705Y-66895323D01*
X120278140Y-66894000D01*
X120591860Y-66894000D01*
X120605295Y-66895323D01*
X120612310Y-66897451D01*
X120618776Y-66900908D01*
X120624442Y-66905558D01*
X120629092Y-66911224D01*
X120632549Y-66917690D01*
X120634677Y-66924705D01*
X120635603Y-66934109D01*
X120640383Y-66958142D01*
X120649761Y-66980781D01*
X120663374Y-67001155D01*
X120680701Y-67018482D01*
X120701076Y-67032096D01*
X120723715Y-67041474D01*
X120747748Y-67046254D01*
X120772252Y-67046254D01*
X120796285Y-67041474D01*
X120818924Y-67032096D01*
X120839298Y-67018483D01*
X120856625Y-67001156D01*
X120870239Y-66980781D01*
X120879617Y-66958142D01*
X120884397Y-66934109D01*
X120885323Y-66924705D01*
X120887451Y-66917690D01*
X120890908Y-66911224D01*
X120895558Y-66905558D01*
X120901224Y-66900908D01*
X120907690Y-66897451D01*
X120914705Y-66895323D01*
X120928140Y-66894000D01*
X121241860Y-66894000D01*
X121255295Y-66895323D01*
X121262310Y-66897451D01*
X121268776Y-66900908D01*
X121274442Y-66905558D01*
X121279092Y-66911224D01*
X121282549Y-66917690D01*
X121284677Y-66924705D01*
X121285603Y-66934109D01*
X121290383Y-66958142D01*
X121299761Y-66980781D01*
X121313374Y-67001155D01*
X121330701Y-67018482D01*
X121351076Y-67032096D01*
X121373715Y-67041474D01*
X121397748Y-67046254D01*
X121422252Y-67046254D01*
X121446285Y-67041474D01*
X121468924Y-67032096D01*
X121489298Y-67018483D01*
X121506625Y-67001156D01*
X121520239Y-66980781D01*
X121529617Y-66958142D01*
X121534397Y-66934109D01*
X121535323Y-66924705D01*
X121537451Y-66917690D01*
X121540908Y-66911224D01*
X121545558Y-66905558D01*
X121551224Y-66900908D01*
X121557690Y-66897451D01*
X121564705Y-66895323D01*
X121578140Y-66894000D01*
X121891860Y-66894000D01*
X121905295Y-66895323D01*
X121912310Y-66897451D01*
X121918776Y-66900908D01*
X121924442Y-66905558D01*
X121929092Y-66911224D01*
X121932549Y-66917690D01*
X121934677Y-66924705D01*
X121936000Y-66938140D01*
X121936000Y-67776859D01*
X121934959Y-67787427D01*
X121934959Y-67811931D01*
X121939739Y-67835964D01*
X121949116Y-67858603D01*
X121962730Y-67878978D01*
X121980057Y-67896305D01*
X122000431Y-67909919D01*
X122023073Y-67919297D01*
X122063483Y-67931555D01*
X122090623Y-67946062D01*
X122114414Y-67965586D01*
X122133938Y-67989377D01*
X122148445Y-68016517D01*
X122160703Y-68056927D01*
X122170080Y-68079566D01*
X122183693Y-68099941D01*
X122201020Y-68117268D01*
X122221394Y-68130882D01*
X122244033Y-68140260D01*
X122268066Y-68145041D01*
X122292573Y-68145041D01*
X122303141Y-68144000D01*
X123141860Y-68144000D01*
X123155295Y-68145323D01*
X123162310Y-68147451D01*
X123168776Y-68150908D01*
X123174442Y-68155558D01*
X123179092Y-68161224D01*
X123182549Y-68167690D01*
X123184677Y-68174705D01*
X123186000Y-68188140D01*
X123186000Y-68501860D01*
X123184677Y-68515295D01*
X123182549Y-68522310D01*
X123179092Y-68528776D01*
X123174442Y-68534442D01*
X123168776Y-68539092D01*
X123162310Y-68542549D01*
X123155295Y-68544677D01*
X123145891Y-68545603D01*
X123121858Y-68550383D01*
X123099219Y-68559761D01*
X123078845Y-68573374D01*
X123061518Y-68590701D01*
X123047904Y-68611076D01*
X123038526Y-68633715D01*
X123033746Y-68657748D01*
X123033746Y-68682252D01*
X123038526Y-68706285D01*
X123047904Y-68728924D01*
X123061517Y-68749298D01*
X123078844Y-68766625D01*
X123099219Y-68780239D01*
X123121858Y-68789617D01*
X123145891Y-68794397D01*
X123155295Y-68795323D01*
X123162310Y-68797451D01*
X123168776Y-68800908D01*
X123174442Y-68805558D01*
X123179092Y-68811224D01*
X123182549Y-68817690D01*
X123184677Y-68824705D01*
X123186000Y-68838140D01*
X123186000Y-69151860D01*
X123184677Y-69165295D01*
X123182549Y-69172310D01*
X123179092Y-69178776D01*
X123174442Y-69184442D01*
X123168776Y-69189092D01*
X123162310Y-69192549D01*
X123155295Y-69194677D01*
X123145891Y-69195603D01*
X123121858Y-69200383D01*
X123099219Y-69209761D01*
X123078845Y-69223374D01*
X123061518Y-69240701D01*
X123047904Y-69261076D01*
X123038526Y-69283715D01*
X123033746Y-69307748D01*
X123033746Y-69332252D01*
X123038526Y-69356285D01*
X123047904Y-69378924D01*
X123061517Y-69399298D01*
X123078844Y-69416625D01*
X123099219Y-69430239D01*
X123121858Y-69439617D01*
X123145891Y-69444397D01*
X123155295Y-69445323D01*
X123162310Y-69447451D01*
X123168776Y-69450908D01*
X123174442Y-69455558D01*
X123179092Y-69461224D01*
X123182549Y-69467690D01*
X123184677Y-69474705D01*
X123186000Y-69488140D01*
X123186000Y-69801860D01*
X123184677Y-69815295D01*
X123182549Y-69822310D01*
X123179092Y-69828776D01*
X123174442Y-69834442D01*
X123168776Y-69839092D01*
X123162310Y-69842549D01*
X123155295Y-69844677D01*
X123145891Y-69845603D01*
X123121858Y-69850383D01*
X123099219Y-69859761D01*
X123078845Y-69873374D01*
X123061518Y-69890701D01*
X123047904Y-69911076D01*
X123038526Y-69933715D01*
X123033746Y-69957748D01*
X123033746Y-69982252D01*
X123038526Y-70006285D01*
X123047904Y-70028924D01*
X123061517Y-70049298D01*
X123078844Y-70066625D01*
X123099219Y-70080239D01*
X123121858Y-70089617D01*
X123145891Y-70094397D01*
X123155295Y-70095323D01*
X123162310Y-70097451D01*
X123168776Y-70100908D01*
X123174442Y-70105558D01*
X123179092Y-70111224D01*
X123182549Y-70117690D01*
X123184677Y-70124705D01*
X123186000Y-70138140D01*
X123186000Y-70451860D01*
X123184677Y-70465295D01*
X123182549Y-70472310D01*
X123179092Y-70478776D01*
X123174442Y-70484442D01*
X123168776Y-70489092D01*
X123162310Y-70492549D01*
X123155295Y-70494677D01*
X123141860Y-70496000D01*
X122303141Y-70496000D01*
X122292573Y-70494959D01*
X122268069Y-70494959D01*
X122244036Y-70499739D01*
X122221397Y-70509116D01*
X122201022Y-70522730D01*
X122183695Y-70540057D01*
X122170081Y-70560431D01*
X122160703Y-70583073D01*
X122148445Y-70623483D01*
X122133938Y-70650623D01*
X122114414Y-70674414D01*
X122090623Y-70693938D01*
X122063483Y-70708445D01*
X122023073Y-70720703D01*
X122000434Y-70730080D01*
X121980059Y-70743693D01*
X121962732Y-70761020D01*
X121949118Y-70781394D01*
X121939740Y-70804033D01*
X121934959Y-70828066D01*
X121934959Y-70852573D01*
X121936000Y-70863141D01*
X121936000Y-71701860D01*
X121934677Y-71715295D01*
X121932549Y-71722310D01*
X121929092Y-71728776D01*
X121924442Y-71734442D01*
X121918776Y-71739092D01*
X121912310Y-71742549D01*
X121905295Y-71744677D01*
X121891860Y-71746000D01*
X121578140Y-71746000D01*
X121564705Y-71744677D01*
X121557690Y-71742549D01*
X121551224Y-71739092D01*
X121545558Y-71734442D01*
X121540908Y-71728776D01*
X121537451Y-71722310D01*
X121535323Y-71715295D01*
X121534397Y-71705891D01*
X121529617Y-71681858D01*
X121520239Y-71659219D01*
X121506626Y-71638845D01*
X121489299Y-71621518D01*
X121468924Y-71607904D01*
X121446285Y-71598526D01*
X121422252Y-71593746D01*
X121397748Y-71593746D01*
X121373715Y-71598526D01*
X121351076Y-71607904D01*
X121330702Y-71621517D01*
X121313375Y-71638844D01*
X121299761Y-71659219D01*
X121290383Y-71681858D01*
X121285603Y-71705891D01*
X121284677Y-71715295D01*
X121282549Y-71722310D01*
X121279092Y-71728776D01*
X121274442Y-71734442D01*
X121268776Y-71739092D01*
X121262310Y-71742549D01*
X121255295Y-71744677D01*
X121241860Y-71746000D01*
X120928140Y-71746000D01*
X120914705Y-71744677D01*
X120907690Y-71742549D01*
X120901224Y-71739092D01*
X120895558Y-71734442D01*
X120890908Y-71728776D01*
X120887451Y-71722310D01*
X120885323Y-71715295D01*
X120884397Y-71705891D01*
X120879617Y-71681858D01*
X120870239Y-71659219D01*
X120856626Y-71638845D01*
X120839299Y-71621518D01*
X120818924Y-71607904D01*
X120796285Y-71598526D01*
X120772252Y-71593746D01*
X120747748Y-71593746D01*
X120723715Y-71598526D01*
X120701076Y-71607904D01*
X120680702Y-71621517D01*
X120663375Y-71638844D01*
X120649761Y-71659219D01*
X120640383Y-71681858D01*
X120635603Y-71705891D01*
X120634677Y-71715295D01*
X120632549Y-71722310D01*
X120629092Y-71728776D01*
X120624442Y-71734442D01*
X120618776Y-71739092D01*
X120612310Y-71742549D01*
X120605295Y-71744677D01*
X120591860Y-71746000D01*
X120278140Y-71746000D01*
X120264705Y-71744677D01*
X120257690Y-71742549D01*
X120251224Y-71739092D01*
X120245558Y-71734442D01*
X120240908Y-71728776D01*
X120237451Y-71722310D01*
X120235323Y-71715295D01*
X120234397Y-71705891D01*
X120229617Y-71681858D01*
X120220239Y-71659219D01*
X120206626Y-71638845D01*
X120189299Y-71621518D01*
X120168924Y-71607904D01*
X120146285Y-71598526D01*
X120122252Y-71593746D01*
X120097748Y-71593746D01*
X120073715Y-71598526D01*
X120051076Y-71607904D01*
X120030702Y-71621517D01*
X120013375Y-71638844D01*
X119999761Y-71659219D01*
X119990383Y-71681858D01*
X119985603Y-71705891D01*
X119984677Y-71715295D01*
X119982549Y-71722310D01*
X119979092Y-71728776D01*
X119974442Y-71734442D01*
X119968776Y-71739092D01*
X119962310Y-71742549D01*
X119955295Y-71744677D01*
X119941860Y-71746000D01*
X119628140Y-71746000D01*
X119614705Y-71744677D01*
X119607690Y-71742549D01*
X119601224Y-71739092D01*
X119595558Y-71734442D01*
X119590908Y-71728776D01*
X119587451Y-71722310D01*
X119585323Y-71715295D01*
X119584000Y-71701860D01*
X119584000Y-70863141D01*
X119584488Y-70858178D01*
X119985512Y-70858178D01*
X119985596Y-70859036D01*
X119990362Y-70883072D01*
X119999726Y-70905717D01*
X120013328Y-70926099D01*
X120030645Y-70943436D01*
X120051012Y-70957062D01*
X120073645Y-70966452D01*
X120097675Y-70971247D01*
X120122179Y-70971261D01*
X120146215Y-70966495D01*
X120168860Y-70957131D01*
X120189242Y-70943529D01*
X120206579Y-70926212D01*
X120220205Y-70905845D01*
X120229595Y-70883212D01*
X120234404Y-70859036D01*
X120234488Y-70858178D01*
X120635512Y-70858178D01*
X120635596Y-70859036D01*
X120640362Y-70883072D01*
X120649726Y-70905717D01*
X120663328Y-70926099D01*
X120680645Y-70943436D01*
X120701012Y-70957062D01*
X120723645Y-70966452D01*
X120747675Y-70971247D01*
X120772179Y-70971261D01*
X120796215Y-70966495D01*
X120818860Y-70957131D01*
X120839242Y-70943529D01*
X120856579Y-70926212D01*
X120870205Y-70905845D01*
X120879595Y-70883212D01*
X120884404Y-70859036D01*
X120884488Y-70858178D01*
X121285512Y-70858178D01*
X121285596Y-70859036D01*
X121290362Y-70883072D01*
X121299726Y-70905717D01*
X121313328Y-70926099D01*
X121330645Y-70943436D01*
X121351012Y-70957062D01*
X121373645Y-70966452D01*
X121397675Y-70971247D01*
X121422179Y-70971261D01*
X121446215Y-70966495D01*
X121468860Y-70957131D01*
X121489242Y-70943529D01*
X121506579Y-70926212D01*
X121520205Y-70905845D01*
X121529595Y-70883212D01*
X121534404Y-70859036D01*
X121534488Y-70858178D01*
X121534474Y-70833674D01*
X121529679Y-70809644D01*
X121520289Y-70787011D01*
X121506663Y-70766644D01*
X121489326Y-70749327D01*
X121468944Y-70735725D01*
X121446299Y-70726361D01*
X121410084Y-70721000D01*
X121409916Y-70721000D01*
X121385530Y-70723402D01*
X121362081Y-70730515D01*
X121340470Y-70742066D01*
X121321528Y-70757611D01*
X121305983Y-70776553D01*
X121294432Y-70798164D01*
X121287319Y-70821613D01*
X121285512Y-70858178D01*
X120884488Y-70858178D01*
X120884474Y-70833674D01*
X120879679Y-70809644D01*
X120870289Y-70787011D01*
X120856663Y-70766644D01*
X120839326Y-70749327D01*
X120818944Y-70735725D01*
X120796299Y-70726361D01*
X120760084Y-70721000D01*
X120759916Y-70721000D01*
X120735530Y-70723402D01*
X120712081Y-70730515D01*
X120690470Y-70742066D01*
X120671528Y-70757611D01*
X120655983Y-70776553D01*
X120644432Y-70798164D01*
X120637319Y-70821613D01*
X120635512Y-70858178D01*
X120234488Y-70858178D01*
X120234474Y-70833674D01*
X120229679Y-70809644D01*
X120220289Y-70787011D01*
X120206663Y-70766644D01*
X120189326Y-70749327D01*
X120168944Y-70735725D01*
X120146299Y-70726361D01*
X120110084Y-70721000D01*
X120109916Y-70721000D01*
X120085530Y-70723402D01*
X120062081Y-70730515D01*
X120040470Y-70742066D01*
X120021528Y-70757611D01*
X120005983Y-70776553D01*
X119994432Y-70798164D01*
X119987319Y-70821613D01*
X119985512Y-70858178D01*
X119584488Y-70858178D01*
X119585041Y-70852573D01*
X119585041Y-70828069D01*
X119580261Y-70804036D01*
X119570884Y-70781397D01*
X119557270Y-70761022D01*
X119539943Y-70743695D01*
X119519569Y-70730081D01*
X119496927Y-70720703D01*
X119456517Y-70708445D01*
X119429377Y-70693938D01*
X119405586Y-70674414D01*
X119386062Y-70650623D01*
X119371555Y-70623483D01*
X119359297Y-70583073D01*
X119349920Y-70560434D01*
X119336307Y-70540059D01*
X119318980Y-70522732D01*
X119298606Y-70509118D01*
X119275967Y-70499740D01*
X119251934Y-70494959D01*
X119227427Y-70494959D01*
X119216859Y-70496000D01*
X118378140Y-70496000D01*
X118364705Y-70494677D01*
X118357690Y-70492549D01*
X118351224Y-70489092D01*
X118345558Y-70484442D01*
X118340908Y-70478776D01*
X118337451Y-70472310D01*
X118335323Y-70465295D01*
X118334000Y-70451860D01*
X118334000Y-70138140D01*
X118335323Y-70124705D01*
X118337451Y-70117690D01*
X118340908Y-70111224D01*
X118345558Y-70105558D01*
X118351224Y-70100908D01*
X118357690Y-70097451D01*
X118364705Y-70095323D01*
X118374109Y-70094397D01*
X118398142Y-70089617D01*
X118420781Y-70080239D01*
X118441155Y-70066626D01*
X118458482Y-70049299D01*
X118472096Y-70028924D01*
X118481474Y-70006285D01*
X118486254Y-69982252D01*
X118486254Y-69982179D01*
X119108739Y-69982179D01*
X119113505Y-70006215D01*
X119122869Y-70028860D01*
X119136471Y-70049242D01*
X119153788Y-70066579D01*
X119174155Y-70080205D01*
X119196788Y-70089595D01*
X119220964Y-70094404D01*
X119221822Y-70094488D01*
X119246326Y-70094474D01*
X119270356Y-70089679D01*
X119292989Y-70080289D01*
X119313356Y-70066663D01*
X119330673Y-70049326D01*
X119344275Y-70028944D01*
X119353639Y-70006299D01*
X119359000Y-69970084D01*
X119359000Y-69969916D01*
X122161000Y-69969916D01*
X122161000Y-69970084D01*
X122163402Y-69994470D01*
X122170515Y-70017919D01*
X122182066Y-70039530D01*
X122197611Y-70058472D01*
X122216553Y-70074017D01*
X122238164Y-70085568D01*
X122261613Y-70092681D01*
X122298178Y-70094488D01*
X122299036Y-70094404D01*
X122323072Y-70089638D01*
X122345717Y-70080274D01*
X122366099Y-70066672D01*
X122383436Y-70049355D01*
X122397062Y-70028988D01*
X122406452Y-70006355D01*
X122411247Y-69982325D01*
X122411261Y-69957821D01*
X122406495Y-69933785D01*
X122397131Y-69911140D01*
X122383529Y-69890758D01*
X122366212Y-69873421D01*
X122345845Y-69859795D01*
X122323212Y-69850405D01*
X122299036Y-69845596D01*
X122298178Y-69845512D01*
X122273674Y-69845526D01*
X122249644Y-69850321D01*
X122227011Y-69859711D01*
X122206644Y-69873337D01*
X122189327Y-69890674D01*
X122175725Y-69911056D01*
X122166361Y-69933701D01*
X122161000Y-69969916D01*
X119359000Y-69969916D01*
X119356598Y-69945530D01*
X119349485Y-69922081D01*
X119337934Y-69900470D01*
X119322389Y-69881528D01*
X119303447Y-69865983D01*
X119281836Y-69854432D01*
X119258387Y-69847319D01*
X119221822Y-69845512D01*
X119220964Y-69845596D01*
X119196928Y-69850362D01*
X119174283Y-69859726D01*
X119153901Y-69873328D01*
X119136564Y-69890645D01*
X119122938Y-69911012D01*
X119113548Y-69933645D01*
X119108753Y-69957675D01*
X119108739Y-69982179D01*
X118486254Y-69982179D01*
X118486254Y-69957748D01*
X118481474Y-69933715D01*
X118472096Y-69911076D01*
X118458483Y-69890702D01*
X118441156Y-69873375D01*
X118420781Y-69859761D01*
X118398142Y-69850383D01*
X118374109Y-69845603D01*
X118364705Y-69844677D01*
X118357690Y-69842549D01*
X118351224Y-69839092D01*
X118345558Y-69834442D01*
X118340908Y-69828776D01*
X118337451Y-69822310D01*
X118335323Y-69815295D01*
X118334000Y-69801860D01*
X118334000Y-69488140D01*
X118335323Y-69474705D01*
X118337451Y-69467690D01*
X118340908Y-69461224D01*
X118345558Y-69455558D01*
X118351224Y-69450908D01*
X118357690Y-69447451D01*
X118364705Y-69445323D01*
X118374109Y-69444397D01*
X118398142Y-69439617D01*
X118420781Y-69430239D01*
X118441155Y-69416626D01*
X118458482Y-69399299D01*
X118472096Y-69378924D01*
X118481474Y-69356285D01*
X118486254Y-69332252D01*
X118486254Y-69332179D01*
X119108739Y-69332179D01*
X119113505Y-69356215D01*
X119122869Y-69378860D01*
X119136471Y-69399242D01*
X119153788Y-69416579D01*
X119174155Y-69430205D01*
X119196788Y-69439595D01*
X119220964Y-69444404D01*
X119221822Y-69444488D01*
X119246326Y-69444474D01*
X119270356Y-69439679D01*
X119292989Y-69430289D01*
X119313356Y-69416663D01*
X119330673Y-69399326D01*
X119344275Y-69378944D01*
X119353639Y-69356299D01*
X119359000Y-69320084D01*
X119359000Y-69319916D01*
X122161000Y-69319916D01*
X122161000Y-69320084D01*
X122163402Y-69344470D01*
X122170515Y-69367919D01*
X122182066Y-69389530D01*
X122197611Y-69408472D01*
X122216553Y-69424017D01*
X122238164Y-69435568D01*
X122261613Y-69442681D01*
X122298178Y-69444488D01*
X122299036Y-69444404D01*
X122323072Y-69439638D01*
X122345717Y-69430274D01*
X122366099Y-69416672D01*
X122383436Y-69399355D01*
X122397062Y-69378988D01*
X122406452Y-69356355D01*
X122411247Y-69332325D01*
X122411261Y-69307821D01*
X122406495Y-69283785D01*
X122397131Y-69261140D01*
X122383529Y-69240758D01*
X122366212Y-69223421D01*
X122345845Y-69209795D01*
X122323212Y-69200405D01*
X122299036Y-69195596D01*
X122298178Y-69195512D01*
X122273674Y-69195526D01*
X122249644Y-69200321D01*
X122227011Y-69209711D01*
X122206644Y-69223337D01*
X122189327Y-69240674D01*
X122175725Y-69261056D01*
X122166361Y-69283701D01*
X122161000Y-69319916D01*
X119359000Y-69319916D01*
X119356598Y-69295530D01*
X119349485Y-69272081D01*
X119337934Y-69250470D01*
X119322389Y-69231528D01*
X119303447Y-69215983D01*
X119281836Y-69204432D01*
X119258387Y-69197319D01*
X119221822Y-69195512D01*
X119220964Y-69195596D01*
X119196928Y-69200362D01*
X119174283Y-69209726D01*
X119153901Y-69223328D01*
X119136564Y-69240645D01*
X119122938Y-69261012D01*
X119113548Y-69283645D01*
X119108753Y-69307675D01*
X119108739Y-69332179D01*
X118486254Y-69332179D01*
X118486254Y-69307748D01*
X118481474Y-69283715D01*
X118472096Y-69261076D01*
X118458483Y-69240702D01*
X118441156Y-69223375D01*
X118420781Y-69209761D01*
X118398142Y-69200383D01*
X118374109Y-69195603D01*
X118364705Y-69194677D01*
X118357690Y-69192549D01*
X118351224Y-69189092D01*
X118345558Y-69184442D01*
X118340908Y-69178776D01*
X118337451Y-69172310D01*
X118335323Y-69165295D01*
X118334000Y-69151860D01*
X118334000Y-68838140D01*
X118335323Y-68824705D01*
X118337451Y-68817690D01*
X118340908Y-68811224D01*
X118345558Y-68805558D01*
X118351224Y-68800908D01*
X118357690Y-68797451D01*
X118364705Y-68795323D01*
X118374109Y-68794397D01*
X118398142Y-68789617D01*
X118420781Y-68780239D01*
X118441155Y-68766626D01*
X118458482Y-68749299D01*
X118472096Y-68728924D01*
X118481474Y-68706285D01*
X118486254Y-68682252D01*
X118486254Y-68682179D01*
X119108739Y-68682179D01*
X119113505Y-68706215D01*
X119122869Y-68728860D01*
X119136471Y-68749242D01*
X119153788Y-68766579D01*
X119174155Y-68780205D01*
X119196788Y-68789595D01*
X119220964Y-68794404D01*
X119221822Y-68794488D01*
X119246326Y-68794474D01*
X119270356Y-68789679D01*
X119292989Y-68780289D01*
X119313356Y-68766663D01*
X119330673Y-68749326D01*
X119344275Y-68728944D01*
X119353639Y-68706299D01*
X119359000Y-68670084D01*
X119359000Y-68669916D01*
X122161000Y-68669916D01*
X122161000Y-68670084D01*
X122163402Y-68694470D01*
X122170515Y-68717919D01*
X122182066Y-68739530D01*
X122197611Y-68758472D01*
X122216553Y-68774017D01*
X122238164Y-68785568D01*
X122261613Y-68792681D01*
X122298178Y-68794488D01*
X122299036Y-68794404D01*
X122323072Y-68789638D01*
X122345717Y-68780274D01*
X122366099Y-68766672D01*
X122383436Y-68749355D01*
X122397062Y-68728988D01*
X122406452Y-68706355D01*
X122411247Y-68682325D01*
X122411261Y-68657821D01*
X122406495Y-68633785D01*
X122397131Y-68611140D01*
X122383529Y-68590758D01*
X122366212Y-68573421D01*
X122345845Y-68559795D01*
X122323212Y-68550405D01*
X122299036Y-68545596D01*
X122298178Y-68545512D01*
X122273674Y-68545526D01*
X122249644Y-68550321D01*
X122227011Y-68559711D01*
X122206644Y-68573337D01*
X122189327Y-68590674D01*
X122175725Y-68611056D01*
X122166361Y-68633701D01*
X122161000Y-68669916D01*
X119359000Y-68669916D01*
X119356598Y-68645530D01*
X119349485Y-68622081D01*
X119337934Y-68600470D01*
X119322389Y-68581528D01*
X119303447Y-68565983D01*
X119281836Y-68554432D01*
X119258387Y-68547319D01*
X119221822Y-68545512D01*
X119220964Y-68545596D01*
X119196928Y-68550362D01*
X119174283Y-68559726D01*
X119153901Y-68573328D01*
X119136564Y-68590645D01*
X119122938Y-68611012D01*
X119113548Y-68633645D01*
X119108753Y-68657675D01*
X119108739Y-68682179D01*
X118486254Y-68682179D01*
X118486254Y-68657748D01*
X118481474Y-68633715D01*
X118472096Y-68611076D01*
X118458483Y-68590702D01*
X118441156Y-68573375D01*
X118420781Y-68559761D01*
X118398142Y-68550383D01*
X118374109Y-68545603D01*
X118364705Y-68544677D01*
X118357690Y-68542549D01*
X118351224Y-68539092D01*
X118345558Y-68534442D01*
X118340908Y-68528776D01*
X118337451Y-68522310D01*
X118335323Y-68515295D01*
X118334000Y-68501860D01*
X118334000Y-68188140D01*
X118335323Y-68174705D01*
X118337451Y-68167690D01*
X118340908Y-68161224D01*
X118345558Y-68155558D01*
X118351224Y-68150908D01*
X118357690Y-68147451D01*
X118364705Y-68145323D01*
X118378140Y-68144000D01*
X119216859Y-68144000D01*
X119227427Y-68145041D01*
X119251931Y-68145041D01*
X119275964Y-68140261D01*
X119298603Y-68130884D01*
X119318978Y-68117270D01*
X119336305Y-68099943D01*
X119349919Y-68079569D01*
X119359297Y-68056927D01*
X119371555Y-68016517D01*
X119386062Y-67989377D01*
X119405586Y-67965586D01*
X119429377Y-67946062D01*
X119456517Y-67931555D01*
X119496927Y-67919297D01*
X119519566Y-67909920D01*
X119539941Y-67896307D01*
X119557268Y-67878980D01*
X119570882Y-67858606D01*
X119580260Y-67835967D01*
X119585041Y-67811934D01*
X119585041Y-67787427D01*
X119584489Y-67781822D01*
X119985512Y-67781822D01*
X119985526Y-67806326D01*
X119990321Y-67830356D01*
X119999711Y-67852989D01*
X120013337Y-67873356D01*
X120030674Y-67890673D01*
X120051056Y-67904275D01*
X120073701Y-67913639D01*
X120109916Y-67919000D01*
X120110084Y-67919000D01*
X120134470Y-67916598D01*
X120157919Y-67909485D01*
X120179530Y-67897934D01*
X120198472Y-67882389D01*
X120214017Y-67863447D01*
X120225568Y-67841836D01*
X120232681Y-67818387D01*
X120234488Y-67781822D01*
X120635512Y-67781822D01*
X120635526Y-67806326D01*
X120640321Y-67830356D01*
X120649711Y-67852989D01*
X120663337Y-67873356D01*
X120680674Y-67890673D01*
X120701056Y-67904275D01*
X120723701Y-67913639D01*
X120759916Y-67919000D01*
X120760084Y-67919000D01*
X120784470Y-67916598D01*
X120807919Y-67909485D01*
X120829530Y-67897934D01*
X120848472Y-67882389D01*
X120864017Y-67863447D01*
X120875568Y-67841836D01*
X120882681Y-67818387D01*
X120884488Y-67781822D01*
X121285512Y-67781822D01*
X121285526Y-67806326D01*
X121290321Y-67830356D01*
X121299711Y-67852989D01*
X121313337Y-67873356D01*
X121330674Y-67890673D01*
X121351056Y-67904275D01*
X121373701Y-67913639D01*
X121409916Y-67919000D01*
X121410084Y-67919000D01*
X121434470Y-67916598D01*
X121457919Y-67909485D01*
X121479530Y-67897934D01*
X121498472Y-67882389D01*
X121514017Y-67863447D01*
X121525568Y-67841836D01*
X121532681Y-67818387D01*
X121534488Y-67781822D01*
X121534404Y-67780964D01*
X121529638Y-67756928D01*
X121520274Y-67734283D01*
X121506672Y-67713901D01*
X121489355Y-67696564D01*
X121468988Y-67682938D01*
X121446355Y-67673548D01*
X121422325Y-67668753D01*
X121397821Y-67668739D01*
X121373785Y-67673505D01*
X121351140Y-67682869D01*
X121330758Y-67696471D01*
X121313421Y-67713788D01*
X121299795Y-67734155D01*
X121290405Y-67756788D01*
X121285596Y-67780964D01*
X121285512Y-67781822D01*
X120884488Y-67781822D01*
X120884404Y-67780964D01*
X120879638Y-67756928D01*
X120870274Y-67734283D01*
X120856672Y-67713901D01*
X120839355Y-67696564D01*
X120818988Y-67682938D01*
X120796355Y-67673548D01*
X120772325Y-67668753D01*
X120747821Y-67668739D01*
X120723785Y-67673505D01*
X120701140Y-67682869D01*
X120680758Y-67696471D01*
X120663421Y-67713788D01*
X120649795Y-67734155D01*
X120640405Y-67756788D01*
X120635596Y-67780964D01*
X120635512Y-67781822D01*
X120234488Y-67781822D01*
X120234404Y-67780964D01*
X120229638Y-67756928D01*
X120220274Y-67734283D01*
X120206672Y-67713901D01*
X120189355Y-67696564D01*
X120168988Y-67682938D01*
X120146355Y-67673548D01*
X120122325Y-67668753D01*
X120097821Y-67668739D01*
X120073785Y-67673505D01*
X120051140Y-67682869D01*
X120030758Y-67696471D01*
X120013421Y-67713788D01*
X119999795Y-67734155D01*
X119990405Y-67756788D01*
X119985596Y-67780964D01*
X119985512Y-67781822D01*
X119584489Y-67781822D01*
X119584000Y-67776859D01*
X119584000Y-66938140D01*
X119585323Y-66924705D01*
X119587451Y-66917690D01*
X119590908Y-66911224D01*
X119595558Y-66905558D01*
X119601224Y-66900908D01*
X119607690Y-66897451D01*
X119614705Y-66895323D01*
X119628140Y-66894000D01*
X119941860Y-66894000D01*
X119955295Y-66895323D01*
X119955295Y-66895323D01*
G37*
G36*
X140993648Y-70161319D02*
G01*
X141037182Y-70169978D01*
X141160206Y-70220936D01*
X141270925Y-70294916D01*
X141365084Y-70389075D01*
X141439064Y-70499794D01*
X141490022Y-70622818D01*
X141491093Y-70628204D01*
X141516000Y-70753418D01*
X141516000Y-70886582D01*
X141501967Y-70957131D01*
X141490022Y-71017182D01*
X141439064Y-71140206D01*
X141365084Y-71250925D01*
X141270925Y-71345084D01*
X141160206Y-71419064D01*
X141037182Y-71470022D01*
X140993648Y-71478681D01*
X140906582Y-71496000D01*
X140773418Y-71496000D01*
X140686352Y-71478681D01*
X140642818Y-71470022D01*
X140519794Y-71419064D01*
X140409075Y-71345084D01*
X140314916Y-71250925D01*
X140240936Y-71140206D01*
X140189978Y-71017182D01*
X140178033Y-70957131D01*
X140164000Y-70886582D01*
X140164000Y-70753418D01*
X140188907Y-70628204D01*
X140189978Y-70622818D01*
X140240936Y-70499794D01*
X140314916Y-70389075D01*
X140409075Y-70294916D01*
X140519794Y-70220936D01*
X140642818Y-70169978D01*
X140686352Y-70161319D01*
X140773418Y-70144000D01*
X140906582Y-70144000D01*
X140993648Y-70161319D01*
X140993648Y-70161319D01*
G37*
G36*
X129265355Y-65015083D02*
G01*
X129270029Y-65016501D01*
X129274330Y-65018800D01*
X129280702Y-65024029D01*
X129301076Y-65037643D01*
X129323715Y-65047020D01*
X129347749Y-65051800D01*
X129372253Y-65051800D01*
X129396286Y-65047019D01*
X129418925Y-65037642D01*
X129439298Y-65024029D01*
X129445670Y-65018800D01*
X129449971Y-65016501D01*
X129454645Y-65015083D01*
X129465641Y-65014000D01*
X129754359Y-65014000D01*
X129765355Y-65015083D01*
X129770029Y-65016501D01*
X129774330Y-65018800D01*
X129780702Y-65024029D01*
X129801076Y-65037643D01*
X129823715Y-65047020D01*
X129847749Y-65051800D01*
X129872253Y-65051800D01*
X129896286Y-65047019D01*
X129918925Y-65037642D01*
X129939298Y-65024029D01*
X129945670Y-65018800D01*
X129949971Y-65016501D01*
X129954645Y-65015083D01*
X129965641Y-65014000D01*
X130254359Y-65014000D01*
X130265355Y-65015083D01*
X130270029Y-65016501D01*
X130274330Y-65018800D01*
X130280702Y-65024029D01*
X130301076Y-65037643D01*
X130323715Y-65047020D01*
X130347749Y-65051800D01*
X130372253Y-65051800D01*
X130396286Y-65047019D01*
X130418925Y-65037642D01*
X130439298Y-65024029D01*
X130445670Y-65018800D01*
X130449971Y-65016501D01*
X130454645Y-65015083D01*
X130465641Y-65014000D01*
X130754359Y-65014000D01*
X130765355Y-65015083D01*
X130770029Y-65016501D01*
X130774330Y-65018800D01*
X130780702Y-65024029D01*
X130801076Y-65037643D01*
X130823715Y-65047020D01*
X130847749Y-65051800D01*
X130872253Y-65051800D01*
X130896286Y-65047019D01*
X130918925Y-65037642D01*
X130939298Y-65024029D01*
X130945670Y-65018800D01*
X130949971Y-65016501D01*
X130954645Y-65015083D01*
X130965641Y-65014000D01*
X131254359Y-65014000D01*
X131265355Y-65015083D01*
X131270029Y-65016501D01*
X131274330Y-65018800D01*
X131280702Y-65024029D01*
X131301076Y-65037643D01*
X131323715Y-65047020D01*
X131347749Y-65051800D01*
X131372253Y-65051800D01*
X131396286Y-65047019D01*
X131418925Y-65037642D01*
X131439298Y-65024029D01*
X131445670Y-65018800D01*
X131449971Y-65016501D01*
X131454645Y-65015083D01*
X131465641Y-65014000D01*
X131754359Y-65014000D01*
X131765355Y-65015083D01*
X131770029Y-65016501D01*
X131774330Y-65018800D01*
X131780702Y-65024029D01*
X131801076Y-65037643D01*
X131823715Y-65047020D01*
X131847749Y-65051800D01*
X131872253Y-65051800D01*
X131896286Y-65047019D01*
X131918925Y-65037642D01*
X131939298Y-65024029D01*
X131945670Y-65018800D01*
X131949971Y-65016501D01*
X131954645Y-65015083D01*
X131965641Y-65014000D01*
X132254359Y-65014000D01*
X132265355Y-65015083D01*
X132270029Y-65016501D01*
X132274330Y-65018800D01*
X132280702Y-65024029D01*
X132301076Y-65037643D01*
X132323715Y-65047020D01*
X132347749Y-65051800D01*
X132372253Y-65051800D01*
X132396286Y-65047019D01*
X132418925Y-65037642D01*
X132439298Y-65024029D01*
X132445670Y-65018800D01*
X132449971Y-65016501D01*
X132454645Y-65015083D01*
X132465641Y-65014000D01*
X132754359Y-65014000D01*
X132765355Y-65015083D01*
X132770029Y-65016501D01*
X132774331Y-65018800D01*
X132778104Y-65021896D01*
X132781200Y-65025669D01*
X132783499Y-65029971D01*
X132784917Y-65034645D01*
X132786000Y-65045641D01*
X132786000Y-65889001D01*
X132788402Y-65913387D01*
X132795515Y-65936836D01*
X132807066Y-65958447D01*
X132822611Y-65977389D01*
X132841553Y-65992934D01*
X132863164Y-66004485D01*
X132886613Y-66011598D01*
X132910999Y-66014000D01*
X133754359Y-66014000D01*
X133765355Y-66015083D01*
X133770029Y-66016501D01*
X133774331Y-66018800D01*
X133778104Y-66021896D01*
X133781200Y-66025669D01*
X133783499Y-66029971D01*
X133784917Y-66034645D01*
X133786000Y-66045641D01*
X133786000Y-66334359D01*
X133784917Y-66345355D01*
X133783499Y-66350029D01*
X133781200Y-66354330D01*
X133775971Y-66360702D01*
X133762357Y-66381076D01*
X133752980Y-66403715D01*
X133748200Y-66427749D01*
X133748200Y-66452253D01*
X133752981Y-66476286D01*
X133762358Y-66498925D01*
X133775971Y-66519298D01*
X133781200Y-66525670D01*
X133783499Y-66529971D01*
X133784917Y-66534645D01*
X133786000Y-66545641D01*
X133786000Y-66834359D01*
X133784917Y-66845355D01*
X133783499Y-66850029D01*
X133781200Y-66854330D01*
X133775971Y-66860702D01*
X133762357Y-66881076D01*
X133752980Y-66903715D01*
X133748200Y-66927749D01*
X133748200Y-66952253D01*
X133752981Y-66976286D01*
X133762358Y-66998925D01*
X133775971Y-67019298D01*
X133781200Y-67025670D01*
X133783499Y-67029971D01*
X133784917Y-67034645D01*
X133786000Y-67045641D01*
X133786000Y-67334359D01*
X133784917Y-67345355D01*
X133783499Y-67350029D01*
X133781200Y-67354330D01*
X133775971Y-67360702D01*
X133762357Y-67381076D01*
X133752980Y-67403715D01*
X133748200Y-67427749D01*
X133748200Y-67452253D01*
X133752981Y-67476286D01*
X133762358Y-67498925D01*
X133775971Y-67519298D01*
X133781200Y-67525670D01*
X133783499Y-67529971D01*
X133784917Y-67534645D01*
X133786000Y-67545641D01*
X133786000Y-67834359D01*
X133784917Y-67845355D01*
X133783499Y-67850029D01*
X133781200Y-67854330D01*
X133775971Y-67860702D01*
X133762357Y-67881076D01*
X133752980Y-67903715D01*
X133748200Y-67927749D01*
X133748200Y-67952253D01*
X133752981Y-67976286D01*
X133762358Y-67998925D01*
X133775971Y-68019298D01*
X133781200Y-68025670D01*
X133783499Y-68029971D01*
X133784917Y-68034645D01*
X133786000Y-68045641D01*
X133786000Y-68334359D01*
X133784917Y-68345355D01*
X133783499Y-68350029D01*
X133781200Y-68354330D01*
X133775971Y-68360702D01*
X133762357Y-68381076D01*
X133752980Y-68403715D01*
X133748200Y-68427749D01*
X133748200Y-68452253D01*
X133752981Y-68476286D01*
X133762358Y-68498925D01*
X133775971Y-68519298D01*
X133781200Y-68525670D01*
X133783499Y-68529971D01*
X133784917Y-68534645D01*
X133786000Y-68545641D01*
X133786000Y-68834359D01*
X133784917Y-68845355D01*
X133783499Y-68850029D01*
X133781200Y-68854330D01*
X133775971Y-68860702D01*
X133762357Y-68881076D01*
X133752980Y-68903715D01*
X133748200Y-68927749D01*
X133748200Y-68952253D01*
X133752981Y-68976286D01*
X133762358Y-68998925D01*
X133775971Y-69019298D01*
X133781200Y-69025670D01*
X133783499Y-69029971D01*
X133784917Y-69034645D01*
X133786000Y-69045641D01*
X133786000Y-69334359D01*
X133784917Y-69345355D01*
X133783499Y-69350029D01*
X133781200Y-69354330D01*
X133775971Y-69360702D01*
X133762357Y-69381076D01*
X133752980Y-69403715D01*
X133748200Y-69427749D01*
X133748200Y-69452253D01*
X133752981Y-69476286D01*
X133762358Y-69498925D01*
X133775971Y-69519298D01*
X133781200Y-69525670D01*
X133783499Y-69529971D01*
X133784917Y-69534645D01*
X133786000Y-69545641D01*
X133786000Y-69834359D01*
X133784917Y-69845355D01*
X133783499Y-69850029D01*
X133781200Y-69854331D01*
X133778104Y-69858104D01*
X133774331Y-69861200D01*
X133770029Y-69863499D01*
X133765355Y-69864917D01*
X133754359Y-69866000D01*
X132910999Y-69866000D01*
X132886613Y-69868402D01*
X132863164Y-69875515D01*
X132841553Y-69887066D01*
X132822611Y-69902611D01*
X132807066Y-69921553D01*
X132795515Y-69943164D01*
X132788402Y-69966613D01*
X132786000Y-69990999D01*
X132786000Y-70834359D01*
X132784917Y-70845355D01*
X132783499Y-70850029D01*
X132781200Y-70854331D01*
X132778104Y-70858104D01*
X132774331Y-70861200D01*
X132770029Y-70863499D01*
X132765355Y-70864917D01*
X132754359Y-70866000D01*
X132465641Y-70866000D01*
X132454645Y-70864917D01*
X132449971Y-70863499D01*
X132445670Y-70861200D01*
X132439298Y-70855971D01*
X132418924Y-70842357D01*
X132396285Y-70832980D01*
X132372251Y-70828200D01*
X132347747Y-70828200D01*
X132323714Y-70832981D01*
X132301075Y-70842358D01*
X132280702Y-70855971D01*
X132274330Y-70861200D01*
X132270029Y-70863499D01*
X132265355Y-70864917D01*
X132254359Y-70866000D01*
X131965641Y-70866000D01*
X131954645Y-70864917D01*
X131949971Y-70863499D01*
X131945670Y-70861200D01*
X131939298Y-70855971D01*
X131918924Y-70842357D01*
X131896285Y-70832980D01*
X131872251Y-70828200D01*
X131847747Y-70828200D01*
X131823714Y-70832981D01*
X131801075Y-70842358D01*
X131780702Y-70855971D01*
X131774330Y-70861200D01*
X131770029Y-70863499D01*
X131765355Y-70864917D01*
X131754359Y-70866000D01*
X131465641Y-70866000D01*
X131454645Y-70864917D01*
X131449971Y-70863499D01*
X131445670Y-70861200D01*
X131439298Y-70855971D01*
X131418924Y-70842357D01*
X131396285Y-70832980D01*
X131372251Y-70828200D01*
X131347747Y-70828200D01*
X131323714Y-70832981D01*
X131301075Y-70842358D01*
X131280702Y-70855971D01*
X131274330Y-70861200D01*
X131270029Y-70863499D01*
X131265355Y-70864917D01*
X131254359Y-70866000D01*
X130965641Y-70866000D01*
X130954645Y-70864917D01*
X130949971Y-70863499D01*
X130945670Y-70861200D01*
X130939298Y-70855971D01*
X130918924Y-70842357D01*
X130896285Y-70832980D01*
X130872251Y-70828200D01*
X130847747Y-70828200D01*
X130823714Y-70832981D01*
X130801075Y-70842358D01*
X130780702Y-70855971D01*
X130774330Y-70861200D01*
X130770029Y-70863499D01*
X130765355Y-70864917D01*
X130754359Y-70866000D01*
X130465641Y-70866000D01*
X130454645Y-70864917D01*
X130449971Y-70863499D01*
X130445670Y-70861200D01*
X130439298Y-70855971D01*
X130418924Y-70842357D01*
X130396285Y-70832980D01*
X130372251Y-70828200D01*
X130347747Y-70828200D01*
X130323714Y-70832981D01*
X130301075Y-70842358D01*
X130280702Y-70855971D01*
X130274330Y-70861200D01*
X130270029Y-70863499D01*
X130265355Y-70864917D01*
X130254359Y-70866000D01*
X129965641Y-70866000D01*
X129954645Y-70864917D01*
X129949971Y-70863499D01*
X129945670Y-70861200D01*
X129939298Y-70855971D01*
X129918924Y-70842357D01*
X129896285Y-70832980D01*
X129872251Y-70828200D01*
X129847747Y-70828200D01*
X129823714Y-70832981D01*
X129801075Y-70842358D01*
X129780702Y-70855971D01*
X129774330Y-70861200D01*
X129770029Y-70863499D01*
X129765355Y-70864917D01*
X129754359Y-70866000D01*
X129465641Y-70866000D01*
X129454645Y-70864917D01*
X129449971Y-70863499D01*
X129445670Y-70861200D01*
X129439298Y-70855971D01*
X129418924Y-70842357D01*
X129396285Y-70832980D01*
X129372251Y-70828200D01*
X129347747Y-70828200D01*
X129323714Y-70832981D01*
X129301075Y-70842358D01*
X129280702Y-70855971D01*
X129274330Y-70861200D01*
X129270029Y-70863499D01*
X129265355Y-70864917D01*
X129254359Y-70866000D01*
X128965641Y-70866000D01*
X128954645Y-70864917D01*
X128949971Y-70863499D01*
X128945669Y-70861200D01*
X128941896Y-70858104D01*
X128938800Y-70854331D01*
X128936501Y-70850029D01*
X128935083Y-70845355D01*
X128934000Y-70834359D01*
X128934000Y-69990999D01*
X128931598Y-69966613D01*
X128924485Y-69943164D01*
X128912934Y-69921553D01*
X128897389Y-69902611D01*
X128878447Y-69887066D01*
X128856836Y-69875515D01*
X128833387Y-69868402D01*
X128809001Y-69866000D01*
X127965641Y-69866000D01*
X127954645Y-69864917D01*
X127949971Y-69863499D01*
X127945669Y-69861200D01*
X127941896Y-69858104D01*
X127938800Y-69854331D01*
X127936501Y-69850029D01*
X127935083Y-69845355D01*
X127934000Y-69834359D01*
X127934000Y-69545641D01*
X127935083Y-69534645D01*
X127936501Y-69529971D01*
X127938800Y-69525670D01*
X127944029Y-69519298D01*
X127957643Y-69498924D01*
X127967020Y-69476285D01*
X127971800Y-69452251D01*
X127971800Y-69427747D01*
X127967019Y-69403714D01*
X127957642Y-69381075D01*
X127944029Y-69360702D01*
X127938800Y-69354330D01*
X127936501Y-69350029D01*
X127935083Y-69345355D01*
X127934000Y-69334359D01*
X127934000Y-69045641D01*
X127935083Y-69034645D01*
X127936501Y-69029971D01*
X127938800Y-69025670D01*
X127944029Y-69019298D01*
X127957643Y-68998924D01*
X127967020Y-68976285D01*
X127971800Y-68952251D01*
X127971800Y-68927747D01*
X127967019Y-68903714D01*
X127957642Y-68881075D01*
X127944029Y-68860702D01*
X127938800Y-68854330D01*
X127936501Y-68850029D01*
X127935083Y-68845355D01*
X127934000Y-68834359D01*
X127934000Y-68545641D01*
X127935083Y-68534645D01*
X127936501Y-68529971D01*
X127938800Y-68525670D01*
X127944029Y-68519298D01*
X127957643Y-68498924D01*
X127967020Y-68476285D01*
X127971800Y-68452251D01*
X127971800Y-68427747D01*
X127967019Y-68403714D01*
X127957642Y-68381075D01*
X127944029Y-68360702D01*
X127938800Y-68354330D01*
X127936501Y-68350029D01*
X127935083Y-68345355D01*
X127934000Y-68334359D01*
X127934000Y-68045641D01*
X127935083Y-68034645D01*
X127936501Y-68029971D01*
X127938800Y-68025670D01*
X127944029Y-68019298D01*
X127957643Y-67998924D01*
X127967020Y-67976285D01*
X127971800Y-67952251D01*
X127971800Y-67927747D01*
X127967019Y-67903714D01*
X127957642Y-67881075D01*
X127944029Y-67860702D01*
X127938800Y-67854330D01*
X127936501Y-67850029D01*
X127935083Y-67845355D01*
X127934000Y-67834359D01*
X127934000Y-67545641D01*
X127935083Y-67534645D01*
X127936501Y-67529971D01*
X127938800Y-67525670D01*
X127944029Y-67519298D01*
X127957643Y-67498924D01*
X127967020Y-67476285D01*
X127971800Y-67452251D01*
X127971800Y-67427747D01*
X127967019Y-67403714D01*
X127957642Y-67381075D01*
X127944029Y-67360702D01*
X127938800Y-67354330D01*
X127936501Y-67350029D01*
X127935083Y-67345355D01*
X127934000Y-67334359D01*
X127934000Y-67045641D01*
X127935083Y-67034645D01*
X127936501Y-67029971D01*
X127938800Y-67025670D01*
X127944029Y-67019298D01*
X127957643Y-66998924D01*
X127967020Y-66976285D01*
X127971800Y-66952251D01*
X127971800Y-66927747D01*
X127967019Y-66903714D01*
X127957642Y-66881075D01*
X127944029Y-66860702D01*
X127938800Y-66854330D01*
X127936501Y-66850029D01*
X127935083Y-66845355D01*
X127934000Y-66834359D01*
X127934000Y-66545641D01*
X127935083Y-66534645D01*
X127936501Y-66529971D01*
X127938800Y-66525670D01*
X127944029Y-66519298D01*
X127957643Y-66498924D01*
X127967020Y-66476285D01*
X127971800Y-66452251D01*
X127971800Y-66427749D01*
X128873200Y-66427749D01*
X128873200Y-66452253D01*
X128877981Y-66476286D01*
X128887358Y-66498925D01*
X128900971Y-66519298D01*
X128906200Y-66525670D01*
X128908499Y-66529971D01*
X128909917Y-66534645D01*
X128911000Y-66545641D01*
X128911000Y-66834359D01*
X128909917Y-66845355D01*
X128908499Y-66850029D01*
X128906200Y-66854330D01*
X128900971Y-66860702D01*
X128887357Y-66881076D01*
X128877980Y-66903715D01*
X128873200Y-66927749D01*
X128873200Y-66952253D01*
X128877981Y-66976286D01*
X128887358Y-66998925D01*
X128900971Y-67019298D01*
X128906200Y-67025670D01*
X128908499Y-67029971D01*
X128909917Y-67034645D01*
X128911000Y-67045641D01*
X128911000Y-67334359D01*
X128909917Y-67345355D01*
X128908499Y-67350029D01*
X128906200Y-67354330D01*
X128900971Y-67360702D01*
X128887357Y-67381076D01*
X128877980Y-67403715D01*
X128873200Y-67427749D01*
X128873200Y-67452253D01*
X128877981Y-67476286D01*
X128887358Y-67498925D01*
X128900971Y-67519298D01*
X128906200Y-67525670D01*
X128908499Y-67529971D01*
X128909917Y-67534645D01*
X128911000Y-67545641D01*
X128911000Y-67834359D01*
X128909917Y-67845355D01*
X128908499Y-67850029D01*
X128906200Y-67854330D01*
X128900971Y-67860702D01*
X128887357Y-67881076D01*
X128877980Y-67903715D01*
X128873200Y-67927749D01*
X128873200Y-67952253D01*
X128877981Y-67976286D01*
X128887358Y-67998925D01*
X128900971Y-68019298D01*
X128906200Y-68025670D01*
X128908499Y-68029971D01*
X128909917Y-68034645D01*
X128911000Y-68045641D01*
X128911000Y-68334359D01*
X128909917Y-68345355D01*
X128908499Y-68350029D01*
X128906200Y-68354330D01*
X128900971Y-68360702D01*
X128887357Y-68381076D01*
X128877980Y-68403715D01*
X128873200Y-68427749D01*
X128873200Y-68452253D01*
X128877981Y-68476286D01*
X128887358Y-68498925D01*
X128900971Y-68519298D01*
X128906200Y-68525670D01*
X128908499Y-68529971D01*
X128909917Y-68534645D01*
X128911000Y-68545641D01*
X128911000Y-68834359D01*
X128909917Y-68845355D01*
X128908499Y-68850029D01*
X128906200Y-68854330D01*
X128900971Y-68860702D01*
X128887357Y-68881076D01*
X128877980Y-68903715D01*
X128873200Y-68927749D01*
X128873200Y-68952253D01*
X128877981Y-68976286D01*
X128887358Y-68998925D01*
X128900971Y-69019298D01*
X128906200Y-69025670D01*
X128908499Y-69029971D01*
X128909917Y-69034645D01*
X128911000Y-69045641D01*
X128911000Y-69334359D01*
X128909917Y-69345355D01*
X128908499Y-69350029D01*
X128906200Y-69354330D01*
X128900971Y-69360702D01*
X128887357Y-69381076D01*
X128877980Y-69403715D01*
X128873200Y-69427749D01*
X128873200Y-69452253D01*
X128877981Y-69476286D01*
X128887358Y-69498925D01*
X128900971Y-69519298D01*
X128906200Y-69525670D01*
X128908499Y-69529971D01*
X128909917Y-69534645D01*
X128911000Y-69545641D01*
X128911000Y-69764001D01*
X128913402Y-69788387D01*
X128920515Y-69811836D01*
X128932066Y-69833447D01*
X128947611Y-69852389D01*
X128966553Y-69867934D01*
X128988164Y-69879485D01*
X129011613Y-69886598D01*
X129035999Y-69889000D01*
X129254359Y-69889000D01*
X129265355Y-69890083D01*
X129270029Y-69891501D01*
X129274330Y-69893800D01*
X129280702Y-69899029D01*
X129301076Y-69912643D01*
X129323715Y-69922020D01*
X129347749Y-69926800D01*
X129372253Y-69926800D01*
X129396286Y-69922019D01*
X129418925Y-69912642D01*
X129439298Y-69899029D01*
X129445670Y-69893800D01*
X129449971Y-69891501D01*
X129454645Y-69890083D01*
X129465641Y-69889000D01*
X129754359Y-69889000D01*
X129765355Y-69890083D01*
X129770029Y-69891501D01*
X129774330Y-69893800D01*
X129780702Y-69899029D01*
X129801076Y-69912643D01*
X129823715Y-69922020D01*
X129847749Y-69926800D01*
X129872253Y-69926800D01*
X129896286Y-69922019D01*
X129918925Y-69912642D01*
X129939298Y-69899029D01*
X129945670Y-69893800D01*
X129949971Y-69891501D01*
X129954645Y-69890083D01*
X129965641Y-69889000D01*
X130254359Y-69889000D01*
X130265355Y-69890083D01*
X130270029Y-69891501D01*
X130274330Y-69893800D01*
X130280702Y-69899029D01*
X130301076Y-69912643D01*
X130323715Y-69922020D01*
X130347749Y-69926800D01*
X130372253Y-69926800D01*
X130396286Y-69922019D01*
X130418925Y-69912642D01*
X130439298Y-69899029D01*
X130445670Y-69893800D01*
X130449971Y-69891501D01*
X130454645Y-69890083D01*
X130465641Y-69889000D01*
X130754359Y-69889000D01*
X130765355Y-69890083D01*
X130770029Y-69891501D01*
X130774330Y-69893800D01*
X130780702Y-69899029D01*
X130801076Y-69912643D01*
X130823715Y-69922020D01*
X130847749Y-69926800D01*
X130872253Y-69926800D01*
X130896286Y-69922019D01*
X130918925Y-69912642D01*
X130939298Y-69899029D01*
X130945670Y-69893800D01*
X130949971Y-69891501D01*
X130954645Y-69890083D01*
X130965641Y-69889000D01*
X131254359Y-69889000D01*
X131265355Y-69890083D01*
X131270029Y-69891501D01*
X131274330Y-69893800D01*
X131280702Y-69899029D01*
X131301076Y-69912643D01*
X131323715Y-69922020D01*
X131347749Y-69926800D01*
X131372253Y-69926800D01*
X131396286Y-69922019D01*
X131418925Y-69912642D01*
X131439298Y-69899029D01*
X131445670Y-69893800D01*
X131449971Y-69891501D01*
X131454645Y-69890083D01*
X131465641Y-69889000D01*
X131754359Y-69889000D01*
X131765355Y-69890083D01*
X131770029Y-69891501D01*
X131774330Y-69893800D01*
X131780702Y-69899029D01*
X131801076Y-69912643D01*
X131823715Y-69922020D01*
X131847749Y-69926800D01*
X131872253Y-69926800D01*
X131896286Y-69922019D01*
X131918925Y-69912642D01*
X131939298Y-69899029D01*
X131945670Y-69893800D01*
X131949971Y-69891501D01*
X131954645Y-69890083D01*
X131965641Y-69889000D01*
X132254359Y-69889000D01*
X132265355Y-69890083D01*
X132270029Y-69891501D01*
X132274330Y-69893800D01*
X132280702Y-69899029D01*
X132301076Y-69912643D01*
X132323715Y-69922020D01*
X132347749Y-69926800D01*
X132372253Y-69926800D01*
X132396286Y-69922019D01*
X132418925Y-69912642D01*
X132439298Y-69899029D01*
X132445670Y-69893800D01*
X132449971Y-69891501D01*
X132454645Y-69890083D01*
X132465641Y-69889000D01*
X132684001Y-69889000D01*
X132708387Y-69886598D01*
X132731836Y-69879485D01*
X132753447Y-69867934D01*
X132772389Y-69852389D01*
X132787934Y-69833447D01*
X132799485Y-69811836D01*
X132806598Y-69788387D01*
X132809000Y-69764001D01*
X132809000Y-69545641D01*
X132810083Y-69534645D01*
X132811501Y-69529971D01*
X132813800Y-69525670D01*
X132819029Y-69519298D01*
X132832643Y-69498924D01*
X132842020Y-69476285D01*
X132846800Y-69452251D01*
X132846800Y-69427747D01*
X132842019Y-69403714D01*
X132832642Y-69381075D01*
X132819029Y-69360702D01*
X132813800Y-69354330D01*
X132811501Y-69350029D01*
X132810083Y-69345355D01*
X132809000Y-69334359D01*
X132809000Y-69045641D01*
X132810083Y-69034645D01*
X132811501Y-69029971D01*
X132813800Y-69025670D01*
X132819029Y-69019298D01*
X132832643Y-68998924D01*
X132842020Y-68976285D01*
X132846800Y-68952251D01*
X132846800Y-68927747D01*
X132842019Y-68903714D01*
X132832642Y-68881075D01*
X132819029Y-68860702D01*
X132813800Y-68854330D01*
X132811501Y-68850029D01*
X132810083Y-68845355D01*
X132809000Y-68834359D01*
X132809000Y-68545641D01*
X132810083Y-68534645D01*
X132811501Y-68529971D01*
X132813800Y-68525670D01*
X132819029Y-68519298D01*
X132832643Y-68498924D01*
X132842020Y-68476285D01*
X132846800Y-68452251D01*
X132846800Y-68427747D01*
X132842019Y-68403714D01*
X132832642Y-68381075D01*
X132819029Y-68360702D01*
X132813800Y-68354330D01*
X132811501Y-68350029D01*
X132810083Y-68345355D01*
X132809000Y-68334359D01*
X132809000Y-68045641D01*
X132810083Y-68034645D01*
X132811501Y-68029971D01*
X132813800Y-68025670D01*
X132819029Y-68019298D01*
X132832643Y-67998924D01*
X132842020Y-67976285D01*
X132846800Y-67952251D01*
X132846800Y-67927747D01*
X132842019Y-67903714D01*
X132832642Y-67881075D01*
X132819029Y-67860702D01*
X132813800Y-67854330D01*
X132811501Y-67850029D01*
X132810083Y-67845355D01*
X132809000Y-67834359D01*
X132809000Y-67545641D01*
X132810083Y-67534645D01*
X132811501Y-67529971D01*
X132813800Y-67525670D01*
X132819029Y-67519298D01*
X132832643Y-67498924D01*
X132842020Y-67476285D01*
X132846800Y-67452251D01*
X132846800Y-67427747D01*
X132842019Y-67403714D01*
X132832642Y-67381075D01*
X132819029Y-67360702D01*
X132813800Y-67354330D01*
X132811501Y-67350029D01*
X132810083Y-67345355D01*
X132809000Y-67334359D01*
X132809000Y-67045641D01*
X132810083Y-67034645D01*
X132811501Y-67029971D01*
X132813800Y-67025670D01*
X132819029Y-67019298D01*
X132832643Y-66998924D01*
X132842020Y-66976285D01*
X132846800Y-66952251D01*
X132846800Y-66927747D01*
X132842019Y-66903714D01*
X132832642Y-66881075D01*
X132819029Y-66860702D01*
X132813800Y-66854330D01*
X132811501Y-66850029D01*
X132810083Y-66845355D01*
X132809000Y-66834359D01*
X132809000Y-66545641D01*
X132810083Y-66534645D01*
X132811501Y-66529971D01*
X132813800Y-66525670D01*
X132819029Y-66519298D01*
X132832643Y-66498924D01*
X132842020Y-66476285D01*
X132846800Y-66452251D01*
X132846800Y-66427747D01*
X132842019Y-66403714D01*
X132832642Y-66381075D01*
X132819029Y-66360702D01*
X132813800Y-66354330D01*
X132811501Y-66350029D01*
X132810083Y-66345355D01*
X132809000Y-66334359D01*
X132809000Y-66115999D01*
X132806598Y-66091613D01*
X132799485Y-66068164D01*
X132787934Y-66046553D01*
X132772389Y-66027611D01*
X132753447Y-66012066D01*
X132731836Y-66000515D01*
X132708387Y-65993402D01*
X132684001Y-65991000D01*
X132465641Y-65991000D01*
X132454645Y-65989917D01*
X132449971Y-65988499D01*
X132445670Y-65986200D01*
X132439298Y-65980971D01*
X132418924Y-65967357D01*
X132396285Y-65957980D01*
X132372251Y-65953200D01*
X132347747Y-65953200D01*
X132323714Y-65957981D01*
X132301075Y-65967358D01*
X132280702Y-65980971D01*
X132274330Y-65986200D01*
X132270029Y-65988499D01*
X132265355Y-65989917D01*
X132254359Y-65991000D01*
X131965641Y-65991000D01*
X131954645Y-65989917D01*
X131949971Y-65988499D01*
X131945670Y-65986200D01*
X131939298Y-65980971D01*
X131918924Y-65967357D01*
X131896285Y-65957980D01*
X131872251Y-65953200D01*
X131847747Y-65953200D01*
X131823714Y-65957981D01*
X131801075Y-65967358D01*
X131780702Y-65980971D01*
X131774330Y-65986200D01*
X131770029Y-65988499D01*
X131765355Y-65989917D01*
X131754359Y-65991000D01*
X131465641Y-65991000D01*
X131454645Y-65989917D01*
X131449971Y-65988499D01*
X131445670Y-65986200D01*
X131439298Y-65980971D01*
X131418924Y-65967357D01*
X131396285Y-65957980D01*
X131372251Y-65953200D01*
X131347747Y-65953200D01*
X131323714Y-65957981D01*
X131301075Y-65967358D01*
X131280702Y-65980971D01*
X131274330Y-65986200D01*
X131270029Y-65988499D01*
X131265355Y-65989917D01*
X131254359Y-65991000D01*
X130965641Y-65991000D01*
X130954645Y-65989917D01*
X130949971Y-65988499D01*
X130945670Y-65986200D01*
X130939298Y-65980971D01*
X130918924Y-65967357D01*
X130896285Y-65957980D01*
X130872251Y-65953200D01*
X130847747Y-65953200D01*
X130823714Y-65957981D01*
X130801075Y-65967358D01*
X130780702Y-65980971D01*
X130774330Y-65986200D01*
X130770029Y-65988499D01*
X130765355Y-65989917D01*
X130754359Y-65991000D01*
X130465641Y-65991000D01*
X130454645Y-65989917D01*
X130449971Y-65988499D01*
X130445670Y-65986200D01*
X130439298Y-65980971D01*
X130418924Y-65967357D01*
X130396285Y-65957980D01*
X130372251Y-65953200D01*
X130347747Y-65953200D01*
X130323714Y-65957981D01*
X130301075Y-65967358D01*
X130280702Y-65980971D01*
X130274330Y-65986200D01*
X130270029Y-65988499D01*
X130265355Y-65989917D01*
X130254359Y-65991000D01*
X129965641Y-65991000D01*
X129954645Y-65989917D01*
X129949971Y-65988499D01*
X129945670Y-65986200D01*
X129939298Y-65980971D01*
X129918924Y-65967357D01*
X129896285Y-65957980D01*
X129872251Y-65953200D01*
X129847747Y-65953200D01*
X129823714Y-65957981D01*
X129801075Y-65967358D01*
X129780702Y-65980971D01*
X129774330Y-65986200D01*
X129770029Y-65988499D01*
X129765355Y-65989917D01*
X129754359Y-65991000D01*
X129465641Y-65991000D01*
X129454645Y-65989917D01*
X129449971Y-65988499D01*
X129445670Y-65986200D01*
X129439298Y-65980971D01*
X129418924Y-65967357D01*
X129396285Y-65957980D01*
X129372251Y-65953200D01*
X129347747Y-65953200D01*
X129323714Y-65957981D01*
X129301075Y-65967358D01*
X129280702Y-65980971D01*
X129274330Y-65986200D01*
X129270029Y-65988499D01*
X129265355Y-65989917D01*
X129254359Y-65991000D01*
X129035999Y-65991000D01*
X129011613Y-65993402D01*
X128988164Y-66000515D01*
X128966553Y-66012066D01*
X128947611Y-66027611D01*
X128932066Y-66046553D01*
X128920515Y-66068164D01*
X128913402Y-66091613D01*
X128911000Y-66115999D01*
X128911000Y-66334359D01*
X128909917Y-66345355D01*
X128908499Y-66350029D01*
X128906200Y-66354330D01*
X128900971Y-66360702D01*
X128887357Y-66381076D01*
X128877980Y-66403715D01*
X128873200Y-66427749D01*
X127971800Y-66427749D01*
X127971800Y-66427747D01*
X127967019Y-66403714D01*
X127957642Y-66381075D01*
X127944029Y-66360702D01*
X127938800Y-66354330D01*
X127936501Y-66350029D01*
X127935083Y-66345355D01*
X127934000Y-66334359D01*
X127934000Y-66045641D01*
X127935083Y-66034645D01*
X127936501Y-66029971D01*
X127938800Y-66025669D01*
X127941896Y-66021896D01*
X127945669Y-66018800D01*
X127949971Y-66016501D01*
X127954645Y-66015083D01*
X127965641Y-66014000D01*
X128809001Y-66014000D01*
X128833387Y-66011598D01*
X128856836Y-66004485D01*
X128878447Y-65992934D01*
X128897389Y-65977389D01*
X128912934Y-65958447D01*
X128924485Y-65936836D01*
X128931598Y-65913387D01*
X128934000Y-65889001D01*
X128934000Y-65045641D01*
X128935083Y-65034645D01*
X128936501Y-65029971D01*
X128938800Y-65025669D01*
X128941896Y-65021896D01*
X128945669Y-65018800D01*
X128949971Y-65016501D01*
X128954645Y-65015083D01*
X128965641Y-65014000D01*
X129254359Y-65014000D01*
X129265355Y-65015083D01*
X129265355Y-65015083D01*
G37*
G36*
X132337417Y-66342540D02*
G01*
X132366081Y-66351235D01*
X132392495Y-66365354D01*
X132415646Y-66384354D01*
X132434646Y-66407505D01*
X132448765Y-66433919D01*
X132457460Y-66462583D01*
X132461000Y-66498527D01*
X132461000Y-69381473D01*
X132457460Y-69417417D01*
X132448765Y-69446081D01*
X132434646Y-69472495D01*
X132415646Y-69495646D01*
X132392495Y-69514646D01*
X132366081Y-69528765D01*
X132337417Y-69537460D01*
X132301473Y-69541000D01*
X129418527Y-69541000D01*
X129382583Y-69537460D01*
X129353919Y-69528765D01*
X129327505Y-69514646D01*
X129304354Y-69495646D01*
X129285354Y-69472495D01*
X129271235Y-69446081D01*
X129262540Y-69417417D01*
X129259000Y-69381473D01*
X129259000Y-66498527D01*
X129262540Y-66462583D01*
X129271235Y-66433919D01*
X129285354Y-66407505D01*
X129304354Y-66384354D01*
X129327505Y-66365354D01*
X129353919Y-66351235D01*
X129382583Y-66342540D01*
X129418527Y-66339000D01*
X132301473Y-66339000D01*
X132337417Y-66342540D01*
X132337417Y-66342540D01*
G37*
G36*
X115059999Y-69219737D02*
G01*
X115069608Y-69222652D01*
X115078472Y-69227390D01*
X115086237Y-69233763D01*
X115091931Y-69240701D01*
X115096448Y-69246206D01*
X115103378Y-69256575D01*
X115120705Y-69273902D01*
X115141080Y-69287515D01*
X115163720Y-69296891D01*
X115187753Y-69301671D01*
X115212257Y-69301670D01*
X115236290Y-69296888D01*
X115258929Y-69287510D01*
X115279302Y-69273895D01*
X115296629Y-69256568D01*
X115303558Y-69246198D01*
X115313763Y-69233763D01*
X115321528Y-69227390D01*
X115330392Y-69222652D01*
X115340001Y-69219737D01*
X115356140Y-69218148D01*
X115843861Y-69218148D01*
X115862199Y-69219954D01*
X115874450Y-69220556D01*
X115892869Y-69220556D01*
X115915149Y-69222750D01*
X115999233Y-69239476D01*
X116020660Y-69245976D01*
X116099858Y-69278780D01*
X116105303Y-69281691D01*
X116105309Y-69281693D01*
X116114169Y-69286429D01*
X116114173Y-69286432D01*
X116119614Y-69289340D01*
X116190899Y-69336971D01*
X116208204Y-69351172D01*
X116268828Y-69411796D01*
X116283029Y-69429101D01*
X116330660Y-69500386D01*
X116333568Y-69505827D01*
X116333571Y-69505831D01*
X116338307Y-69514691D01*
X116338309Y-69514697D01*
X116341220Y-69520142D01*
X116374024Y-69599340D01*
X116380524Y-69620767D01*
X116397250Y-69704851D01*
X116399444Y-69727131D01*
X116399444Y-69745550D01*
X116400046Y-69757801D01*
X116401852Y-69776139D01*
X116401852Y-70263862D01*
X116400046Y-70282199D01*
X116399444Y-70294450D01*
X116399444Y-70312869D01*
X116397250Y-70335149D01*
X116380524Y-70419233D01*
X116378732Y-70425140D01*
X116376057Y-70433960D01*
X116374024Y-70440660D01*
X116341220Y-70519858D01*
X116338309Y-70525303D01*
X116338307Y-70525309D01*
X116333571Y-70534169D01*
X116333568Y-70534173D01*
X116330660Y-70539614D01*
X116283029Y-70610899D01*
X116268828Y-70628204D01*
X116208204Y-70688828D01*
X116190899Y-70703029D01*
X116119614Y-70750660D01*
X116114173Y-70753568D01*
X116114169Y-70753571D01*
X116105309Y-70758307D01*
X116105303Y-70758309D01*
X116099858Y-70761220D01*
X116020660Y-70794024D01*
X115999233Y-70800524D01*
X115915149Y-70817250D01*
X115892869Y-70819444D01*
X115874450Y-70819444D01*
X115862199Y-70820046D01*
X115843862Y-70821852D01*
X115356140Y-70821852D01*
X115340001Y-70820263D01*
X115330392Y-70817348D01*
X115321528Y-70812610D01*
X115313763Y-70806237D01*
X115303552Y-70793794D01*
X115296622Y-70783425D01*
X115279295Y-70766098D01*
X115258920Y-70752485D01*
X115236280Y-70743109D01*
X115212247Y-70738329D01*
X115187743Y-70738330D01*
X115163710Y-70743112D01*
X115141071Y-70752490D01*
X115120698Y-70766105D01*
X115103371Y-70783432D01*
X115096442Y-70793802D01*
X115086237Y-70806237D01*
X115078472Y-70812610D01*
X115069608Y-70817348D01*
X115059999Y-70820263D01*
X115043860Y-70821852D01*
X114556138Y-70821852D01*
X114537801Y-70820046D01*
X114525550Y-70819444D01*
X114507131Y-70819444D01*
X114484851Y-70817250D01*
X114400767Y-70800524D01*
X114379340Y-70794024D01*
X114300142Y-70761220D01*
X114294697Y-70758309D01*
X114294691Y-70758307D01*
X114285831Y-70753571D01*
X114285827Y-70753568D01*
X114280386Y-70750660D01*
X114209101Y-70703029D01*
X114191796Y-70688828D01*
X114131172Y-70628204D01*
X114116971Y-70610899D01*
X114069340Y-70539614D01*
X114066432Y-70534173D01*
X114066429Y-70534169D01*
X114061693Y-70525309D01*
X114061691Y-70525303D01*
X114058780Y-70519858D01*
X114025976Y-70440660D01*
X114023944Y-70433960D01*
X114021268Y-70425140D01*
X114019476Y-70419233D01*
X114002750Y-70335149D01*
X114000556Y-70312869D01*
X114000556Y-70294450D01*
X113999954Y-70282199D01*
X113998148Y-70263862D01*
X113998148Y-69776139D01*
X113999954Y-69757801D01*
X114000556Y-69745550D01*
X114000556Y-69727131D01*
X114002750Y-69704851D01*
X114019476Y-69620767D01*
X114025976Y-69599340D01*
X114058780Y-69520142D01*
X114061691Y-69514697D01*
X114061693Y-69514691D01*
X114066429Y-69505831D01*
X114066432Y-69505827D01*
X114069340Y-69500386D01*
X114116971Y-69429101D01*
X114131172Y-69411796D01*
X114191796Y-69351172D01*
X114209101Y-69336971D01*
X114280386Y-69289340D01*
X114285827Y-69286432D01*
X114285831Y-69286429D01*
X114294691Y-69281693D01*
X114294697Y-69281691D01*
X114300142Y-69278780D01*
X114379340Y-69245976D01*
X114400767Y-69239476D01*
X114484851Y-69222750D01*
X114507131Y-69220556D01*
X114525550Y-69220556D01*
X114537801Y-69219954D01*
X114556139Y-69218148D01*
X115043860Y-69218148D01*
X115059999Y-69219737D01*
X115059999Y-69219737D01*
G37*
G36*
X139439591Y-69705585D02*
G01*
X139473569Y-69715893D01*
X139504890Y-69732634D01*
X139532339Y-69755161D01*
X139554866Y-69782610D01*
X139571607Y-69813931D01*
X139581915Y-69847909D01*
X139586000Y-69889390D01*
X139586000Y-70490610D01*
X139581915Y-70532091D01*
X139571607Y-70566069D01*
X139554866Y-70597390D01*
X139532339Y-70624839D01*
X139504890Y-70647366D01*
X139473569Y-70664107D01*
X139439591Y-70674415D01*
X139398110Y-70678500D01*
X138721890Y-70678500D01*
X138680409Y-70674415D01*
X138646431Y-70664107D01*
X138615110Y-70647366D01*
X138587661Y-70624839D01*
X138565134Y-70597390D01*
X138548393Y-70566069D01*
X138538085Y-70532091D01*
X138534000Y-70490610D01*
X138534000Y-69889390D01*
X138538085Y-69847909D01*
X138548393Y-69813931D01*
X138565134Y-69782610D01*
X138587661Y-69755161D01*
X138615110Y-69732634D01*
X138646431Y-69715893D01*
X138680409Y-69705585D01*
X138721890Y-69701500D01*
X139398110Y-69701500D01*
X139439591Y-69705585D01*
X139439591Y-69705585D01*
G37*
G36*
X137839591Y-69695585D02*
G01*
X137873569Y-69705893D01*
X137904890Y-69722634D01*
X137932339Y-69745161D01*
X137954866Y-69772610D01*
X137971607Y-69803931D01*
X137981915Y-69837909D01*
X137986000Y-69879390D01*
X137986000Y-70480610D01*
X137981915Y-70522091D01*
X137971607Y-70556069D01*
X137954866Y-70587390D01*
X137932339Y-70614839D01*
X137904890Y-70637366D01*
X137873569Y-70654107D01*
X137839591Y-70664415D01*
X137798110Y-70668500D01*
X137121890Y-70668500D01*
X137080409Y-70664415D01*
X137046431Y-70654107D01*
X137015110Y-70637366D01*
X136987661Y-70614839D01*
X136965134Y-70587390D01*
X136948393Y-70556069D01*
X136938085Y-70522091D01*
X136934000Y-70480610D01*
X136934000Y-69879390D01*
X136938085Y-69837909D01*
X136948393Y-69803931D01*
X136965134Y-69772610D01*
X136987661Y-69745161D01*
X137015110Y-69722634D01*
X137046431Y-69705893D01*
X137080409Y-69695585D01*
X137121890Y-69691500D01*
X137798110Y-69691500D01*
X137839591Y-69695585D01*
X137839591Y-69695585D01*
G37*
G36*
X136089591Y-69405585D02*
G01*
X136123569Y-69415893D01*
X136154890Y-69432634D01*
X136182339Y-69455161D01*
X136204866Y-69482610D01*
X136221607Y-69513931D01*
X136231915Y-69547909D01*
X136236000Y-69589390D01*
X136236000Y-70190610D01*
X136231915Y-70232091D01*
X136221607Y-70266069D01*
X136204866Y-70297390D01*
X136182339Y-70324839D01*
X136154890Y-70347366D01*
X136123569Y-70364107D01*
X136089591Y-70374415D01*
X136048110Y-70378500D01*
X135371890Y-70378500D01*
X135330409Y-70374415D01*
X135296431Y-70364107D01*
X135265110Y-70347366D01*
X135237661Y-70324839D01*
X135215134Y-70297390D01*
X135198393Y-70266069D01*
X135188085Y-70232091D01*
X135184000Y-70190610D01*
X135184000Y-69589390D01*
X135188085Y-69547909D01*
X135198393Y-69513931D01*
X135215134Y-69482610D01*
X135237661Y-69455161D01*
X135265110Y-69432634D01*
X135296431Y-69415893D01*
X135330409Y-69405585D01*
X135371890Y-69401500D01*
X136048110Y-69401500D01*
X136089591Y-69405585D01*
X136089591Y-69405585D01*
G37*
G36*
X115059999Y-66729737D02*
G01*
X115069608Y-66732652D01*
X115078472Y-66737390D01*
X115086237Y-66743763D01*
X115096448Y-66756206D01*
X115103378Y-66766575D01*
X115120705Y-66783902D01*
X115141080Y-66797515D01*
X115163720Y-66806891D01*
X115187753Y-66811671D01*
X115212257Y-66811670D01*
X115236290Y-66806888D01*
X115258929Y-66797510D01*
X115279302Y-66783895D01*
X115296629Y-66766568D01*
X115303558Y-66756198D01*
X115313763Y-66743763D01*
X115321528Y-66737390D01*
X115330392Y-66732652D01*
X115340001Y-66729737D01*
X115356140Y-66728148D01*
X115843861Y-66728148D01*
X115862199Y-66729954D01*
X115874450Y-66730556D01*
X115892869Y-66730556D01*
X115915149Y-66732750D01*
X115999233Y-66749476D01*
X116020660Y-66755976D01*
X116099858Y-66788780D01*
X116105303Y-66791691D01*
X116105309Y-66791693D01*
X116114169Y-66796429D01*
X116114173Y-66796432D01*
X116119614Y-66799340D01*
X116190899Y-66846971D01*
X116208204Y-66861172D01*
X116268828Y-66921796D01*
X116283029Y-66939101D01*
X116330660Y-67010386D01*
X116333568Y-67015827D01*
X116333571Y-67015831D01*
X116338307Y-67024691D01*
X116338309Y-67024697D01*
X116341220Y-67030142D01*
X116374024Y-67109340D01*
X116380524Y-67130767D01*
X116397250Y-67214851D01*
X116399444Y-67237131D01*
X116399444Y-67255550D01*
X116400046Y-67267801D01*
X116401852Y-67286139D01*
X116401852Y-67773862D01*
X116400046Y-67792199D01*
X116399444Y-67804450D01*
X116399444Y-67822869D01*
X116397250Y-67845149D01*
X116380524Y-67929233D01*
X116374024Y-67950660D01*
X116341220Y-68029858D01*
X116338309Y-68035303D01*
X116338307Y-68035309D01*
X116333571Y-68044169D01*
X116333568Y-68044173D01*
X116330660Y-68049614D01*
X116283029Y-68120899D01*
X116268828Y-68138204D01*
X116208204Y-68198828D01*
X116190899Y-68213029D01*
X116119614Y-68260660D01*
X116114173Y-68263568D01*
X116114169Y-68263571D01*
X116105309Y-68268307D01*
X116105303Y-68268309D01*
X116099858Y-68271220D01*
X116020660Y-68304024D01*
X115999233Y-68310524D01*
X115915149Y-68327250D01*
X115892869Y-68329444D01*
X115874450Y-68329444D01*
X115862199Y-68330046D01*
X115843862Y-68331852D01*
X115356140Y-68331852D01*
X115340001Y-68330263D01*
X115330392Y-68327348D01*
X115321528Y-68322610D01*
X115313763Y-68316237D01*
X115303552Y-68303794D01*
X115296622Y-68293425D01*
X115279295Y-68276098D01*
X115258920Y-68262485D01*
X115236280Y-68253109D01*
X115212247Y-68248329D01*
X115187743Y-68248330D01*
X115163710Y-68253112D01*
X115141071Y-68262490D01*
X115120698Y-68276105D01*
X115103371Y-68293432D01*
X115096442Y-68303802D01*
X115086237Y-68316237D01*
X115078472Y-68322610D01*
X115069608Y-68327348D01*
X115059999Y-68330263D01*
X115043860Y-68331852D01*
X114556138Y-68331852D01*
X114537801Y-68330046D01*
X114525550Y-68329444D01*
X114507131Y-68329444D01*
X114484851Y-68327250D01*
X114400767Y-68310524D01*
X114379340Y-68304024D01*
X114300142Y-68271220D01*
X114294697Y-68268309D01*
X114294691Y-68268307D01*
X114285831Y-68263571D01*
X114285827Y-68263568D01*
X114280386Y-68260660D01*
X114209101Y-68213029D01*
X114191796Y-68198828D01*
X114131172Y-68138204D01*
X114116971Y-68120899D01*
X114069340Y-68049614D01*
X114066432Y-68044173D01*
X114066429Y-68044169D01*
X114061693Y-68035309D01*
X114061691Y-68035303D01*
X114058780Y-68029858D01*
X114025976Y-67950660D01*
X114019476Y-67929233D01*
X114002750Y-67845149D01*
X114000556Y-67822869D01*
X114000556Y-67804450D01*
X113999954Y-67792199D01*
X113998148Y-67773862D01*
X113998148Y-67286139D01*
X113999954Y-67267801D01*
X114000556Y-67255550D01*
X114000556Y-67237131D01*
X114002750Y-67214851D01*
X114019476Y-67130767D01*
X114025976Y-67109340D01*
X114058780Y-67030142D01*
X114061691Y-67024697D01*
X114061693Y-67024691D01*
X114066429Y-67015831D01*
X114066432Y-67015827D01*
X114069340Y-67010386D01*
X114116971Y-66939101D01*
X114131172Y-66921796D01*
X114191796Y-66861172D01*
X114209101Y-66846971D01*
X114280386Y-66799340D01*
X114285827Y-66796432D01*
X114285831Y-66796429D01*
X114294691Y-66791693D01*
X114294697Y-66791691D01*
X114300142Y-66788780D01*
X114379340Y-66755976D01*
X114400767Y-66749476D01*
X114484851Y-66732750D01*
X114507131Y-66730556D01*
X114525550Y-66730556D01*
X114537801Y-66729954D01*
X114556139Y-66728148D01*
X115043860Y-66728148D01*
X115059999Y-66729737D01*
X115059999Y-66729737D01*
G37*
G36*
X140983648Y-66611319D02*
G01*
X141027182Y-66619978D01*
X141150206Y-66670936D01*
X141260925Y-66744916D01*
X141355084Y-66839075D01*
X141429064Y-66949794D01*
X141480022Y-67072818D01*
X141480022Y-67072819D01*
X141506000Y-67203418D01*
X141506000Y-67336582D01*
X141492646Y-67403714D01*
X141480022Y-67467182D01*
X141429064Y-67590206D01*
X141355084Y-67700925D01*
X141260925Y-67795084D01*
X141150206Y-67869064D01*
X141027182Y-67920022D01*
X141007258Y-67923985D01*
X140896582Y-67946000D01*
X140763418Y-67946000D01*
X140652742Y-67923985D01*
X140632818Y-67920022D01*
X140509794Y-67869064D01*
X140399075Y-67795084D01*
X140304916Y-67700925D01*
X140230936Y-67590206D01*
X140179978Y-67467182D01*
X140167354Y-67403714D01*
X140154000Y-67336582D01*
X140154000Y-67203418D01*
X140179978Y-67072819D01*
X140179978Y-67072818D01*
X140230936Y-66949794D01*
X140304916Y-66839075D01*
X140399075Y-66744916D01*
X140509794Y-66670936D01*
X140632818Y-66619978D01*
X140676352Y-66611319D01*
X140763418Y-66594000D01*
X140896582Y-66594000D01*
X140983648Y-66611319D01*
X140983648Y-66611319D01*
G37*
G36*
X135919591Y-65605585D02*
G01*
X135953569Y-65615893D01*
X135984890Y-65632634D01*
X136012339Y-65655161D01*
X136034866Y-65682610D01*
X136051607Y-65713931D01*
X136061915Y-65747909D01*
X136066000Y-65789390D01*
X136066000Y-66390610D01*
X136061915Y-66432091D01*
X136051607Y-66466069D01*
X136034866Y-66497390D01*
X136012339Y-66524839D01*
X135984890Y-66547366D01*
X135953569Y-66564107D01*
X135919591Y-66574415D01*
X135878110Y-66578500D01*
X135201890Y-66578500D01*
X135160409Y-66574415D01*
X135126431Y-66564107D01*
X135095110Y-66547366D01*
X135067661Y-66524839D01*
X135045134Y-66497390D01*
X135028393Y-66466069D01*
X135018085Y-66432091D01*
X135014000Y-66390610D01*
X135014000Y-65789390D01*
X135018085Y-65747909D01*
X135028393Y-65713931D01*
X135045134Y-65682610D01*
X135067661Y-65655161D01*
X135095110Y-65632634D01*
X135126431Y-65615893D01*
X135160409Y-65605585D01*
X135201890Y-65601500D01*
X135878110Y-65601500D01*
X135919591Y-65605585D01*
X135919591Y-65605585D01*
G37*
G36*
X126689591Y-65453085D02*
G01*
X126723569Y-65463393D01*
X126754890Y-65480134D01*
X126782339Y-65502661D01*
X126804866Y-65530110D01*
X126821607Y-65561431D01*
X126831915Y-65595409D01*
X126836000Y-65636890D01*
X126836000Y-66238110D01*
X126831915Y-66279591D01*
X126821607Y-66313569D01*
X126804866Y-66344890D01*
X126782339Y-66372339D01*
X126754890Y-66394866D01*
X126723569Y-66411607D01*
X126689591Y-66421915D01*
X126648110Y-66426000D01*
X125971890Y-66426000D01*
X125930409Y-66421915D01*
X125896431Y-66411607D01*
X125865110Y-66394866D01*
X125837661Y-66372339D01*
X125815134Y-66344890D01*
X125798393Y-66313569D01*
X125788085Y-66279591D01*
X125784000Y-66238110D01*
X125784000Y-65636890D01*
X125788085Y-65595409D01*
X125798393Y-65561431D01*
X125815134Y-65530110D01*
X125837661Y-65502661D01*
X125865110Y-65480134D01*
X125896431Y-65463393D01*
X125930409Y-65453085D01*
X125971890Y-65449000D01*
X126648110Y-65449000D01*
X126689591Y-65453085D01*
X126689591Y-65453085D01*
G37*
G36*
X141003648Y-64961319D02*
G01*
X141047182Y-64969978D01*
X141170206Y-65020936D01*
X141280925Y-65094916D01*
X141375084Y-65189075D01*
X141449064Y-65299794D01*
X141500022Y-65422818D01*
X141500022Y-65422819D01*
X141526000Y-65553418D01*
X141526000Y-65686582D01*
X141521331Y-65710052D01*
X141500022Y-65817182D01*
X141449064Y-65940206D01*
X141375084Y-66050925D01*
X141280925Y-66145084D01*
X141170206Y-66219064D01*
X141047182Y-66270022D01*
X141007073Y-66278000D01*
X140916582Y-66296000D01*
X140783418Y-66296000D01*
X140692927Y-66278000D01*
X140652818Y-66270022D01*
X140529794Y-66219064D01*
X140419075Y-66145084D01*
X140324916Y-66050925D01*
X140250936Y-65940206D01*
X140199978Y-65817182D01*
X140178669Y-65710052D01*
X140174000Y-65686582D01*
X140174000Y-65553418D01*
X140199978Y-65422819D01*
X140199978Y-65422818D01*
X140250936Y-65299794D01*
X140324916Y-65189075D01*
X140419075Y-65094916D01*
X140529794Y-65020936D01*
X140652818Y-64969978D01*
X140696352Y-64961319D01*
X140783418Y-64944000D01*
X140916582Y-64944000D01*
X141003648Y-64961319D01*
X141003648Y-64961319D01*
G37*
G36*
X120334591Y-65078085D02*
G01*
X120368569Y-65088393D01*
X120399890Y-65105134D01*
X120427339Y-65127661D01*
X120449866Y-65155110D01*
X120466607Y-65186431D01*
X120476915Y-65220409D01*
X120481000Y-65261890D01*
X120481000Y-65938110D01*
X120476915Y-65979591D01*
X120466607Y-66013569D01*
X120449866Y-66044890D01*
X120427339Y-66072339D01*
X120399890Y-66094866D01*
X120368569Y-66111607D01*
X120334591Y-66121915D01*
X120293110Y-66126000D01*
X119691890Y-66126000D01*
X119650409Y-66121915D01*
X119616431Y-66111607D01*
X119585110Y-66094866D01*
X119557661Y-66072339D01*
X119535134Y-66044890D01*
X119518393Y-66013569D01*
X119508085Y-65979591D01*
X119504000Y-65938110D01*
X119504000Y-65261890D01*
X119508085Y-65220409D01*
X119518393Y-65186431D01*
X119535134Y-65155110D01*
X119557661Y-65127661D01*
X119585110Y-65105134D01*
X119616431Y-65088393D01*
X119650409Y-65078085D01*
X119691890Y-65074000D01*
X120293110Y-65074000D01*
X120334591Y-65078085D01*
X120334591Y-65078085D01*
G37*
G36*
X121909591Y-65078085D02*
G01*
X121943569Y-65088393D01*
X121974890Y-65105134D01*
X122002339Y-65127661D01*
X122024866Y-65155110D01*
X122041607Y-65186431D01*
X122051915Y-65220409D01*
X122056000Y-65261890D01*
X122056000Y-65938110D01*
X122051915Y-65979591D01*
X122041607Y-66013569D01*
X122024866Y-66044890D01*
X122002339Y-66072339D01*
X121974890Y-66094866D01*
X121943569Y-66111607D01*
X121909591Y-66121915D01*
X121868110Y-66126000D01*
X121266890Y-66126000D01*
X121225409Y-66121915D01*
X121191431Y-66111607D01*
X121160110Y-66094866D01*
X121132661Y-66072339D01*
X121110134Y-66044890D01*
X121093393Y-66013569D01*
X121083085Y-65979591D01*
X121079000Y-65938110D01*
X121079000Y-65261890D01*
X121083085Y-65220409D01*
X121093393Y-65186431D01*
X121110134Y-65155110D01*
X121132661Y-65127661D01*
X121160110Y-65105134D01*
X121191431Y-65088393D01*
X121225409Y-65078085D01*
X121266890Y-65074000D01*
X121868110Y-65074000D01*
X121909591Y-65078085D01*
X121909591Y-65078085D01*
G37*
G36*
X114153648Y-64491319D02*
G01*
X114197182Y-64499978D01*
X114320206Y-64550936D01*
X114430925Y-64624916D01*
X114525084Y-64719075D01*
X114599064Y-64829794D01*
X114646369Y-64944000D01*
X114650022Y-64952819D01*
X114676000Y-65083418D01*
X114676000Y-65216582D01*
X114665255Y-65270599D01*
X114650022Y-65347182D01*
X114599064Y-65470206D01*
X114525084Y-65580925D01*
X114430925Y-65675084D01*
X114320206Y-65749064D01*
X114197182Y-65800022D01*
X114153648Y-65808681D01*
X114066582Y-65826000D01*
X113933418Y-65826000D01*
X113846352Y-65808681D01*
X113802818Y-65800022D01*
X113679794Y-65749064D01*
X113569075Y-65675084D01*
X113474916Y-65580925D01*
X113400936Y-65470206D01*
X113349978Y-65347182D01*
X113334745Y-65270599D01*
X113324000Y-65216582D01*
X113324000Y-65083418D01*
X113349978Y-64952819D01*
X113353631Y-64944000D01*
X113400936Y-64829794D01*
X113474916Y-64719075D01*
X113569075Y-64624916D01*
X113679794Y-64550936D01*
X113802818Y-64499978D01*
X113846352Y-64491319D01*
X113933418Y-64474000D01*
X114066582Y-64474000D01*
X114153648Y-64491319D01*
X114153648Y-64491319D01*
G37*
G36*
X135919591Y-64030585D02*
G01*
X135953569Y-64040893D01*
X135984890Y-64057634D01*
X136012339Y-64080161D01*
X136034866Y-64107610D01*
X136051607Y-64138931D01*
X136061915Y-64172909D01*
X136066000Y-64214390D01*
X136066000Y-64815610D01*
X136061915Y-64857091D01*
X136051607Y-64891069D01*
X136034866Y-64922390D01*
X136012339Y-64949839D01*
X135984890Y-64972366D01*
X135953569Y-64989107D01*
X135919591Y-64999415D01*
X135878110Y-65003500D01*
X135201890Y-65003500D01*
X135160409Y-64999415D01*
X135126431Y-64989107D01*
X135095110Y-64972366D01*
X135067661Y-64949839D01*
X135045134Y-64922390D01*
X135028393Y-64891069D01*
X135018085Y-64857091D01*
X135014000Y-64815610D01*
X135014000Y-64214390D01*
X135018085Y-64172909D01*
X135028393Y-64138931D01*
X135045134Y-64107610D01*
X135067661Y-64080161D01*
X135095110Y-64057634D01*
X135126431Y-64040893D01*
X135160409Y-64030585D01*
X135201890Y-64026500D01*
X135878110Y-64026500D01*
X135919591Y-64030585D01*
X135919591Y-64030585D01*
G37*
G36*
X126689591Y-63878085D02*
G01*
X126723569Y-63888393D01*
X126754890Y-63905134D01*
X126782339Y-63927661D01*
X126804866Y-63955110D01*
X126821607Y-63986431D01*
X126831915Y-64020409D01*
X126836000Y-64061890D01*
X126836000Y-64663110D01*
X126831915Y-64704591D01*
X126821607Y-64738569D01*
X126804866Y-64769890D01*
X126782339Y-64797339D01*
X126754890Y-64819866D01*
X126723569Y-64836607D01*
X126689591Y-64846915D01*
X126648110Y-64851000D01*
X125971890Y-64851000D01*
X125930409Y-64846915D01*
X125896431Y-64836607D01*
X125865110Y-64819866D01*
X125837661Y-64797339D01*
X125815134Y-64769890D01*
X125798393Y-64738569D01*
X125788085Y-64704591D01*
X125784000Y-64663110D01*
X125784000Y-64061890D01*
X125788085Y-64020409D01*
X125798393Y-63986431D01*
X125815134Y-63955110D01*
X125837661Y-63927661D01*
X125865110Y-63905134D01*
X125896431Y-63888393D01*
X125930409Y-63878085D01*
X125971890Y-63874000D01*
X126648110Y-63874000D01*
X126689591Y-63878085D01*
X126689591Y-63878085D01*
G37*
G36*
X141013248Y-63309250D02*
G01*
X141067182Y-63319978D01*
X141190206Y-63370936D01*
X141300925Y-63444916D01*
X141395084Y-63539075D01*
X141469064Y-63649794D01*
X141520022Y-63772818D01*
X141520022Y-63772819D01*
X141546000Y-63903418D01*
X141546000Y-64036582D01*
X141529755Y-64118250D01*
X141520022Y-64167182D01*
X141469064Y-64290206D01*
X141395084Y-64400925D01*
X141300925Y-64495084D01*
X141190206Y-64569064D01*
X141067182Y-64620022D01*
X141023648Y-64628681D01*
X140936582Y-64646000D01*
X140803418Y-64646000D01*
X140716352Y-64628681D01*
X140672818Y-64620022D01*
X140549794Y-64569064D01*
X140439075Y-64495084D01*
X140344916Y-64400925D01*
X140270936Y-64290206D01*
X140219978Y-64167182D01*
X140210245Y-64118250D01*
X140194000Y-64036582D01*
X140194000Y-63903418D01*
X140219978Y-63772819D01*
X140219978Y-63772818D01*
X140270936Y-63649794D01*
X140344916Y-63539075D01*
X140439075Y-63444916D01*
X140549794Y-63370936D01*
X140672818Y-63319978D01*
X140726752Y-63309250D01*
X140803418Y-63294000D01*
X140936582Y-63294000D01*
X141013248Y-63309250D01*
X141013248Y-63309250D01*
G37*
G36*
X114153648Y-62841319D02*
G01*
X114197182Y-62849978D01*
X114320206Y-62900936D01*
X114430925Y-62974916D01*
X114525084Y-63069075D01*
X114599064Y-63179794D01*
X114646369Y-63294000D01*
X114650022Y-63302819D01*
X114675533Y-63431069D01*
X114676000Y-63433420D01*
X114676000Y-63566580D01*
X114650022Y-63697182D01*
X114599064Y-63820206D01*
X114525084Y-63930925D01*
X114430925Y-64025084D01*
X114320206Y-64099064D01*
X114197182Y-64150022D01*
X114153648Y-64158681D01*
X114066582Y-64176000D01*
X113933418Y-64176000D01*
X113846352Y-64158681D01*
X113802818Y-64150022D01*
X113679794Y-64099064D01*
X113569075Y-64025084D01*
X113474916Y-63930925D01*
X113400936Y-63820206D01*
X113349978Y-63697182D01*
X113324000Y-63566580D01*
X113324000Y-63433420D01*
X113324468Y-63431069D01*
X113349978Y-63302819D01*
X113353631Y-63294000D01*
X113400936Y-63179794D01*
X113474916Y-63069075D01*
X113569075Y-62974916D01*
X113679794Y-62900936D01*
X113802818Y-62849978D01*
X113846352Y-62841319D01*
X113933418Y-62824000D01*
X114066582Y-62824000D01*
X114153648Y-62841319D01*
X114153648Y-62841319D01*
G37*
G36*
X118971000Y-63586000D02*
G01*
X117809000Y-63586000D01*
X117809000Y-60934000D01*
X118971000Y-60934000D01*
X118971000Y-63586000D01*
X118971000Y-63586000D01*
G37*
G36*
X121171000Y-63586000D02*
G01*
X120009000Y-63586000D01*
X120009000Y-62834000D01*
X121171000Y-62834000D01*
X121171000Y-63586000D01*
X121171000Y-63586000D01*
G37*
G36*
X122809591Y-62580585D02*
G01*
X122843569Y-62590893D01*
X122874890Y-62607634D01*
X122902339Y-62630161D01*
X122924866Y-62657610D01*
X122941607Y-62688931D01*
X122951915Y-62722909D01*
X122956000Y-62764390D01*
X122956000Y-63365610D01*
X122951915Y-63407091D01*
X122941607Y-63441069D01*
X122924866Y-63472390D01*
X122902339Y-63499839D01*
X122874890Y-63522366D01*
X122843569Y-63539107D01*
X122809591Y-63549415D01*
X122768110Y-63553500D01*
X122091890Y-63553500D01*
X122050409Y-63549415D01*
X122016431Y-63539107D01*
X121985110Y-63522366D01*
X121957661Y-63499839D01*
X121935134Y-63472390D01*
X121918393Y-63441069D01*
X121908085Y-63407091D01*
X121904000Y-63365610D01*
X121904000Y-62764390D01*
X121908085Y-62722909D01*
X121918393Y-62688931D01*
X121935134Y-62657610D01*
X121957661Y-62630161D01*
X121985110Y-62607634D01*
X122016431Y-62590893D01*
X122050409Y-62580585D01*
X122091890Y-62576500D01*
X122768110Y-62576500D01*
X122809591Y-62580585D01*
X122809591Y-62580585D01*
G37*
G36*
X116879591Y-62570585D02*
G01*
X116913569Y-62580893D01*
X116944890Y-62597634D01*
X116972339Y-62620161D01*
X116994866Y-62647610D01*
X117011607Y-62678931D01*
X117021915Y-62712909D01*
X117026000Y-62754390D01*
X117026000Y-63355610D01*
X117021915Y-63397091D01*
X117011607Y-63431069D01*
X116994866Y-63462390D01*
X116972339Y-63489839D01*
X116944890Y-63512366D01*
X116913569Y-63529107D01*
X116879591Y-63539415D01*
X116838110Y-63543500D01*
X116161890Y-63543500D01*
X116120409Y-63539415D01*
X116086431Y-63529107D01*
X116055110Y-63512366D01*
X116027661Y-63489839D01*
X116005134Y-63462390D01*
X115988393Y-63431069D01*
X115978085Y-63397091D01*
X115974000Y-63355610D01*
X115974000Y-62754390D01*
X115978085Y-62712909D01*
X115988393Y-62678931D01*
X116005134Y-62647610D01*
X116027661Y-62620161D01*
X116055110Y-62597634D01*
X116086431Y-62580893D01*
X116120409Y-62570585D01*
X116161890Y-62566500D01*
X116838110Y-62566500D01*
X116879591Y-62570585D01*
X116879591Y-62570585D01*
G37*
G36*
X127729591Y-62150585D02*
G01*
X127763569Y-62160893D01*
X127794890Y-62177634D01*
X127822339Y-62200161D01*
X127844866Y-62227610D01*
X127861607Y-62258931D01*
X127871915Y-62292909D01*
X127876000Y-62334390D01*
X127876000Y-62935610D01*
X127871915Y-62977091D01*
X127861607Y-63011069D01*
X127844866Y-63042390D01*
X127822339Y-63069839D01*
X127794890Y-63092366D01*
X127763569Y-63109107D01*
X127729591Y-63119415D01*
X127688110Y-63123500D01*
X127011890Y-63123500D01*
X126970409Y-63119415D01*
X126936431Y-63109107D01*
X126905110Y-63092366D01*
X126877661Y-63069839D01*
X126855134Y-63042390D01*
X126838393Y-63011069D01*
X126828085Y-62977091D01*
X126824000Y-62935610D01*
X126824000Y-62334390D01*
X126828085Y-62292909D01*
X126838393Y-62258931D01*
X126855134Y-62227610D01*
X126877661Y-62200161D01*
X126905110Y-62177634D01*
X126936431Y-62160893D01*
X126970409Y-62150585D01*
X127011890Y-62146500D01*
X127688110Y-62146500D01*
X127729591Y-62150585D01*
X127729591Y-62150585D01*
G37*
G36*
X129429591Y-62150585D02*
G01*
X129463569Y-62160893D01*
X129494890Y-62177634D01*
X129522339Y-62200161D01*
X129544866Y-62227610D01*
X129561607Y-62258931D01*
X129571915Y-62292909D01*
X129576000Y-62334390D01*
X129576000Y-62935610D01*
X129571915Y-62977091D01*
X129561607Y-63011069D01*
X129544866Y-63042390D01*
X129522339Y-63069839D01*
X129494890Y-63092366D01*
X129463569Y-63109107D01*
X129429591Y-63119415D01*
X129388110Y-63123500D01*
X128711890Y-63123500D01*
X128670409Y-63119415D01*
X128636431Y-63109107D01*
X128605110Y-63092366D01*
X128577661Y-63069839D01*
X128555134Y-63042390D01*
X128538393Y-63011069D01*
X128528085Y-62977091D01*
X128524000Y-62935610D01*
X128524000Y-62334390D01*
X128528085Y-62292909D01*
X128538393Y-62258931D01*
X128555134Y-62227610D01*
X128577661Y-62200161D01*
X128605110Y-62177634D01*
X128636431Y-62160893D01*
X128670409Y-62150585D01*
X128711890Y-62146500D01*
X129388110Y-62146500D01*
X129429591Y-62150585D01*
X129429591Y-62150585D01*
G37*
G36*
X131469591Y-62150585D02*
G01*
X131503569Y-62160893D01*
X131534890Y-62177634D01*
X131562339Y-62200161D01*
X131584866Y-62227610D01*
X131601607Y-62258931D01*
X131611915Y-62292909D01*
X131616000Y-62334390D01*
X131616000Y-62935610D01*
X131611915Y-62977091D01*
X131601607Y-63011069D01*
X131584866Y-63042390D01*
X131562339Y-63069839D01*
X131534890Y-63092366D01*
X131503569Y-63109107D01*
X131469591Y-63119415D01*
X131428110Y-63123500D01*
X130751890Y-63123500D01*
X130710409Y-63119415D01*
X130676431Y-63109107D01*
X130645110Y-63092366D01*
X130617661Y-63069839D01*
X130595134Y-63042390D01*
X130578393Y-63011069D01*
X130568085Y-62977091D01*
X130564000Y-62935610D01*
X130564000Y-62334390D01*
X130568085Y-62292909D01*
X130578393Y-62258931D01*
X130595134Y-62227610D01*
X130617661Y-62200161D01*
X130645110Y-62177634D01*
X130676431Y-62160893D01*
X130710409Y-62150585D01*
X130751890Y-62146500D01*
X131428110Y-62146500D01*
X131469591Y-62150585D01*
X131469591Y-62150585D01*
G37*
G36*
X141023648Y-61651319D02*
G01*
X141067182Y-61659978D01*
X141190206Y-61710936D01*
X141300925Y-61784916D01*
X141395084Y-61879075D01*
X141469064Y-61989794D01*
X141520022Y-62112818D01*
X141520022Y-62112819D01*
X141546000Y-62243418D01*
X141546000Y-62376582D01*
X141528681Y-62463648D01*
X141520022Y-62507182D01*
X141469064Y-62630206D01*
X141395084Y-62740925D01*
X141300925Y-62835084D01*
X141190206Y-62909064D01*
X141067182Y-62960022D01*
X141023648Y-62968681D01*
X140936582Y-62986000D01*
X140803418Y-62986000D01*
X140716352Y-62968681D01*
X140672818Y-62960022D01*
X140549794Y-62909064D01*
X140439075Y-62835084D01*
X140344916Y-62740925D01*
X140270936Y-62630206D01*
X140219978Y-62507182D01*
X140211319Y-62463648D01*
X140194000Y-62376582D01*
X140194000Y-62243418D01*
X140219978Y-62112819D01*
X140219978Y-62112818D01*
X140270936Y-61989794D01*
X140344916Y-61879075D01*
X140439075Y-61784916D01*
X140549794Y-61710936D01*
X140672818Y-61659978D01*
X140716352Y-61651319D01*
X140803418Y-61634000D01*
X140936582Y-61634000D01*
X141023648Y-61651319D01*
X141023648Y-61651319D01*
G37*
G36*
X122809591Y-61005585D02*
G01*
X122843569Y-61015893D01*
X122874890Y-61032634D01*
X122902339Y-61055161D01*
X122924866Y-61082610D01*
X122941607Y-61113931D01*
X122951915Y-61147909D01*
X122956000Y-61189390D01*
X122956000Y-61790610D01*
X122951915Y-61832091D01*
X122941607Y-61866069D01*
X122924866Y-61897390D01*
X122902339Y-61924839D01*
X122874890Y-61947366D01*
X122843569Y-61964107D01*
X122809591Y-61974415D01*
X122768110Y-61978500D01*
X122091890Y-61978500D01*
X122050409Y-61974415D01*
X122016431Y-61964107D01*
X121985110Y-61947366D01*
X121957661Y-61924839D01*
X121935134Y-61897390D01*
X121918393Y-61866069D01*
X121908085Y-61832091D01*
X121904000Y-61790610D01*
X121904000Y-61189390D01*
X121908085Y-61147909D01*
X121918393Y-61113931D01*
X121935134Y-61082610D01*
X121957661Y-61055161D01*
X121985110Y-61032634D01*
X122016431Y-61015893D01*
X122050409Y-61005585D01*
X122091890Y-61001500D01*
X122768110Y-61001500D01*
X122809591Y-61005585D01*
X122809591Y-61005585D01*
G37*
G36*
X116879591Y-60995585D02*
G01*
X116913569Y-61005893D01*
X116944890Y-61022634D01*
X116972339Y-61045161D01*
X116994866Y-61072610D01*
X117011607Y-61103931D01*
X117021915Y-61137909D01*
X117026000Y-61179390D01*
X117026000Y-61780610D01*
X117021915Y-61822091D01*
X117011607Y-61856069D01*
X116994866Y-61887390D01*
X116972339Y-61914839D01*
X116944890Y-61937366D01*
X116913569Y-61954107D01*
X116879591Y-61964415D01*
X116838110Y-61968500D01*
X116161890Y-61968500D01*
X116120409Y-61964415D01*
X116086431Y-61954107D01*
X116055110Y-61937366D01*
X116027661Y-61914839D01*
X116005134Y-61887390D01*
X115988393Y-61856069D01*
X115978085Y-61822091D01*
X115974000Y-61780610D01*
X115974000Y-61179390D01*
X115978085Y-61137909D01*
X115988393Y-61103931D01*
X116005134Y-61072610D01*
X116027661Y-61045161D01*
X116055110Y-61022634D01*
X116086431Y-61005893D01*
X116120409Y-60995585D01*
X116161890Y-60991500D01*
X116838110Y-60991500D01*
X116879591Y-60995585D01*
X116879591Y-60995585D01*
G37*
G36*
X121171000Y-61686000D02*
G01*
X120009000Y-61686000D01*
X120009000Y-60934000D01*
X121171000Y-60934000D01*
X121171000Y-61686000D01*
X121171000Y-61686000D01*
G37*
G36*
X127729591Y-60575585D02*
G01*
X127763569Y-60585893D01*
X127794890Y-60602634D01*
X127822339Y-60625161D01*
X127844866Y-60652610D01*
X127861607Y-60683931D01*
X127871915Y-60717909D01*
X127876000Y-60759390D01*
X127876000Y-61360610D01*
X127871915Y-61402091D01*
X127861607Y-61436069D01*
X127844866Y-61467390D01*
X127822339Y-61494839D01*
X127794890Y-61517366D01*
X127763569Y-61534107D01*
X127729591Y-61544415D01*
X127688110Y-61548500D01*
X127011890Y-61548500D01*
X126970409Y-61544415D01*
X126936431Y-61534107D01*
X126905110Y-61517366D01*
X126877661Y-61494839D01*
X126855134Y-61467390D01*
X126838393Y-61436069D01*
X126828085Y-61402091D01*
X126824000Y-61360610D01*
X126824000Y-60759390D01*
X126828085Y-60717909D01*
X126838393Y-60683931D01*
X126855134Y-60652610D01*
X126877661Y-60625161D01*
X126905110Y-60602634D01*
X126936431Y-60585893D01*
X126970409Y-60575585D01*
X127011890Y-60571500D01*
X127688110Y-60571500D01*
X127729591Y-60575585D01*
X127729591Y-60575585D01*
G37*
G36*
X129429591Y-60575585D02*
G01*
X129463569Y-60585893D01*
X129494890Y-60602634D01*
X129522339Y-60625161D01*
X129544866Y-60652610D01*
X129561607Y-60683931D01*
X129571915Y-60717909D01*
X129576000Y-60759390D01*
X129576000Y-61360610D01*
X129571915Y-61402091D01*
X129561607Y-61436069D01*
X129544866Y-61467390D01*
X129522339Y-61494839D01*
X129494890Y-61517366D01*
X129463569Y-61534107D01*
X129429591Y-61544415D01*
X129388110Y-61548500D01*
X128711890Y-61548500D01*
X128670409Y-61544415D01*
X128636431Y-61534107D01*
X128605110Y-61517366D01*
X128577661Y-61494839D01*
X128555134Y-61467390D01*
X128538393Y-61436069D01*
X128528085Y-61402091D01*
X128524000Y-61360610D01*
X128524000Y-60759390D01*
X128528085Y-60717909D01*
X128538393Y-60683931D01*
X128555134Y-60652610D01*
X128577661Y-60625161D01*
X128605110Y-60602634D01*
X128636431Y-60585893D01*
X128670409Y-60575585D01*
X128711890Y-60571500D01*
X129388110Y-60571500D01*
X129429591Y-60575585D01*
X129429591Y-60575585D01*
G37*
G36*
X131469591Y-60575585D02*
G01*
X131503569Y-60585893D01*
X131534890Y-60602634D01*
X131562339Y-60625161D01*
X131584866Y-60652610D01*
X131601607Y-60683931D01*
X131611915Y-60717909D01*
X131616000Y-60759390D01*
X131616000Y-61360610D01*
X131611915Y-61402091D01*
X131601607Y-61436069D01*
X131584866Y-61467390D01*
X131562339Y-61494839D01*
X131534890Y-61517366D01*
X131503569Y-61534107D01*
X131469591Y-61544415D01*
X131428110Y-61548500D01*
X130751890Y-61548500D01*
X130710409Y-61544415D01*
X130676431Y-61534107D01*
X130645110Y-61517366D01*
X130617661Y-61494839D01*
X130595134Y-61467390D01*
X130578393Y-61436069D01*
X130568085Y-61402091D01*
X130564000Y-61360610D01*
X130564000Y-60759390D01*
X130568085Y-60717909D01*
X130578393Y-60683931D01*
X130595134Y-60652610D01*
X130617661Y-60625161D01*
X130645110Y-60602634D01*
X130676431Y-60585893D01*
X130710409Y-60575585D01*
X130751890Y-60571500D01*
X131428110Y-60571500D01*
X131469591Y-60575585D01*
X131469591Y-60575585D01*
G37*
G36*
X139881745Y-57606580D02*
G01*
X140015734Y-57633232D01*
X140145978Y-57687181D01*
X140201059Y-57709996D01*
X140225203Y-57719997D01*
X140413720Y-57845960D01*
X140574040Y-58006280D01*
X140696812Y-58190022D01*
X140700004Y-58194799D01*
X140708786Y-58216000D01*
X140786768Y-58404266D01*
X140831000Y-58626636D01*
X140831000Y-58853364D01*
X140786768Y-59075734D01*
X140700003Y-59285203D01*
X140574040Y-59473720D01*
X140413720Y-59634040D01*
X140225203Y-59760003D01*
X140015734Y-59846768D01*
X139904549Y-59868884D01*
X139793365Y-59891000D01*
X139566635Y-59891000D01*
X139455451Y-59868884D01*
X139344266Y-59846768D01*
X139134797Y-59760003D01*
X138946280Y-59634040D01*
X138785960Y-59473720D01*
X138659997Y-59285203D01*
X138573232Y-59075734D01*
X138529000Y-58853364D01*
X138529000Y-58626636D01*
X138573232Y-58404266D01*
X138651214Y-58216000D01*
X138659996Y-58194799D01*
X138663188Y-58190022D01*
X138785960Y-58006280D01*
X138946280Y-57845960D01*
X139134797Y-57719997D01*
X139158942Y-57709996D01*
X139214022Y-57687181D01*
X139344266Y-57633232D01*
X139478255Y-57606580D01*
X139566635Y-57589000D01*
X139793365Y-57589000D01*
X139881745Y-57606580D01*
X139881745Y-57606580D01*
G37*
G36*
X115363638Y-57589000D02*
G01*
X115535734Y-57623232D01*
X115665978Y-57677181D01*
X115714263Y-57697181D01*
X115745203Y-57709997D01*
X115933720Y-57835960D01*
X116094040Y-57996280D01*
X116214125Y-58176000D01*
X116220004Y-58184799D01*
X116228786Y-58206000D01*
X116306768Y-58394266D01*
X116351000Y-58616636D01*
X116351000Y-58843364D01*
X116306768Y-59065734D01*
X116220003Y-59275203D01*
X116094040Y-59463720D01*
X115933720Y-59624040D01*
X115745203Y-59750003D01*
X115745202Y-59750004D01*
X115745201Y-59750004D01*
X115683850Y-59775416D01*
X115535734Y-59836768D01*
X115485460Y-59846768D01*
X115313365Y-59881000D01*
X115086635Y-59881000D01*
X114914540Y-59846768D01*
X114864266Y-59836768D01*
X114716150Y-59775416D01*
X114654799Y-59750004D01*
X114654798Y-59750004D01*
X114654797Y-59750003D01*
X114466280Y-59624040D01*
X114305960Y-59463720D01*
X114179997Y-59275203D01*
X114093232Y-59065734D01*
X114049000Y-58843364D01*
X114049000Y-58616636D01*
X114093232Y-58394266D01*
X114171214Y-58206000D01*
X114179996Y-58184799D01*
X114185875Y-58176000D01*
X114305960Y-57996280D01*
X114466280Y-57835960D01*
X114654797Y-57709997D01*
X114685738Y-57697181D01*
X114734022Y-57677181D01*
X114864266Y-57623232D01*
X115036362Y-57589000D01*
X115086635Y-57579000D01*
X115313365Y-57579000D01*
X115363638Y-57589000D01*
X115363638Y-57589000D01*
G37*
G36*
X130116908Y-56889978D02*
G01*
X130167182Y-56899978D01*
X130290206Y-56950936D01*
X130400925Y-57024916D01*
X130495084Y-57119075D01*
X130569064Y-57229794D01*
X130615880Y-57342819D01*
X130620022Y-57352819D01*
X130646000Y-57483418D01*
X130646000Y-57616582D01*
X130628681Y-57703648D01*
X130620022Y-57747182D01*
X130569064Y-57870206D01*
X130495084Y-57980925D01*
X130400925Y-58075084D01*
X130290206Y-58149064D01*
X130167182Y-58200022D01*
X130137128Y-58206000D01*
X130036582Y-58226000D01*
X129903418Y-58226000D01*
X129802872Y-58206000D01*
X129772818Y-58200022D01*
X129649794Y-58149064D01*
X129539075Y-58075084D01*
X129444916Y-57980925D01*
X129370936Y-57870206D01*
X129319978Y-57747182D01*
X129311319Y-57703648D01*
X129294000Y-57616582D01*
X129294000Y-57483418D01*
X129319978Y-57352819D01*
X129324120Y-57342819D01*
X129370936Y-57229794D01*
X129444916Y-57119075D01*
X129539075Y-57024916D01*
X129649794Y-56950936D01*
X129772818Y-56899978D01*
X129823092Y-56889978D01*
X129903418Y-56874000D01*
X130036582Y-56874000D01*
X130116908Y-56889978D01*
X130116908Y-56889978D01*
G37*
G36*
X135066908Y-56879978D02*
G01*
X135117182Y-56889978D01*
X135240206Y-56940936D01*
X135350925Y-57014916D01*
X135445084Y-57109075D01*
X135519064Y-57219794D01*
X135565880Y-57332819D01*
X135570022Y-57342819D01*
X135596000Y-57473418D01*
X135596000Y-57606582D01*
X135578681Y-57693648D01*
X135570022Y-57737182D01*
X135519064Y-57860206D01*
X135445084Y-57970925D01*
X135350925Y-58065084D01*
X135240206Y-58139064D01*
X135117182Y-58190022D01*
X135093176Y-58194797D01*
X134986582Y-58216000D01*
X134853418Y-58216000D01*
X134746824Y-58194797D01*
X134722818Y-58190022D01*
X134599794Y-58139064D01*
X134489075Y-58065084D01*
X134394916Y-57970925D01*
X134320936Y-57860206D01*
X134269978Y-57737182D01*
X134261319Y-57693648D01*
X134244000Y-57606582D01*
X134244000Y-57473418D01*
X134269978Y-57342819D01*
X134274120Y-57332819D01*
X134320936Y-57219794D01*
X134394916Y-57109075D01*
X134489075Y-57014916D01*
X134599794Y-56940936D01*
X134722818Y-56889978D01*
X134773092Y-56879978D01*
X134853418Y-56864000D01*
X134986582Y-56864000D01*
X135066908Y-56879978D01*
X135066908Y-56879978D01*
G37*
G36*
X127996908Y-56879978D02*
G01*
X128047182Y-56889978D01*
X128170206Y-56940936D01*
X128280925Y-57014916D01*
X128375084Y-57109075D01*
X128449064Y-57219794D01*
X128495880Y-57332819D01*
X128500022Y-57342819D01*
X128526000Y-57473418D01*
X128526000Y-57606582D01*
X128508681Y-57693648D01*
X128500022Y-57737182D01*
X128449064Y-57860206D01*
X128375084Y-57970925D01*
X128280925Y-58065084D01*
X128170206Y-58139064D01*
X128047182Y-58190022D01*
X128023176Y-58194797D01*
X127916582Y-58216000D01*
X127783418Y-58216000D01*
X127676824Y-58194797D01*
X127652818Y-58190022D01*
X127529794Y-58139064D01*
X127419075Y-58065084D01*
X127324916Y-57970925D01*
X127250936Y-57860206D01*
X127199978Y-57737182D01*
X127191319Y-57693648D01*
X127174000Y-57606582D01*
X127174000Y-57473418D01*
X127199978Y-57342819D01*
X127204120Y-57332819D01*
X127250936Y-57219794D01*
X127324916Y-57109075D01*
X127419075Y-57014916D01*
X127529794Y-56940936D01*
X127652818Y-56889978D01*
X127703092Y-56879978D01*
X127783418Y-56864000D01*
X127916582Y-56864000D01*
X127996908Y-56879978D01*
X127996908Y-56879978D01*
G37*
G36*
X133416908Y-56879978D02*
G01*
X133467182Y-56889978D01*
X133590206Y-56940936D01*
X133700925Y-57014916D01*
X133795084Y-57109075D01*
X133869064Y-57219794D01*
X133915880Y-57332819D01*
X133920022Y-57342819D01*
X133946000Y-57473418D01*
X133946000Y-57606582D01*
X133928681Y-57693648D01*
X133920022Y-57737182D01*
X133869064Y-57860206D01*
X133795084Y-57970925D01*
X133700925Y-58065084D01*
X133590206Y-58139064D01*
X133467182Y-58190022D01*
X133443176Y-58194797D01*
X133336582Y-58216000D01*
X133203418Y-58216000D01*
X133096824Y-58194797D01*
X133072818Y-58190022D01*
X132949794Y-58139064D01*
X132839075Y-58065084D01*
X132744916Y-57970925D01*
X132670936Y-57860206D01*
X132619978Y-57737182D01*
X132611319Y-57693648D01*
X132594000Y-57606582D01*
X132594000Y-57473418D01*
X132619978Y-57342819D01*
X132624120Y-57332819D01*
X132670936Y-57219794D01*
X132744916Y-57109075D01*
X132839075Y-57014916D01*
X132949794Y-56940936D01*
X133072818Y-56889978D01*
X133123092Y-56879978D01*
X133203418Y-56864000D01*
X133336582Y-56864000D01*
X133416908Y-56879978D01*
X133416908Y-56879978D01*
G37*
G36*
X131766908Y-56869978D02*
G01*
X131817182Y-56879978D01*
X131940206Y-56930936D01*
X132050925Y-57004916D01*
X132145084Y-57099075D01*
X132219064Y-57209794D01*
X132265880Y-57322819D01*
X132270022Y-57332819D01*
X132296000Y-57463418D01*
X132296000Y-57596582D01*
X132278681Y-57683648D01*
X132270022Y-57727182D01*
X132219064Y-57850206D01*
X132145084Y-57960925D01*
X132050925Y-58055084D01*
X131940206Y-58129064D01*
X131817182Y-58180022D01*
X131793176Y-58184797D01*
X131686582Y-58206000D01*
X131553418Y-58206000D01*
X131446824Y-58184797D01*
X131422818Y-58180022D01*
X131299794Y-58129064D01*
X131189075Y-58055084D01*
X131094916Y-57960925D01*
X131020936Y-57850206D01*
X130969978Y-57727182D01*
X130961319Y-57683648D01*
X130944000Y-57596582D01*
X130944000Y-57463418D01*
X130969978Y-57332819D01*
X130974120Y-57322819D01*
X131020936Y-57209794D01*
X131094916Y-57099075D01*
X131189075Y-57004916D01*
X131299794Y-56930936D01*
X131422818Y-56879978D01*
X131473092Y-56869978D01*
X131553418Y-56854000D01*
X131686582Y-56854000D01*
X131766908Y-56869978D01*
X131766908Y-56869978D01*
G37*
G36*
X123023648Y-56861319D02*
G01*
X123067182Y-56869978D01*
X123190206Y-56920936D01*
X123300925Y-56994916D01*
X123395084Y-57089075D01*
X123469064Y-57199794D01*
X123511738Y-57302819D01*
X123520022Y-57322819D01*
X123546000Y-57453418D01*
X123546000Y-57586582D01*
X123528681Y-57673648D01*
X123520022Y-57717182D01*
X123469064Y-57840206D01*
X123395084Y-57950925D01*
X123300925Y-58045084D01*
X123190206Y-58119064D01*
X123067182Y-58170022D01*
X123037128Y-58176000D01*
X122936582Y-58196000D01*
X122803418Y-58196000D01*
X122702872Y-58176000D01*
X122672818Y-58170022D01*
X122549794Y-58119064D01*
X122439075Y-58045084D01*
X122344916Y-57950925D01*
X122270936Y-57840206D01*
X122219978Y-57717182D01*
X122211319Y-57673648D01*
X122194000Y-57586582D01*
X122194000Y-57453418D01*
X122219978Y-57322819D01*
X122228262Y-57302819D01*
X122270936Y-57199794D01*
X122344916Y-57089075D01*
X122439075Y-56994916D01*
X122549794Y-56920936D01*
X122672818Y-56869978D01*
X122716352Y-56861319D01*
X122803418Y-56844000D01*
X122936582Y-56844000D01*
X123023648Y-56861319D01*
X123023648Y-56861319D01*
G37*
G36*
X126336908Y-56839978D02*
G01*
X126387182Y-56849978D01*
X126510206Y-56900936D01*
X126620925Y-56974916D01*
X126715084Y-57069075D01*
X126789064Y-57179794D01*
X126835880Y-57292819D01*
X126840022Y-57302819D01*
X126866000Y-57433418D01*
X126866000Y-57566582D01*
X126852742Y-57633232D01*
X126840022Y-57697182D01*
X126789064Y-57820206D01*
X126715084Y-57930925D01*
X126620925Y-58025084D01*
X126510206Y-58099064D01*
X126387182Y-58150022D01*
X126357128Y-58156000D01*
X126256582Y-58176000D01*
X126123418Y-58176000D01*
X126022872Y-58156000D01*
X125992818Y-58150022D01*
X125869794Y-58099064D01*
X125759075Y-58025084D01*
X125664916Y-57930925D01*
X125590936Y-57820206D01*
X125539978Y-57697182D01*
X125527258Y-57633232D01*
X125514000Y-57566582D01*
X125514000Y-57433418D01*
X125539978Y-57302819D01*
X125544120Y-57292819D01*
X125590936Y-57179794D01*
X125664916Y-57069075D01*
X125759075Y-56974916D01*
X125869794Y-56900936D01*
X125992818Y-56849978D01*
X126043092Y-56839978D01*
X126123418Y-56824000D01*
X126256582Y-56824000D01*
X126336908Y-56839978D01*
X126336908Y-56839978D01*
G37*
G36*
X117806908Y-56829978D02*
G01*
X117857182Y-56839978D01*
X117980206Y-56890936D01*
X118090925Y-56964916D01*
X118185084Y-57059075D01*
X118259064Y-57169794D01*
X118305880Y-57282819D01*
X118310022Y-57292819D01*
X118336000Y-57423418D01*
X118336000Y-57556582D01*
X118324065Y-57616582D01*
X118310022Y-57687182D01*
X118259064Y-57810206D01*
X118185084Y-57920925D01*
X118090925Y-58015084D01*
X117980206Y-58089064D01*
X117857182Y-58140022D01*
X117813648Y-58148681D01*
X117726582Y-58166000D01*
X117593418Y-58166000D01*
X117506352Y-58148681D01*
X117462818Y-58140022D01*
X117339794Y-58089064D01*
X117229075Y-58015084D01*
X117134916Y-57920925D01*
X117060936Y-57810206D01*
X117009978Y-57687182D01*
X116995935Y-57616582D01*
X116984000Y-57556582D01*
X116984000Y-57423418D01*
X117009978Y-57292819D01*
X117014120Y-57282819D01*
X117060936Y-57169794D01*
X117134916Y-57059075D01*
X117229075Y-56964916D01*
X117339794Y-56890936D01*
X117462818Y-56839978D01*
X117513092Y-56829978D01*
X117593418Y-56814000D01*
X117726582Y-56814000D01*
X117806908Y-56829978D01*
X117806908Y-56829978D01*
G37*
G36*
X119456908Y-56829978D02*
G01*
X119507182Y-56839978D01*
X119630206Y-56890936D01*
X119740925Y-56964916D01*
X119835084Y-57059075D01*
X119909064Y-57169794D01*
X119955880Y-57282819D01*
X119960022Y-57292819D01*
X119986000Y-57423418D01*
X119986000Y-57556582D01*
X119974065Y-57616582D01*
X119960022Y-57687182D01*
X119909064Y-57810206D01*
X119835084Y-57920925D01*
X119740925Y-58015084D01*
X119630206Y-58089064D01*
X119507182Y-58140022D01*
X119463648Y-58148681D01*
X119376582Y-58166000D01*
X119243418Y-58166000D01*
X119156352Y-58148681D01*
X119112818Y-58140022D01*
X118989794Y-58089064D01*
X118879075Y-58015084D01*
X118784916Y-57920925D01*
X118710936Y-57810206D01*
X118659978Y-57687182D01*
X118645935Y-57616582D01*
X118634000Y-57556582D01*
X118634000Y-57423418D01*
X118659978Y-57292819D01*
X118664120Y-57282819D01*
X118710936Y-57169794D01*
X118784916Y-57059075D01*
X118879075Y-56964916D01*
X118989794Y-56890936D01*
X119112818Y-56839978D01*
X119163092Y-56829978D01*
X119243418Y-56814000D01*
X119376582Y-56814000D01*
X119456908Y-56829978D01*
X119456908Y-56829978D01*
G37*
G36*
X124683648Y-56821319D02*
G01*
X124727182Y-56829978D01*
X124850206Y-56880936D01*
X124960925Y-56954916D01*
X125055084Y-57049075D01*
X125129064Y-57159794D01*
X125180022Y-57282818D01*
X125180022Y-57282819D01*
X125206000Y-57413418D01*
X125206000Y-57546582D01*
X125194065Y-57606582D01*
X125180022Y-57677182D01*
X125129064Y-57800206D01*
X125055084Y-57910925D01*
X124960925Y-58005084D01*
X124850206Y-58079064D01*
X124727182Y-58130022D01*
X124683648Y-58138681D01*
X124596582Y-58156000D01*
X124463418Y-58156000D01*
X124376352Y-58138681D01*
X124332818Y-58130022D01*
X124209794Y-58079064D01*
X124099075Y-58005084D01*
X124004916Y-57910925D01*
X123930936Y-57800206D01*
X123879978Y-57677182D01*
X123865935Y-57606582D01*
X123854000Y-57546582D01*
X123854000Y-57413418D01*
X123879978Y-57282819D01*
X123879978Y-57282818D01*
X123930936Y-57159794D01*
X124004916Y-57049075D01*
X124099075Y-56954916D01*
X124209794Y-56880936D01*
X124332818Y-56829978D01*
X124376352Y-56821319D01*
X124463418Y-56804000D01*
X124596582Y-56804000D01*
X124683648Y-56821319D01*
X124683648Y-56821319D01*
G37*
G36*
X121113648Y-56821319D02*
G01*
X121157182Y-56829978D01*
X121280206Y-56880936D01*
X121390925Y-56954916D01*
X121485084Y-57049075D01*
X121559064Y-57159794D01*
X121610022Y-57282818D01*
X121610022Y-57282819D01*
X121636000Y-57413418D01*
X121636000Y-57546582D01*
X121624065Y-57606582D01*
X121610022Y-57677182D01*
X121559064Y-57800206D01*
X121485084Y-57910925D01*
X121390925Y-58005084D01*
X121280206Y-58079064D01*
X121157182Y-58130022D01*
X121113648Y-58138681D01*
X121026582Y-58156000D01*
X120893418Y-58156000D01*
X120806352Y-58138681D01*
X120762818Y-58130022D01*
X120639794Y-58079064D01*
X120529075Y-58005084D01*
X120434916Y-57910925D01*
X120360936Y-57800206D01*
X120309978Y-57677182D01*
X120295935Y-57606582D01*
X120284000Y-57546582D01*
X120284000Y-57413418D01*
X120309978Y-57282819D01*
X120309978Y-57282818D01*
X120360936Y-57159794D01*
X120434916Y-57049075D01*
X120529075Y-56954916D01*
X120639794Y-56880936D01*
X120762818Y-56829978D01*
X120806352Y-56821319D01*
X120893418Y-56804000D01*
X121026582Y-56804000D01*
X121113648Y-56821319D01*
X121113648Y-56821319D01*
G37*
M02*
