G04 #@! TF.GenerationSoftware,KiCad,Pcbnew,(5.1.4)-1*
G04 #@! TF.CreationDate,2019-11-10T16:51:08-05:00*
G04 #@! TF.ProjectId,UniAmp,556e6941-6d70-42e6-9b69-6361645f7063,rev?*
G04 #@! TF.SameCoordinates,Original*
G04 #@! TF.FileFunction,Paste,Top*
G04 #@! TF.FilePolarity,Positive*
%FSLAX46Y46*%
G04 Gerber Fmt 4.6, Leading zero omitted, Abs format (unit mm)*
G04 Created by KiCad (PCBNEW (5.1.4)-1) date 2019-11-10 16:51:08*
%MOMM*%
%LPD*%
G04 APERTURE LIST*
%ADD10C,0.100000*%
%ADD11C,0.875000*%
%ADD12C,1.250000*%
%ADD13C,1.090000*%
%ADD14C,0.300000*%
%ADD15C,0.830000*%
%ADD16C,0.250000*%
%ADD17R,1.060000X0.650000*%
G04 APERTURE END LIST*
D10*
G36*
X126587691Y-63926053D02*
G01*
X126608926Y-63929203D01*
X126629750Y-63934419D01*
X126649962Y-63941651D01*
X126669368Y-63950830D01*
X126687781Y-63961866D01*
X126705024Y-63974654D01*
X126720930Y-63989070D01*
X126735346Y-64004976D01*
X126748134Y-64022219D01*
X126759170Y-64040632D01*
X126768349Y-64060038D01*
X126775581Y-64080250D01*
X126780797Y-64101074D01*
X126783947Y-64122309D01*
X126785000Y-64143750D01*
X126785000Y-64581250D01*
X126783947Y-64602691D01*
X126780797Y-64623926D01*
X126775581Y-64644750D01*
X126768349Y-64664962D01*
X126759170Y-64684368D01*
X126748134Y-64702781D01*
X126735346Y-64720024D01*
X126720930Y-64735930D01*
X126705024Y-64750346D01*
X126687781Y-64763134D01*
X126669368Y-64774170D01*
X126649962Y-64783349D01*
X126629750Y-64790581D01*
X126608926Y-64795797D01*
X126587691Y-64798947D01*
X126566250Y-64800000D01*
X126053750Y-64800000D01*
X126032309Y-64798947D01*
X126011074Y-64795797D01*
X125990250Y-64790581D01*
X125970038Y-64783349D01*
X125950632Y-64774170D01*
X125932219Y-64763134D01*
X125914976Y-64750346D01*
X125899070Y-64735930D01*
X125884654Y-64720024D01*
X125871866Y-64702781D01*
X125860830Y-64684368D01*
X125851651Y-64664962D01*
X125844419Y-64644750D01*
X125839203Y-64623926D01*
X125836053Y-64602691D01*
X125835000Y-64581250D01*
X125835000Y-64143750D01*
X125836053Y-64122309D01*
X125839203Y-64101074D01*
X125844419Y-64080250D01*
X125851651Y-64060038D01*
X125860830Y-64040632D01*
X125871866Y-64022219D01*
X125884654Y-64004976D01*
X125899070Y-63989070D01*
X125914976Y-63974654D01*
X125932219Y-63961866D01*
X125950632Y-63950830D01*
X125970038Y-63941651D01*
X125990250Y-63934419D01*
X126011074Y-63929203D01*
X126032309Y-63926053D01*
X126053750Y-63925000D01*
X126566250Y-63925000D01*
X126587691Y-63926053D01*
X126587691Y-63926053D01*
G37*
D11*
X126310000Y-64362500D03*
D10*
G36*
X126587691Y-65501053D02*
G01*
X126608926Y-65504203D01*
X126629750Y-65509419D01*
X126649962Y-65516651D01*
X126669368Y-65525830D01*
X126687781Y-65536866D01*
X126705024Y-65549654D01*
X126720930Y-65564070D01*
X126735346Y-65579976D01*
X126748134Y-65597219D01*
X126759170Y-65615632D01*
X126768349Y-65635038D01*
X126775581Y-65655250D01*
X126780797Y-65676074D01*
X126783947Y-65697309D01*
X126785000Y-65718750D01*
X126785000Y-66156250D01*
X126783947Y-66177691D01*
X126780797Y-66198926D01*
X126775581Y-66219750D01*
X126768349Y-66239962D01*
X126759170Y-66259368D01*
X126748134Y-66277781D01*
X126735346Y-66295024D01*
X126720930Y-66310930D01*
X126705024Y-66325346D01*
X126687781Y-66338134D01*
X126669368Y-66349170D01*
X126649962Y-66358349D01*
X126629750Y-66365581D01*
X126608926Y-66370797D01*
X126587691Y-66373947D01*
X126566250Y-66375000D01*
X126053750Y-66375000D01*
X126032309Y-66373947D01*
X126011074Y-66370797D01*
X125990250Y-66365581D01*
X125970038Y-66358349D01*
X125950632Y-66349170D01*
X125932219Y-66338134D01*
X125914976Y-66325346D01*
X125899070Y-66310930D01*
X125884654Y-66295024D01*
X125871866Y-66277781D01*
X125860830Y-66259368D01*
X125851651Y-66239962D01*
X125844419Y-66219750D01*
X125839203Y-66198926D01*
X125836053Y-66177691D01*
X125835000Y-66156250D01*
X125835000Y-65718750D01*
X125836053Y-65697309D01*
X125839203Y-65676074D01*
X125844419Y-65655250D01*
X125851651Y-65635038D01*
X125860830Y-65615632D01*
X125871866Y-65597219D01*
X125884654Y-65579976D01*
X125899070Y-65564070D01*
X125914976Y-65549654D01*
X125932219Y-65536866D01*
X125950632Y-65525830D01*
X125970038Y-65516651D01*
X125990250Y-65509419D01*
X126011074Y-65504203D01*
X126032309Y-65501053D01*
X126053750Y-65500000D01*
X126566250Y-65500000D01*
X126587691Y-65501053D01*
X126587691Y-65501053D01*
G37*
D11*
X126310000Y-65937500D03*
D10*
G36*
X121807691Y-65126053D02*
G01*
X121828926Y-65129203D01*
X121849750Y-65134419D01*
X121869962Y-65141651D01*
X121889368Y-65150830D01*
X121907781Y-65161866D01*
X121925024Y-65174654D01*
X121940930Y-65189070D01*
X121955346Y-65204976D01*
X121968134Y-65222219D01*
X121979170Y-65240632D01*
X121988349Y-65260038D01*
X121995581Y-65280250D01*
X122000797Y-65301074D01*
X122003947Y-65322309D01*
X122005000Y-65343750D01*
X122005000Y-65856250D01*
X122003947Y-65877691D01*
X122000797Y-65898926D01*
X121995581Y-65919750D01*
X121988349Y-65939962D01*
X121979170Y-65959368D01*
X121968134Y-65977781D01*
X121955346Y-65995024D01*
X121940930Y-66010930D01*
X121925024Y-66025346D01*
X121907781Y-66038134D01*
X121889368Y-66049170D01*
X121869962Y-66058349D01*
X121849750Y-66065581D01*
X121828926Y-66070797D01*
X121807691Y-66073947D01*
X121786250Y-66075000D01*
X121348750Y-66075000D01*
X121327309Y-66073947D01*
X121306074Y-66070797D01*
X121285250Y-66065581D01*
X121265038Y-66058349D01*
X121245632Y-66049170D01*
X121227219Y-66038134D01*
X121209976Y-66025346D01*
X121194070Y-66010930D01*
X121179654Y-65995024D01*
X121166866Y-65977781D01*
X121155830Y-65959368D01*
X121146651Y-65939962D01*
X121139419Y-65919750D01*
X121134203Y-65898926D01*
X121131053Y-65877691D01*
X121130000Y-65856250D01*
X121130000Y-65343750D01*
X121131053Y-65322309D01*
X121134203Y-65301074D01*
X121139419Y-65280250D01*
X121146651Y-65260038D01*
X121155830Y-65240632D01*
X121166866Y-65222219D01*
X121179654Y-65204976D01*
X121194070Y-65189070D01*
X121209976Y-65174654D01*
X121227219Y-65161866D01*
X121245632Y-65150830D01*
X121265038Y-65141651D01*
X121285250Y-65134419D01*
X121306074Y-65129203D01*
X121327309Y-65126053D01*
X121348750Y-65125000D01*
X121786250Y-65125000D01*
X121807691Y-65126053D01*
X121807691Y-65126053D01*
G37*
D11*
X121567500Y-65600000D03*
D10*
G36*
X120232691Y-65126053D02*
G01*
X120253926Y-65129203D01*
X120274750Y-65134419D01*
X120294962Y-65141651D01*
X120314368Y-65150830D01*
X120332781Y-65161866D01*
X120350024Y-65174654D01*
X120365930Y-65189070D01*
X120380346Y-65204976D01*
X120393134Y-65222219D01*
X120404170Y-65240632D01*
X120413349Y-65260038D01*
X120420581Y-65280250D01*
X120425797Y-65301074D01*
X120428947Y-65322309D01*
X120430000Y-65343750D01*
X120430000Y-65856250D01*
X120428947Y-65877691D01*
X120425797Y-65898926D01*
X120420581Y-65919750D01*
X120413349Y-65939962D01*
X120404170Y-65959368D01*
X120393134Y-65977781D01*
X120380346Y-65995024D01*
X120365930Y-66010930D01*
X120350024Y-66025346D01*
X120332781Y-66038134D01*
X120314368Y-66049170D01*
X120294962Y-66058349D01*
X120274750Y-66065581D01*
X120253926Y-66070797D01*
X120232691Y-66073947D01*
X120211250Y-66075000D01*
X119773750Y-66075000D01*
X119752309Y-66073947D01*
X119731074Y-66070797D01*
X119710250Y-66065581D01*
X119690038Y-66058349D01*
X119670632Y-66049170D01*
X119652219Y-66038134D01*
X119634976Y-66025346D01*
X119619070Y-66010930D01*
X119604654Y-65995024D01*
X119591866Y-65977781D01*
X119580830Y-65959368D01*
X119571651Y-65939962D01*
X119564419Y-65919750D01*
X119559203Y-65898926D01*
X119556053Y-65877691D01*
X119555000Y-65856250D01*
X119555000Y-65343750D01*
X119556053Y-65322309D01*
X119559203Y-65301074D01*
X119564419Y-65280250D01*
X119571651Y-65260038D01*
X119580830Y-65240632D01*
X119591866Y-65222219D01*
X119604654Y-65204976D01*
X119619070Y-65189070D01*
X119634976Y-65174654D01*
X119652219Y-65161866D01*
X119670632Y-65150830D01*
X119690038Y-65141651D01*
X119710250Y-65134419D01*
X119731074Y-65129203D01*
X119752309Y-65126053D01*
X119773750Y-65125000D01*
X120211250Y-65125000D01*
X120232691Y-65126053D01*
X120232691Y-65126053D01*
G37*
D11*
X119992500Y-65600000D03*
D10*
G36*
X127627691Y-62198553D02*
G01*
X127648926Y-62201703D01*
X127669750Y-62206919D01*
X127689962Y-62214151D01*
X127709368Y-62223330D01*
X127727781Y-62234366D01*
X127745024Y-62247154D01*
X127760930Y-62261570D01*
X127775346Y-62277476D01*
X127788134Y-62294719D01*
X127799170Y-62313132D01*
X127808349Y-62332538D01*
X127815581Y-62352750D01*
X127820797Y-62373574D01*
X127823947Y-62394809D01*
X127825000Y-62416250D01*
X127825000Y-62853750D01*
X127823947Y-62875191D01*
X127820797Y-62896426D01*
X127815581Y-62917250D01*
X127808349Y-62937462D01*
X127799170Y-62956868D01*
X127788134Y-62975281D01*
X127775346Y-62992524D01*
X127760930Y-63008430D01*
X127745024Y-63022846D01*
X127727781Y-63035634D01*
X127709368Y-63046670D01*
X127689962Y-63055849D01*
X127669750Y-63063081D01*
X127648926Y-63068297D01*
X127627691Y-63071447D01*
X127606250Y-63072500D01*
X127093750Y-63072500D01*
X127072309Y-63071447D01*
X127051074Y-63068297D01*
X127030250Y-63063081D01*
X127010038Y-63055849D01*
X126990632Y-63046670D01*
X126972219Y-63035634D01*
X126954976Y-63022846D01*
X126939070Y-63008430D01*
X126924654Y-62992524D01*
X126911866Y-62975281D01*
X126900830Y-62956868D01*
X126891651Y-62937462D01*
X126884419Y-62917250D01*
X126879203Y-62896426D01*
X126876053Y-62875191D01*
X126875000Y-62853750D01*
X126875000Y-62416250D01*
X126876053Y-62394809D01*
X126879203Y-62373574D01*
X126884419Y-62352750D01*
X126891651Y-62332538D01*
X126900830Y-62313132D01*
X126911866Y-62294719D01*
X126924654Y-62277476D01*
X126939070Y-62261570D01*
X126954976Y-62247154D01*
X126972219Y-62234366D01*
X126990632Y-62223330D01*
X127010038Y-62214151D01*
X127030250Y-62206919D01*
X127051074Y-62201703D01*
X127072309Y-62198553D01*
X127093750Y-62197500D01*
X127606250Y-62197500D01*
X127627691Y-62198553D01*
X127627691Y-62198553D01*
G37*
D11*
X127350000Y-62635000D03*
D10*
G36*
X127627691Y-60623553D02*
G01*
X127648926Y-60626703D01*
X127669750Y-60631919D01*
X127689962Y-60639151D01*
X127709368Y-60648330D01*
X127727781Y-60659366D01*
X127745024Y-60672154D01*
X127760930Y-60686570D01*
X127775346Y-60702476D01*
X127788134Y-60719719D01*
X127799170Y-60738132D01*
X127808349Y-60757538D01*
X127815581Y-60777750D01*
X127820797Y-60798574D01*
X127823947Y-60819809D01*
X127825000Y-60841250D01*
X127825000Y-61278750D01*
X127823947Y-61300191D01*
X127820797Y-61321426D01*
X127815581Y-61342250D01*
X127808349Y-61362462D01*
X127799170Y-61381868D01*
X127788134Y-61400281D01*
X127775346Y-61417524D01*
X127760930Y-61433430D01*
X127745024Y-61447846D01*
X127727781Y-61460634D01*
X127709368Y-61471670D01*
X127689962Y-61480849D01*
X127669750Y-61488081D01*
X127648926Y-61493297D01*
X127627691Y-61496447D01*
X127606250Y-61497500D01*
X127093750Y-61497500D01*
X127072309Y-61496447D01*
X127051074Y-61493297D01*
X127030250Y-61488081D01*
X127010038Y-61480849D01*
X126990632Y-61471670D01*
X126972219Y-61460634D01*
X126954976Y-61447846D01*
X126939070Y-61433430D01*
X126924654Y-61417524D01*
X126911866Y-61400281D01*
X126900830Y-61381868D01*
X126891651Y-61362462D01*
X126884419Y-61342250D01*
X126879203Y-61321426D01*
X126876053Y-61300191D01*
X126875000Y-61278750D01*
X126875000Y-60841250D01*
X126876053Y-60819809D01*
X126879203Y-60798574D01*
X126884419Y-60777750D01*
X126891651Y-60757538D01*
X126900830Y-60738132D01*
X126911866Y-60719719D01*
X126924654Y-60702476D01*
X126939070Y-60686570D01*
X126954976Y-60672154D01*
X126972219Y-60659366D01*
X126990632Y-60648330D01*
X127010038Y-60639151D01*
X127030250Y-60631919D01*
X127051074Y-60626703D01*
X127072309Y-60623553D01*
X127093750Y-60622500D01*
X127606250Y-60622500D01*
X127627691Y-60623553D01*
X127627691Y-60623553D01*
G37*
D11*
X127350000Y-61060000D03*
D10*
G36*
X129227691Y-72813553D02*
G01*
X129248926Y-72816703D01*
X129269750Y-72821919D01*
X129289962Y-72829151D01*
X129309368Y-72838330D01*
X129327781Y-72849366D01*
X129345024Y-72862154D01*
X129360930Y-72876570D01*
X129375346Y-72892476D01*
X129388134Y-72909719D01*
X129399170Y-72928132D01*
X129408349Y-72947538D01*
X129415581Y-72967750D01*
X129420797Y-72988574D01*
X129423947Y-73009809D01*
X129425000Y-73031250D01*
X129425000Y-73468750D01*
X129423947Y-73490191D01*
X129420797Y-73511426D01*
X129415581Y-73532250D01*
X129408349Y-73552462D01*
X129399170Y-73571868D01*
X129388134Y-73590281D01*
X129375346Y-73607524D01*
X129360930Y-73623430D01*
X129345024Y-73637846D01*
X129327781Y-73650634D01*
X129309368Y-73661670D01*
X129289962Y-73670849D01*
X129269750Y-73678081D01*
X129248926Y-73683297D01*
X129227691Y-73686447D01*
X129206250Y-73687500D01*
X128693750Y-73687500D01*
X128672309Y-73686447D01*
X128651074Y-73683297D01*
X128630250Y-73678081D01*
X128610038Y-73670849D01*
X128590632Y-73661670D01*
X128572219Y-73650634D01*
X128554976Y-73637846D01*
X128539070Y-73623430D01*
X128524654Y-73607524D01*
X128511866Y-73590281D01*
X128500830Y-73571868D01*
X128491651Y-73552462D01*
X128484419Y-73532250D01*
X128479203Y-73511426D01*
X128476053Y-73490191D01*
X128475000Y-73468750D01*
X128475000Y-73031250D01*
X128476053Y-73009809D01*
X128479203Y-72988574D01*
X128484419Y-72967750D01*
X128491651Y-72947538D01*
X128500830Y-72928132D01*
X128511866Y-72909719D01*
X128524654Y-72892476D01*
X128539070Y-72876570D01*
X128554976Y-72862154D01*
X128572219Y-72849366D01*
X128590632Y-72838330D01*
X128610038Y-72829151D01*
X128630250Y-72821919D01*
X128651074Y-72816703D01*
X128672309Y-72813553D01*
X128693750Y-72812500D01*
X129206250Y-72812500D01*
X129227691Y-72813553D01*
X129227691Y-72813553D01*
G37*
D11*
X128950000Y-73250000D03*
D10*
G36*
X129227691Y-74388553D02*
G01*
X129248926Y-74391703D01*
X129269750Y-74396919D01*
X129289962Y-74404151D01*
X129309368Y-74413330D01*
X129327781Y-74424366D01*
X129345024Y-74437154D01*
X129360930Y-74451570D01*
X129375346Y-74467476D01*
X129388134Y-74484719D01*
X129399170Y-74503132D01*
X129408349Y-74522538D01*
X129415581Y-74542750D01*
X129420797Y-74563574D01*
X129423947Y-74584809D01*
X129425000Y-74606250D01*
X129425000Y-75043750D01*
X129423947Y-75065191D01*
X129420797Y-75086426D01*
X129415581Y-75107250D01*
X129408349Y-75127462D01*
X129399170Y-75146868D01*
X129388134Y-75165281D01*
X129375346Y-75182524D01*
X129360930Y-75198430D01*
X129345024Y-75212846D01*
X129327781Y-75225634D01*
X129309368Y-75236670D01*
X129289962Y-75245849D01*
X129269750Y-75253081D01*
X129248926Y-75258297D01*
X129227691Y-75261447D01*
X129206250Y-75262500D01*
X128693750Y-75262500D01*
X128672309Y-75261447D01*
X128651074Y-75258297D01*
X128630250Y-75253081D01*
X128610038Y-75245849D01*
X128590632Y-75236670D01*
X128572219Y-75225634D01*
X128554976Y-75212846D01*
X128539070Y-75198430D01*
X128524654Y-75182524D01*
X128511866Y-75165281D01*
X128500830Y-75146868D01*
X128491651Y-75127462D01*
X128484419Y-75107250D01*
X128479203Y-75086426D01*
X128476053Y-75065191D01*
X128475000Y-75043750D01*
X128475000Y-74606250D01*
X128476053Y-74584809D01*
X128479203Y-74563574D01*
X128484419Y-74542750D01*
X128491651Y-74522538D01*
X128500830Y-74503132D01*
X128511866Y-74484719D01*
X128524654Y-74467476D01*
X128539070Y-74451570D01*
X128554976Y-74437154D01*
X128572219Y-74424366D01*
X128590632Y-74413330D01*
X128610038Y-74404151D01*
X128630250Y-74396919D01*
X128651074Y-74391703D01*
X128672309Y-74388553D01*
X128693750Y-74387500D01*
X129206250Y-74387500D01*
X129227691Y-74388553D01*
X129227691Y-74388553D01*
G37*
D11*
X128950000Y-74825000D03*
D10*
G36*
X129327691Y-62198553D02*
G01*
X129348926Y-62201703D01*
X129369750Y-62206919D01*
X129389962Y-62214151D01*
X129409368Y-62223330D01*
X129427781Y-62234366D01*
X129445024Y-62247154D01*
X129460930Y-62261570D01*
X129475346Y-62277476D01*
X129488134Y-62294719D01*
X129499170Y-62313132D01*
X129508349Y-62332538D01*
X129515581Y-62352750D01*
X129520797Y-62373574D01*
X129523947Y-62394809D01*
X129525000Y-62416250D01*
X129525000Y-62853750D01*
X129523947Y-62875191D01*
X129520797Y-62896426D01*
X129515581Y-62917250D01*
X129508349Y-62937462D01*
X129499170Y-62956868D01*
X129488134Y-62975281D01*
X129475346Y-62992524D01*
X129460930Y-63008430D01*
X129445024Y-63022846D01*
X129427781Y-63035634D01*
X129409368Y-63046670D01*
X129389962Y-63055849D01*
X129369750Y-63063081D01*
X129348926Y-63068297D01*
X129327691Y-63071447D01*
X129306250Y-63072500D01*
X128793750Y-63072500D01*
X128772309Y-63071447D01*
X128751074Y-63068297D01*
X128730250Y-63063081D01*
X128710038Y-63055849D01*
X128690632Y-63046670D01*
X128672219Y-63035634D01*
X128654976Y-63022846D01*
X128639070Y-63008430D01*
X128624654Y-62992524D01*
X128611866Y-62975281D01*
X128600830Y-62956868D01*
X128591651Y-62937462D01*
X128584419Y-62917250D01*
X128579203Y-62896426D01*
X128576053Y-62875191D01*
X128575000Y-62853750D01*
X128575000Y-62416250D01*
X128576053Y-62394809D01*
X128579203Y-62373574D01*
X128584419Y-62352750D01*
X128591651Y-62332538D01*
X128600830Y-62313132D01*
X128611866Y-62294719D01*
X128624654Y-62277476D01*
X128639070Y-62261570D01*
X128654976Y-62247154D01*
X128672219Y-62234366D01*
X128690632Y-62223330D01*
X128710038Y-62214151D01*
X128730250Y-62206919D01*
X128751074Y-62201703D01*
X128772309Y-62198553D01*
X128793750Y-62197500D01*
X129306250Y-62197500D01*
X129327691Y-62198553D01*
X129327691Y-62198553D01*
G37*
D11*
X129050000Y-62635000D03*
D10*
G36*
X129327691Y-60623553D02*
G01*
X129348926Y-60626703D01*
X129369750Y-60631919D01*
X129389962Y-60639151D01*
X129409368Y-60648330D01*
X129427781Y-60659366D01*
X129445024Y-60672154D01*
X129460930Y-60686570D01*
X129475346Y-60702476D01*
X129488134Y-60719719D01*
X129499170Y-60738132D01*
X129508349Y-60757538D01*
X129515581Y-60777750D01*
X129520797Y-60798574D01*
X129523947Y-60819809D01*
X129525000Y-60841250D01*
X129525000Y-61278750D01*
X129523947Y-61300191D01*
X129520797Y-61321426D01*
X129515581Y-61342250D01*
X129508349Y-61362462D01*
X129499170Y-61381868D01*
X129488134Y-61400281D01*
X129475346Y-61417524D01*
X129460930Y-61433430D01*
X129445024Y-61447846D01*
X129427781Y-61460634D01*
X129409368Y-61471670D01*
X129389962Y-61480849D01*
X129369750Y-61488081D01*
X129348926Y-61493297D01*
X129327691Y-61496447D01*
X129306250Y-61497500D01*
X128793750Y-61497500D01*
X128772309Y-61496447D01*
X128751074Y-61493297D01*
X128730250Y-61488081D01*
X128710038Y-61480849D01*
X128690632Y-61471670D01*
X128672219Y-61460634D01*
X128654976Y-61447846D01*
X128639070Y-61433430D01*
X128624654Y-61417524D01*
X128611866Y-61400281D01*
X128600830Y-61381868D01*
X128591651Y-61362462D01*
X128584419Y-61342250D01*
X128579203Y-61321426D01*
X128576053Y-61300191D01*
X128575000Y-61278750D01*
X128575000Y-60841250D01*
X128576053Y-60819809D01*
X128579203Y-60798574D01*
X128584419Y-60777750D01*
X128591651Y-60757538D01*
X128600830Y-60738132D01*
X128611866Y-60719719D01*
X128624654Y-60702476D01*
X128639070Y-60686570D01*
X128654976Y-60672154D01*
X128672219Y-60659366D01*
X128690632Y-60648330D01*
X128710038Y-60639151D01*
X128730250Y-60631919D01*
X128751074Y-60626703D01*
X128772309Y-60623553D01*
X128793750Y-60622500D01*
X129306250Y-60622500D01*
X129327691Y-60623553D01*
X129327691Y-60623553D01*
G37*
D11*
X129050000Y-61060000D03*
D10*
G36*
X131367691Y-60623553D02*
G01*
X131388926Y-60626703D01*
X131409750Y-60631919D01*
X131429962Y-60639151D01*
X131449368Y-60648330D01*
X131467781Y-60659366D01*
X131485024Y-60672154D01*
X131500930Y-60686570D01*
X131515346Y-60702476D01*
X131528134Y-60719719D01*
X131539170Y-60738132D01*
X131548349Y-60757538D01*
X131555581Y-60777750D01*
X131560797Y-60798574D01*
X131563947Y-60819809D01*
X131565000Y-60841250D01*
X131565000Y-61278750D01*
X131563947Y-61300191D01*
X131560797Y-61321426D01*
X131555581Y-61342250D01*
X131548349Y-61362462D01*
X131539170Y-61381868D01*
X131528134Y-61400281D01*
X131515346Y-61417524D01*
X131500930Y-61433430D01*
X131485024Y-61447846D01*
X131467781Y-61460634D01*
X131449368Y-61471670D01*
X131429962Y-61480849D01*
X131409750Y-61488081D01*
X131388926Y-61493297D01*
X131367691Y-61496447D01*
X131346250Y-61497500D01*
X130833750Y-61497500D01*
X130812309Y-61496447D01*
X130791074Y-61493297D01*
X130770250Y-61488081D01*
X130750038Y-61480849D01*
X130730632Y-61471670D01*
X130712219Y-61460634D01*
X130694976Y-61447846D01*
X130679070Y-61433430D01*
X130664654Y-61417524D01*
X130651866Y-61400281D01*
X130640830Y-61381868D01*
X130631651Y-61362462D01*
X130624419Y-61342250D01*
X130619203Y-61321426D01*
X130616053Y-61300191D01*
X130615000Y-61278750D01*
X130615000Y-60841250D01*
X130616053Y-60819809D01*
X130619203Y-60798574D01*
X130624419Y-60777750D01*
X130631651Y-60757538D01*
X130640830Y-60738132D01*
X130651866Y-60719719D01*
X130664654Y-60702476D01*
X130679070Y-60686570D01*
X130694976Y-60672154D01*
X130712219Y-60659366D01*
X130730632Y-60648330D01*
X130750038Y-60639151D01*
X130770250Y-60631919D01*
X130791074Y-60626703D01*
X130812309Y-60623553D01*
X130833750Y-60622500D01*
X131346250Y-60622500D01*
X131367691Y-60623553D01*
X131367691Y-60623553D01*
G37*
D11*
X131090000Y-61060000D03*
D10*
G36*
X131367691Y-62198553D02*
G01*
X131388926Y-62201703D01*
X131409750Y-62206919D01*
X131429962Y-62214151D01*
X131449368Y-62223330D01*
X131467781Y-62234366D01*
X131485024Y-62247154D01*
X131500930Y-62261570D01*
X131515346Y-62277476D01*
X131528134Y-62294719D01*
X131539170Y-62313132D01*
X131548349Y-62332538D01*
X131555581Y-62352750D01*
X131560797Y-62373574D01*
X131563947Y-62394809D01*
X131565000Y-62416250D01*
X131565000Y-62853750D01*
X131563947Y-62875191D01*
X131560797Y-62896426D01*
X131555581Y-62917250D01*
X131548349Y-62937462D01*
X131539170Y-62956868D01*
X131528134Y-62975281D01*
X131515346Y-62992524D01*
X131500930Y-63008430D01*
X131485024Y-63022846D01*
X131467781Y-63035634D01*
X131449368Y-63046670D01*
X131429962Y-63055849D01*
X131409750Y-63063081D01*
X131388926Y-63068297D01*
X131367691Y-63071447D01*
X131346250Y-63072500D01*
X130833750Y-63072500D01*
X130812309Y-63071447D01*
X130791074Y-63068297D01*
X130770250Y-63063081D01*
X130750038Y-63055849D01*
X130730632Y-63046670D01*
X130712219Y-63035634D01*
X130694976Y-63022846D01*
X130679070Y-63008430D01*
X130664654Y-62992524D01*
X130651866Y-62975281D01*
X130640830Y-62956868D01*
X130631651Y-62937462D01*
X130624419Y-62917250D01*
X130619203Y-62896426D01*
X130616053Y-62875191D01*
X130615000Y-62853750D01*
X130615000Y-62416250D01*
X130616053Y-62394809D01*
X130619203Y-62373574D01*
X130624419Y-62352750D01*
X130631651Y-62332538D01*
X130640830Y-62313132D01*
X130651866Y-62294719D01*
X130664654Y-62277476D01*
X130679070Y-62261570D01*
X130694976Y-62247154D01*
X130712219Y-62234366D01*
X130730632Y-62223330D01*
X130750038Y-62214151D01*
X130770250Y-62206919D01*
X130791074Y-62201703D01*
X130812309Y-62198553D01*
X130833750Y-62197500D01*
X131346250Y-62197500D01*
X131367691Y-62198553D01*
X131367691Y-62198553D01*
G37*
D11*
X131090000Y-62635000D03*
D10*
G36*
X131227691Y-74388553D02*
G01*
X131248926Y-74391703D01*
X131269750Y-74396919D01*
X131289962Y-74404151D01*
X131309368Y-74413330D01*
X131327781Y-74424366D01*
X131345024Y-74437154D01*
X131360930Y-74451570D01*
X131375346Y-74467476D01*
X131388134Y-74484719D01*
X131399170Y-74503132D01*
X131408349Y-74522538D01*
X131415581Y-74542750D01*
X131420797Y-74563574D01*
X131423947Y-74584809D01*
X131425000Y-74606250D01*
X131425000Y-75043750D01*
X131423947Y-75065191D01*
X131420797Y-75086426D01*
X131415581Y-75107250D01*
X131408349Y-75127462D01*
X131399170Y-75146868D01*
X131388134Y-75165281D01*
X131375346Y-75182524D01*
X131360930Y-75198430D01*
X131345024Y-75212846D01*
X131327781Y-75225634D01*
X131309368Y-75236670D01*
X131289962Y-75245849D01*
X131269750Y-75253081D01*
X131248926Y-75258297D01*
X131227691Y-75261447D01*
X131206250Y-75262500D01*
X130693750Y-75262500D01*
X130672309Y-75261447D01*
X130651074Y-75258297D01*
X130630250Y-75253081D01*
X130610038Y-75245849D01*
X130590632Y-75236670D01*
X130572219Y-75225634D01*
X130554976Y-75212846D01*
X130539070Y-75198430D01*
X130524654Y-75182524D01*
X130511866Y-75165281D01*
X130500830Y-75146868D01*
X130491651Y-75127462D01*
X130484419Y-75107250D01*
X130479203Y-75086426D01*
X130476053Y-75065191D01*
X130475000Y-75043750D01*
X130475000Y-74606250D01*
X130476053Y-74584809D01*
X130479203Y-74563574D01*
X130484419Y-74542750D01*
X130491651Y-74522538D01*
X130500830Y-74503132D01*
X130511866Y-74484719D01*
X130524654Y-74467476D01*
X130539070Y-74451570D01*
X130554976Y-74437154D01*
X130572219Y-74424366D01*
X130590632Y-74413330D01*
X130610038Y-74404151D01*
X130630250Y-74396919D01*
X130651074Y-74391703D01*
X130672309Y-74388553D01*
X130693750Y-74387500D01*
X131206250Y-74387500D01*
X131227691Y-74388553D01*
X131227691Y-74388553D01*
G37*
D11*
X130950000Y-74825000D03*
D10*
G36*
X131227691Y-72813553D02*
G01*
X131248926Y-72816703D01*
X131269750Y-72821919D01*
X131289962Y-72829151D01*
X131309368Y-72838330D01*
X131327781Y-72849366D01*
X131345024Y-72862154D01*
X131360930Y-72876570D01*
X131375346Y-72892476D01*
X131388134Y-72909719D01*
X131399170Y-72928132D01*
X131408349Y-72947538D01*
X131415581Y-72967750D01*
X131420797Y-72988574D01*
X131423947Y-73009809D01*
X131425000Y-73031250D01*
X131425000Y-73468750D01*
X131423947Y-73490191D01*
X131420797Y-73511426D01*
X131415581Y-73532250D01*
X131408349Y-73552462D01*
X131399170Y-73571868D01*
X131388134Y-73590281D01*
X131375346Y-73607524D01*
X131360930Y-73623430D01*
X131345024Y-73637846D01*
X131327781Y-73650634D01*
X131309368Y-73661670D01*
X131289962Y-73670849D01*
X131269750Y-73678081D01*
X131248926Y-73683297D01*
X131227691Y-73686447D01*
X131206250Y-73687500D01*
X130693750Y-73687500D01*
X130672309Y-73686447D01*
X130651074Y-73683297D01*
X130630250Y-73678081D01*
X130610038Y-73670849D01*
X130590632Y-73661670D01*
X130572219Y-73650634D01*
X130554976Y-73637846D01*
X130539070Y-73623430D01*
X130524654Y-73607524D01*
X130511866Y-73590281D01*
X130500830Y-73571868D01*
X130491651Y-73552462D01*
X130484419Y-73532250D01*
X130479203Y-73511426D01*
X130476053Y-73490191D01*
X130475000Y-73468750D01*
X130475000Y-73031250D01*
X130476053Y-73009809D01*
X130479203Y-72988574D01*
X130484419Y-72967750D01*
X130491651Y-72947538D01*
X130500830Y-72928132D01*
X130511866Y-72909719D01*
X130524654Y-72892476D01*
X130539070Y-72876570D01*
X130554976Y-72862154D01*
X130572219Y-72849366D01*
X130590632Y-72838330D01*
X130610038Y-72829151D01*
X130630250Y-72821919D01*
X130651074Y-72816703D01*
X130672309Y-72813553D01*
X130693750Y-72812500D01*
X131206250Y-72812500D01*
X131227691Y-72813553D01*
X131227691Y-72813553D01*
G37*
D11*
X130950000Y-73250000D03*
D10*
G36*
X135817691Y-64078553D02*
G01*
X135838926Y-64081703D01*
X135859750Y-64086919D01*
X135879962Y-64094151D01*
X135899368Y-64103330D01*
X135917781Y-64114366D01*
X135935024Y-64127154D01*
X135950930Y-64141570D01*
X135965346Y-64157476D01*
X135978134Y-64174719D01*
X135989170Y-64193132D01*
X135998349Y-64212538D01*
X136005581Y-64232750D01*
X136010797Y-64253574D01*
X136013947Y-64274809D01*
X136015000Y-64296250D01*
X136015000Y-64733750D01*
X136013947Y-64755191D01*
X136010797Y-64776426D01*
X136005581Y-64797250D01*
X135998349Y-64817462D01*
X135989170Y-64836868D01*
X135978134Y-64855281D01*
X135965346Y-64872524D01*
X135950930Y-64888430D01*
X135935024Y-64902846D01*
X135917781Y-64915634D01*
X135899368Y-64926670D01*
X135879962Y-64935849D01*
X135859750Y-64943081D01*
X135838926Y-64948297D01*
X135817691Y-64951447D01*
X135796250Y-64952500D01*
X135283750Y-64952500D01*
X135262309Y-64951447D01*
X135241074Y-64948297D01*
X135220250Y-64943081D01*
X135200038Y-64935849D01*
X135180632Y-64926670D01*
X135162219Y-64915634D01*
X135144976Y-64902846D01*
X135129070Y-64888430D01*
X135114654Y-64872524D01*
X135101866Y-64855281D01*
X135090830Y-64836868D01*
X135081651Y-64817462D01*
X135074419Y-64797250D01*
X135069203Y-64776426D01*
X135066053Y-64755191D01*
X135065000Y-64733750D01*
X135065000Y-64296250D01*
X135066053Y-64274809D01*
X135069203Y-64253574D01*
X135074419Y-64232750D01*
X135081651Y-64212538D01*
X135090830Y-64193132D01*
X135101866Y-64174719D01*
X135114654Y-64157476D01*
X135129070Y-64141570D01*
X135144976Y-64127154D01*
X135162219Y-64114366D01*
X135180632Y-64103330D01*
X135200038Y-64094151D01*
X135220250Y-64086919D01*
X135241074Y-64081703D01*
X135262309Y-64078553D01*
X135283750Y-64077500D01*
X135796250Y-64077500D01*
X135817691Y-64078553D01*
X135817691Y-64078553D01*
G37*
D11*
X135540000Y-64515000D03*
D10*
G36*
X135817691Y-65653553D02*
G01*
X135838926Y-65656703D01*
X135859750Y-65661919D01*
X135879962Y-65669151D01*
X135899368Y-65678330D01*
X135917781Y-65689366D01*
X135935024Y-65702154D01*
X135950930Y-65716570D01*
X135965346Y-65732476D01*
X135978134Y-65749719D01*
X135989170Y-65768132D01*
X135998349Y-65787538D01*
X136005581Y-65807750D01*
X136010797Y-65828574D01*
X136013947Y-65849809D01*
X136015000Y-65871250D01*
X136015000Y-66308750D01*
X136013947Y-66330191D01*
X136010797Y-66351426D01*
X136005581Y-66372250D01*
X135998349Y-66392462D01*
X135989170Y-66411868D01*
X135978134Y-66430281D01*
X135965346Y-66447524D01*
X135950930Y-66463430D01*
X135935024Y-66477846D01*
X135917781Y-66490634D01*
X135899368Y-66501670D01*
X135879962Y-66510849D01*
X135859750Y-66518081D01*
X135838926Y-66523297D01*
X135817691Y-66526447D01*
X135796250Y-66527500D01*
X135283750Y-66527500D01*
X135262309Y-66526447D01*
X135241074Y-66523297D01*
X135220250Y-66518081D01*
X135200038Y-66510849D01*
X135180632Y-66501670D01*
X135162219Y-66490634D01*
X135144976Y-66477846D01*
X135129070Y-66463430D01*
X135114654Y-66447524D01*
X135101866Y-66430281D01*
X135090830Y-66411868D01*
X135081651Y-66392462D01*
X135074419Y-66372250D01*
X135069203Y-66351426D01*
X135066053Y-66330191D01*
X135065000Y-66308750D01*
X135065000Y-65871250D01*
X135066053Y-65849809D01*
X135069203Y-65828574D01*
X135074419Y-65807750D01*
X135081651Y-65787538D01*
X135090830Y-65768132D01*
X135101866Y-65749719D01*
X135114654Y-65732476D01*
X135129070Y-65716570D01*
X135144976Y-65702154D01*
X135162219Y-65689366D01*
X135180632Y-65678330D01*
X135200038Y-65669151D01*
X135220250Y-65661919D01*
X135241074Y-65656703D01*
X135262309Y-65653553D01*
X135283750Y-65652500D01*
X135796250Y-65652500D01*
X135817691Y-65653553D01*
X135817691Y-65653553D01*
G37*
D11*
X135540000Y-66090000D03*
D10*
G36*
X135987691Y-71028553D02*
G01*
X136008926Y-71031703D01*
X136029750Y-71036919D01*
X136049962Y-71044151D01*
X136069368Y-71053330D01*
X136087781Y-71064366D01*
X136105024Y-71077154D01*
X136120930Y-71091570D01*
X136135346Y-71107476D01*
X136148134Y-71124719D01*
X136159170Y-71143132D01*
X136168349Y-71162538D01*
X136175581Y-71182750D01*
X136180797Y-71203574D01*
X136183947Y-71224809D01*
X136185000Y-71246250D01*
X136185000Y-71683750D01*
X136183947Y-71705191D01*
X136180797Y-71726426D01*
X136175581Y-71747250D01*
X136168349Y-71767462D01*
X136159170Y-71786868D01*
X136148134Y-71805281D01*
X136135346Y-71822524D01*
X136120930Y-71838430D01*
X136105024Y-71852846D01*
X136087781Y-71865634D01*
X136069368Y-71876670D01*
X136049962Y-71885849D01*
X136029750Y-71893081D01*
X136008926Y-71898297D01*
X135987691Y-71901447D01*
X135966250Y-71902500D01*
X135453750Y-71902500D01*
X135432309Y-71901447D01*
X135411074Y-71898297D01*
X135390250Y-71893081D01*
X135370038Y-71885849D01*
X135350632Y-71876670D01*
X135332219Y-71865634D01*
X135314976Y-71852846D01*
X135299070Y-71838430D01*
X135284654Y-71822524D01*
X135271866Y-71805281D01*
X135260830Y-71786868D01*
X135251651Y-71767462D01*
X135244419Y-71747250D01*
X135239203Y-71726426D01*
X135236053Y-71705191D01*
X135235000Y-71683750D01*
X135235000Y-71246250D01*
X135236053Y-71224809D01*
X135239203Y-71203574D01*
X135244419Y-71182750D01*
X135251651Y-71162538D01*
X135260830Y-71143132D01*
X135271866Y-71124719D01*
X135284654Y-71107476D01*
X135299070Y-71091570D01*
X135314976Y-71077154D01*
X135332219Y-71064366D01*
X135350632Y-71053330D01*
X135370038Y-71044151D01*
X135390250Y-71036919D01*
X135411074Y-71031703D01*
X135432309Y-71028553D01*
X135453750Y-71027500D01*
X135966250Y-71027500D01*
X135987691Y-71028553D01*
X135987691Y-71028553D01*
G37*
D11*
X135710000Y-71465000D03*
D10*
G36*
X135987691Y-69453553D02*
G01*
X136008926Y-69456703D01*
X136029750Y-69461919D01*
X136049962Y-69469151D01*
X136069368Y-69478330D01*
X136087781Y-69489366D01*
X136105024Y-69502154D01*
X136120930Y-69516570D01*
X136135346Y-69532476D01*
X136148134Y-69549719D01*
X136159170Y-69568132D01*
X136168349Y-69587538D01*
X136175581Y-69607750D01*
X136180797Y-69628574D01*
X136183947Y-69649809D01*
X136185000Y-69671250D01*
X136185000Y-70108750D01*
X136183947Y-70130191D01*
X136180797Y-70151426D01*
X136175581Y-70172250D01*
X136168349Y-70192462D01*
X136159170Y-70211868D01*
X136148134Y-70230281D01*
X136135346Y-70247524D01*
X136120930Y-70263430D01*
X136105024Y-70277846D01*
X136087781Y-70290634D01*
X136069368Y-70301670D01*
X136049962Y-70310849D01*
X136029750Y-70318081D01*
X136008926Y-70323297D01*
X135987691Y-70326447D01*
X135966250Y-70327500D01*
X135453750Y-70327500D01*
X135432309Y-70326447D01*
X135411074Y-70323297D01*
X135390250Y-70318081D01*
X135370038Y-70310849D01*
X135350632Y-70301670D01*
X135332219Y-70290634D01*
X135314976Y-70277846D01*
X135299070Y-70263430D01*
X135284654Y-70247524D01*
X135271866Y-70230281D01*
X135260830Y-70211868D01*
X135251651Y-70192462D01*
X135244419Y-70172250D01*
X135239203Y-70151426D01*
X135236053Y-70130191D01*
X135235000Y-70108750D01*
X135235000Y-69671250D01*
X135236053Y-69649809D01*
X135239203Y-69628574D01*
X135244419Y-69607750D01*
X135251651Y-69587538D01*
X135260830Y-69568132D01*
X135271866Y-69549719D01*
X135284654Y-69532476D01*
X135299070Y-69516570D01*
X135314976Y-69502154D01*
X135332219Y-69489366D01*
X135350632Y-69478330D01*
X135370038Y-69469151D01*
X135390250Y-69461919D01*
X135411074Y-69456703D01*
X135432309Y-69453553D01*
X135453750Y-69452500D01*
X135966250Y-69452500D01*
X135987691Y-69453553D01*
X135987691Y-69453553D01*
G37*
D11*
X135710000Y-69890000D03*
D10*
G36*
X133605191Y-72486053D02*
G01*
X133626426Y-72489203D01*
X133647250Y-72494419D01*
X133667462Y-72501651D01*
X133686868Y-72510830D01*
X133705281Y-72521866D01*
X133722524Y-72534654D01*
X133738430Y-72549070D01*
X133752846Y-72564976D01*
X133765634Y-72582219D01*
X133776670Y-72600632D01*
X133785849Y-72620038D01*
X133793081Y-72640250D01*
X133798297Y-72661074D01*
X133801447Y-72682309D01*
X133802500Y-72703750D01*
X133802500Y-73216250D01*
X133801447Y-73237691D01*
X133798297Y-73258926D01*
X133793081Y-73279750D01*
X133785849Y-73299962D01*
X133776670Y-73319368D01*
X133765634Y-73337781D01*
X133752846Y-73355024D01*
X133738430Y-73370930D01*
X133722524Y-73385346D01*
X133705281Y-73398134D01*
X133686868Y-73409170D01*
X133667462Y-73418349D01*
X133647250Y-73425581D01*
X133626426Y-73430797D01*
X133605191Y-73433947D01*
X133583750Y-73435000D01*
X133146250Y-73435000D01*
X133124809Y-73433947D01*
X133103574Y-73430797D01*
X133082750Y-73425581D01*
X133062538Y-73418349D01*
X133043132Y-73409170D01*
X133024719Y-73398134D01*
X133007476Y-73385346D01*
X132991570Y-73370930D01*
X132977154Y-73355024D01*
X132964366Y-73337781D01*
X132953330Y-73319368D01*
X132944151Y-73299962D01*
X132936919Y-73279750D01*
X132931703Y-73258926D01*
X132928553Y-73237691D01*
X132927500Y-73216250D01*
X132927500Y-72703750D01*
X132928553Y-72682309D01*
X132931703Y-72661074D01*
X132936919Y-72640250D01*
X132944151Y-72620038D01*
X132953330Y-72600632D01*
X132964366Y-72582219D01*
X132977154Y-72564976D01*
X132991570Y-72549070D01*
X133007476Y-72534654D01*
X133024719Y-72521866D01*
X133043132Y-72510830D01*
X133062538Y-72501651D01*
X133082750Y-72494419D01*
X133103574Y-72489203D01*
X133124809Y-72486053D01*
X133146250Y-72485000D01*
X133583750Y-72485000D01*
X133605191Y-72486053D01*
X133605191Y-72486053D01*
G37*
D11*
X133365000Y-72960000D03*
D10*
G36*
X135180191Y-72486053D02*
G01*
X135201426Y-72489203D01*
X135222250Y-72494419D01*
X135242462Y-72501651D01*
X135261868Y-72510830D01*
X135280281Y-72521866D01*
X135297524Y-72534654D01*
X135313430Y-72549070D01*
X135327846Y-72564976D01*
X135340634Y-72582219D01*
X135351670Y-72600632D01*
X135360849Y-72620038D01*
X135368081Y-72640250D01*
X135373297Y-72661074D01*
X135376447Y-72682309D01*
X135377500Y-72703750D01*
X135377500Y-73216250D01*
X135376447Y-73237691D01*
X135373297Y-73258926D01*
X135368081Y-73279750D01*
X135360849Y-73299962D01*
X135351670Y-73319368D01*
X135340634Y-73337781D01*
X135327846Y-73355024D01*
X135313430Y-73370930D01*
X135297524Y-73385346D01*
X135280281Y-73398134D01*
X135261868Y-73409170D01*
X135242462Y-73418349D01*
X135222250Y-73425581D01*
X135201426Y-73430797D01*
X135180191Y-73433947D01*
X135158750Y-73435000D01*
X134721250Y-73435000D01*
X134699809Y-73433947D01*
X134678574Y-73430797D01*
X134657750Y-73425581D01*
X134637538Y-73418349D01*
X134618132Y-73409170D01*
X134599719Y-73398134D01*
X134582476Y-73385346D01*
X134566570Y-73370930D01*
X134552154Y-73355024D01*
X134539366Y-73337781D01*
X134528330Y-73319368D01*
X134519151Y-73299962D01*
X134511919Y-73279750D01*
X134506703Y-73258926D01*
X134503553Y-73237691D01*
X134502500Y-73216250D01*
X134502500Y-72703750D01*
X134503553Y-72682309D01*
X134506703Y-72661074D01*
X134511919Y-72640250D01*
X134519151Y-72620038D01*
X134528330Y-72600632D01*
X134539366Y-72582219D01*
X134552154Y-72564976D01*
X134566570Y-72549070D01*
X134582476Y-72534654D01*
X134599719Y-72521866D01*
X134618132Y-72510830D01*
X134637538Y-72501651D01*
X134657750Y-72494419D01*
X134678574Y-72489203D01*
X134699809Y-72486053D01*
X134721250Y-72485000D01*
X135158750Y-72485000D01*
X135180191Y-72486053D01*
X135180191Y-72486053D01*
G37*
D11*
X134940000Y-72960000D03*
D10*
G36*
X135180191Y-74106053D02*
G01*
X135201426Y-74109203D01*
X135222250Y-74114419D01*
X135242462Y-74121651D01*
X135261868Y-74130830D01*
X135280281Y-74141866D01*
X135297524Y-74154654D01*
X135313430Y-74169070D01*
X135327846Y-74184976D01*
X135340634Y-74202219D01*
X135351670Y-74220632D01*
X135360849Y-74240038D01*
X135368081Y-74260250D01*
X135373297Y-74281074D01*
X135376447Y-74302309D01*
X135377500Y-74323750D01*
X135377500Y-74836250D01*
X135376447Y-74857691D01*
X135373297Y-74878926D01*
X135368081Y-74899750D01*
X135360849Y-74919962D01*
X135351670Y-74939368D01*
X135340634Y-74957781D01*
X135327846Y-74975024D01*
X135313430Y-74990930D01*
X135297524Y-75005346D01*
X135280281Y-75018134D01*
X135261868Y-75029170D01*
X135242462Y-75038349D01*
X135222250Y-75045581D01*
X135201426Y-75050797D01*
X135180191Y-75053947D01*
X135158750Y-75055000D01*
X134721250Y-75055000D01*
X134699809Y-75053947D01*
X134678574Y-75050797D01*
X134657750Y-75045581D01*
X134637538Y-75038349D01*
X134618132Y-75029170D01*
X134599719Y-75018134D01*
X134582476Y-75005346D01*
X134566570Y-74990930D01*
X134552154Y-74975024D01*
X134539366Y-74957781D01*
X134528330Y-74939368D01*
X134519151Y-74919962D01*
X134511919Y-74899750D01*
X134506703Y-74878926D01*
X134503553Y-74857691D01*
X134502500Y-74836250D01*
X134502500Y-74323750D01*
X134503553Y-74302309D01*
X134506703Y-74281074D01*
X134511919Y-74260250D01*
X134519151Y-74240038D01*
X134528330Y-74220632D01*
X134539366Y-74202219D01*
X134552154Y-74184976D01*
X134566570Y-74169070D01*
X134582476Y-74154654D01*
X134599719Y-74141866D01*
X134618132Y-74130830D01*
X134637538Y-74121651D01*
X134657750Y-74114419D01*
X134678574Y-74109203D01*
X134699809Y-74106053D01*
X134721250Y-74105000D01*
X135158750Y-74105000D01*
X135180191Y-74106053D01*
X135180191Y-74106053D01*
G37*
D11*
X134940000Y-74580000D03*
D10*
G36*
X133605191Y-74106053D02*
G01*
X133626426Y-74109203D01*
X133647250Y-74114419D01*
X133667462Y-74121651D01*
X133686868Y-74130830D01*
X133705281Y-74141866D01*
X133722524Y-74154654D01*
X133738430Y-74169070D01*
X133752846Y-74184976D01*
X133765634Y-74202219D01*
X133776670Y-74220632D01*
X133785849Y-74240038D01*
X133793081Y-74260250D01*
X133798297Y-74281074D01*
X133801447Y-74302309D01*
X133802500Y-74323750D01*
X133802500Y-74836250D01*
X133801447Y-74857691D01*
X133798297Y-74878926D01*
X133793081Y-74899750D01*
X133785849Y-74919962D01*
X133776670Y-74939368D01*
X133765634Y-74957781D01*
X133752846Y-74975024D01*
X133738430Y-74990930D01*
X133722524Y-75005346D01*
X133705281Y-75018134D01*
X133686868Y-75029170D01*
X133667462Y-75038349D01*
X133647250Y-75045581D01*
X133626426Y-75050797D01*
X133605191Y-75053947D01*
X133583750Y-75055000D01*
X133146250Y-75055000D01*
X133124809Y-75053947D01*
X133103574Y-75050797D01*
X133082750Y-75045581D01*
X133062538Y-75038349D01*
X133043132Y-75029170D01*
X133024719Y-75018134D01*
X133007476Y-75005346D01*
X132991570Y-74990930D01*
X132977154Y-74975024D01*
X132964366Y-74957781D01*
X132953330Y-74939368D01*
X132944151Y-74919962D01*
X132936919Y-74899750D01*
X132931703Y-74878926D01*
X132928553Y-74857691D01*
X132927500Y-74836250D01*
X132927500Y-74323750D01*
X132928553Y-74302309D01*
X132931703Y-74281074D01*
X132936919Y-74260250D01*
X132944151Y-74240038D01*
X132953330Y-74220632D01*
X132964366Y-74202219D01*
X132977154Y-74184976D01*
X132991570Y-74169070D01*
X133007476Y-74154654D01*
X133024719Y-74141866D01*
X133043132Y-74130830D01*
X133062538Y-74121651D01*
X133082750Y-74114419D01*
X133103574Y-74109203D01*
X133124809Y-74106053D01*
X133146250Y-74105000D01*
X133583750Y-74105000D01*
X133605191Y-74106053D01*
X133605191Y-74106053D01*
G37*
D11*
X133365000Y-74580000D03*
D10*
G36*
X116777691Y-62618553D02*
G01*
X116798926Y-62621703D01*
X116819750Y-62626919D01*
X116839962Y-62634151D01*
X116859368Y-62643330D01*
X116877781Y-62654366D01*
X116895024Y-62667154D01*
X116910930Y-62681570D01*
X116925346Y-62697476D01*
X116938134Y-62714719D01*
X116949170Y-62733132D01*
X116958349Y-62752538D01*
X116965581Y-62772750D01*
X116970797Y-62793574D01*
X116973947Y-62814809D01*
X116975000Y-62836250D01*
X116975000Y-63273750D01*
X116973947Y-63295191D01*
X116970797Y-63316426D01*
X116965581Y-63337250D01*
X116958349Y-63357462D01*
X116949170Y-63376868D01*
X116938134Y-63395281D01*
X116925346Y-63412524D01*
X116910930Y-63428430D01*
X116895024Y-63442846D01*
X116877781Y-63455634D01*
X116859368Y-63466670D01*
X116839962Y-63475849D01*
X116819750Y-63483081D01*
X116798926Y-63488297D01*
X116777691Y-63491447D01*
X116756250Y-63492500D01*
X116243750Y-63492500D01*
X116222309Y-63491447D01*
X116201074Y-63488297D01*
X116180250Y-63483081D01*
X116160038Y-63475849D01*
X116140632Y-63466670D01*
X116122219Y-63455634D01*
X116104976Y-63442846D01*
X116089070Y-63428430D01*
X116074654Y-63412524D01*
X116061866Y-63395281D01*
X116050830Y-63376868D01*
X116041651Y-63357462D01*
X116034419Y-63337250D01*
X116029203Y-63316426D01*
X116026053Y-63295191D01*
X116025000Y-63273750D01*
X116025000Y-62836250D01*
X116026053Y-62814809D01*
X116029203Y-62793574D01*
X116034419Y-62772750D01*
X116041651Y-62752538D01*
X116050830Y-62733132D01*
X116061866Y-62714719D01*
X116074654Y-62697476D01*
X116089070Y-62681570D01*
X116104976Y-62667154D01*
X116122219Y-62654366D01*
X116140632Y-62643330D01*
X116160038Y-62634151D01*
X116180250Y-62626919D01*
X116201074Y-62621703D01*
X116222309Y-62618553D01*
X116243750Y-62617500D01*
X116756250Y-62617500D01*
X116777691Y-62618553D01*
X116777691Y-62618553D01*
G37*
D11*
X116500000Y-63055000D03*
D10*
G36*
X116777691Y-61043553D02*
G01*
X116798926Y-61046703D01*
X116819750Y-61051919D01*
X116839962Y-61059151D01*
X116859368Y-61068330D01*
X116877781Y-61079366D01*
X116895024Y-61092154D01*
X116910930Y-61106570D01*
X116925346Y-61122476D01*
X116938134Y-61139719D01*
X116949170Y-61158132D01*
X116958349Y-61177538D01*
X116965581Y-61197750D01*
X116970797Y-61218574D01*
X116973947Y-61239809D01*
X116975000Y-61261250D01*
X116975000Y-61698750D01*
X116973947Y-61720191D01*
X116970797Y-61741426D01*
X116965581Y-61762250D01*
X116958349Y-61782462D01*
X116949170Y-61801868D01*
X116938134Y-61820281D01*
X116925346Y-61837524D01*
X116910930Y-61853430D01*
X116895024Y-61867846D01*
X116877781Y-61880634D01*
X116859368Y-61891670D01*
X116839962Y-61900849D01*
X116819750Y-61908081D01*
X116798926Y-61913297D01*
X116777691Y-61916447D01*
X116756250Y-61917500D01*
X116243750Y-61917500D01*
X116222309Y-61916447D01*
X116201074Y-61913297D01*
X116180250Y-61908081D01*
X116160038Y-61900849D01*
X116140632Y-61891670D01*
X116122219Y-61880634D01*
X116104976Y-61867846D01*
X116089070Y-61853430D01*
X116074654Y-61837524D01*
X116061866Y-61820281D01*
X116050830Y-61801868D01*
X116041651Y-61782462D01*
X116034419Y-61762250D01*
X116029203Y-61741426D01*
X116026053Y-61720191D01*
X116025000Y-61698750D01*
X116025000Y-61261250D01*
X116026053Y-61239809D01*
X116029203Y-61218574D01*
X116034419Y-61197750D01*
X116041651Y-61177538D01*
X116050830Y-61158132D01*
X116061866Y-61139719D01*
X116074654Y-61122476D01*
X116089070Y-61106570D01*
X116104976Y-61092154D01*
X116122219Y-61079366D01*
X116140632Y-61068330D01*
X116160038Y-61059151D01*
X116180250Y-61051919D01*
X116201074Y-61046703D01*
X116222309Y-61043553D01*
X116243750Y-61042500D01*
X116756250Y-61042500D01*
X116777691Y-61043553D01*
X116777691Y-61043553D01*
G37*
D11*
X116500000Y-61480000D03*
D10*
G36*
X122707691Y-61053553D02*
G01*
X122728926Y-61056703D01*
X122749750Y-61061919D01*
X122769962Y-61069151D01*
X122789368Y-61078330D01*
X122807781Y-61089366D01*
X122825024Y-61102154D01*
X122840930Y-61116570D01*
X122855346Y-61132476D01*
X122868134Y-61149719D01*
X122879170Y-61168132D01*
X122888349Y-61187538D01*
X122895581Y-61207750D01*
X122900797Y-61228574D01*
X122903947Y-61249809D01*
X122905000Y-61271250D01*
X122905000Y-61708750D01*
X122903947Y-61730191D01*
X122900797Y-61751426D01*
X122895581Y-61772250D01*
X122888349Y-61792462D01*
X122879170Y-61811868D01*
X122868134Y-61830281D01*
X122855346Y-61847524D01*
X122840930Y-61863430D01*
X122825024Y-61877846D01*
X122807781Y-61890634D01*
X122789368Y-61901670D01*
X122769962Y-61910849D01*
X122749750Y-61918081D01*
X122728926Y-61923297D01*
X122707691Y-61926447D01*
X122686250Y-61927500D01*
X122173750Y-61927500D01*
X122152309Y-61926447D01*
X122131074Y-61923297D01*
X122110250Y-61918081D01*
X122090038Y-61910849D01*
X122070632Y-61901670D01*
X122052219Y-61890634D01*
X122034976Y-61877846D01*
X122019070Y-61863430D01*
X122004654Y-61847524D01*
X121991866Y-61830281D01*
X121980830Y-61811868D01*
X121971651Y-61792462D01*
X121964419Y-61772250D01*
X121959203Y-61751426D01*
X121956053Y-61730191D01*
X121955000Y-61708750D01*
X121955000Y-61271250D01*
X121956053Y-61249809D01*
X121959203Y-61228574D01*
X121964419Y-61207750D01*
X121971651Y-61187538D01*
X121980830Y-61168132D01*
X121991866Y-61149719D01*
X122004654Y-61132476D01*
X122019070Y-61116570D01*
X122034976Y-61102154D01*
X122052219Y-61089366D01*
X122070632Y-61078330D01*
X122090038Y-61069151D01*
X122110250Y-61061919D01*
X122131074Y-61056703D01*
X122152309Y-61053553D01*
X122173750Y-61052500D01*
X122686250Y-61052500D01*
X122707691Y-61053553D01*
X122707691Y-61053553D01*
G37*
D11*
X122430000Y-61490000D03*
D10*
G36*
X122707691Y-62628553D02*
G01*
X122728926Y-62631703D01*
X122749750Y-62636919D01*
X122769962Y-62644151D01*
X122789368Y-62653330D01*
X122807781Y-62664366D01*
X122825024Y-62677154D01*
X122840930Y-62691570D01*
X122855346Y-62707476D01*
X122868134Y-62724719D01*
X122879170Y-62743132D01*
X122888349Y-62762538D01*
X122895581Y-62782750D01*
X122900797Y-62803574D01*
X122903947Y-62824809D01*
X122905000Y-62846250D01*
X122905000Y-63283750D01*
X122903947Y-63305191D01*
X122900797Y-63326426D01*
X122895581Y-63347250D01*
X122888349Y-63367462D01*
X122879170Y-63386868D01*
X122868134Y-63405281D01*
X122855346Y-63422524D01*
X122840930Y-63438430D01*
X122825024Y-63452846D01*
X122807781Y-63465634D01*
X122789368Y-63476670D01*
X122769962Y-63485849D01*
X122749750Y-63493081D01*
X122728926Y-63498297D01*
X122707691Y-63501447D01*
X122686250Y-63502500D01*
X122173750Y-63502500D01*
X122152309Y-63501447D01*
X122131074Y-63498297D01*
X122110250Y-63493081D01*
X122090038Y-63485849D01*
X122070632Y-63476670D01*
X122052219Y-63465634D01*
X122034976Y-63452846D01*
X122019070Y-63438430D01*
X122004654Y-63422524D01*
X121991866Y-63405281D01*
X121980830Y-63386868D01*
X121971651Y-63367462D01*
X121964419Y-63347250D01*
X121959203Y-63326426D01*
X121956053Y-63305191D01*
X121955000Y-63283750D01*
X121955000Y-62846250D01*
X121956053Y-62824809D01*
X121959203Y-62803574D01*
X121964419Y-62782750D01*
X121971651Y-62762538D01*
X121980830Y-62743132D01*
X121991866Y-62724719D01*
X122004654Y-62707476D01*
X122019070Y-62691570D01*
X122034976Y-62677154D01*
X122052219Y-62664366D01*
X122070632Y-62653330D01*
X122090038Y-62644151D01*
X122110250Y-62636919D01*
X122131074Y-62631703D01*
X122152309Y-62628553D01*
X122173750Y-62627500D01*
X122686250Y-62627500D01*
X122707691Y-62628553D01*
X122707691Y-62628553D01*
G37*
D11*
X122430000Y-63065000D03*
D10*
G36*
X125867691Y-72216053D02*
G01*
X125888926Y-72219203D01*
X125909750Y-72224419D01*
X125929962Y-72231651D01*
X125949368Y-72240830D01*
X125967781Y-72251866D01*
X125985024Y-72264654D01*
X126000930Y-72279070D01*
X126015346Y-72294976D01*
X126028134Y-72312219D01*
X126039170Y-72330632D01*
X126048349Y-72350038D01*
X126055581Y-72370250D01*
X126060797Y-72391074D01*
X126063947Y-72412309D01*
X126065000Y-72433750D01*
X126065000Y-72871250D01*
X126063947Y-72892691D01*
X126060797Y-72913926D01*
X126055581Y-72934750D01*
X126048349Y-72954962D01*
X126039170Y-72974368D01*
X126028134Y-72992781D01*
X126015346Y-73010024D01*
X126000930Y-73025930D01*
X125985024Y-73040346D01*
X125967781Y-73053134D01*
X125949368Y-73064170D01*
X125929962Y-73073349D01*
X125909750Y-73080581D01*
X125888926Y-73085797D01*
X125867691Y-73088947D01*
X125846250Y-73090000D01*
X125333750Y-73090000D01*
X125312309Y-73088947D01*
X125291074Y-73085797D01*
X125270250Y-73080581D01*
X125250038Y-73073349D01*
X125230632Y-73064170D01*
X125212219Y-73053134D01*
X125194976Y-73040346D01*
X125179070Y-73025930D01*
X125164654Y-73010024D01*
X125151866Y-72992781D01*
X125140830Y-72974368D01*
X125131651Y-72954962D01*
X125124419Y-72934750D01*
X125119203Y-72913926D01*
X125116053Y-72892691D01*
X125115000Y-72871250D01*
X125115000Y-72433750D01*
X125116053Y-72412309D01*
X125119203Y-72391074D01*
X125124419Y-72370250D01*
X125131651Y-72350038D01*
X125140830Y-72330632D01*
X125151866Y-72312219D01*
X125164654Y-72294976D01*
X125179070Y-72279070D01*
X125194976Y-72264654D01*
X125212219Y-72251866D01*
X125230632Y-72240830D01*
X125250038Y-72231651D01*
X125270250Y-72224419D01*
X125291074Y-72219203D01*
X125312309Y-72216053D01*
X125333750Y-72215000D01*
X125846250Y-72215000D01*
X125867691Y-72216053D01*
X125867691Y-72216053D01*
G37*
D11*
X125590000Y-72652500D03*
D10*
G36*
X125867691Y-73791053D02*
G01*
X125888926Y-73794203D01*
X125909750Y-73799419D01*
X125929962Y-73806651D01*
X125949368Y-73815830D01*
X125967781Y-73826866D01*
X125985024Y-73839654D01*
X126000930Y-73854070D01*
X126015346Y-73869976D01*
X126028134Y-73887219D01*
X126039170Y-73905632D01*
X126048349Y-73925038D01*
X126055581Y-73945250D01*
X126060797Y-73966074D01*
X126063947Y-73987309D01*
X126065000Y-74008750D01*
X126065000Y-74446250D01*
X126063947Y-74467691D01*
X126060797Y-74488926D01*
X126055581Y-74509750D01*
X126048349Y-74529962D01*
X126039170Y-74549368D01*
X126028134Y-74567781D01*
X126015346Y-74585024D01*
X126000930Y-74600930D01*
X125985024Y-74615346D01*
X125967781Y-74628134D01*
X125949368Y-74639170D01*
X125929962Y-74648349D01*
X125909750Y-74655581D01*
X125888926Y-74660797D01*
X125867691Y-74663947D01*
X125846250Y-74665000D01*
X125333750Y-74665000D01*
X125312309Y-74663947D01*
X125291074Y-74660797D01*
X125270250Y-74655581D01*
X125250038Y-74648349D01*
X125230632Y-74639170D01*
X125212219Y-74628134D01*
X125194976Y-74615346D01*
X125179070Y-74600930D01*
X125164654Y-74585024D01*
X125151866Y-74567781D01*
X125140830Y-74549368D01*
X125131651Y-74529962D01*
X125124419Y-74509750D01*
X125119203Y-74488926D01*
X125116053Y-74467691D01*
X125115000Y-74446250D01*
X125115000Y-74008750D01*
X125116053Y-73987309D01*
X125119203Y-73966074D01*
X125124419Y-73945250D01*
X125131651Y-73925038D01*
X125140830Y-73905632D01*
X125151866Y-73887219D01*
X125164654Y-73869976D01*
X125179070Y-73854070D01*
X125194976Y-73839654D01*
X125212219Y-73826866D01*
X125230632Y-73815830D01*
X125250038Y-73806651D01*
X125270250Y-73799419D01*
X125291074Y-73794203D01*
X125312309Y-73791053D01*
X125333750Y-73790000D01*
X125846250Y-73790000D01*
X125867691Y-73791053D01*
X125867691Y-73791053D01*
G37*
D11*
X125590000Y-74227500D03*
D10*
G36*
X127507691Y-72226053D02*
G01*
X127528926Y-72229203D01*
X127549750Y-72234419D01*
X127569962Y-72241651D01*
X127589368Y-72250830D01*
X127607781Y-72261866D01*
X127625024Y-72274654D01*
X127640930Y-72289070D01*
X127655346Y-72304976D01*
X127668134Y-72322219D01*
X127679170Y-72340632D01*
X127688349Y-72360038D01*
X127695581Y-72380250D01*
X127700797Y-72401074D01*
X127703947Y-72422309D01*
X127705000Y-72443750D01*
X127705000Y-72881250D01*
X127703947Y-72902691D01*
X127700797Y-72923926D01*
X127695581Y-72944750D01*
X127688349Y-72964962D01*
X127679170Y-72984368D01*
X127668134Y-73002781D01*
X127655346Y-73020024D01*
X127640930Y-73035930D01*
X127625024Y-73050346D01*
X127607781Y-73063134D01*
X127589368Y-73074170D01*
X127569962Y-73083349D01*
X127549750Y-73090581D01*
X127528926Y-73095797D01*
X127507691Y-73098947D01*
X127486250Y-73100000D01*
X126973750Y-73100000D01*
X126952309Y-73098947D01*
X126931074Y-73095797D01*
X126910250Y-73090581D01*
X126890038Y-73083349D01*
X126870632Y-73074170D01*
X126852219Y-73063134D01*
X126834976Y-73050346D01*
X126819070Y-73035930D01*
X126804654Y-73020024D01*
X126791866Y-73002781D01*
X126780830Y-72984368D01*
X126771651Y-72964962D01*
X126764419Y-72944750D01*
X126759203Y-72923926D01*
X126756053Y-72902691D01*
X126755000Y-72881250D01*
X126755000Y-72443750D01*
X126756053Y-72422309D01*
X126759203Y-72401074D01*
X126764419Y-72380250D01*
X126771651Y-72360038D01*
X126780830Y-72340632D01*
X126791866Y-72322219D01*
X126804654Y-72304976D01*
X126819070Y-72289070D01*
X126834976Y-72274654D01*
X126852219Y-72261866D01*
X126870632Y-72250830D01*
X126890038Y-72241651D01*
X126910250Y-72234419D01*
X126931074Y-72229203D01*
X126952309Y-72226053D01*
X126973750Y-72225000D01*
X127486250Y-72225000D01*
X127507691Y-72226053D01*
X127507691Y-72226053D01*
G37*
D11*
X127230000Y-72662500D03*
D10*
G36*
X127507691Y-73801053D02*
G01*
X127528926Y-73804203D01*
X127549750Y-73809419D01*
X127569962Y-73816651D01*
X127589368Y-73825830D01*
X127607781Y-73836866D01*
X127625024Y-73849654D01*
X127640930Y-73864070D01*
X127655346Y-73879976D01*
X127668134Y-73897219D01*
X127679170Y-73915632D01*
X127688349Y-73935038D01*
X127695581Y-73955250D01*
X127700797Y-73976074D01*
X127703947Y-73997309D01*
X127705000Y-74018750D01*
X127705000Y-74456250D01*
X127703947Y-74477691D01*
X127700797Y-74498926D01*
X127695581Y-74519750D01*
X127688349Y-74539962D01*
X127679170Y-74559368D01*
X127668134Y-74577781D01*
X127655346Y-74595024D01*
X127640930Y-74610930D01*
X127625024Y-74625346D01*
X127607781Y-74638134D01*
X127589368Y-74649170D01*
X127569962Y-74658349D01*
X127549750Y-74665581D01*
X127528926Y-74670797D01*
X127507691Y-74673947D01*
X127486250Y-74675000D01*
X126973750Y-74675000D01*
X126952309Y-74673947D01*
X126931074Y-74670797D01*
X126910250Y-74665581D01*
X126890038Y-74658349D01*
X126870632Y-74649170D01*
X126852219Y-74638134D01*
X126834976Y-74625346D01*
X126819070Y-74610930D01*
X126804654Y-74595024D01*
X126791866Y-74577781D01*
X126780830Y-74559368D01*
X126771651Y-74539962D01*
X126764419Y-74519750D01*
X126759203Y-74498926D01*
X126756053Y-74477691D01*
X126755000Y-74456250D01*
X126755000Y-74018750D01*
X126756053Y-73997309D01*
X126759203Y-73976074D01*
X126764419Y-73955250D01*
X126771651Y-73935038D01*
X126780830Y-73915632D01*
X126791866Y-73897219D01*
X126804654Y-73879976D01*
X126819070Y-73864070D01*
X126834976Y-73849654D01*
X126852219Y-73836866D01*
X126870632Y-73825830D01*
X126890038Y-73816651D01*
X126910250Y-73809419D01*
X126931074Y-73804203D01*
X126952309Y-73801053D01*
X126973750Y-73800000D01*
X127486250Y-73800000D01*
X127507691Y-73801053D01*
X127507691Y-73801053D01*
G37*
D11*
X127230000Y-74237500D03*
D10*
G36*
X137737691Y-69743553D02*
G01*
X137758926Y-69746703D01*
X137779750Y-69751919D01*
X137799962Y-69759151D01*
X137819368Y-69768330D01*
X137837781Y-69779366D01*
X137855024Y-69792154D01*
X137870930Y-69806570D01*
X137885346Y-69822476D01*
X137898134Y-69839719D01*
X137909170Y-69858132D01*
X137918349Y-69877538D01*
X137925581Y-69897750D01*
X137930797Y-69918574D01*
X137933947Y-69939809D01*
X137935000Y-69961250D01*
X137935000Y-70398750D01*
X137933947Y-70420191D01*
X137930797Y-70441426D01*
X137925581Y-70462250D01*
X137918349Y-70482462D01*
X137909170Y-70501868D01*
X137898134Y-70520281D01*
X137885346Y-70537524D01*
X137870930Y-70553430D01*
X137855024Y-70567846D01*
X137837781Y-70580634D01*
X137819368Y-70591670D01*
X137799962Y-70600849D01*
X137779750Y-70608081D01*
X137758926Y-70613297D01*
X137737691Y-70616447D01*
X137716250Y-70617500D01*
X137203750Y-70617500D01*
X137182309Y-70616447D01*
X137161074Y-70613297D01*
X137140250Y-70608081D01*
X137120038Y-70600849D01*
X137100632Y-70591670D01*
X137082219Y-70580634D01*
X137064976Y-70567846D01*
X137049070Y-70553430D01*
X137034654Y-70537524D01*
X137021866Y-70520281D01*
X137010830Y-70501868D01*
X137001651Y-70482462D01*
X136994419Y-70462250D01*
X136989203Y-70441426D01*
X136986053Y-70420191D01*
X136985000Y-70398750D01*
X136985000Y-69961250D01*
X136986053Y-69939809D01*
X136989203Y-69918574D01*
X136994419Y-69897750D01*
X137001651Y-69877538D01*
X137010830Y-69858132D01*
X137021866Y-69839719D01*
X137034654Y-69822476D01*
X137049070Y-69806570D01*
X137064976Y-69792154D01*
X137082219Y-69779366D01*
X137100632Y-69768330D01*
X137120038Y-69759151D01*
X137140250Y-69751919D01*
X137161074Y-69746703D01*
X137182309Y-69743553D01*
X137203750Y-69742500D01*
X137716250Y-69742500D01*
X137737691Y-69743553D01*
X137737691Y-69743553D01*
G37*
D11*
X137460000Y-70180000D03*
D10*
G36*
X137737691Y-71318553D02*
G01*
X137758926Y-71321703D01*
X137779750Y-71326919D01*
X137799962Y-71334151D01*
X137819368Y-71343330D01*
X137837781Y-71354366D01*
X137855024Y-71367154D01*
X137870930Y-71381570D01*
X137885346Y-71397476D01*
X137898134Y-71414719D01*
X137909170Y-71433132D01*
X137918349Y-71452538D01*
X137925581Y-71472750D01*
X137930797Y-71493574D01*
X137933947Y-71514809D01*
X137935000Y-71536250D01*
X137935000Y-71973750D01*
X137933947Y-71995191D01*
X137930797Y-72016426D01*
X137925581Y-72037250D01*
X137918349Y-72057462D01*
X137909170Y-72076868D01*
X137898134Y-72095281D01*
X137885346Y-72112524D01*
X137870930Y-72128430D01*
X137855024Y-72142846D01*
X137837781Y-72155634D01*
X137819368Y-72166670D01*
X137799962Y-72175849D01*
X137779750Y-72183081D01*
X137758926Y-72188297D01*
X137737691Y-72191447D01*
X137716250Y-72192500D01*
X137203750Y-72192500D01*
X137182309Y-72191447D01*
X137161074Y-72188297D01*
X137140250Y-72183081D01*
X137120038Y-72175849D01*
X137100632Y-72166670D01*
X137082219Y-72155634D01*
X137064976Y-72142846D01*
X137049070Y-72128430D01*
X137034654Y-72112524D01*
X137021866Y-72095281D01*
X137010830Y-72076868D01*
X137001651Y-72057462D01*
X136994419Y-72037250D01*
X136989203Y-72016426D01*
X136986053Y-71995191D01*
X136985000Y-71973750D01*
X136985000Y-71536250D01*
X136986053Y-71514809D01*
X136989203Y-71493574D01*
X136994419Y-71472750D01*
X137001651Y-71452538D01*
X137010830Y-71433132D01*
X137021866Y-71414719D01*
X137034654Y-71397476D01*
X137049070Y-71381570D01*
X137064976Y-71367154D01*
X137082219Y-71354366D01*
X137100632Y-71343330D01*
X137120038Y-71334151D01*
X137140250Y-71326919D01*
X137161074Y-71321703D01*
X137182309Y-71318553D01*
X137203750Y-71317500D01*
X137716250Y-71317500D01*
X137737691Y-71318553D01*
X137737691Y-71318553D01*
G37*
D11*
X137460000Y-71755000D03*
D10*
G36*
X137737691Y-72853553D02*
G01*
X137758926Y-72856703D01*
X137779750Y-72861919D01*
X137799962Y-72869151D01*
X137819368Y-72878330D01*
X137837781Y-72889366D01*
X137855024Y-72902154D01*
X137870930Y-72916570D01*
X137885346Y-72932476D01*
X137898134Y-72949719D01*
X137909170Y-72968132D01*
X137918349Y-72987538D01*
X137925581Y-73007750D01*
X137930797Y-73028574D01*
X137933947Y-73049809D01*
X137935000Y-73071250D01*
X137935000Y-73508750D01*
X137933947Y-73530191D01*
X137930797Y-73551426D01*
X137925581Y-73572250D01*
X137918349Y-73592462D01*
X137909170Y-73611868D01*
X137898134Y-73630281D01*
X137885346Y-73647524D01*
X137870930Y-73663430D01*
X137855024Y-73677846D01*
X137837781Y-73690634D01*
X137819368Y-73701670D01*
X137799962Y-73710849D01*
X137779750Y-73718081D01*
X137758926Y-73723297D01*
X137737691Y-73726447D01*
X137716250Y-73727500D01*
X137203750Y-73727500D01*
X137182309Y-73726447D01*
X137161074Y-73723297D01*
X137140250Y-73718081D01*
X137120038Y-73710849D01*
X137100632Y-73701670D01*
X137082219Y-73690634D01*
X137064976Y-73677846D01*
X137049070Y-73663430D01*
X137034654Y-73647524D01*
X137021866Y-73630281D01*
X137010830Y-73611868D01*
X137001651Y-73592462D01*
X136994419Y-73572250D01*
X136989203Y-73551426D01*
X136986053Y-73530191D01*
X136985000Y-73508750D01*
X136985000Y-73071250D01*
X136986053Y-73049809D01*
X136989203Y-73028574D01*
X136994419Y-73007750D01*
X137001651Y-72987538D01*
X137010830Y-72968132D01*
X137021866Y-72949719D01*
X137034654Y-72932476D01*
X137049070Y-72916570D01*
X137064976Y-72902154D01*
X137082219Y-72889366D01*
X137100632Y-72878330D01*
X137120038Y-72869151D01*
X137140250Y-72861919D01*
X137161074Y-72856703D01*
X137182309Y-72853553D01*
X137203750Y-72852500D01*
X137716250Y-72852500D01*
X137737691Y-72853553D01*
X137737691Y-72853553D01*
G37*
D11*
X137460000Y-73290000D03*
D10*
G36*
X137737691Y-74428553D02*
G01*
X137758926Y-74431703D01*
X137779750Y-74436919D01*
X137799962Y-74444151D01*
X137819368Y-74453330D01*
X137837781Y-74464366D01*
X137855024Y-74477154D01*
X137870930Y-74491570D01*
X137885346Y-74507476D01*
X137898134Y-74524719D01*
X137909170Y-74543132D01*
X137918349Y-74562538D01*
X137925581Y-74582750D01*
X137930797Y-74603574D01*
X137933947Y-74624809D01*
X137935000Y-74646250D01*
X137935000Y-75083750D01*
X137933947Y-75105191D01*
X137930797Y-75126426D01*
X137925581Y-75147250D01*
X137918349Y-75167462D01*
X137909170Y-75186868D01*
X137898134Y-75205281D01*
X137885346Y-75222524D01*
X137870930Y-75238430D01*
X137855024Y-75252846D01*
X137837781Y-75265634D01*
X137819368Y-75276670D01*
X137799962Y-75285849D01*
X137779750Y-75293081D01*
X137758926Y-75298297D01*
X137737691Y-75301447D01*
X137716250Y-75302500D01*
X137203750Y-75302500D01*
X137182309Y-75301447D01*
X137161074Y-75298297D01*
X137140250Y-75293081D01*
X137120038Y-75285849D01*
X137100632Y-75276670D01*
X137082219Y-75265634D01*
X137064976Y-75252846D01*
X137049070Y-75238430D01*
X137034654Y-75222524D01*
X137021866Y-75205281D01*
X137010830Y-75186868D01*
X137001651Y-75167462D01*
X136994419Y-75147250D01*
X136989203Y-75126426D01*
X136986053Y-75105191D01*
X136985000Y-75083750D01*
X136985000Y-74646250D01*
X136986053Y-74624809D01*
X136989203Y-74603574D01*
X136994419Y-74582750D01*
X137001651Y-74562538D01*
X137010830Y-74543132D01*
X137021866Y-74524719D01*
X137034654Y-74507476D01*
X137049070Y-74491570D01*
X137064976Y-74477154D01*
X137082219Y-74464366D01*
X137100632Y-74453330D01*
X137120038Y-74444151D01*
X137140250Y-74436919D01*
X137161074Y-74431703D01*
X137182309Y-74428553D01*
X137203750Y-74427500D01*
X137716250Y-74427500D01*
X137737691Y-74428553D01*
X137737691Y-74428553D01*
G37*
D11*
X137460000Y-74865000D03*
D10*
G36*
X139337691Y-69753553D02*
G01*
X139358926Y-69756703D01*
X139379750Y-69761919D01*
X139399962Y-69769151D01*
X139419368Y-69778330D01*
X139437781Y-69789366D01*
X139455024Y-69802154D01*
X139470930Y-69816570D01*
X139485346Y-69832476D01*
X139498134Y-69849719D01*
X139509170Y-69868132D01*
X139518349Y-69887538D01*
X139525581Y-69907750D01*
X139530797Y-69928574D01*
X139533947Y-69949809D01*
X139535000Y-69971250D01*
X139535000Y-70408750D01*
X139533947Y-70430191D01*
X139530797Y-70451426D01*
X139525581Y-70472250D01*
X139518349Y-70492462D01*
X139509170Y-70511868D01*
X139498134Y-70530281D01*
X139485346Y-70547524D01*
X139470930Y-70563430D01*
X139455024Y-70577846D01*
X139437781Y-70590634D01*
X139419368Y-70601670D01*
X139399962Y-70610849D01*
X139379750Y-70618081D01*
X139358926Y-70623297D01*
X139337691Y-70626447D01*
X139316250Y-70627500D01*
X138803750Y-70627500D01*
X138782309Y-70626447D01*
X138761074Y-70623297D01*
X138740250Y-70618081D01*
X138720038Y-70610849D01*
X138700632Y-70601670D01*
X138682219Y-70590634D01*
X138664976Y-70577846D01*
X138649070Y-70563430D01*
X138634654Y-70547524D01*
X138621866Y-70530281D01*
X138610830Y-70511868D01*
X138601651Y-70492462D01*
X138594419Y-70472250D01*
X138589203Y-70451426D01*
X138586053Y-70430191D01*
X138585000Y-70408750D01*
X138585000Y-69971250D01*
X138586053Y-69949809D01*
X138589203Y-69928574D01*
X138594419Y-69907750D01*
X138601651Y-69887538D01*
X138610830Y-69868132D01*
X138621866Y-69849719D01*
X138634654Y-69832476D01*
X138649070Y-69816570D01*
X138664976Y-69802154D01*
X138682219Y-69789366D01*
X138700632Y-69778330D01*
X138720038Y-69769151D01*
X138740250Y-69761919D01*
X138761074Y-69756703D01*
X138782309Y-69753553D01*
X138803750Y-69752500D01*
X139316250Y-69752500D01*
X139337691Y-69753553D01*
X139337691Y-69753553D01*
G37*
D11*
X139060000Y-70190000D03*
D10*
G36*
X139337691Y-71328553D02*
G01*
X139358926Y-71331703D01*
X139379750Y-71336919D01*
X139399962Y-71344151D01*
X139419368Y-71353330D01*
X139437781Y-71364366D01*
X139455024Y-71377154D01*
X139470930Y-71391570D01*
X139485346Y-71407476D01*
X139498134Y-71424719D01*
X139509170Y-71443132D01*
X139518349Y-71462538D01*
X139525581Y-71482750D01*
X139530797Y-71503574D01*
X139533947Y-71524809D01*
X139535000Y-71546250D01*
X139535000Y-71983750D01*
X139533947Y-72005191D01*
X139530797Y-72026426D01*
X139525581Y-72047250D01*
X139518349Y-72067462D01*
X139509170Y-72086868D01*
X139498134Y-72105281D01*
X139485346Y-72122524D01*
X139470930Y-72138430D01*
X139455024Y-72152846D01*
X139437781Y-72165634D01*
X139419368Y-72176670D01*
X139399962Y-72185849D01*
X139379750Y-72193081D01*
X139358926Y-72198297D01*
X139337691Y-72201447D01*
X139316250Y-72202500D01*
X138803750Y-72202500D01*
X138782309Y-72201447D01*
X138761074Y-72198297D01*
X138740250Y-72193081D01*
X138720038Y-72185849D01*
X138700632Y-72176670D01*
X138682219Y-72165634D01*
X138664976Y-72152846D01*
X138649070Y-72138430D01*
X138634654Y-72122524D01*
X138621866Y-72105281D01*
X138610830Y-72086868D01*
X138601651Y-72067462D01*
X138594419Y-72047250D01*
X138589203Y-72026426D01*
X138586053Y-72005191D01*
X138585000Y-71983750D01*
X138585000Y-71546250D01*
X138586053Y-71524809D01*
X138589203Y-71503574D01*
X138594419Y-71482750D01*
X138601651Y-71462538D01*
X138610830Y-71443132D01*
X138621866Y-71424719D01*
X138634654Y-71407476D01*
X138649070Y-71391570D01*
X138664976Y-71377154D01*
X138682219Y-71364366D01*
X138700632Y-71353330D01*
X138720038Y-71344151D01*
X138740250Y-71336919D01*
X138761074Y-71331703D01*
X138782309Y-71328553D01*
X138803750Y-71327500D01*
X139316250Y-71327500D01*
X139337691Y-71328553D01*
X139337691Y-71328553D01*
G37*
D11*
X139060000Y-71765000D03*
D10*
G36*
X139327691Y-72873553D02*
G01*
X139348926Y-72876703D01*
X139369750Y-72881919D01*
X139389962Y-72889151D01*
X139409368Y-72898330D01*
X139427781Y-72909366D01*
X139445024Y-72922154D01*
X139460930Y-72936570D01*
X139475346Y-72952476D01*
X139488134Y-72969719D01*
X139499170Y-72988132D01*
X139508349Y-73007538D01*
X139515581Y-73027750D01*
X139520797Y-73048574D01*
X139523947Y-73069809D01*
X139525000Y-73091250D01*
X139525000Y-73528750D01*
X139523947Y-73550191D01*
X139520797Y-73571426D01*
X139515581Y-73592250D01*
X139508349Y-73612462D01*
X139499170Y-73631868D01*
X139488134Y-73650281D01*
X139475346Y-73667524D01*
X139460930Y-73683430D01*
X139445024Y-73697846D01*
X139427781Y-73710634D01*
X139409368Y-73721670D01*
X139389962Y-73730849D01*
X139369750Y-73738081D01*
X139348926Y-73743297D01*
X139327691Y-73746447D01*
X139306250Y-73747500D01*
X138793750Y-73747500D01*
X138772309Y-73746447D01*
X138751074Y-73743297D01*
X138730250Y-73738081D01*
X138710038Y-73730849D01*
X138690632Y-73721670D01*
X138672219Y-73710634D01*
X138654976Y-73697846D01*
X138639070Y-73683430D01*
X138624654Y-73667524D01*
X138611866Y-73650281D01*
X138600830Y-73631868D01*
X138591651Y-73612462D01*
X138584419Y-73592250D01*
X138579203Y-73571426D01*
X138576053Y-73550191D01*
X138575000Y-73528750D01*
X138575000Y-73091250D01*
X138576053Y-73069809D01*
X138579203Y-73048574D01*
X138584419Y-73027750D01*
X138591651Y-73007538D01*
X138600830Y-72988132D01*
X138611866Y-72969719D01*
X138624654Y-72952476D01*
X138639070Y-72936570D01*
X138654976Y-72922154D01*
X138672219Y-72909366D01*
X138690632Y-72898330D01*
X138710038Y-72889151D01*
X138730250Y-72881919D01*
X138751074Y-72876703D01*
X138772309Y-72873553D01*
X138793750Y-72872500D01*
X139306250Y-72872500D01*
X139327691Y-72873553D01*
X139327691Y-72873553D01*
G37*
D11*
X139050000Y-73310000D03*
D10*
G36*
X139327691Y-74448553D02*
G01*
X139348926Y-74451703D01*
X139369750Y-74456919D01*
X139389962Y-74464151D01*
X139409368Y-74473330D01*
X139427781Y-74484366D01*
X139445024Y-74497154D01*
X139460930Y-74511570D01*
X139475346Y-74527476D01*
X139488134Y-74544719D01*
X139499170Y-74563132D01*
X139508349Y-74582538D01*
X139515581Y-74602750D01*
X139520797Y-74623574D01*
X139523947Y-74644809D01*
X139525000Y-74666250D01*
X139525000Y-75103750D01*
X139523947Y-75125191D01*
X139520797Y-75146426D01*
X139515581Y-75167250D01*
X139508349Y-75187462D01*
X139499170Y-75206868D01*
X139488134Y-75225281D01*
X139475346Y-75242524D01*
X139460930Y-75258430D01*
X139445024Y-75272846D01*
X139427781Y-75285634D01*
X139409368Y-75296670D01*
X139389962Y-75305849D01*
X139369750Y-75313081D01*
X139348926Y-75318297D01*
X139327691Y-75321447D01*
X139306250Y-75322500D01*
X138793750Y-75322500D01*
X138772309Y-75321447D01*
X138751074Y-75318297D01*
X138730250Y-75313081D01*
X138710038Y-75305849D01*
X138690632Y-75296670D01*
X138672219Y-75285634D01*
X138654976Y-75272846D01*
X138639070Y-75258430D01*
X138624654Y-75242524D01*
X138611866Y-75225281D01*
X138600830Y-75206868D01*
X138591651Y-75187462D01*
X138584419Y-75167250D01*
X138579203Y-75146426D01*
X138576053Y-75125191D01*
X138575000Y-75103750D01*
X138575000Y-74666250D01*
X138576053Y-74644809D01*
X138579203Y-74623574D01*
X138584419Y-74602750D01*
X138591651Y-74582538D01*
X138600830Y-74563132D01*
X138611866Y-74544719D01*
X138624654Y-74527476D01*
X138639070Y-74511570D01*
X138654976Y-74497154D01*
X138672219Y-74484366D01*
X138690632Y-74473330D01*
X138710038Y-74464151D01*
X138730250Y-74456919D01*
X138751074Y-74451703D01*
X138772309Y-74448553D01*
X138793750Y-74447500D01*
X139306250Y-74447500D01*
X139327691Y-74448553D01*
X139327691Y-74448553D01*
G37*
D11*
X139050000Y-74885000D03*
D12*
X114000000Y-63500000D03*
X114000000Y-65150000D03*
X117660000Y-57490000D03*
X120960000Y-57480000D03*
X127850000Y-57540000D03*
X126190000Y-57500000D03*
X124530000Y-57480000D03*
X122870000Y-57520000D03*
X119310000Y-57490000D03*
X140870000Y-62310000D03*
X140870000Y-63970000D03*
X140850000Y-65620000D03*
X140830000Y-67270000D03*
X140840000Y-70820000D03*
X140910000Y-73700000D03*
D10*
G36*
X120404504Y-68101204D02*
G01*
X120428773Y-68104804D01*
X120452571Y-68110765D01*
X120475671Y-68119030D01*
X120497849Y-68129520D01*
X120518893Y-68142133D01*
X120538598Y-68156747D01*
X120556777Y-68173223D01*
X120573253Y-68191402D01*
X120587867Y-68211107D01*
X120600480Y-68232151D01*
X120610970Y-68254329D01*
X120619235Y-68277429D01*
X120625196Y-68301227D01*
X120628796Y-68325496D01*
X120630000Y-68350000D01*
X120630000Y-68940000D01*
X120628796Y-68964504D01*
X120625196Y-68988773D01*
X120619235Y-69012571D01*
X120610970Y-69035671D01*
X120600480Y-69057849D01*
X120587867Y-69078893D01*
X120573253Y-69098598D01*
X120556777Y-69116777D01*
X120538598Y-69133253D01*
X120518893Y-69147867D01*
X120497849Y-69160480D01*
X120475671Y-69170970D01*
X120452571Y-69179235D01*
X120428773Y-69185196D01*
X120404504Y-69188796D01*
X120380000Y-69190000D01*
X119790000Y-69190000D01*
X119765496Y-69188796D01*
X119741227Y-69185196D01*
X119717429Y-69179235D01*
X119694329Y-69170970D01*
X119672151Y-69160480D01*
X119651107Y-69147867D01*
X119631402Y-69133253D01*
X119613223Y-69116777D01*
X119596747Y-69098598D01*
X119582133Y-69078893D01*
X119569520Y-69057849D01*
X119559030Y-69035671D01*
X119550765Y-69012571D01*
X119544804Y-68988773D01*
X119541204Y-68964504D01*
X119540000Y-68940000D01*
X119540000Y-68350000D01*
X119541204Y-68325496D01*
X119544804Y-68301227D01*
X119550765Y-68277429D01*
X119559030Y-68254329D01*
X119569520Y-68232151D01*
X119582133Y-68211107D01*
X119596747Y-68191402D01*
X119613223Y-68173223D01*
X119631402Y-68156747D01*
X119651107Y-68142133D01*
X119672151Y-68129520D01*
X119694329Y-68119030D01*
X119717429Y-68110765D01*
X119741227Y-68104804D01*
X119765496Y-68101204D01*
X119790000Y-68100000D01*
X120380000Y-68100000D01*
X120404504Y-68101204D01*
X120404504Y-68101204D01*
G37*
D13*
X120085000Y-68645000D03*
D10*
G36*
X120404504Y-69451204D02*
G01*
X120428773Y-69454804D01*
X120452571Y-69460765D01*
X120475671Y-69469030D01*
X120497849Y-69479520D01*
X120518893Y-69492133D01*
X120538598Y-69506747D01*
X120556777Y-69523223D01*
X120573253Y-69541402D01*
X120587867Y-69561107D01*
X120600480Y-69582151D01*
X120610970Y-69604329D01*
X120619235Y-69627429D01*
X120625196Y-69651227D01*
X120628796Y-69675496D01*
X120630000Y-69700000D01*
X120630000Y-70290000D01*
X120628796Y-70314504D01*
X120625196Y-70338773D01*
X120619235Y-70362571D01*
X120610970Y-70385671D01*
X120600480Y-70407849D01*
X120587867Y-70428893D01*
X120573253Y-70448598D01*
X120556777Y-70466777D01*
X120538598Y-70483253D01*
X120518893Y-70497867D01*
X120497849Y-70510480D01*
X120475671Y-70520970D01*
X120452571Y-70529235D01*
X120428773Y-70535196D01*
X120404504Y-70538796D01*
X120380000Y-70540000D01*
X119790000Y-70540000D01*
X119765496Y-70538796D01*
X119741227Y-70535196D01*
X119717429Y-70529235D01*
X119694329Y-70520970D01*
X119672151Y-70510480D01*
X119651107Y-70497867D01*
X119631402Y-70483253D01*
X119613223Y-70466777D01*
X119596747Y-70448598D01*
X119582133Y-70428893D01*
X119569520Y-70407849D01*
X119559030Y-70385671D01*
X119550765Y-70362571D01*
X119544804Y-70338773D01*
X119541204Y-70314504D01*
X119540000Y-70290000D01*
X119540000Y-69700000D01*
X119541204Y-69675496D01*
X119544804Y-69651227D01*
X119550765Y-69627429D01*
X119559030Y-69604329D01*
X119569520Y-69582151D01*
X119582133Y-69561107D01*
X119596747Y-69541402D01*
X119613223Y-69523223D01*
X119631402Y-69506747D01*
X119651107Y-69492133D01*
X119672151Y-69479520D01*
X119694329Y-69469030D01*
X119717429Y-69460765D01*
X119741227Y-69454804D01*
X119765496Y-69451204D01*
X119790000Y-69450000D01*
X120380000Y-69450000D01*
X120404504Y-69451204D01*
X120404504Y-69451204D01*
G37*
D13*
X120085000Y-69995000D03*
D10*
G36*
X121754504Y-68101204D02*
G01*
X121778773Y-68104804D01*
X121802571Y-68110765D01*
X121825671Y-68119030D01*
X121847849Y-68129520D01*
X121868893Y-68142133D01*
X121888598Y-68156747D01*
X121906777Y-68173223D01*
X121923253Y-68191402D01*
X121937867Y-68211107D01*
X121950480Y-68232151D01*
X121960970Y-68254329D01*
X121969235Y-68277429D01*
X121975196Y-68301227D01*
X121978796Y-68325496D01*
X121980000Y-68350000D01*
X121980000Y-68940000D01*
X121978796Y-68964504D01*
X121975196Y-68988773D01*
X121969235Y-69012571D01*
X121960970Y-69035671D01*
X121950480Y-69057849D01*
X121937867Y-69078893D01*
X121923253Y-69098598D01*
X121906777Y-69116777D01*
X121888598Y-69133253D01*
X121868893Y-69147867D01*
X121847849Y-69160480D01*
X121825671Y-69170970D01*
X121802571Y-69179235D01*
X121778773Y-69185196D01*
X121754504Y-69188796D01*
X121730000Y-69190000D01*
X121140000Y-69190000D01*
X121115496Y-69188796D01*
X121091227Y-69185196D01*
X121067429Y-69179235D01*
X121044329Y-69170970D01*
X121022151Y-69160480D01*
X121001107Y-69147867D01*
X120981402Y-69133253D01*
X120963223Y-69116777D01*
X120946747Y-69098598D01*
X120932133Y-69078893D01*
X120919520Y-69057849D01*
X120909030Y-69035671D01*
X120900765Y-69012571D01*
X120894804Y-68988773D01*
X120891204Y-68964504D01*
X120890000Y-68940000D01*
X120890000Y-68350000D01*
X120891204Y-68325496D01*
X120894804Y-68301227D01*
X120900765Y-68277429D01*
X120909030Y-68254329D01*
X120919520Y-68232151D01*
X120932133Y-68211107D01*
X120946747Y-68191402D01*
X120963223Y-68173223D01*
X120981402Y-68156747D01*
X121001107Y-68142133D01*
X121022151Y-68129520D01*
X121044329Y-68119030D01*
X121067429Y-68110765D01*
X121091227Y-68104804D01*
X121115496Y-68101204D01*
X121140000Y-68100000D01*
X121730000Y-68100000D01*
X121754504Y-68101204D01*
X121754504Y-68101204D01*
G37*
D13*
X121435000Y-68645000D03*
D10*
G36*
X121754504Y-69451204D02*
G01*
X121778773Y-69454804D01*
X121802571Y-69460765D01*
X121825671Y-69469030D01*
X121847849Y-69479520D01*
X121868893Y-69492133D01*
X121888598Y-69506747D01*
X121906777Y-69523223D01*
X121923253Y-69541402D01*
X121937867Y-69561107D01*
X121950480Y-69582151D01*
X121960970Y-69604329D01*
X121969235Y-69627429D01*
X121975196Y-69651227D01*
X121978796Y-69675496D01*
X121980000Y-69700000D01*
X121980000Y-70290000D01*
X121978796Y-70314504D01*
X121975196Y-70338773D01*
X121969235Y-70362571D01*
X121960970Y-70385671D01*
X121950480Y-70407849D01*
X121937867Y-70428893D01*
X121923253Y-70448598D01*
X121906777Y-70466777D01*
X121888598Y-70483253D01*
X121868893Y-70497867D01*
X121847849Y-70510480D01*
X121825671Y-70520970D01*
X121802571Y-70529235D01*
X121778773Y-70535196D01*
X121754504Y-70538796D01*
X121730000Y-70540000D01*
X121140000Y-70540000D01*
X121115496Y-70538796D01*
X121091227Y-70535196D01*
X121067429Y-70529235D01*
X121044329Y-70520970D01*
X121022151Y-70510480D01*
X121001107Y-70497867D01*
X120981402Y-70483253D01*
X120963223Y-70466777D01*
X120946747Y-70448598D01*
X120932133Y-70428893D01*
X120919520Y-70407849D01*
X120909030Y-70385671D01*
X120900765Y-70362571D01*
X120894804Y-70338773D01*
X120891204Y-70314504D01*
X120890000Y-70290000D01*
X120890000Y-69700000D01*
X120891204Y-69675496D01*
X120894804Y-69651227D01*
X120900765Y-69627429D01*
X120909030Y-69604329D01*
X120919520Y-69582151D01*
X120932133Y-69561107D01*
X120946747Y-69541402D01*
X120963223Y-69523223D01*
X120981402Y-69506747D01*
X121001107Y-69492133D01*
X121022151Y-69479520D01*
X121044329Y-69469030D01*
X121067429Y-69460765D01*
X121091227Y-69454804D01*
X121115496Y-69451204D01*
X121140000Y-69450000D01*
X121730000Y-69450000D01*
X121754504Y-69451204D01*
X121754504Y-69451204D01*
G37*
D13*
X121435000Y-69995000D03*
D10*
G36*
X119142351Y-68195361D02*
G01*
X119149632Y-68196441D01*
X119156771Y-68198229D01*
X119163701Y-68200709D01*
X119170355Y-68203856D01*
X119176668Y-68207640D01*
X119182579Y-68212024D01*
X119188033Y-68216967D01*
X119192976Y-68222421D01*
X119197360Y-68228332D01*
X119201144Y-68234645D01*
X119204291Y-68241299D01*
X119206771Y-68248229D01*
X119208559Y-68255368D01*
X119209639Y-68262649D01*
X119210000Y-68270000D01*
X119210000Y-68420000D01*
X119209639Y-68427351D01*
X119208559Y-68434632D01*
X119206771Y-68441771D01*
X119204291Y-68448701D01*
X119201144Y-68455355D01*
X119197360Y-68461668D01*
X119192976Y-68467579D01*
X119188033Y-68473033D01*
X119182579Y-68477976D01*
X119176668Y-68482360D01*
X119170355Y-68486144D01*
X119163701Y-68489291D01*
X119156771Y-68491771D01*
X119149632Y-68493559D01*
X119142351Y-68494639D01*
X119135000Y-68495000D01*
X118460000Y-68495000D01*
X118452649Y-68494639D01*
X118445368Y-68493559D01*
X118438229Y-68491771D01*
X118431299Y-68489291D01*
X118424645Y-68486144D01*
X118418332Y-68482360D01*
X118412421Y-68477976D01*
X118406967Y-68473033D01*
X118402024Y-68467579D01*
X118397640Y-68461668D01*
X118393856Y-68455355D01*
X118390709Y-68448701D01*
X118388229Y-68441771D01*
X118386441Y-68434632D01*
X118385361Y-68427351D01*
X118385000Y-68420000D01*
X118385000Y-68270000D01*
X118385361Y-68262649D01*
X118386441Y-68255368D01*
X118388229Y-68248229D01*
X118390709Y-68241299D01*
X118393856Y-68234645D01*
X118397640Y-68228332D01*
X118402024Y-68222421D01*
X118406967Y-68216967D01*
X118412421Y-68212024D01*
X118418332Y-68207640D01*
X118424645Y-68203856D01*
X118431299Y-68200709D01*
X118438229Y-68198229D01*
X118445368Y-68196441D01*
X118452649Y-68195361D01*
X118460000Y-68195000D01*
X119135000Y-68195000D01*
X119142351Y-68195361D01*
X119142351Y-68195361D01*
G37*
D14*
X118797500Y-68345000D03*
D10*
G36*
X119142351Y-68845361D02*
G01*
X119149632Y-68846441D01*
X119156771Y-68848229D01*
X119163701Y-68850709D01*
X119170355Y-68853856D01*
X119176668Y-68857640D01*
X119182579Y-68862024D01*
X119188033Y-68866967D01*
X119192976Y-68872421D01*
X119197360Y-68878332D01*
X119201144Y-68884645D01*
X119204291Y-68891299D01*
X119206771Y-68898229D01*
X119208559Y-68905368D01*
X119209639Y-68912649D01*
X119210000Y-68920000D01*
X119210000Y-69070000D01*
X119209639Y-69077351D01*
X119208559Y-69084632D01*
X119206771Y-69091771D01*
X119204291Y-69098701D01*
X119201144Y-69105355D01*
X119197360Y-69111668D01*
X119192976Y-69117579D01*
X119188033Y-69123033D01*
X119182579Y-69127976D01*
X119176668Y-69132360D01*
X119170355Y-69136144D01*
X119163701Y-69139291D01*
X119156771Y-69141771D01*
X119149632Y-69143559D01*
X119142351Y-69144639D01*
X119135000Y-69145000D01*
X118460000Y-69145000D01*
X118452649Y-69144639D01*
X118445368Y-69143559D01*
X118438229Y-69141771D01*
X118431299Y-69139291D01*
X118424645Y-69136144D01*
X118418332Y-69132360D01*
X118412421Y-69127976D01*
X118406967Y-69123033D01*
X118402024Y-69117579D01*
X118397640Y-69111668D01*
X118393856Y-69105355D01*
X118390709Y-69098701D01*
X118388229Y-69091771D01*
X118386441Y-69084632D01*
X118385361Y-69077351D01*
X118385000Y-69070000D01*
X118385000Y-68920000D01*
X118385361Y-68912649D01*
X118386441Y-68905368D01*
X118388229Y-68898229D01*
X118390709Y-68891299D01*
X118393856Y-68884645D01*
X118397640Y-68878332D01*
X118402024Y-68872421D01*
X118406967Y-68866967D01*
X118412421Y-68862024D01*
X118418332Y-68857640D01*
X118424645Y-68853856D01*
X118431299Y-68850709D01*
X118438229Y-68848229D01*
X118445368Y-68846441D01*
X118452649Y-68845361D01*
X118460000Y-68845000D01*
X119135000Y-68845000D01*
X119142351Y-68845361D01*
X119142351Y-68845361D01*
G37*
D14*
X118797500Y-68995000D03*
D10*
G36*
X119142351Y-69495361D02*
G01*
X119149632Y-69496441D01*
X119156771Y-69498229D01*
X119163701Y-69500709D01*
X119170355Y-69503856D01*
X119176668Y-69507640D01*
X119182579Y-69512024D01*
X119188033Y-69516967D01*
X119192976Y-69522421D01*
X119197360Y-69528332D01*
X119201144Y-69534645D01*
X119204291Y-69541299D01*
X119206771Y-69548229D01*
X119208559Y-69555368D01*
X119209639Y-69562649D01*
X119210000Y-69570000D01*
X119210000Y-69720000D01*
X119209639Y-69727351D01*
X119208559Y-69734632D01*
X119206771Y-69741771D01*
X119204291Y-69748701D01*
X119201144Y-69755355D01*
X119197360Y-69761668D01*
X119192976Y-69767579D01*
X119188033Y-69773033D01*
X119182579Y-69777976D01*
X119176668Y-69782360D01*
X119170355Y-69786144D01*
X119163701Y-69789291D01*
X119156771Y-69791771D01*
X119149632Y-69793559D01*
X119142351Y-69794639D01*
X119135000Y-69795000D01*
X118460000Y-69795000D01*
X118452649Y-69794639D01*
X118445368Y-69793559D01*
X118438229Y-69791771D01*
X118431299Y-69789291D01*
X118424645Y-69786144D01*
X118418332Y-69782360D01*
X118412421Y-69777976D01*
X118406967Y-69773033D01*
X118402024Y-69767579D01*
X118397640Y-69761668D01*
X118393856Y-69755355D01*
X118390709Y-69748701D01*
X118388229Y-69741771D01*
X118386441Y-69734632D01*
X118385361Y-69727351D01*
X118385000Y-69720000D01*
X118385000Y-69570000D01*
X118385361Y-69562649D01*
X118386441Y-69555368D01*
X118388229Y-69548229D01*
X118390709Y-69541299D01*
X118393856Y-69534645D01*
X118397640Y-69528332D01*
X118402024Y-69522421D01*
X118406967Y-69516967D01*
X118412421Y-69512024D01*
X118418332Y-69507640D01*
X118424645Y-69503856D01*
X118431299Y-69500709D01*
X118438229Y-69498229D01*
X118445368Y-69496441D01*
X118452649Y-69495361D01*
X118460000Y-69495000D01*
X119135000Y-69495000D01*
X119142351Y-69495361D01*
X119142351Y-69495361D01*
G37*
D14*
X118797500Y-69645000D03*
D10*
G36*
X119142351Y-70145361D02*
G01*
X119149632Y-70146441D01*
X119156771Y-70148229D01*
X119163701Y-70150709D01*
X119170355Y-70153856D01*
X119176668Y-70157640D01*
X119182579Y-70162024D01*
X119188033Y-70166967D01*
X119192976Y-70172421D01*
X119197360Y-70178332D01*
X119201144Y-70184645D01*
X119204291Y-70191299D01*
X119206771Y-70198229D01*
X119208559Y-70205368D01*
X119209639Y-70212649D01*
X119210000Y-70220000D01*
X119210000Y-70370000D01*
X119209639Y-70377351D01*
X119208559Y-70384632D01*
X119206771Y-70391771D01*
X119204291Y-70398701D01*
X119201144Y-70405355D01*
X119197360Y-70411668D01*
X119192976Y-70417579D01*
X119188033Y-70423033D01*
X119182579Y-70427976D01*
X119176668Y-70432360D01*
X119170355Y-70436144D01*
X119163701Y-70439291D01*
X119156771Y-70441771D01*
X119149632Y-70443559D01*
X119142351Y-70444639D01*
X119135000Y-70445000D01*
X118460000Y-70445000D01*
X118452649Y-70444639D01*
X118445368Y-70443559D01*
X118438229Y-70441771D01*
X118431299Y-70439291D01*
X118424645Y-70436144D01*
X118418332Y-70432360D01*
X118412421Y-70427976D01*
X118406967Y-70423033D01*
X118402024Y-70417579D01*
X118397640Y-70411668D01*
X118393856Y-70405355D01*
X118390709Y-70398701D01*
X118388229Y-70391771D01*
X118386441Y-70384632D01*
X118385361Y-70377351D01*
X118385000Y-70370000D01*
X118385000Y-70220000D01*
X118385361Y-70212649D01*
X118386441Y-70205368D01*
X118388229Y-70198229D01*
X118390709Y-70191299D01*
X118393856Y-70184645D01*
X118397640Y-70178332D01*
X118402024Y-70172421D01*
X118406967Y-70166967D01*
X118412421Y-70162024D01*
X118418332Y-70157640D01*
X118424645Y-70153856D01*
X118431299Y-70150709D01*
X118438229Y-70148229D01*
X118445368Y-70146441D01*
X118452649Y-70145361D01*
X118460000Y-70145000D01*
X119135000Y-70145000D01*
X119142351Y-70145361D01*
X119142351Y-70145361D01*
G37*
D14*
X118797500Y-70295000D03*
D10*
G36*
X119867351Y-70870361D02*
G01*
X119874632Y-70871441D01*
X119881771Y-70873229D01*
X119888701Y-70875709D01*
X119895355Y-70878856D01*
X119901668Y-70882640D01*
X119907579Y-70887024D01*
X119913033Y-70891967D01*
X119917976Y-70897421D01*
X119922360Y-70903332D01*
X119926144Y-70909645D01*
X119929291Y-70916299D01*
X119931771Y-70923229D01*
X119933559Y-70930368D01*
X119934639Y-70937649D01*
X119935000Y-70945000D01*
X119935000Y-71620000D01*
X119934639Y-71627351D01*
X119933559Y-71634632D01*
X119931771Y-71641771D01*
X119929291Y-71648701D01*
X119926144Y-71655355D01*
X119922360Y-71661668D01*
X119917976Y-71667579D01*
X119913033Y-71673033D01*
X119907579Y-71677976D01*
X119901668Y-71682360D01*
X119895355Y-71686144D01*
X119888701Y-71689291D01*
X119881771Y-71691771D01*
X119874632Y-71693559D01*
X119867351Y-71694639D01*
X119860000Y-71695000D01*
X119710000Y-71695000D01*
X119702649Y-71694639D01*
X119695368Y-71693559D01*
X119688229Y-71691771D01*
X119681299Y-71689291D01*
X119674645Y-71686144D01*
X119668332Y-71682360D01*
X119662421Y-71677976D01*
X119656967Y-71673033D01*
X119652024Y-71667579D01*
X119647640Y-71661668D01*
X119643856Y-71655355D01*
X119640709Y-71648701D01*
X119638229Y-71641771D01*
X119636441Y-71634632D01*
X119635361Y-71627351D01*
X119635000Y-71620000D01*
X119635000Y-70945000D01*
X119635361Y-70937649D01*
X119636441Y-70930368D01*
X119638229Y-70923229D01*
X119640709Y-70916299D01*
X119643856Y-70909645D01*
X119647640Y-70903332D01*
X119652024Y-70897421D01*
X119656967Y-70891967D01*
X119662421Y-70887024D01*
X119668332Y-70882640D01*
X119674645Y-70878856D01*
X119681299Y-70875709D01*
X119688229Y-70873229D01*
X119695368Y-70871441D01*
X119702649Y-70870361D01*
X119710000Y-70870000D01*
X119860000Y-70870000D01*
X119867351Y-70870361D01*
X119867351Y-70870361D01*
G37*
D14*
X119785000Y-71282500D03*
D10*
G36*
X120517351Y-70870361D02*
G01*
X120524632Y-70871441D01*
X120531771Y-70873229D01*
X120538701Y-70875709D01*
X120545355Y-70878856D01*
X120551668Y-70882640D01*
X120557579Y-70887024D01*
X120563033Y-70891967D01*
X120567976Y-70897421D01*
X120572360Y-70903332D01*
X120576144Y-70909645D01*
X120579291Y-70916299D01*
X120581771Y-70923229D01*
X120583559Y-70930368D01*
X120584639Y-70937649D01*
X120585000Y-70945000D01*
X120585000Y-71620000D01*
X120584639Y-71627351D01*
X120583559Y-71634632D01*
X120581771Y-71641771D01*
X120579291Y-71648701D01*
X120576144Y-71655355D01*
X120572360Y-71661668D01*
X120567976Y-71667579D01*
X120563033Y-71673033D01*
X120557579Y-71677976D01*
X120551668Y-71682360D01*
X120545355Y-71686144D01*
X120538701Y-71689291D01*
X120531771Y-71691771D01*
X120524632Y-71693559D01*
X120517351Y-71694639D01*
X120510000Y-71695000D01*
X120360000Y-71695000D01*
X120352649Y-71694639D01*
X120345368Y-71693559D01*
X120338229Y-71691771D01*
X120331299Y-71689291D01*
X120324645Y-71686144D01*
X120318332Y-71682360D01*
X120312421Y-71677976D01*
X120306967Y-71673033D01*
X120302024Y-71667579D01*
X120297640Y-71661668D01*
X120293856Y-71655355D01*
X120290709Y-71648701D01*
X120288229Y-71641771D01*
X120286441Y-71634632D01*
X120285361Y-71627351D01*
X120285000Y-71620000D01*
X120285000Y-70945000D01*
X120285361Y-70937649D01*
X120286441Y-70930368D01*
X120288229Y-70923229D01*
X120290709Y-70916299D01*
X120293856Y-70909645D01*
X120297640Y-70903332D01*
X120302024Y-70897421D01*
X120306967Y-70891967D01*
X120312421Y-70887024D01*
X120318332Y-70882640D01*
X120324645Y-70878856D01*
X120331299Y-70875709D01*
X120338229Y-70873229D01*
X120345368Y-70871441D01*
X120352649Y-70870361D01*
X120360000Y-70870000D01*
X120510000Y-70870000D01*
X120517351Y-70870361D01*
X120517351Y-70870361D01*
G37*
D14*
X120435000Y-71282500D03*
D10*
G36*
X121167351Y-70870361D02*
G01*
X121174632Y-70871441D01*
X121181771Y-70873229D01*
X121188701Y-70875709D01*
X121195355Y-70878856D01*
X121201668Y-70882640D01*
X121207579Y-70887024D01*
X121213033Y-70891967D01*
X121217976Y-70897421D01*
X121222360Y-70903332D01*
X121226144Y-70909645D01*
X121229291Y-70916299D01*
X121231771Y-70923229D01*
X121233559Y-70930368D01*
X121234639Y-70937649D01*
X121235000Y-70945000D01*
X121235000Y-71620000D01*
X121234639Y-71627351D01*
X121233559Y-71634632D01*
X121231771Y-71641771D01*
X121229291Y-71648701D01*
X121226144Y-71655355D01*
X121222360Y-71661668D01*
X121217976Y-71667579D01*
X121213033Y-71673033D01*
X121207579Y-71677976D01*
X121201668Y-71682360D01*
X121195355Y-71686144D01*
X121188701Y-71689291D01*
X121181771Y-71691771D01*
X121174632Y-71693559D01*
X121167351Y-71694639D01*
X121160000Y-71695000D01*
X121010000Y-71695000D01*
X121002649Y-71694639D01*
X120995368Y-71693559D01*
X120988229Y-71691771D01*
X120981299Y-71689291D01*
X120974645Y-71686144D01*
X120968332Y-71682360D01*
X120962421Y-71677976D01*
X120956967Y-71673033D01*
X120952024Y-71667579D01*
X120947640Y-71661668D01*
X120943856Y-71655355D01*
X120940709Y-71648701D01*
X120938229Y-71641771D01*
X120936441Y-71634632D01*
X120935361Y-71627351D01*
X120935000Y-71620000D01*
X120935000Y-70945000D01*
X120935361Y-70937649D01*
X120936441Y-70930368D01*
X120938229Y-70923229D01*
X120940709Y-70916299D01*
X120943856Y-70909645D01*
X120947640Y-70903332D01*
X120952024Y-70897421D01*
X120956967Y-70891967D01*
X120962421Y-70887024D01*
X120968332Y-70882640D01*
X120974645Y-70878856D01*
X120981299Y-70875709D01*
X120988229Y-70873229D01*
X120995368Y-70871441D01*
X121002649Y-70870361D01*
X121010000Y-70870000D01*
X121160000Y-70870000D01*
X121167351Y-70870361D01*
X121167351Y-70870361D01*
G37*
D14*
X121085000Y-71282500D03*
D10*
G36*
X121817351Y-70870361D02*
G01*
X121824632Y-70871441D01*
X121831771Y-70873229D01*
X121838701Y-70875709D01*
X121845355Y-70878856D01*
X121851668Y-70882640D01*
X121857579Y-70887024D01*
X121863033Y-70891967D01*
X121867976Y-70897421D01*
X121872360Y-70903332D01*
X121876144Y-70909645D01*
X121879291Y-70916299D01*
X121881771Y-70923229D01*
X121883559Y-70930368D01*
X121884639Y-70937649D01*
X121885000Y-70945000D01*
X121885000Y-71620000D01*
X121884639Y-71627351D01*
X121883559Y-71634632D01*
X121881771Y-71641771D01*
X121879291Y-71648701D01*
X121876144Y-71655355D01*
X121872360Y-71661668D01*
X121867976Y-71667579D01*
X121863033Y-71673033D01*
X121857579Y-71677976D01*
X121851668Y-71682360D01*
X121845355Y-71686144D01*
X121838701Y-71689291D01*
X121831771Y-71691771D01*
X121824632Y-71693559D01*
X121817351Y-71694639D01*
X121810000Y-71695000D01*
X121660000Y-71695000D01*
X121652649Y-71694639D01*
X121645368Y-71693559D01*
X121638229Y-71691771D01*
X121631299Y-71689291D01*
X121624645Y-71686144D01*
X121618332Y-71682360D01*
X121612421Y-71677976D01*
X121606967Y-71673033D01*
X121602024Y-71667579D01*
X121597640Y-71661668D01*
X121593856Y-71655355D01*
X121590709Y-71648701D01*
X121588229Y-71641771D01*
X121586441Y-71634632D01*
X121585361Y-71627351D01*
X121585000Y-71620000D01*
X121585000Y-70945000D01*
X121585361Y-70937649D01*
X121586441Y-70930368D01*
X121588229Y-70923229D01*
X121590709Y-70916299D01*
X121593856Y-70909645D01*
X121597640Y-70903332D01*
X121602024Y-70897421D01*
X121606967Y-70891967D01*
X121612421Y-70887024D01*
X121618332Y-70882640D01*
X121624645Y-70878856D01*
X121631299Y-70875709D01*
X121638229Y-70873229D01*
X121645368Y-70871441D01*
X121652649Y-70870361D01*
X121660000Y-70870000D01*
X121810000Y-70870000D01*
X121817351Y-70870361D01*
X121817351Y-70870361D01*
G37*
D14*
X121735000Y-71282500D03*
D10*
G36*
X123067351Y-70145361D02*
G01*
X123074632Y-70146441D01*
X123081771Y-70148229D01*
X123088701Y-70150709D01*
X123095355Y-70153856D01*
X123101668Y-70157640D01*
X123107579Y-70162024D01*
X123113033Y-70166967D01*
X123117976Y-70172421D01*
X123122360Y-70178332D01*
X123126144Y-70184645D01*
X123129291Y-70191299D01*
X123131771Y-70198229D01*
X123133559Y-70205368D01*
X123134639Y-70212649D01*
X123135000Y-70220000D01*
X123135000Y-70370000D01*
X123134639Y-70377351D01*
X123133559Y-70384632D01*
X123131771Y-70391771D01*
X123129291Y-70398701D01*
X123126144Y-70405355D01*
X123122360Y-70411668D01*
X123117976Y-70417579D01*
X123113033Y-70423033D01*
X123107579Y-70427976D01*
X123101668Y-70432360D01*
X123095355Y-70436144D01*
X123088701Y-70439291D01*
X123081771Y-70441771D01*
X123074632Y-70443559D01*
X123067351Y-70444639D01*
X123060000Y-70445000D01*
X122385000Y-70445000D01*
X122377649Y-70444639D01*
X122370368Y-70443559D01*
X122363229Y-70441771D01*
X122356299Y-70439291D01*
X122349645Y-70436144D01*
X122343332Y-70432360D01*
X122337421Y-70427976D01*
X122331967Y-70423033D01*
X122327024Y-70417579D01*
X122322640Y-70411668D01*
X122318856Y-70405355D01*
X122315709Y-70398701D01*
X122313229Y-70391771D01*
X122311441Y-70384632D01*
X122310361Y-70377351D01*
X122310000Y-70370000D01*
X122310000Y-70220000D01*
X122310361Y-70212649D01*
X122311441Y-70205368D01*
X122313229Y-70198229D01*
X122315709Y-70191299D01*
X122318856Y-70184645D01*
X122322640Y-70178332D01*
X122327024Y-70172421D01*
X122331967Y-70166967D01*
X122337421Y-70162024D01*
X122343332Y-70157640D01*
X122349645Y-70153856D01*
X122356299Y-70150709D01*
X122363229Y-70148229D01*
X122370368Y-70146441D01*
X122377649Y-70145361D01*
X122385000Y-70145000D01*
X123060000Y-70145000D01*
X123067351Y-70145361D01*
X123067351Y-70145361D01*
G37*
D14*
X122722500Y-70295000D03*
D10*
G36*
X123067351Y-69495361D02*
G01*
X123074632Y-69496441D01*
X123081771Y-69498229D01*
X123088701Y-69500709D01*
X123095355Y-69503856D01*
X123101668Y-69507640D01*
X123107579Y-69512024D01*
X123113033Y-69516967D01*
X123117976Y-69522421D01*
X123122360Y-69528332D01*
X123126144Y-69534645D01*
X123129291Y-69541299D01*
X123131771Y-69548229D01*
X123133559Y-69555368D01*
X123134639Y-69562649D01*
X123135000Y-69570000D01*
X123135000Y-69720000D01*
X123134639Y-69727351D01*
X123133559Y-69734632D01*
X123131771Y-69741771D01*
X123129291Y-69748701D01*
X123126144Y-69755355D01*
X123122360Y-69761668D01*
X123117976Y-69767579D01*
X123113033Y-69773033D01*
X123107579Y-69777976D01*
X123101668Y-69782360D01*
X123095355Y-69786144D01*
X123088701Y-69789291D01*
X123081771Y-69791771D01*
X123074632Y-69793559D01*
X123067351Y-69794639D01*
X123060000Y-69795000D01*
X122385000Y-69795000D01*
X122377649Y-69794639D01*
X122370368Y-69793559D01*
X122363229Y-69791771D01*
X122356299Y-69789291D01*
X122349645Y-69786144D01*
X122343332Y-69782360D01*
X122337421Y-69777976D01*
X122331967Y-69773033D01*
X122327024Y-69767579D01*
X122322640Y-69761668D01*
X122318856Y-69755355D01*
X122315709Y-69748701D01*
X122313229Y-69741771D01*
X122311441Y-69734632D01*
X122310361Y-69727351D01*
X122310000Y-69720000D01*
X122310000Y-69570000D01*
X122310361Y-69562649D01*
X122311441Y-69555368D01*
X122313229Y-69548229D01*
X122315709Y-69541299D01*
X122318856Y-69534645D01*
X122322640Y-69528332D01*
X122327024Y-69522421D01*
X122331967Y-69516967D01*
X122337421Y-69512024D01*
X122343332Y-69507640D01*
X122349645Y-69503856D01*
X122356299Y-69500709D01*
X122363229Y-69498229D01*
X122370368Y-69496441D01*
X122377649Y-69495361D01*
X122385000Y-69495000D01*
X123060000Y-69495000D01*
X123067351Y-69495361D01*
X123067351Y-69495361D01*
G37*
D14*
X122722500Y-69645000D03*
D10*
G36*
X123067351Y-68845361D02*
G01*
X123074632Y-68846441D01*
X123081771Y-68848229D01*
X123088701Y-68850709D01*
X123095355Y-68853856D01*
X123101668Y-68857640D01*
X123107579Y-68862024D01*
X123113033Y-68866967D01*
X123117976Y-68872421D01*
X123122360Y-68878332D01*
X123126144Y-68884645D01*
X123129291Y-68891299D01*
X123131771Y-68898229D01*
X123133559Y-68905368D01*
X123134639Y-68912649D01*
X123135000Y-68920000D01*
X123135000Y-69070000D01*
X123134639Y-69077351D01*
X123133559Y-69084632D01*
X123131771Y-69091771D01*
X123129291Y-69098701D01*
X123126144Y-69105355D01*
X123122360Y-69111668D01*
X123117976Y-69117579D01*
X123113033Y-69123033D01*
X123107579Y-69127976D01*
X123101668Y-69132360D01*
X123095355Y-69136144D01*
X123088701Y-69139291D01*
X123081771Y-69141771D01*
X123074632Y-69143559D01*
X123067351Y-69144639D01*
X123060000Y-69145000D01*
X122385000Y-69145000D01*
X122377649Y-69144639D01*
X122370368Y-69143559D01*
X122363229Y-69141771D01*
X122356299Y-69139291D01*
X122349645Y-69136144D01*
X122343332Y-69132360D01*
X122337421Y-69127976D01*
X122331967Y-69123033D01*
X122327024Y-69117579D01*
X122322640Y-69111668D01*
X122318856Y-69105355D01*
X122315709Y-69098701D01*
X122313229Y-69091771D01*
X122311441Y-69084632D01*
X122310361Y-69077351D01*
X122310000Y-69070000D01*
X122310000Y-68920000D01*
X122310361Y-68912649D01*
X122311441Y-68905368D01*
X122313229Y-68898229D01*
X122315709Y-68891299D01*
X122318856Y-68884645D01*
X122322640Y-68878332D01*
X122327024Y-68872421D01*
X122331967Y-68866967D01*
X122337421Y-68862024D01*
X122343332Y-68857640D01*
X122349645Y-68853856D01*
X122356299Y-68850709D01*
X122363229Y-68848229D01*
X122370368Y-68846441D01*
X122377649Y-68845361D01*
X122385000Y-68845000D01*
X123060000Y-68845000D01*
X123067351Y-68845361D01*
X123067351Y-68845361D01*
G37*
D14*
X122722500Y-68995000D03*
D10*
G36*
X123067351Y-68195361D02*
G01*
X123074632Y-68196441D01*
X123081771Y-68198229D01*
X123088701Y-68200709D01*
X123095355Y-68203856D01*
X123101668Y-68207640D01*
X123107579Y-68212024D01*
X123113033Y-68216967D01*
X123117976Y-68222421D01*
X123122360Y-68228332D01*
X123126144Y-68234645D01*
X123129291Y-68241299D01*
X123131771Y-68248229D01*
X123133559Y-68255368D01*
X123134639Y-68262649D01*
X123135000Y-68270000D01*
X123135000Y-68420000D01*
X123134639Y-68427351D01*
X123133559Y-68434632D01*
X123131771Y-68441771D01*
X123129291Y-68448701D01*
X123126144Y-68455355D01*
X123122360Y-68461668D01*
X123117976Y-68467579D01*
X123113033Y-68473033D01*
X123107579Y-68477976D01*
X123101668Y-68482360D01*
X123095355Y-68486144D01*
X123088701Y-68489291D01*
X123081771Y-68491771D01*
X123074632Y-68493559D01*
X123067351Y-68494639D01*
X123060000Y-68495000D01*
X122385000Y-68495000D01*
X122377649Y-68494639D01*
X122370368Y-68493559D01*
X122363229Y-68491771D01*
X122356299Y-68489291D01*
X122349645Y-68486144D01*
X122343332Y-68482360D01*
X122337421Y-68477976D01*
X122331967Y-68473033D01*
X122327024Y-68467579D01*
X122322640Y-68461668D01*
X122318856Y-68455355D01*
X122315709Y-68448701D01*
X122313229Y-68441771D01*
X122311441Y-68434632D01*
X122310361Y-68427351D01*
X122310000Y-68420000D01*
X122310000Y-68270000D01*
X122310361Y-68262649D01*
X122311441Y-68255368D01*
X122313229Y-68248229D01*
X122315709Y-68241299D01*
X122318856Y-68234645D01*
X122322640Y-68228332D01*
X122327024Y-68222421D01*
X122331967Y-68216967D01*
X122337421Y-68212024D01*
X122343332Y-68207640D01*
X122349645Y-68203856D01*
X122356299Y-68200709D01*
X122363229Y-68198229D01*
X122370368Y-68196441D01*
X122377649Y-68195361D01*
X122385000Y-68195000D01*
X123060000Y-68195000D01*
X123067351Y-68195361D01*
X123067351Y-68195361D01*
G37*
D14*
X122722500Y-68345000D03*
D10*
G36*
X121817351Y-66945361D02*
G01*
X121824632Y-66946441D01*
X121831771Y-66948229D01*
X121838701Y-66950709D01*
X121845355Y-66953856D01*
X121851668Y-66957640D01*
X121857579Y-66962024D01*
X121863033Y-66966967D01*
X121867976Y-66972421D01*
X121872360Y-66978332D01*
X121876144Y-66984645D01*
X121879291Y-66991299D01*
X121881771Y-66998229D01*
X121883559Y-67005368D01*
X121884639Y-67012649D01*
X121885000Y-67020000D01*
X121885000Y-67695000D01*
X121884639Y-67702351D01*
X121883559Y-67709632D01*
X121881771Y-67716771D01*
X121879291Y-67723701D01*
X121876144Y-67730355D01*
X121872360Y-67736668D01*
X121867976Y-67742579D01*
X121863033Y-67748033D01*
X121857579Y-67752976D01*
X121851668Y-67757360D01*
X121845355Y-67761144D01*
X121838701Y-67764291D01*
X121831771Y-67766771D01*
X121824632Y-67768559D01*
X121817351Y-67769639D01*
X121810000Y-67770000D01*
X121660000Y-67770000D01*
X121652649Y-67769639D01*
X121645368Y-67768559D01*
X121638229Y-67766771D01*
X121631299Y-67764291D01*
X121624645Y-67761144D01*
X121618332Y-67757360D01*
X121612421Y-67752976D01*
X121606967Y-67748033D01*
X121602024Y-67742579D01*
X121597640Y-67736668D01*
X121593856Y-67730355D01*
X121590709Y-67723701D01*
X121588229Y-67716771D01*
X121586441Y-67709632D01*
X121585361Y-67702351D01*
X121585000Y-67695000D01*
X121585000Y-67020000D01*
X121585361Y-67012649D01*
X121586441Y-67005368D01*
X121588229Y-66998229D01*
X121590709Y-66991299D01*
X121593856Y-66984645D01*
X121597640Y-66978332D01*
X121602024Y-66972421D01*
X121606967Y-66966967D01*
X121612421Y-66962024D01*
X121618332Y-66957640D01*
X121624645Y-66953856D01*
X121631299Y-66950709D01*
X121638229Y-66948229D01*
X121645368Y-66946441D01*
X121652649Y-66945361D01*
X121660000Y-66945000D01*
X121810000Y-66945000D01*
X121817351Y-66945361D01*
X121817351Y-66945361D01*
G37*
D14*
X121735000Y-67357500D03*
D10*
G36*
X121167351Y-66945361D02*
G01*
X121174632Y-66946441D01*
X121181771Y-66948229D01*
X121188701Y-66950709D01*
X121195355Y-66953856D01*
X121201668Y-66957640D01*
X121207579Y-66962024D01*
X121213033Y-66966967D01*
X121217976Y-66972421D01*
X121222360Y-66978332D01*
X121226144Y-66984645D01*
X121229291Y-66991299D01*
X121231771Y-66998229D01*
X121233559Y-67005368D01*
X121234639Y-67012649D01*
X121235000Y-67020000D01*
X121235000Y-67695000D01*
X121234639Y-67702351D01*
X121233559Y-67709632D01*
X121231771Y-67716771D01*
X121229291Y-67723701D01*
X121226144Y-67730355D01*
X121222360Y-67736668D01*
X121217976Y-67742579D01*
X121213033Y-67748033D01*
X121207579Y-67752976D01*
X121201668Y-67757360D01*
X121195355Y-67761144D01*
X121188701Y-67764291D01*
X121181771Y-67766771D01*
X121174632Y-67768559D01*
X121167351Y-67769639D01*
X121160000Y-67770000D01*
X121010000Y-67770000D01*
X121002649Y-67769639D01*
X120995368Y-67768559D01*
X120988229Y-67766771D01*
X120981299Y-67764291D01*
X120974645Y-67761144D01*
X120968332Y-67757360D01*
X120962421Y-67752976D01*
X120956967Y-67748033D01*
X120952024Y-67742579D01*
X120947640Y-67736668D01*
X120943856Y-67730355D01*
X120940709Y-67723701D01*
X120938229Y-67716771D01*
X120936441Y-67709632D01*
X120935361Y-67702351D01*
X120935000Y-67695000D01*
X120935000Y-67020000D01*
X120935361Y-67012649D01*
X120936441Y-67005368D01*
X120938229Y-66998229D01*
X120940709Y-66991299D01*
X120943856Y-66984645D01*
X120947640Y-66978332D01*
X120952024Y-66972421D01*
X120956967Y-66966967D01*
X120962421Y-66962024D01*
X120968332Y-66957640D01*
X120974645Y-66953856D01*
X120981299Y-66950709D01*
X120988229Y-66948229D01*
X120995368Y-66946441D01*
X121002649Y-66945361D01*
X121010000Y-66945000D01*
X121160000Y-66945000D01*
X121167351Y-66945361D01*
X121167351Y-66945361D01*
G37*
D14*
X121085000Y-67357500D03*
D10*
G36*
X120517351Y-66945361D02*
G01*
X120524632Y-66946441D01*
X120531771Y-66948229D01*
X120538701Y-66950709D01*
X120545355Y-66953856D01*
X120551668Y-66957640D01*
X120557579Y-66962024D01*
X120563033Y-66966967D01*
X120567976Y-66972421D01*
X120572360Y-66978332D01*
X120576144Y-66984645D01*
X120579291Y-66991299D01*
X120581771Y-66998229D01*
X120583559Y-67005368D01*
X120584639Y-67012649D01*
X120585000Y-67020000D01*
X120585000Y-67695000D01*
X120584639Y-67702351D01*
X120583559Y-67709632D01*
X120581771Y-67716771D01*
X120579291Y-67723701D01*
X120576144Y-67730355D01*
X120572360Y-67736668D01*
X120567976Y-67742579D01*
X120563033Y-67748033D01*
X120557579Y-67752976D01*
X120551668Y-67757360D01*
X120545355Y-67761144D01*
X120538701Y-67764291D01*
X120531771Y-67766771D01*
X120524632Y-67768559D01*
X120517351Y-67769639D01*
X120510000Y-67770000D01*
X120360000Y-67770000D01*
X120352649Y-67769639D01*
X120345368Y-67768559D01*
X120338229Y-67766771D01*
X120331299Y-67764291D01*
X120324645Y-67761144D01*
X120318332Y-67757360D01*
X120312421Y-67752976D01*
X120306967Y-67748033D01*
X120302024Y-67742579D01*
X120297640Y-67736668D01*
X120293856Y-67730355D01*
X120290709Y-67723701D01*
X120288229Y-67716771D01*
X120286441Y-67709632D01*
X120285361Y-67702351D01*
X120285000Y-67695000D01*
X120285000Y-67020000D01*
X120285361Y-67012649D01*
X120286441Y-67005368D01*
X120288229Y-66998229D01*
X120290709Y-66991299D01*
X120293856Y-66984645D01*
X120297640Y-66978332D01*
X120302024Y-66972421D01*
X120306967Y-66966967D01*
X120312421Y-66962024D01*
X120318332Y-66957640D01*
X120324645Y-66953856D01*
X120331299Y-66950709D01*
X120338229Y-66948229D01*
X120345368Y-66946441D01*
X120352649Y-66945361D01*
X120360000Y-66945000D01*
X120510000Y-66945000D01*
X120517351Y-66945361D01*
X120517351Y-66945361D01*
G37*
D14*
X120435000Y-67357500D03*
D10*
G36*
X119867351Y-66945361D02*
G01*
X119874632Y-66946441D01*
X119881771Y-66948229D01*
X119888701Y-66950709D01*
X119895355Y-66953856D01*
X119901668Y-66957640D01*
X119907579Y-66962024D01*
X119913033Y-66966967D01*
X119917976Y-66972421D01*
X119922360Y-66978332D01*
X119926144Y-66984645D01*
X119929291Y-66991299D01*
X119931771Y-66998229D01*
X119933559Y-67005368D01*
X119934639Y-67012649D01*
X119935000Y-67020000D01*
X119935000Y-67695000D01*
X119934639Y-67702351D01*
X119933559Y-67709632D01*
X119931771Y-67716771D01*
X119929291Y-67723701D01*
X119926144Y-67730355D01*
X119922360Y-67736668D01*
X119917976Y-67742579D01*
X119913033Y-67748033D01*
X119907579Y-67752976D01*
X119901668Y-67757360D01*
X119895355Y-67761144D01*
X119888701Y-67764291D01*
X119881771Y-67766771D01*
X119874632Y-67768559D01*
X119867351Y-67769639D01*
X119860000Y-67770000D01*
X119710000Y-67770000D01*
X119702649Y-67769639D01*
X119695368Y-67768559D01*
X119688229Y-67766771D01*
X119681299Y-67764291D01*
X119674645Y-67761144D01*
X119668332Y-67757360D01*
X119662421Y-67752976D01*
X119656967Y-67748033D01*
X119652024Y-67742579D01*
X119647640Y-67736668D01*
X119643856Y-67730355D01*
X119640709Y-67723701D01*
X119638229Y-67716771D01*
X119636441Y-67709632D01*
X119635361Y-67702351D01*
X119635000Y-67695000D01*
X119635000Y-67020000D01*
X119635361Y-67012649D01*
X119636441Y-67005368D01*
X119638229Y-66998229D01*
X119640709Y-66991299D01*
X119643856Y-66984645D01*
X119647640Y-66978332D01*
X119652024Y-66972421D01*
X119656967Y-66966967D01*
X119662421Y-66962024D01*
X119668332Y-66957640D01*
X119674645Y-66953856D01*
X119681299Y-66950709D01*
X119688229Y-66948229D01*
X119695368Y-66946441D01*
X119702649Y-66945361D01*
X119710000Y-66945000D01*
X119860000Y-66945000D01*
X119867351Y-66945361D01*
X119867351Y-66945361D01*
G37*
D14*
X119785000Y-67357500D03*
D10*
G36*
X130057839Y-66495999D02*
G01*
X130077981Y-66498987D01*
X130097734Y-66503935D01*
X130116907Y-66510795D01*
X130135315Y-66519501D01*
X130152781Y-66529970D01*
X130169137Y-66542100D01*
X130184225Y-66555775D01*
X130197900Y-66570863D01*
X130210030Y-66587219D01*
X130220499Y-66604685D01*
X130229205Y-66623093D01*
X130236065Y-66642266D01*
X130241013Y-66662019D01*
X130244001Y-66682161D01*
X130245000Y-66702500D01*
X130245000Y-67117500D01*
X130244001Y-67137839D01*
X130241013Y-67157981D01*
X130236065Y-67177734D01*
X130229205Y-67196907D01*
X130220499Y-67215315D01*
X130210030Y-67232781D01*
X130197900Y-67249137D01*
X130184225Y-67264225D01*
X130169137Y-67277900D01*
X130152781Y-67290030D01*
X130135315Y-67300499D01*
X130116907Y-67309205D01*
X130097734Y-67316065D01*
X130077981Y-67321013D01*
X130057839Y-67324001D01*
X130037500Y-67325000D01*
X129622500Y-67325000D01*
X129602161Y-67324001D01*
X129582019Y-67321013D01*
X129562266Y-67316065D01*
X129543093Y-67309205D01*
X129524685Y-67300499D01*
X129507219Y-67290030D01*
X129490863Y-67277900D01*
X129475775Y-67264225D01*
X129462100Y-67249137D01*
X129449970Y-67232781D01*
X129439501Y-67215315D01*
X129430795Y-67196907D01*
X129423935Y-67177734D01*
X129418987Y-67157981D01*
X129415999Y-67137839D01*
X129415000Y-67117500D01*
X129415000Y-66702500D01*
X129415999Y-66682161D01*
X129418987Y-66662019D01*
X129423935Y-66642266D01*
X129430795Y-66623093D01*
X129439501Y-66604685D01*
X129449970Y-66587219D01*
X129462100Y-66570863D01*
X129475775Y-66555775D01*
X129490863Y-66542100D01*
X129507219Y-66529970D01*
X129524685Y-66519501D01*
X129543093Y-66510795D01*
X129562266Y-66503935D01*
X129582019Y-66498987D01*
X129602161Y-66495999D01*
X129622500Y-66495000D01*
X130037500Y-66495000D01*
X130057839Y-66495999D01*
X130057839Y-66495999D01*
G37*
D15*
X129830000Y-66910000D03*
D10*
G36*
X130057839Y-67525999D02*
G01*
X130077981Y-67528987D01*
X130097734Y-67533935D01*
X130116907Y-67540795D01*
X130135315Y-67549501D01*
X130152781Y-67559970D01*
X130169137Y-67572100D01*
X130184225Y-67585775D01*
X130197900Y-67600863D01*
X130210030Y-67617219D01*
X130220499Y-67634685D01*
X130229205Y-67653093D01*
X130236065Y-67672266D01*
X130241013Y-67692019D01*
X130244001Y-67712161D01*
X130245000Y-67732500D01*
X130245000Y-68147500D01*
X130244001Y-68167839D01*
X130241013Y-68187981D01*
X130236065Y-68207734D01*
X130229205Y-68226907D01*
X130220499Y-68245315D01*
X130210030Y-68262781D01*
X130197900Y-68279137D01*
X130184225Y-68294225D01*
X130169137Y-68307900D01*
X130152781Y-68320030D01*
X130135315Y-68330499D01*
X130116907Y-68339205D01*
X130097734Y-68346065D01*
X130077981Y-68351013D01*
X130057839Y-68354001D01*
X130037500Y-68355000D01*
X129622500Y-68355000D01*
X129602161Y-68354001D01*
X129582019Y-68351013D01*
X129562266Y-68346065D01*
X129543093Y-68339205D01*
X129524685Y-68330499D01*
X129507219Y-68320030D01*
X129490863Y-68307900D01*
X129475775Y-68294225D01*
X129462100Y-68279137D01*
X129449970Y-68262781D01*
X129439501Y-68245315D01*
X129430795Y-68226907D01*
X129423935Y-68207734D01*
X129418987Y-68187981D01*
X129415999Y-68167839D01*
X129415000Y-68147500D01*
X129415000Y-67732500D01*
X129415999Y-67712161D01*
X129418987Y-67692019D01*
X129423935Y-67672266D01*
X129430795Y-67653093D01*
X129439501Y-67634685D01*
X129449970Y-67617219D01*
X129462100Y-67600863D01*
X129475775Y-67585775D01*
X129490863Y-67572100D01*
X129507219Y-67559970D01*
X129524685Y-67549501D01*
X129543093Y-67540795D01*
X129562266Y-67533935D01*
X129582019Y-67528987D01*
X129602161Y-67525999D01*
X129622500Y-67525000D01*
X130037500Y-67525000D01*
X130057839Y-67525999D01*
X130057839Y-67525999D01*
G37*
D15*
X129830000Y-67940000D03*
D10*
G36*
X130057839Y-68555999D02*
G01*
X130077981Y-68558987D01*
X130097734Y-68563935D01*
X130116907Y-68570795D01*
X130135315Y-68579501D01*
X130152781Y-68589970D01*
X130169137Y-68602100D01*
X130184225Y-68615775D01*
X130197900Y-68630863D01*
X130210030Y-68647219D01*
X130220499Y-68664685D01*
X130229205Y-68683093D01*
X130236065Y-68702266D01*
X130241013Y-68722019D01*
X130244001Y-68742161D01*
X130245000Y-68762500D01*
X130245000Y-69177500D01*
X130244001Y-69197839D01*
X130241013Y-69217981D01*
X130236065Y-69237734D01*
X130229205Y-69256907D01*
X130220499Y-69275315D01*
X130210030Y-69292781D01*
X130197900Y-69309137D01*
X130184225Y-69324225D01*
X130169137Y-69337900D01*
X130152781Y-69350030D01*
X130135315Y-69360499D01*
X130116907Y-69369205D01*
X130097734Y-69376065D01*
X130077981Y-69381013D01*
X130057839Y-69384001D01*
X130037500Y-69385000D01*
X129622500Y-69385000D01*
X129602161Y-69384001D01*
X129582019Y-69381013D01*
X129562266Y-69376065D01*
X129543093Y-69369205D01*
X129524685Y-69360499D01*
X129507219Y-69350030D01*
X129490863Y-69337900D01*
X129475775Y-69324225D01*
X129462100Y-69309137D01*
X129449970Y-69292781D01*
X129439501Y-69275315D01*
X129430795Y-69256907D01*
X129423935Y-69237734D01*
X129418987Y-69217981D01*
X129415999Y-69197839D01*
X129415000Y-69177500D01*
X129415000Y-68762500D01*
X129415999Y-68742161D01*
X129418987Y-68722019D01*
X129423935Y-68702266D01*
X129430795Y-68683093D01*
X129439501Y-68664685D01*
X129449970Y-68647219D01*
X129462100Y-68630863D01*
X129475775Y-68615775D01*
X129490863Y-68602100D01*
X129507219Y-68589970D01*
X129524685Y-68579501D01*
X129543093Y-68570795D01*
X129562266Y-68563935D01*
X129582019Y-68558987D01*
X129602161Y-68555999D01*
X129622500Y-68555000D01*
X130037500Y-68555000D01*
X130057839Y-68555999D01*
X130057839Y-68555999D01*
G37*
D15*
X129830000Y-68970000D03*
D10*
G36*
X131087839Y-66495999D02*
G01*
X131107981Y-66498987D01*
X131127734Y-66503935D01*
X131146907Y-66510795D01*
X131165315Y-66519501D01*
X131182781Y-66529970D01*
X131199137Y-66542100D01*
X131214225Y-66555775D01*
X131227900Y-66570863D01*
X131240030Y-66587219D01*
X131250499Y-66604685D01*
X131259205Y-66623093D01*
X131266065Y-66642266D01*
X131271013Y-66662019D01*
X131274001Y-66682161D01*
X131275000Y-66702500D01*
X131275000Y-67117500D01*
X131274001Y-67137839D01*
X131271013Y-67157981D01*
X131266065Y-67177734D01*
X131259205Y-67196907D01*
X131250499Y-67215315D01*
X131240030Y-67232781D01*
X131227900Y-67249137D01*
X131214225Y-67264225D01*
X131199137Y-67277900D01*
X131182781Y-67290030D01*
X131165315Y-67300499D01*
X131146907Y-67309205D01*
X131127734Y-67316065D01*
X131107981Y-67321013D01*
X131087839Y-67324001D01*
X131067500Y-67325000D01*
X130652500Y-67325000D01*
X130632161Y-67324001D01*
X130612019Y-67321013D01*
X130592266Y-67316065D01*
X130573093Y-67309205D01*
X130554685Y-67300499D01*
X130537219Y-67290030D01*
X130520863Y-67277900D01*
X130505775Y-67264225D01*
X130492100Y-67249137D01*
X130479970Y-67232781D01*
X130469501Y-67215315D01*
X130460795Y-67196907D01*
X130453935Y-67177734D01*
X130448987Y-67157981D01*
X130445999Y-67137839D01*
X130445000Y-67117500D01*
X130445000Y-66702500D01*
X130445999Y-66682161D01*
X130448987Y-66662019D01*
X130453935Y-66642266D01*
X130460795Y-66623093D01*
X130469501Y-66604685D01*
X130479970Y-66587219D01*
X130492100Y-66570863D01*
X130505775Y-66555775D01*
X130520863Y-66542100D01*
X130537219Y-66529970D01*
X130554685Y-66519501D01*
X130573093Y-66510795D01*
X130592266Y-66503935D01*
X130612019Y-66498987D01*
X130632161Y-66495999D01*
X130652500Y-66495000D01*
X131067500Y-66495000D01*
X131087839Y-66495999D01*
X131087839Y-66495999D01*
G37*
D15*
X130860000Y-66910000D03*
D10*
G36*
X131087839Y-67525999D02*
G01*
X131107981Y-67528987D01*
X131127734Y-67533935D01*
X131146907Y-67540795D01*
X131165315Y-67549501D01*
X131182781Y-67559970D01*
X131199137Y-67572100D01*
X131214225Y-67585775D01*
X131227900Y-67600863D01*
X131240030Y-67617219D01*
X131250499Y-67634685D01*
X131259205Y-67653093D01*
X131266065Y-67672266D01*
X131271013Y-67692019D01*
X131274001Y-67712161D01*
X131275000Y-67732500D01*
X131275000Y-68147500D01*
X131274001Y-68167839D01*
X131271013Y-68187981D01*
X131266065Y-68207734D01*
X131259205Y-68226907D01*
X131250499Y-68245315D01*
X131240030Y-68262781D01*
X131227900Y-68279137D01*
X131214225Y-68294225D01*
X131199137Y-68307900D01*
X131182781Y-68320030D01*
X131165315Y-68330499D01*
X131146907Y-68339205D01*
X131127734Y-68346065D01*
X131107981Y-68351013D01*
X131087839Y-68354001D01*
X131067500Y-68355000D01*
X130652500Y-68355000D01*
X130632161Y-68354001D01*
X130612019Y-68351013D01*
X130592266Y-68346065D01*
X130573093Y-68339205D01*
X130554685Y-68330499D01*
X130537219Y-68320030D01*
X130520863Y-68307900D01*
X130505775Y-68294225D01*
X130492100Y-68279137D01*
X130479970Y-68262781D01*
X130469501Y-68245315D01*
X130460795Y-68226907D01*
X130453935Y-68207734D01*
X130448987Y-68187981D01*
X130445999Y-68167839D01*
X130445000Y-68147500D01*
X130445000Y-67732500D01*
X130445999Y-67712161D01*
X130448987Y-67692019D01*
X130453935Y-67672266D01*
X130460795Y-67653093D01*
X130469501Y-67634685D01*
X130479970Y-67617219D01*
X130492100Y-67600863D01*
X130505775Y-67585775D01*
X130520863Y-67572100D01*
X130537219Y-67559970D01*
X130554685Y-67549501D01*
X130573093Y-67540795D01*
X130592266Y-67533935D01*
X130612019Y-67528987D01*
X130632161Y-67525999D01*
X130652500Y-67525000D01*
X131067500Y-67525000D01*
X131087839Y-67525999D01*
X131087839Y-67525999D01*
G37*
D15*
X130860000Y-67940000D03*
D10*
G36*
X131087839Y-68555999D02*
G01*
X131107981Y-68558987D01*
X131127734Y-68563935D01*
X131146907Y-68570795D01*
X131165315Y-68579501D01*
X131182781Y-68589970D01*
X131199137Y-68602100D01*
X131214225Y-68615775D01*
X131227900Y-68630863D01*
X131240030Y-68647219D01*
X131250499Y-68664685D01*
X131259205Y-68683093D01*
X131266065Y-68702266D01*
X131271013Y-68722019D01*
X131274001Y-68742161D01*
X131275000Y-68762500D01*
X131275000Y-69177500D01*
X131274001Y-69197839D01*
X131271013Y-69217981D01*
X131266065Y-69237734D01*
X131259205Y-69256907D01*
X131250499Y-69275315D01*
X131240030Y-69292781D01*
X131227900Y-69309137D01*
X131214225Y-69324225D01*
X131199137Y-69337900D01*
X131182781Y-69350030D01*
X131165315Y-69360499D01*
X131146907Y-69369205D01*
X131127734Y-69376065D01*
X131107981Y-69381013D01*
X131087839Y-69384001D01*
X131067500Y-69385000D01*
X130652500Y-69385000D01*
X130632161Y-69384001D01*
X130612019Y-69381013D01*
X130592266Y-69376065D01*
X130573093Y-69369205D01*
X130554685Y-69360499D01*
X130537219Y-69350030D01*
X130520863Y-69337900D01*
X130505775Y-69324225D01*
X130492100Y-69309137D01*
X130479970Y-69292781D01*
X130469501Y-69275315D01*
X130460795Y-69256907D01*
X130453935Y-69237734D01*
X130448987Y-69217981D01*
X130445999Y-69197839D01*
X130445000Y-69177500D01*
X130445000Y-68762500D01*
X130445999Y-68742161D01*
X130448987Y-68722019D01*
X130453935Y-68702266D01*
X130460795Y-68683093D01*
X130469501Y-68664685D01*
X130479970Y-68647219D01*
X130492100Y-68630863D01*
X130505775Y-68615775D01*
X130520863Y-68602100D01*
X130537219Y-68589970D01*
X130554685Y-68579501D01*
X130573093Y-68570795D01*
X130592266Y-68563935D01*
X130612019Y-68558987D01*
X130632161Y-68555999D01*
X130652500Y-68555000D01*
X131067500Y-68555000D01*
X131087839Y-68555999D01*
X131087839Y-68555999D01*
G37*
D15*
X130860000Y-68970000D03*
D10*
G36*
X132117839Y-66495999D02*
G01*
X132137981Y-66498987D01*
X132157734Y-66503935D01*
X132176907Y-66510795D01*
X132195315Y-66519501D01*
X132212781Y-66529970D01*
X132229137Y-66542100D01*
X132244225Y-66555775D01*
X132257900Y-66570863D01*
X132270030Y-66587219D01*
X132280499Y-66604685D01*
X132289205Y-66623093D01*
X132296065Y-66642266D01*
X132301013Y-66662019D01*
X132304001Y-66682161D01*
X132305000Y-66702500D01*
X132305000Y-67117500D01*
X132304001Y-67137839D01*
X132301013Y-67157981D01*
X132296065Y-67177734D01*
X132289205Y-67196907D01*
X132280499Y-67215315D01*
X132270030Y-67232781D01*
X132257900Y-67249137D01*
X132244225Y-67264225D01*
X132229137Y-67277900D01*
X132212781Y-67290030D01*
X132195315Y-67300499D01*
X132176907Y-67309205D01*
X132157734Y-67316065D01*
X132137981Y-67321013D01*
X132117839Y-67324001D01*
X132097500Y-67325000D01*
X131682500Y-67325000D01*
X131662161Y-67324001D01*
X131642019Y-67321013D01*
X131622266Y-67316065D01*
X131603093Y-67309205D01*
X131584685Y-67300499D01*
X131567219Y-67290030D01*
X131550863Y-67277900D01*
X131535775Y-67264225D01*
X131522100Y-67249137D01*
X131509970Y-67232781D01*
X131499501Y-67215315D01*
X131490795Y-67196907D01*
X131483935Y-67177734D01*
X131478987Y-67157981D01*
X131475999Y-67137839D01*
X131475000Y-67117500D01*
X131475000Y-66702500D01*
X131475999Y-66682161D01*
X131478987Y-66662019D01*
X131483935Y-66642266D01*
X131490795Y-66623093D01*
X131499501Y-66604685D01*
X131509970Y-66587219D01*
X131522100Y-66570863D01*
X131535775Y-66555775D01*
X131550863Y-66542100D01*
X131567219Y-66529970D01*
X131584685Y-66519501D01*
X131603093Y-66510795D01*
X131622266Y-66503935D01*
X131642019Y-66498987D01*
X131662161Y-66495999D01*
X131682500Y-66495000D01*
X132097500Y-66495000D01*
X132117839Y-66495999D01*
X132117839Y-66495999D01*
G37*
D15*
X131890000Y-66910000D03*
D10*
G36*
X132117839Y-67525999D02*
G01*
X132137981Y-67528987D01*
X132157734Y-67533935D01*
X132176907Y-67540795D01*
X132195315Y-67549501D01*
X132212781Y-67559970D01*
X132229137Y-67572100D01*
X132244225Y-67585775D01*
X132257900Y-67600863D01*
X132270030Y-67617219D01*
X132280499Y-67634685D01*
X132289205Y-67653093D01*
X132296065Y-67672266D01*
X132301013Y-67692019D01*
X132304001Y-67712161D01*
X132305000Y-67732500D01*
X132305000Y-68147500D01*
X132304001Y-68167839D01*
X132301013Y-68187981D01*
X132296065Y-68207734D01*
X132289205Y-68226907D01*
X132280499Y-68245315D01*
X132270030Y-68262781D01*
X132257900Y-68279137D01*
X132244225Y-68294225D01*
X132229137Y-68307900D01*
X132212781Y-68320030D01*
X132195315Y-68330499D01*
X132176907Y-68339205D01*
X132157734Y-68346065D01*
X132137981Y-68351013D01*
X132117839Y-68354001D01*
X132097500Y-68355000D01*
X131682500Y-68355000D01*
X131662161Y-68354001D01*
X131642019Y-68351013D01*
X131622266Y-68346065D01*
X131603093Y-68339205D01*
X131584685Y-68330499D01*
X131567219Y-68320030D01*
X131550863Y-68307900D01*
X131535775Y-68294225D01*
X131522100Y-68279137D01*
X131509970Y-68262781D01*
X131499501Y-68245315D01*
X131490795Y-68226907D01*
X131483935Y-68207734D01*
X131478987Y-68187981D01*
X131475999Y-68167839D01*
X131475000Y-68147500D01*
X131475000Y-67732500D01*
X131475999Y-67712161D01*
X131478987Y-67692019D01*
X131483935Y-67672266D01*
X131490795Y-67653093D01*
X131499501Y-67634685D01*
X131509970Y-67617219D01*
X131522100Y-67600863D01*
X131535775Y-67585775D01*
X131550863Y-67572100D01*
X131567219Y-67559970D01*
X131584685Y-67549501D01*
X131603093Y-67540795D01*
X131622266Y-67533935D01*
X131642019Y-67528987D01*
X131662161Y-67525999D01*
X131682500Y-67525000D01*
X132097500Y-67525000D01*
X132117839Y-67525999D01*
X132117839Y-67525999D01*
G37*
D15*
X131890000Y-67940000D03*
D10*
G36*
X132117839Y-68555999D02*
G01*
X132137981Y-68558987D01*
X132157734Y-68563935D01*
X132176907Y-68570795D01*
X132195315Y-68579501D01*
X132212781Y-68589970D01*
X132229137Y-68602100D01*
X132244225Y-68615775D01*
X132257900Y-68630863D01*
X132270030Y-68647219D01*
X132280499Y-68664685D01*
X132289205Y-68683093D01*
X132296065Y-68702266D01*
X132301013Y-68722019D01*
X132304001Y-68742161D01*
X132305000Y-68762500D01*
X132305000Y-69177500D01*
X132304001Y-69197839D01*
X132301013Y-69217981D01*
X132296065Y-69237734D01*
X132289205Y-69256907D01*
X132280499Y-69275315D01*
X132270030Y-69292781D01*
X132257900Y-69309137D01*
X132244225Y-69324225D01*
X132229137Y-69337900D01*
X132212781Y-69350030D01*
X132195315Y-69360499D01*
X132176907Y-69369205D01*
X132157734Y-69376065D01*
X132137981Y-69381013D01*
X132117839Y-69384001D01*
X132097500Y-69385000D01*
X131682500Y-69385000D01*
X131662161Y-69384001D01*
X131642019Y-69381013D01*
X131622266Y-69376065D01*
X131603093Y-69369205D01*
X131584685Y-69360499D01*
X131567219Y-69350030D01*
X131550863Y-69337900D01*
X131535775Y-69324225D01*
X131522100Y-69309137D01*
X131509970Y-69292781D01*
X131499501Y-69275315D01*
X131490795Y-69256907D01*
X131483935Y-69237734D01*
X131478987Y-69217981D01*
X131475999Y-69197839D01*
X131475000Y-69177500D01*
X131475000Y-68762500D01*
X131475999Y-68742161D01*
X131478987Y-68722019D01*
X131483935Y-68702266D01*
X131490795Y-68683093D01*
X131499501Y-68664685D01*
X131509970Y-68647219D01*
X131522100Y-68630863D01*
X131535775Y-68615775D01*
X131550863Y-68602100D01*
X131567219Y-68589970D01*
X131584685Y-68579501D01*
X131603093Y-68570795D01*
X131622266Y-68563935D01*
X131642019Y-68558987D01*
X131662161Y-68555999D01*
X131682500Y-68555000D01*
X132097500Y-68555000D01*
X132117839Y-68555999D01*
X132117839Y-68555999D01*
G37*
D15*
X131890000Y-68970000D03*
D10*
G36*
X128803626Y-66065301D02*
G01*
X128809693Y-66066201D01*
X128815643Y-66067691D01*
X128821418Y-66069758D01*
X128826962Y-66072380D01*
X128832223Y-66075533D01*
X128837150Y-66079187D01*
X128841694Y-66083306D01*
X128845813Y-66087850D01*
X128849467Y-66092777D01*
X128852620Y-66098038D01*
X128855242Y-66103582D01*
X128857309Y-66109357D01*
X128858799Y-66115307D01*
X128859699Y-66121374D01*
X128860000Y-66127500D01*
X128860000Y-66252500D01*
X128859699Y-66258626D01*
X128858799Y-66264693D01*
X128857309Y-66270643D01*
X128855242Y-66276418D01*
X128852620Y-66281962D01*
X128849467Y-66287223D01*
X128845813Y-66292150D01*
X128841694Y-66296694D01*
X128837150Y-66300813D01*
X128832223Y-66304467D01*
X128826962Y-66307620D01*
X128821418Y-66310242D01*
X128815643Y-66312309D01*
X128809693Y-66313799D01*
X128803626Y-66314699D01*
X128797500Y-66315000D01*
X128047500Y-66315000D01*
X128041374Y-66314699D01*
X128035307Y-66313799D01*
X128029357Y-66312309D01*
X128023582Y-66310242D01*
X128018038Y-66307620D01*
X128012777Y-66304467D01*
X128007850Y-66300813D01*
X128003306Y-66296694D01*
X127999187Y-66292150D01*
X127995533Y-66287223D01*
X127992380Y-66281962D01*
X127989758Y-66276418D01*
X127987691Y-66270643D01*
X127986201Y-66264693D01*
X127985301Y-66258626D01*
X127985000Y-66252500D01*
X127985000Y-66127500D01*
X127985301Y-66121374D01*
X127986201Y-66115307D01*
X127987691Y-66109357D01*
X127989758Y-66103582D01*
X127992380Y-66098038D01*
X127995533Y-66092777D01*
X127999187Y-66087850D01*
X128003306Y-66083306D01*
X128007850Y-66079187D01*
X128012777Y-66075533D01*
X128018038Y-66072380D01*
X128023582Y-66069758D01*
X128029357Y-66067691D01*
X128035307Y-66066201D01*
X128041374Y-66065301D01*
X128047500Y-66065000D01*
X128797500Y-66065000D01*
X128803626Y-66065301D01*
X128803626Y-66065301D01*
G37*
D16*
X128422500Y-66190000D03*
D10*
G36*
X128803626Y-66565301D02*
G01*
X128809693Y-66566201D01*
X128815643Y-66567691D01*
X128821418Y-66569758D01*
X128826962Y-66572380D01*
X128832223Y-66575533D01*
X128837150Y-66579187D01*
X128841694Y-66583306D01*
X128845813Y-66587850D01*
X128849467Y-66592777D01*
X128852620Y-66598038D01*
X128855242Y-66603582D01*
X128857309Y-66609357D01*
X128858799Y-66615307D01*
X128859699Y-66621374D01*
X128860000Y-66627500D01*
X128860000Y-66752500D01*
X128859699Y-66758626D01*
X128858799Y-66764693D01*
X128857309Y-66770643D01*
X128855242Y-66776418D01*
X128852620Y-66781962D01*
X128849467Y-66787223D01*
X128845813Y-66792150D01*
X128841694Y-66796694D01*
X128837150Y-66800813D01*
X128832223Y-66804467D01*
X128826962Y-66807620D01*
X128821418Y-66810242D01*
X128815643Y-66812309D01*
X128809693Y-66813799D01*
X128803626Y-66814699D01*
X128797500Y-66815000D01*
X128047500Y-66815000D01*
X128041374Y-66814699D01*
X128035307Y-66813799D01*
X128029357Y-66812309D01*
X128023582Y-66810242D01*
X128018038Y-66807620D01*
X128012777Y-66804467D01*
X128007850Y-66800813D01*
X128003306Y-66796694D01*
X127999187Y-66792150D01*
X127995533Y-66787223D01*
X127992380Y-66781962D01*
X127989758Y-66776418D01*
X127987691Y-66770643D01*
X127986201Y-66764693D01*
X127985301Y-66758626D01*
X127985000Y-66752500D01*
X127985000Y-66627500D01*
X127985301Y-66621374D01*
X127986201Y-66615307D01*
X127987691Y-66609357D01*
X127989758Y-66603582D01*
X127992380Y-66598038D01*
X127995533Y-66592777D01*
X127999187Y-66587850D01*
X128003306Y-66583306D01*
X128007850Y-66579187D01*
X128012777Y-66575533D01*
X128018038Y-66572380D01*
X128023582Y-66569758D01*
X128029357Y-66567691D01*
X128035307Y-66566201D01*
X128041374Y-66565301D01*
X128047500Y-66565000D01*
X128797500Y-66565000D01*
X128803626Y-66565301D01*
X128803626Y-66565301D01*
G37*
D16*
X128422500Y-66690000D03*
D10*
G36*
X128803626Y-67065301D02*
G01*
X128809693Y-67066201D01*
X128815643Y-67067691D01*
X128821418Y-67069758D01*
X128826962Y-67072380D01*
X128832223Y-67075533D01*
X128837150Y-67079187D01*
X128841694Y-67083306D01*
X128845813Y-67087850D01*
X128849467Y-67092777D01*
X128852620Y-67098038D01*
X128855242Y-67103582D01*
X128857309Y-67109357D01*
X128858799Y-67115307D01*
X128859699Y-67121374D01*
X128860000Y-67127500D01*
X128860000Y-67252500D01*
X128859699Y-67258626D01*
X128858799Y-67264693D01*
X128857309Y-67270643D01*
X128855242Y-67276418D01*
X128852620Y-67281962D01*
X128849467Y-67287223D01*
X128845813Y-67292150D01*
X128841694Y-67296694D01*
X128837150Y-67300813D01*
X128832223Y-67304467D01*
X128826962Y-67307620D01*
X128821418Y-67310242D01*
X128815643Y-67312309D01*
X128809693Y-67313799D01*
X128803626Y-67314699D01*
X128797500Y-67315000D01*
X128047500Y-67315000D01*
X128041374Y-67314699D01*
X128035307Y-67313799D01*
X128029357Y-67312309D01*
X128023582Y-67310242D01*
X128018038Y-67307620D01*
X128012777Y-67304467D01*
X128007850Y-67300813D01*
X128003306Y-67296694D01*
X127999187Y-67292150D01*
X127995533Y-67287223D01*
X127992380Y-67281962D01*
X127989758Y-67276418D01*
X127987691Y-67270643D01*
X127986201Y-67264693D01*
X127985301Y-67258626D01*
X127985000Y-67252500D01*
X127985000Y-67127500D01*
X127985301Y-67121374D01*
X127986201Y-67115307D01*
X127987691Y-67109357D01*
X127989758Y-67103582D01*
X127992380Y-67098038D01*
X127995533Y-67092777D01*
X127999187Y-67087850D01*
X128003306Y-67083306D01*
X128007850Y-67079187D01*
X128012777Y-67075533D01*
X128018038Y-67072380D01*
X128023582Y-67069758D01*
X128029357Y-67067691D01*
X128035307Y-67066201D01*
X128041374Y-67065301D01*
X128047500Y-67065000D01*
X128797500Y-67065000D01*
X128803626Y-67065301D01*
X128803626Y-67065301D01*
G37*
D16*
X128422500Y-67190000D03*
D10*
G36*
X128803626Y-67565301D02*
G01*
X128809693Y-67566201D01*
X128815643Y-67567691D01*
X128821418Y-67569758D01*
X128826962Y-67572380D01*
X128832223Y-67575533D01*
X128837150Y-67579187D01*
X128841694Y-67583306D01*
X128845813Y-67587850D01*
X128849467Y-67592777D01*
X128852620Y-67598038D01*
X128855242Y-67603582D01*
X128857309Y-67609357D01*
X128858799Y-67615307D01*
X128859699Y-67621374D01*
X128860000Y-67627500D01*
X128860000Y-67752500D01*
X128859699Y-67758626D01*
X128858799Y-67764693D01*
X128857309Y-67770643D01*
X128855242Y-67776418D01*
X128852620Y-67781962D01*
X128849467Y-67787223D01*
X128845813Y-67792150D01*
X128841694Y-67796694D01*
X128837150Y-67800813D01*
X128832223Y-67804467D01*
X128826962Y-67807620D01*
X128821418Y-67810242D01*
X128815643Y-67812309D01*
X128809693Y-67813799D01*
X128803626Y-67814699D01*
X128797500Y-67815000D01*
X128047500Y-67815000D01*
X128041374Y-67814699D01*
X128035307Y-67813799D01*
X128029357Y-67812309D01*
X128023582Y-67810242D01*
X128018038Y-67807620D01*
X128012777Y-67804467D01*
X128007850Y-67800813D01*
X128003306Y-67796694D01*
X127999187Y-67792150D01*
X127995533Y-67787223D01*
X127992380Y-67781962D01*
X127989758Y-67776418D01*
X127987691Y-67770643D01*
X127986201Y-67764693D01*
X127985301Y-67758626D01*
X127985000Y-67752500D01*
X127985000Y-67627500D01*
X127985301Y-67621374D01*
X127986201Y-67615307D01*
X127987691Y-67609357D01*
X127989758Y-67603582D01*
X127992380Y-67598038D01*
X127995533Y-67592777D01*
X127999187Y-67587850D01*
X128003306Y-67583306D01*
X128007850Y-67579187D01*
X128012777Y-67575533D01*
X128018038Y-67572380D01*
X128023582Y-67569758D01*
X128029357Y-67567691D01*
X128035307Y-67566201D01*
X128041374Y-67565301D01*
X128047500Y-67565000D01*
X128797500Y-67565000D01*
X128803626Y-67565301D01*
X128803626Y-67565301D01*
G37*
D16*
X128422500Y-67690000D03*
D10*
G36*
X128803626Y-68065301D02*
G01*
X128809693Y-68066201D01*
X128815643Y-68067691D01*
X128821418Y-68069758D01*
X128826962Y-68072380D01*
X128832223Y-68075533D01*
X128837150Y-68079187D01*
X128841694Y-68083306D01*
X128845813Y-68087850D01*
X128849467Y-68092777D01*
X128852620Y-68098038D01*
X128855242Y-68103582D01*
X128857309Y-68109357D01*
X128858799Y-68115307D01*
X128859699Y-68121374D01*
X128860000Y-68127500D01*
X128860000Y-68252500D01*
X128859699Y-68258626D01*
X128858799Y-68264693D01*
X128857309Y-68270643D01*
X128855242Y-68276418D01*
X128852620Y-68281962D01*
X128849467Y-68287223D01*
X128845813Y-68292150D01*
X128841694Y-68296694D01*
X128837150Y-68300813D01*
X128832223Y-68304467D01*
X128826962Y-68307620D01*
X128821418Y-68310242D01*
X128815643Y-68312309D01*
X128809693Y-68313799D01*
X128803626Y-68314699D01*
X128797500Y-68315000D01*
X128047500Y-68315000D01*
X128041374Y-68314699D01*
X128035307Y-68313799D01*
X128029357Y-68312309D01*
X128023582Y-68310242D01*
X128018038Y-68307620D01*
X128012777Y-68304467D01*
X128007850Y-68300813D01*
X128003306Y-68296694D01*
X127999187Y-68292150D01*
X127995533Y-68287223D01*
X127992380Y-68281962D01*
X127989758Y-68276418D01*
X127987691Y-68270643D01*
X127986201Y-68264693D01*
X127985301Y-68258626D01*
X127985000Y-68252500D01*
X127985000Y-68127500D01*
X127985301Y-68121374D01*
X127986201Y-68115307D01*
X127987691Y-68109357D01*
X127989758Y-68103582D01*
X127992380Y-68098038D01*
X127995533Y-68092777D01*
X127999187Y-68087850D01*
X128003306Y-68083306D01*
X128007850Y-68079187D01*
X128012777Y-68075533D01*
X128018038Y-68072380D01*
X128023582Y-68069758D01*
X128029357Y-68067691D01*
X128035307Y-68066201D01*
X128041374Y-68065301D01*
X128047500Y-68065000D01*
X128797500Y-68065000D01*
X128803626Y-68065301D01*
X128803626Y-68065301D01*
G37*
D16*
X128422500Y-68190000D03*
D10*
G36*
X128803626Y-68565301D02*
G01*
X128809693Y-68566201D01*
X128815643Y-68567691D01*
X128821418Y-68569758D01*
X128826962Y-68572380D01*
X128832223Y-68575533D01*
X128837150Y-68579187D01*
X128841694Y-68583306D01*
X128845813Y-68587850D01*
X128849467Y-68592777D01*
X128852620Y-68598038D01*
X128855242Y-68603582D01*
X128857309Y-68609357D01*
X128858799Y-68615307D01*
X128859699Y-68621374D01*
X128860000Y-68627500D01*
X128860000Y-68752500D01*
X128859699Y-68758626D01*
X128858799Y-68764693D01*
X128857309Y-68770643D01*
X128855242Y-68776418D01*
X128852620Y-68781962D01*
X128849467Y-68787223D01*
X128845813Y-68792150D01*
X128841694Y-68796694D01*
X128837150Y-68800813D01*
X128832223Y-68804467D01*
X128826962Y-68807620D01*
X128821418Y-68810242D01*
X128815643Y-68812309D01*
X128809693Y-68813799D01*
X128803626Y-68814699D01*
X128797500Y-68815000D01*
X128047500Y-68815000D01*
X128041374Y-68814699D01*
X128035307Y-68813799D01*
X128029357Y-68812309D01*
X128023582Y-68810242D01*
X128018038Y-68807620D01*
X128012777Y-68804467D01*
X128007850Y-68800813D01*
X128003306Y-68796694D01*
X127999187Y-68792150D01*
X127995533Y-68787223D01*
X127992380Y-68781962D01*
X127989758Y-68776418D01*
X127987691Y-68770643D01*
X127986201Y-68764693D01*
X127985301Y-68758626D01*
X127985000Y-68752500D01*
X127985000Y-68627500D01*
X127985301Y-68621374D01*
X127986201Y-68615307D01*
X127987691Y-68609357D01*
X127989758Y-68603582D01*
X127992380Y-68598038D01*
X127995533Y-68592777D01*
X127999187Y-68587850D01*
X128003306Y-68583306D01*
X128007850Y-68579187D01*
X128012777Y-68575533D01*
X128018038Y-68572380D01*
X128023582Y-68569758D01*
X128029357Y-68567691D01*
X128035307Y-68566201D01*
X128041374Y-68565301D01*
X128047500Y-68565000D01*
X128797500Y-68565000D01*
X128803626Y-68565301D01*
X128803626Y-68565301D01*
G37*
D16*
X128422500Y-68690000D03*
D10*
G36*
X128803626Y-69065301D02*
G01*
X128809693Y-69066201D01*
X128815643Y-69067691D01*
X128821418Y-69069758D01*
X128826962Y-69072380D01*
X128832223Y-69075533D01*
X128837150Y-69079187D01*
X128841694Y-69083306D01*
X128845813Y-69087850D01*
X128849467Y-69092777D01*
X128852620Y-69098038D01*
X128855242Y-69103582D01*
X128857309Y-69109357D01*
X128858799Y-69115307D01*
X128859699Y-69121374D01*
X128860000Y-69127500D01*
X128860000Y-69252500D01*
X128859699Y-69258626D01*
X128858799Y-69264693D01*
X128857309Y-69270643D01*
X128855242Y-69276418D01*
X128852620Y-69281962D01*
X128849467Y-69287223D01*
X128845813Y-69292150D01*
X128841694Y-69296694D01*
X128837150Y-69300813D01*
X128832223Y-69304467D01*
X128826962Y-69307620D01*
X128821418Y-69310242D01*
X128815643Y-69312309D01*
X128809693Y-69313799D01*
X128803626Y-69314699D01*
X128797500Y-69315000D01*
X128047500Y-69315000D01*
X128041374Y-69314699D01*
X128035307Y-69313799D01*
X128029357Y-69312309D01*
X128023582Y-69310242D01*
X128018038Y-69307620D01*
X128012777Y-69304467D01*
X128007850Y-69300813D01*
X128003306Y-69296694D01*
X127999187Y-69292150D01*
X127995533Y-69287223D01*
X127992380Y-69281962D01*
X127989758Y-69276418D01*
X127987691Y-69270643D01*
X127986201Y-69264693D01*
X127985301Y-69258626D01*
X127985000Y-69252500D01*
X127985000Y-69127500D01*
X127985301Y-69121374D01*
X127986201Y-69115307D01*
X127987691Y-69109357D01*
X127989758Y-69103582D01*
X127992380Y-69098038D01*
X127995533Y-69092777D01*
X127999187Y-69087850D01*
X128003306Y-69083306D01*
X128007850Y-69079187D01*
X128012777Y-69075533D01*
X128018038Y-69072380D01*
X128023582Y-69069758D01*
X128029357Y-69067691D01*
X128035307Y-69066201D01*
X128041374Y-69065301D01*
X128047500Y-69065000D01*
X128797500Y-69065000D01*
X128803626Y-69065301D01*
X128803626Y-69065301D01*
G37*
D16*
X128422500Y-69190000D03*
D10*
G36*
X128803626Y-69565301D02*
G01*
X128809693Y-69566201D01*
X128815643Y-69567691D01*
X128821418Y-69569758D01*
X128826962Y-69572380D01*
X128832223Y-69575533D01*
X128837150Y-69579187D01*
X128841694Y-69583306D01*
X128845813Y-69587850D01*
X128849467Y-69592777D01*
X128852620Y-69598038D01*
X128855242Y-69603582D01*
X128857309Y-69609357D01*
X128858799Y-69615307D01*
X128859699Y-69621374D01*
X128860000Y-69627500D01*
X128860000Y-69752500D01*
X128859699Y-69758626D01*
X128858799Y-69764693D01*
X128857309Y-69770643D01*
X128855242Y-69776418D01*
X128852620Y-69781962D01*
X128849467Y-69787223D01*
X128845813Y-69792150D01*
X128841694Y-69796694D01*
X128837150Y-69800813D01*
X128832223Y-69804467D01*
X128826962Y-69807620D01*
X128821418Y-69810242D01*
X128815643Y-69812309D01*
X128809693Y-69813799D01*
X128803626Y-69814699D01*
X128797500Y-69815000D01*
X128047500Y-69815000D01*
X128041374Y-69814699D01*
X128035307Y-69813799D01*
X128029357Y-69812309D01*
X128023582Y-69810242D01*
X128018038Y-69807620D01*
X128012777Y-69804467D01*
X128007850Y-69800813D01*
X128003306Y-69796694D01*
X127999187Y-69792150D01*
X127995533Y-69787223D01*
X127992380Y-69781962D01*
X127989758Y-69776418D01*
X127987691Y-69770643D01*
X127986201Y-69764693D01*
X127985301Y-69758626D01*
X127985000Y-69752500D01*
X127985000Y-69627500D01*
X127985301Y-69621374D01*
X127986201Y-69615307D01*
X127987691Y-69609357D01*
X127989758Y-69603582D01*
X127992380Y-69598038D01*
X127995533Y-69592777D01*
X127999187Y-69587850D01*
X128003306Y-69583306D01*
X128007850Y-69579187D01*
X128012777Y-69575533D01*
X128018038Y-69572380D01*
X128023582Y-69569758D01*
X128029357Y-69567691D01*
X128035307Y-69566201D01*
X128041374Y-69565301D01*
X128047500Y-69565000D01*
X128797500Y-69565000D01*
X128803626Y-69565301D01*
X128803626Y-69565301D01*
G37*
D16*
X128422500Y-69690000D03*
D10*
G36*
X129178626Y-69940301D02*
G01*
X129184693Y-69941201D01*
X129190643Y-69942691D01*
X129196418Y-69944758D01*
X129201962Y-69947380D01*
X129207223Y-69950533D01*
X129212150Y-69954187D01*
X129216694Y-69958306D01*
X129220813Y-69962850D01*
X129224467Y-69967777D01*
X129227620Y-69973038D01*
X129230242Y-69978582D01*
X129232309Y-69984357D01*
X129233799Y-69990307D01*
X129234699Y-69996374D01*
X129235000Y-70002500D01*
X129235000Y-70752500D01*
X129234699Y-70758626D01*
X129233799Y-70764693D01*
X129232309Y-70770643D01*
X129230242Y-70776418D01*
X129227620Y-70781962D01*
X129224467Y-70787223D01*
X129220813Y-70792150D01*
X129216694Y-70796694D01*
X129212150Y-70800813D01*
X129207223Y-70804467D01*
X129201962Y-70807620D01*
X129196418Y-70810242D01*
X129190643Y-70812309D01*
X129184693Y-70813799D01*
X129178626Y-70814699D01*
X129172500Y-70815000D01*
X129047500Y-70815000D01*
X129041374Y-70814699D01*
X129035307Y-70813799D01*
X129029357Y-70812309D01*
X129023582Y-70810242D01*
X129018038Y-70807620D01*
X129012777Y-70804467D01*
X129007850Y-70800813D01*
X129003306Y-70796694D01*
X128999187Y-70792150D01*
X128995533Y-70787223D01*
X128992380Y-70781962D01*
X128989758Y-70776418D01*
X128987691Y-70770643D01*
X128986201Y-70764693D01*
X128985301Y-70758626D01*
X128985000Y-70752500D01*
X128985000Y-70002500D01*
X128985301Y-69996374D01*
X128986201Y-69990307D01*
X128987691Y-69984357D01*
X128989758Y-69978582D01*
X128992380Y-69973038D01*
X128995533Y-69967777D01*
X128999187Y-69962850D01*
X129003306Y-69958306D01*
X129007850Y-69954187D01*
X129012777Y-69950533D01*
X129018038Y-69947380D01*
X129023582Y-69944758D01*
X129029357Y-69942691D01*
X129035307Y-69941201D01*
X129041374Y-69940301D01*
X129047500Y-69940000D01*
X129172500Y-69940000D01*
X129178626Y-69940301D01*
X129178626Y-69940301D01*
G37*
D16*
X129110000Y-70377500D03*
D10*
G36*
X129678626Y-69940301D02*
G01*
X129684693Y-69941201D01*
X129690643Y-69942691D01*
X129696418Y-69944758D01*
X129701962Y-69947380D01*
X129707223Y-69950533D01*
X129712150Y-69954187D01*
X129716694Y-69958306D01*
X129720813Y-69962850D01*
X129724467Y-69967777D01*
X129727620Y-69973038D01*
X129730242Y-69978582D01*
X129732309Y-69984357D01*
X129733799Y-69990307D01*
X129734699Y-69996374D01*
X129735000Y-70002500D01*
X129735000Y-70752500D01*
X129734699Y-70758626D01*
X129733799Y-70764693D01*
X129732309Y-70770643D01*
X129730242Y-70776418D01*
X129727620Y-70781962D01*
X129724467Y-70787223D01*
X129720813Y-70792150D01*
X129716694Y-70796694D01*
X129712150Y-70800813D01*
X129707223Y-70804467D01*
X129701962Y-70807620D01*
X129696418Y-70810242D01*
X129690643Y-70812309D01*
X129684693Y-70813799D01*
X129678626Y-70814699D01*
X129672500Y-70815000D01*
X129547500Y-70815000D01*
X129541374Y-70814699D01*
X129535307Y-70813799D01*
X129529357Y-70812309D01*
X129523582Y-70810242D01*
X129518038Y-70807620D01*
X129512777Y-70804467D01*
X129507850Y-70800813D01*
X129503306Y-70796694D01*
X129499187Y-70792150D01*
X129495533Y-70787223D01*
X129492380Y-70781962D01*
X129489758Y-70776418D01*
X129487691Y-70770643D01*
X129486201Y-70764693D01*
X129485301Y-70758626D01*
X129485000Y-70752500D01*
X129485000Y-70002500D01*
X129485301Y-69996374D01*
X129486201Y-69990307D01*
X129487691Y-69984357D01*
X129489758Y-69978582D01*
X129492380Y-69973038D01*
X129495533Y-69967777D01*
X129499187Y-69962850D01*
X129503306Y-69958306D01*
X129507850Y-69954187D01*
X129512777Y-69950533D01*
X129518038Y-69947380D01*
X129523582Y-69944758D01*
X129529357Y-69942691D01*
X129535307Y-69941201D01*
X129541374Y-69940301D01*
X129547500Y-69940000D01*
X129672500Y-69940000D01*
X129678626Y-69940301D01*
X129678626Y-69940301D01*
G37*
D16*
X129610000Y-70377500D03*
D10*
G36*
X130178626Y-69940301D02*
G01*
X130184693Y-69941201D01*
X130190643Y-69942691D01*
X130196418Y-69944758D01*
X130201962Y-69947380D01*
X130207223Y-69950533D01*
X130212150Y-69954187D01*
X130216694Y-69958306D01*
X130220813Y-69962850D01*
X130224467Y-69967777D01*
X130227620Y-69973038D01*
X130230242Y-69978582D01*
X130232309Y-69984357D01*
X130233799Y-69990307D01*
X130234699Y-69996374D01*
X130235000Y-70002500D01*
X130235000Y-70752500D01*
X130234699Y-70758626D01*
X130233799Y-70764693D01*
X130232309Y-70770643D01*
X130230242Y-70776418D01*
X130227620Y-70781962D01*
X130224467Y-70787223D01*
X130220813Y-70792150D01*
X130216694Y-70796694D01*
X130212150Y-70800813D01*
X130207223Y-70804467D01*
X130201962Y-70807620D01*
X130196418Y-70810242D01*
X130190643Y-70812309D01*
X130184693Y-70813799D01*
X130178626Y-70814699D01*
X130172500Y-70815000D01*
X130047500Y-70815000D01*
X130041374Y-70814699D01*
X130035307Y-70813799D01*
X130029357Y-70812309D01*
X130023582Y-70810242D01*
X130018038Y-70807620D01*
X130012777Y-70804467D01*
X130007850Y-70800813D01*
X130003306Y-70796694D01*
X129999187Y-70792150D01*
X129995533Y-70787223D01*
X129992380Y-70781962D01*
X129989758Y-70776418D01*
X129987691Y-70770643D01*
X129986201Y-70764693D01*
X129985301Y-70758626D01*
X129985000Y-70752500D01*
X129985000Y-70002500D01*
X129985301Y-69996374D01*
X129986201Y-69990307D01*
X129987691Y-69984357D01*
X129989758Y-69978582D01*
X129992380Y-69973038D01*
X129995533Y-69967777D01*
X129999187Y-69962850D01*
X130003306Y-69958306D01*
X130007850Y-69954187D01*
X130012777Y-69950533D01*
X130018038Y-69947380D01*
X130023582Y-69944758D01*
X130029357Y-69942691D01*
X130035307Y-69941201D01*
X130041374Y-69940301D01*
X130047500Y-69940000D01*
X130172500Y-69940000D01*
X130178626Y-69940301D01*
X130178626Y-69940301D01*
G37*
D16*
X130110000Y-70377500D03*
D10*
G36*
X130678626Y-69940301D02*
G01*
X130684693Y-69941201D01*
X130690643Y-69942691D01*
X130696418Y-69944758D01*
X130701962Y-69947380D01*
X130707223Y-69950533D01*
X130712150Y-69954187D01*
X130716694Y-69958306D01*
X130720813Y-69962850D01*
X130724467Y-69967777D01*
X130727620Y-69973038D01*
X130730242Y-69978582D01*
X130732309Y-69984357D01*
X130733799Y-69990307D01*
X130734699Y-69996374D01*
X130735000Y-70002500D01*
X130735000Y-70752500D01*
X130734699Y-70758626D01*
X130733799Y-70764693D01*
X130732309Y-70770643D01*
X130730242Y-70776418D01*
X130727620Y-70781962D01*
X130724467Y-70787223D01*
X130720813Y-70792150D01*
X130716694Y-70796694D01*
X130712150Y-70800813D01*
X130707223Y-70804467D01*
X130701962Y-70807620D01*
X130696418Y-70810242D01*
X130690643Y-70812309D01*
X130684693Y-70813799D01*
X130678626Y-70814699D01*
X130672500Y-70815000D01*
X130547500Y-70815000D01*
X130541374Y-70814699D01*
X130535307Y-70813799D01*
X130529357Y-70812309D01*
X130523582Y-70810242D01*
X130518038Y-70807620D01*
X130512777Y-70804467D01*
X130507850Y-70800813D01*
X130503306Y-70796694D01*
X130499187Y-70792150D01*
X130495533Y-70787223D01*
X130492380Y-70781962D01*
X130489758Y-70776418D01*
X130487691Y-70770643D01*
X130486201Y-70764693D01*
X130485301Y-70758626D01*
X130485000Y-70752500D01*
X130485000Y-70002500D01*
X130485301Y-69996374D01*
X130486201Y-69990307D01*
X130487691Y-69984357D01*
X130489758Y-69978582D01*
X130492380Y-69973038D01*
X130495533Y-69967777D01*
X130499187Y-69962850D01*
X130503306Y-69958306D01*
X130507850Y-69954187D01*
X130512777Y-69950533D01*
X130518038Y-69947380D01*
X130523582Y-69944758D01*
X130529357Y-69942691D01*
X130535307Y-69941201D01*
X130541374Y-69940301D01*
X130547500Y-69940000D01*
X130672500Y-69940000D01*
X130678626Y-69940301D01*
X130678626Y-69940301D01*
G37*
D16*
X130610000Y-70377500D03*
D10*
G36*
X131178626Y-69940301D02*
G01*
X131184693Y-69941201D01*
X131190643Y-69942691D01*
X131196418Y-69944758D01*
X131201962Y-69947380D01*
X131207223Y-69950533D01*
X131212150Y-69954187D01*
X131216694Y-69958306D01*
X131220813Y-69962850D01*
X131224467Y-69967777D01*
X131227620Y-69973038D01*
X131230242Y-69978582D01*
X131232309Y-69984357D01*
X131233799Y-69990307D01*
X131234699Y-69996374D01*
X131235000Y-70002500D01*
X131235000Y-70752500D01*
X131234699Y-70758626D01*
X131233799Y-70764693D01*
X131232309Y-70770643D01*
X131230242Y-70776418D01*
X131227620Y-70781962D01*
X131224467Y-70787223D01*
X131220813Y-70792150D01*
X131216694Y-70796694D01*
X131212150Y-70800813D01*
X131207223Y-70804467D01*
X131201962Y-70807620D01*
X131196418Y-70810242D01*
X131190643Y-70812309D01*
X131184693Y-70813799D01*
X131178626Y-70814699D01*
X131172500Y-70815000D01*
X131047500Y-70815000D01*
X131041374Y-70814699D01*
X131035307Y-70813799D01*
X131029357Y-70812309D01*
X131023582Y-70810242D01*
X131018038Y-70807620D01*
X131012777Y-70804467D01*
X131007850Y-70800813D01*
X131003306Y-70796694D01*
X130999187Y-70792150D01*
X130995533Y-70787223D01*
X130992380Y-70781962D01*
X130989758Y-70776418D01*
X130987691Y-70770643D01*
X130986201Y-70764693D01*
X130985301Y-70758626D01*
X130985000Y-70752500D01*
X130985000Y-70002500D01*
X130985301Y-69996374D01*
X130986201Y-69990307D01*
X130987691Y-69984357D01*
X130989758Y-69978582D01*
X130992380Y-69973038D01*
X130995533Y-69967777D01*
X130999187Y-69962850D01*
X131003306Y-69958306D01*
X131007850Y-69954187D01*
X131012777Y-69950533D01*
X131018038Y-69947380D01*
X131023582Y-69944758D01*
X131029357Y-69942691D01*
X131035307Y-69941201D01*
X131041374Y-69940301D01*
X131047500Y-69940000D01*
X131172500Y-69940000D01*
X131178626Y-69940301D01*
X131178626Y-69940301D01*
G37*
D16*
X131110000Y-70377500D03*
D10*
G36*
X131678626Y-69940301D02*
G01*
X131684693Y-69941201D01*
X131690643Y-69942691D01*
X131696418Y-69944758D01*
X131701962Y-69947380D01*
X131707223Y-69950533D01*
X131712150Y-69954187D01*
X131716694Y-69958306D01*
X131720813Y-69962850D01*
X131724467Y-69967777D01*
X131727620Y-69973038D01*
X131730242Y-69978582D01*
X131732309Y-69984357D01*
X131733799Y-69990307D01*
X131734699Y-69996374D01*
X131735000Y-70002500D01*
X131735000Y-70752500D01*
X131734699Y-70758626D01*
X131733799Y-70764693D01*
X131732309Y-70770643D01*
X131730242Y-70776418D01*
X131727620Y-70781962D01*
X131724467Y-70787223D01*
X131720813Y-70792150D01*
X131716694Y-70796694D01*
X131712150Y-70800813D01*
X131707223Y-70804467D01*
X131701962Y-70807620D01*
X131696418Y-70810242D01*
X131690643Y-70812309D01*
X131684693Y-70813799D01*
X131678626Y-70814699D01*
X131672500Y-70815000D01*
X131547500Y-70815000D01*
X131541374Y-70814699D01*
X131535307Y-70813799D01*
X131529357Y-70812309D01*
X131523582Y-70810242D01*
X131518038Y-70807620D01*
X131512777Y-70804467D01*
X131507850Y-70800813D01*
X131503306Y-70796694D01*
X131499187Y-70792150D01*
X131495533Y-70787223D01*
X131492380Y-70781962D01*
X131489758Y-70776418D01*
X131487691Y-70770643D01*
X131486201Y-70764693D01*
X131485301Y-70758626D01*
X131485000Y-70752500D01*
X131485000Y-70002500D01*
X131485301Y-69996374D01*
X131486201Y-69990307D01*
X131487691Y-69984357D01*
X131489758Y-69978582D01*
X131492380Y-69973038D01*
X131495533Y-69967777D01*
X131499187Y-69962850D01*
X131503306Y-69958306D01*
X131507850Y-69954187D01*
X131512777Y-69950533D01*
X131518038Y-69947380D01*
X131523582Y-69944758D01*
X131529357Y-69942691D01*
X131535307Y-69941201D01*
X131541374Y-69940301D01*
X131547500Y-69940000D01*
X131672500Y-69940000D01*
X131678626Y-69940301D01*
X131678626Y-69940301D01*
G37*
D16*
X131610000Y-70377500D03*
D10*
G36*
X132178626Y-69940301D02*
G01*
X132184693Y-69941201D01*
X132190643Y-69942691D01*
X132196418Y-69944758D01*
X132201962Y-69947380D01*
X132207223Y-69950533D01*
X132212150Y-69954187D01*
X132216694Y-69958306D01*
X132220813Y-69962850D01*
X132224467Y-69967777D01*
X132227620Y-69973038D01*
X132230242Y-69978582D01*
X132232309Y-69984357D01*
X132233799Y-69990307D01*
X132234699Y-69996374D01*
X132235000Y-70002500D01*
X132235000Y-70752500D01*
X132234699Y-70758626D01*
X132233799Y-70764693D01*
X132232309Y-70770643D01*
X132230242Y-70776418D01*
X132227620Y-70781962D01*
X132224467Y-70787223D01*
X132220813Y-70792150D01*
X132216694Y-70796694D01*
X132212150Y-70800813D01*
X132207223Y-70804467D01*
X132201962Y-70807620D01*
X132196418Y-70810242D01*
X132190643Y-70812309D01*
X132184693Y-70813799D01*
X132178626Y-70814699D01*
X132172500Y-70815000D01*
X132047500Y-70815000D01*
X132041374Y-70814699D01*
X132035307Y-70813799D01*
X132029357Y-70812309D01*
X132023582Y-70810242D01*
X132018038Y-70807620D01*
X132012777Y-70804467D01*
X132007850Y-70800813D01*
X132003306Y-70796694D01*
X131999187Y-70792150D01*
X131995533Y-70787223D01*
X131992380Y-70781962D01*
X131989758Y-70776418D01*
X131987691Y-70770643D01*
X131986201Y-70764693D01*
X131985301Y-70758626D01*
X131985000Y-70752500D01*
X131985000Y-70002500D01*
X131985301Y-69996374D01*
X131986201Y-69990307D01*
X131987691Y-69984357D01*
X131989758Y-69978582D01*
X131992380Y-69973038D01*
X131995533Y-69967777D01*
X131999187Y-69962850D01*
X132003306Y-69958306D01*
X132007850Y-69954187D01*
X132012777Y-69950533D01*
X132018038Y-69947380D01*
X132023582Y-69944758D01*
X132029357Y-69942691D01*
X132035307Y-69941201D01*
X132041374Y-69940301D01*
X132047500Y-69940000D01*
X132172500Y-69940000D01*
X132178626Y-69940301D01*
X132178626Y-69940301D01*
G37*
D16*
X132110000Y-70377500D03*
D10*
G36*
X132678626Y-69940301D02*
G01*
X132684693Y-69941201D01*
X132690643Y-69942691D01*
X132696418Y-69944758D01*
X132701962Y-69947380D01*
X132707223Y-69950533D01*
X132712150Y-69954187D01*
X132716694Y-69958306D01*
X132720813Y-69962850D01*
X132724467Y-69967777D01*
X132727620Y-69973038D01*
X132730242Y-69978582D01*
X132732309Y-69984357D01*
X132733799Y-69990307D01*
X132734699Y-69996374D01*
X132735000Y-70002500D01*
X132735000Y-70752500D01*
X132734699Y-70758626D01*
X132733799Y-70764693D01*
X132732309Y-70770643D01*
X132730242Y-70776418D01*
X132727620Y-70781962D01*
X132724467Y-70787223D01*
X132720813Y-70792150D01*
X132716694Y-70796694D01*
X132712150Y-70800813D01*
X132707223Y-70804467D01*
X132701962Y-70807620D01*
X132696418Y-70810242D01*
X132690643Y-70812309D01*
X132684693Y-70813799D01*
X132678626Y-70814699D01*
X132672500Y-70815000D01*
X132547500Y-70815000D01*
X132541374Y-70814699D01*
X132535307Y-70813799D01*
X132529357Y-70812309D01*
X132523582Y-70810242D01*
X132518038Y-70807620D01*
X132512777Y-70804467D01*
X132507850Y-70800813D01*
X132503306Y-70796694D01*
X132499187Y-70792150D01*
X132495533Y-70787223D01*
X132492380Y-70781962D01*
X132489758Y-70776418D01*
X132487691Y-70770643D01*
X132486201Y-70764693D01*
X132485301Y-70758626D01*
X132485000Y-70752500D01*
X132485000Y-70002500D01*
X132485301Y-69996374D01*
X132486201Y-69990307D01*
X132487691Y-69984357D01*
X132489758Y-69978582D01*
X132492380Y-69973038D01*
X132495533Y-69967777D01*
X132499187Y-69962850D01*
X132503306Y-69958306D01*
X132507850Y-69954187D01*
X132512777Y-69950533D01*
X132518038Y-69947380D01*
X132523582Y-69944758D01*
X132529357Y-69942691D01*
X132535307Y-69941201D01*
X132541374Y-69940301D01*
X132547500Y-69940000D01*
X132672500Y-69940000D01*
X132678626Y-69940301D01*
X132678626Y-69940301D01*
G37*
D16*
X132610000Y-70377500D03*
D10*
G36*
X133678626Y-69565301D02*
G01*
X133684693Y-69566201D01*
X133690643Y-69567691D01*
X133696418Y-69569758D01*
X133701962Y-69572380D01*
X133707223Y-69575533D01*
X133712150Y-69579187D01*
X133716694Y-69583306D01*
X133720813Y-69587850D01*
X133724467Y-69592777D01*
X133727620Y-69598038D01*
X133730242Y-69603582D01*
X133732309Y-69609357D01*
X133733799Y-69615307D01*
X133734699Y-69621374D01*
X133735000Y-69627500D01*
X133735000Y-69752500D01*
X133734699Y-69758626D01*
X133733799Y-69764693D01*
X133732309Y-69770643D01*
X133730242Y-69776418D01*
X133727620Y-69781962D01*
X133724467Y-69787223D01*
X133720813Y-69792150D01*
X133716694Y-69796694D01*
X133712150Y-69800813D01*
X133707223Y-69804467D01*
X133701962Y-69807620D01*
X133696418Y-69810242D01*
X133690643Y-69812309D01*
X133684693Y-69813799D01*
X133678626Y-69814699D01*
X133672500Y-69815000D01*
X132922500Y-69815000D01*
X132916374Y-69814699D01*
X132910307Y-69813799D01*
X132904357Y-69812309D01*
X132898582Y-69810242D01*
X132893038Y-69807620D01*
X132887777Y-69804467D01*
X132882850Y-69800813D01*
X132878306Y-69796694D01*
X132874187Y-69792150D01*
X132870533Y-69787223D01*
X132867380Y-69781962D01*
X132864758Y-69776418D01*
X132862691Y-69770643D01*
X132861201Y-69764693D01*
X132860301Y-69758626D01*
X132860000Y-69752500D01*
X132860000Y-69627500D01*
X132860301Y-69621374D01*
X132861201Y-69615307D01*
X132862691Y-69609357D01*
X132864758Y-69603582D01*
X132867380Y-69598038D01*
X132870533Y-69592777D01*
X132874187Y-69587850D01*
X132878306Y-69583306D01*
X132882850Y-69579187D01*
X132887777Y-69575533D01*
X132893038Y-69572380D01*
X132898582Y-69569758D01*
X132904357Y-69567691D01*
X132910307Y-69566201D01*
X132916374Y-69565301D01*
X132922500Y-69565000D01*
X133672500Y-69565000D01*
X133678626Y-69565301D01*
X133678626Y-69565301D01*
G37*
D16*
X133297500Y-69690000D03*
D10*
G36*
X133678626Y-69065301D02*
G01*
X133684693Y-69066201D01*
X133690643Y-69067691D01*
X133696418Y-69069758D01*
X133701962Y-69072380D01*
X133707223Y-69075533D01*
X133712150Y-69079187D01*
X133716694Y-69083306D01*
X133720813Y-69087850D01*
X133724467Y-69092777D01*
X133727620Y-69098038D01*
X133730242Y-69103582D01*
X133732309Y-69109357D01*
X133733799Y-69115307D01*
X133734699Y-69121374D01*
X133735000Y-69127500D01*
X133735000Y-69252500D01*
X133734699Y-69258626D01*
X133733799Y-69264693D01*
X133732309Y-69270643D01*
X133730242Y-69276418D01*
X133727620Y-69281962D01*
X133724467Y-69287223D01*
X133720813Y-69292150D01*
X133716694Y-69296694D01*
X133712150Y-69300813D01*
X133707223Y-69304467D01*
X133701962Y-69307620D01*
X133696418Y-69310242D01*
X133690643Y-69312309D01*
X133684693Y-69313799D01*
X133678626Y-69314699D01*
X133672500Y-69315000D01*
X132922500Y-69315000D01*
X132916374Y-69314699D01*
X132910307Y-69313799D01*
X132904357Y-69312309D01*
X132898582Y-69310242D01*
X132893038Y-69307620D01*
X132887777Y-69304467D01*
X132882850Y-69300813D01*
X132878306Y-69296694D01*
X132874187Y-69292150D01*
X132870533Y-69287223D01*
X132867380Y-69281962D01*
X132864758Y-69276418D01*
X132862691Y-69270643D01*
X132861201Y-69264693D01*
X132860301Y-69258626D01*
X132860000Y-69252500D01*
X132860000Y-69127500D01*
X132860301Y-69121374D01*
X132861201Y-69115307D01*
X132862691Y-69109357D01*
X132864758Y-69103582D01*
X132867380Y-69098038D01*
X132870533Y-69092777D01*
X132874187Y-69087850D01*
X132878306Y-69083306D01*
X132882850Y-69079187D01*
X132887777Y-69075533D01*
X132893038Y-69072380D01*
X132898582Y-69069758D01*
X132904357Y-69067691D01*
X132910307Y-69066201D01*
X132916374Y-69065301D01*
X132922500Y-69065000D01*
X133672500Y-69065000D01*
X133678626Y-69065301D01*
X133678626Y-69065301D01*
G37*
D16*
X133297500Y-69190000D03*
D10*
G36*
X133678626Y-68565301D02*
G01*
X133684693Y-68566201D01*
X133690643Y-68567691D01*
X133696418Y-68569758D01*
X133701962Y-68572380D01*
X133707223Y-68575533D01*
X133712150Y-68579187D01*
X133716694Y-68583306D01*
X133720813Y-68587850D01*
X133724467Y-68592777D01*
X133727620Y-68598038D01*
X133730242Y-68603582D01*
X133732309Y-68609357D01*
X133733799Y-68615307D01*
X133734699Y-68621374D01*
X133735000Y-68627500D01*
X133735000Y-68752500D01*
X133734699Y-68758626D01*
X133733799Y-68764693D01*
X133732309Y-68770643D01*
X133730242Y-68776418D01*
X133727620Y-68781962D01*
X133724467Y-68787223D01*
X133720813Y-68792150D01*
X133716694Y-68796694D01*
X133712150Y-68800813D01*
X133707223Y-68804467D01*
X133701962Y-68807620D01*
X133696418Y-68810242D01*
X133690643Y-68812309D01*
X133684693Y-68813799D01*
X133678626Y-68814699D01*
X133672500Y-68815000D01*
X132922500Y-68815000D01*
X132916374Y-68814699D01*
X132910307Y-68813799D01*
X132904357Y-68812309D01*
X132898582Y-68810242D01*
X132893038Y-68807620D01*
X132887777Y-68804467D01*
X132882850Y-68800813D01*
X132878306Y-68796694D01*
X132874187Y-68792150D01*
X132870533Y-68787223D01*
X132867380Y-68781962D01*
X132864758Y-68776418D01*
X132862691Y-68770643D01*
X132861201Y-68764693D01*
X132860301Y-68758626D01*
X132860000Y-68752500D01*
X132860000Y-68627500D01*
X132860301Y-68621374D01*
X132861201Y-68615307D01*
X132862691Y-68609357D01*
X132864758Y-68603582D01*
X132867380Y-68598038D01*
X132870533Y-68592777D01*
X132874187Y-68587850D01*
X132878306Y-68583306D01*
X132882850Y-68579187D01*
X132887777Y-68575533D01*
X132893038Y-68572380D01*
X132898582Y-68569758D01*
X132904357Y-68567691D01*
X132910307Y-68566201D01*
X132916374Y-68565301D01*
X132922500Y-68565000D01*
X133672500Y-68565000D01*
X133678626Y-68565301D01*
X133678626Y-68565301D01*
G37*
D16*
X133297500Y-68690000D03*
D10*
G36*
X133678626Y-68065301D02*
G01*
X133684693Y-68066201D01*
X133690643Y-68067691D01*
X133696418Y-68069758D01*
X133701962Y-68072380D01*
X133707223Y-68075533D01*
X133712150Y-68079187D01*
X133716694Y-68083306D01*
X133720813Y-68087850D01*
X133724467Y-68092777D01*
X133727620Y-68098038D01*
X133730242Y-68103582D01*
X133732309Y-68109357D01*
X133733799Y-68115307D01*
X133734699Y-68121374D01*
X133735000Y-68127500D01*
X133735000Y-68252500D01*
X133734699Y-68258626D01*
X133733799Y-68264693D01*
X133732309Y-68270643D01*
X133730242Y-68276418D01*
X133727620Y-68281962D01*
X133724467Y-68287223D01*
X133720813Y-68292150D01*
X133716694Y-68296694D01*
X133712150Y-68300813D01*
X133707223Y-68304467D01*
X133701962Y-68307620D01*
X133696418Y-68310242D01*
X133690643Y-68312309D01*
X133684693Y-68313799D01*
X133678626Y-68314699D01*
X133672500Y-68315000D01*
X132922500Y-68315000D01*
X132916374Y-68314699D01*
X132910307Y-68313799D01*
X132904357Y-68312309D01*
X132898582Y-68310242D01*
X132893038Y-68307620D01*
X132887777Y-68304467D01*
X132882850Y-68300813D01*
X132878306Y-68296694D01*
X132874187Y-68292150D01*
X132870533Y-68287223D01*
X132867380Y-68281962D01*
X132864758Y-68276418D01*
X132862691Y-68270643D01*
X132861201Y-68264693D01*
X132860301Y-68258626D01*
X132860000Y-68252500D01*
X132860000Y-68127500D01*
X132860301Y-68121374D01*
X132861201Y-68115307D01*
X132862691Y-68109357D01*
X132864758Y-68103582D01*
X132867380Y-68098038D01*
X132870533Y-68092777D01*
X132874187Y-68087850D01*
X132878306Y-68083306D01*
X132882850Y-68079187D01*
X132887777Y-68075533D01*
X132893038Y-68072380D01*
X132898582Y-68069758D01*
X132904357Y-68067691D01*
X132910307Y-68066201D01*
X132916374Y-68065301D01*
X132922500Y-68065000D01*
X133672500Y-68065000D01*
X133678626Y-68065301D01*
X133678626Y-68065301D01*
G37*
D16*
X133297500Y-68190000D03*
D10*
G36*
X133678626Y-67565301D02*
G01*
X133684693Y-67566201D01*
X133690643Y-67567691D01*
X133696418Y-67569758D01*
X133701962Y-67572380D01*
X133707223Y-67575533D01*
X133712150Y-67579187D01*
X133716694Y-67583306D01*
X133720813Y-67587850D01*
X133724467Y-67592777D01*
X133727620Y-67598038D01*
X133730242Y-67603582D01*
X133732309Y-67609357D01*
X133733799Y-67615307D01*
X133734699Y-67621374D01*
X133735000Y-67627500D01*
X133735000Y-67752500D01*
X133734699Y-67758626D01*
X133733799Y-67764693D01*
X133732309Y-67770643D01*
X133730242Y-67776418D01*
X133727620Y-67781962D01*
X133724467Y-67787223D01*
X133720813Y-67792150D01*
X133716694Y-67796694D01*
X133712150Y-67800813D01*
X133707223Y-67804467D01*
X133701962Y-67807620D01*
X133696418Y-67810242D01*
X133690643Y-67812309D01*
X133684693Y-67813799D01*
X133678626Y-67814699D01*
X133672500Y-67815000D01*
X132922500Y-67815000D01*
X132916374Y-67814699D01*
X132910307Y-67813799D01*
X132904357Y-67812309D01*
X132898582Y-67810242D01*
X132893038Y-67807620D01*
X132887777Y-67804467D01*
X132882850Y-67800813D01*
X132878306Y-67796694D01*
X132874187Y-67792150D01*
X132870533Y-67787223D01*
X132867380Y-67781962D01*
X132864758Y-67776418D01*
X132862691Y-67770643D01*
X132861201Y-67764693D01*
X132860301Y-67758626D01*
X132860000Y-67752500D01*
X132860000Y-67627500D01*
X132860301Y-67621374D01*
X132861201Y-67615307D01*
X132862691Y-67609357D01*
X132864758Y-67603582D01*
X132867380Y-67598038D01*
X132870533Y-67592777D01*
X132874187Y-67587850D01*
X132878306Y-67583306D01*
X132882850Y-67579187D01*
X132887777Y-67575533D01*
X132893038Y-67572380D01*
X132898582Y-67569758D01*
X132904357Y-67567691D01*
X132910307Y-67566201D01*
X132916374Y-67565301D01*
X132922500Y-67565000D01*
X133672500Y-67565000D01*
X133678626Y-67565301D01*
X133678626Y-67565301D01*
G37*
D16*
X133297500Y-67690000D03*
D10*
G36*
X133678626Y-67065301D02*
G01*
X133684693Y-67066201D01*
X133690643Y-67067691D01*
X133696418Y-67069758D01*
X133701962Y-67072380D01*
X133707223Y-67075533D01*
X133712150Y-67079187D01*
X133716694Y-67083306D01*
X133720813Y-67087850D01*
X133724467Y-67092777D01*
X133727620Y-67098038D01*
X133730242Y-67103582D01*
X133732309Y-67109357D01*
X133733799Y-67115307D01*
X133734699Y-67121374D01*
X133735000Y-67127500D01*
X133735000Y-67252500D01*
X133734699Y-67258626D01*
X133733799Y-67264693D01*
X133732309Y-67270643D01*
X133730242Y-67276418D01*
X133727620Y-67281962D01*
X133724467Y-67287223D01*
X133720813Y-67292150D01*
X133716694Y-67296694D01*
X133712150Y-67300813D01*
X133707223Y-67304467D01*
X133701962Y-67307620D01*
X133696418Y-67310242D01*
X133690643Y-67312309D01*
X133684693Y-67313799D01*
X133678626Y-67314699D01*
X133672500Y-67315000D01*
X132922500Y-67315000D01*
X132916374Y-67314699D01*
X132910307Y-67313799D01*
X132904357Y-67312309D01*
X132898582Y-67310242D01*
X132893038Y-67307620D01*
X132887777Y-67304467D01*
X132882850Y-67300813D01*
X132878306Y-67296694D01*
X132874187Y-67292150D01*
X132870533Y-67287223D01*
X132867380Y-67281962D01*
X132864758Y-67276418D01*
X132862691Y-67270643D01*
X132861201Y-67264693D01*
X132860301Y-67258626D01*
X132860000Y-67252500D01*
X132860000Y-67127500D01*
X132860301Y-67121374D01*
X132861201Y-67115307D01*
X132862691Y-67109357D01*
X132864758Y-67103582D01*
X132867380Y-67098038D01*
X132870533Y-67092777D01*
X132874187Y-67087850D01*
X132878306Y-67083306D01*
X132882850Y-67079187D01*
X132887777Y-67075533D01*
X132893038Y-67072380D01*
X132898582Y-67069758D01*
X132904357Y-67067691D01*
X132910307Y-67066201D01*
X132916374Y-67065301D01*
X132922500Y-67065000D01*
X133672500Y-67065000D01*
X133678626Y-67065301D01*
X133678626Y-67065301D01*
G37*
D16*
X133297500Y-67190000D03*
D10*
G36*
X133678626Y-66565301D02*
G01*
X133684693Y-66566201D01*
X133690643Y-66567691D01*
X133696418Y-66569758D01*
X133701962Y-66572380D01*
X133707223Y-66575533D01*
X133712150Y-66579187D01*
X133716694Y-66583306D01*
X133720813Y-66587850D01*
X133724467Y-66592777D01*
X133727620Y-66598038D01*
X133730242Y-66603582D01*
X133732309Y-66609357D01*
X133733799Y-66615307D01*
X133734699Y-66621374D01*
X133735000Y-66627500D01*
X133735000Y-66752500D01*
X133734699Y-66758626D01*
X133733799Y-66764693D01*
X133732309Y-66770643D01*
X133730242Y-66776418D01*
X133727620Y-66781962D01*
X133724467Y-66787223D01*
X133720813Y-66792150D01*
X133716694Y-66796694D01*
X133712150Y-66800813D01*
X133707223Y-66804467D01*
X133701962Y-66807620D01*
X133696418Y-66810242D01*
X133690643Y-66812309D01*
X133684693Y-66813799D01*
X133678626Y-66814699D01*
X133672500Y-66815000D01*
X132922500Y-66815000D01*
X132916374Y-66814699D01*
X132910307Y-66813799D01*
X132904357Y-66812309D01*
X132898582Y-66810242D01*
X132893038Y-66807620D01*
X132887777Y-66804467D01*
X132882850Y-66800813D01*
X132878306Y-66796694D01*
X132874187Y-66792150D01*
X132870533Y-66787223D01*
X132867380Y-66781962D01*
X132864758Y-66776418D01*
X132862691Y-66770643D01*
X132861201Y-66764693D01*
X132860301Y-66758626D01*
X132860000Y-66752500D01*
X132860000Y-66627500D01*
X132860301Y-66621374D01*
X132861201Y-66615307D01*
X132862691Y-66609357D01*
X132864758Y-66603582D01*
X132867380Y-66598038D01*
X132870533Y-66592777D01*
X132874187Y-66587850D01*
X132878306Y-66583306D01*
X132882850Y-66579187D01*
X132887777Y-66575533D01*
X132893038Y-66572380D01*
X132898582Y-66569758D01*
X132904357Y-66567691D01*
X132910307Y-66566201D01*
X132916374Y-66565301D01*
X132922500Y-66565000D01*
X133672500Y-66565000D01*
X133678626Y-66565301D01*
X133678626Y-66565301D01*
G37*
D16*
X133297500Y-66690000D03*
D10*
G36*
X133678626Y-66065301D02*
G01*
X133684693Y-66066201D01*
X133690643Y-66067691D01*
X133696418Y-66069758D01*
X133701962Y-66072380D01*
X133707223Y-66075533D01*
X133712150Y-66079187D01*
X133716694Y-66083306D01*
X133720813Y-66087850D01*
X133724467Y-66092777D01*
X133727620Y-66098038D01*
X133730242Y-66103582D01*
X133732309Y-66109357D01*
X133733799Y-66115307D01*
X133734699Y-66121374D01*
X133735000Y-66127500D01*
X133735000Y-66252500D01*
X133734699Y-66258626D01*
X133733799Y-66264693D01*
X133732309Y-66270643D01*
X133730242Y-66276418D01*
X133727620Y-66281962D01*
X133724467Y-66287223D01*
X133720813Y-66292150D01*
X133716694Y-66296694D01*
X133712150Y-66300813D01*
X133707223Y-66304467D01*
X133701962Y-66307620D01*
X133696418Y-66310242D01*
X133690643Y-66312309D01*
X133684693Y-66313799D01*
X133678626Y-66314699D01*
X133672500Y-66315000D01*
X132922500Y-66315000D01*
X132916374Y-66314699D01*
X132910307Y-66313799D01*
X132904357Y-66312309D01*
X132898582Y-66310242D01*
X132893038Y-66307620D01*
X132887777Y-66304467D01*
X132882850Y-66300813D01*
X132878306Y-66296694D01*
X132874187Y-66292150D01*
X132870533Y-66287223D01*
X132867380Y-66281962D01*
X132864758Y-66276418D01*
X132862691Y-66270643D01*
X132861201Y-66264693D01*
X132860301Y-66258626D01*
X132860000Y-66252500D01*
X132860000Y-66127500D01*
X132860301Y-66121374D01*
X132861201Y-66115307D01*
X132862691Y-66109357D01*
X132864758Y-66103582D01*
X132867380Y-66098038D01*
X132870533Y-66092777D01*
X132874187Y-66087850D01*
X132878306Y-66083306D01*
X132882850Y-66079187D01*
X132887777Y-66075533D01*
X132893038Y-66072380D01*
X132898582Y-66069758D01*
X132904357Y-66067691D01*
X132910307Y-66066201D01*
X132916374Y-66065301D01*
X132922500Y-66065000D01*
X133672500Y-66065000D01*
X133678626Y-66065301D01*
X133678626Y-66065301D01*
G37*
D16*
X133297500Y-66190000D03*
D10*
G36*
X132678626Y-65065301D02*
G01*
X132684693Y-65066201D01*
X132690643Y-65067691D01*
X132696418Y-65069758D01*
X132701962Y-65072380D01*
X132707223Y-65075533D01*
X132712150Y-65079187D01*
X132716694Y-65083306D01*
X132720813Y-65087850D01*
X132724467Y-65092777D01*
X132727620Y-65098038D01*
X132730242Y-65103582D01*
X132732309Y-65109357D01*
X132733799Y-65115307D01*
X132734699Y-65121374D01*
X132735000Y-65127500D01*
X132735000Y-65877500D01*
X132734699Y-65883626D01*
X132733799Y-65889693D01*
X132732309Y-65895643D01*
X132730242Y-65901418D01*
X132727620Y-65906962D01*
X132724467Y-65912223D01*
X132720813Y-65917150D01*
X132716694Y-65921694D01*
X132712150Y-65925813D01*
X132707223Y-65929467D01*
X132701962Y-65932620D01*
X132696418Y-65935242D01*
X132690643Y-65937309D01*
X132684693Y-65938799D01*
X132678626Y-65939699D01*
X132672500Y-65940000D01*
X132547500Y-65940000D01*
X132541374Y-65939699D01*
X132535307Y-65938799D01*
X132529357Y-65937309D01*
X132523582Y-65935242D01*
X132518038Y-65932620D01*
X132512777Y-65929467D01*
X132507850Y-65925813D01*
X132503306Y-65921694D01*
X132499187Y-65917150D01*
X132495533Y-65912223D01*
X132492380Y-65906962D01*
X132489758Y-65901418D01*
X132487691Y-65895643D01*
X132486201Y-65889693D01*
X132485301Y-65883626D01*
X132485000Y-65877500D01*
X132485000Y-65127500D01*
X132485301Y-65121374D01*
X132486201Y-65115307D01*
X132487691Y-65109357D01*
X132489758Y-65103582D01*
X132492380Y-65098038D01*
X132495533Y-65092777D01*
X132499187Y-65087850D01*
X132503306Y-65083306D01*
X132507850Y-65079187D01*
X132512777Y-65075533D01*
X132518038Y-65072380D01*
X132523582Y-65069758D01*
X132529357Y-65067691D01*
X132535307Y-65066201D01*
X132541374Y-65065301D01*
X132547500Y-65065000D01*
X132672500Y-65065000D01*
X132678626Y-65065301D01*
X132678626Y-65065301D01*
G37*
D16*
X132610000Y-65502500D03*
D10*
G36*
X132178626Y-65065301D02*
G01*
X132184693Y-65066201D01*
X132190643Y-65067691D01*
X132196418Y-65069758D01*
X132201962Y-65072380D01*
X132207223Y-65075533D01*
X132212150Y-65079187D01*
X132216694Y-65083306D01*
X132220813Y-65087850D01*
X132224467Y-65092777D01*
X132227620Y-65098038D01*
X132230242Y-65103582D01*
X132232309Y-65109357D01*
X132233799Y-65115307D01*
X132234699Y-65121374D01*
X132235000Y-65127500D01*
X132235000Y-65877500D01*
X132234699Y-65883626D01*
X132233799Y-65889693D01*
X132232309Y-65895643D01*
X132230242Y-65901418D01*
X132227620Y-65906962D01*
X132224467Y-65912223D01*
X132220813Y-65917150D01*
X132216694Y-65921694D01*
X132212150Y-65925813D01*
X132207223Y-65929467D01*
X132201962Y-65932620D01*
X132196418Y-65935242D01*
X132190643Y-65937309D01*
X132184693Y-65938799D01*
X132178626Y-65939699D01*
X132172500Y-65940000D01*
X132047500Y-65940000D01*
X132041374Y-65939699D01*
X132035307Y-65938799D01*
X132029357Y-65937309D01*
X132023582Y-65935242D01*
X132018038Y-65932620D01*
X132012777Y-65929467D01*
X132007850Y-65925813D01*
X132003306Y-65921694D01*
X131999187Y-65917150D01*
X131995533Y-65912223D01*
X131992380Y-65906962D01*
X131989758Y-65901418D01*
X131987691Y-65895643D01*
X131986201Y-65889693D01*
X131985301Y-65883626D01*
X131985000Y-65877500D01*
X131985000Y-65127500D01*
X131985301Y-65121374D01*
X131986201Y-65115307D01*
X131987691Y-65109357D01*
X131989758Y-65103582D01*
X131992380Y-65098038D01*
X131995533Y-65092777D01*
X131999187Y-65087850D01*
X132003306Y-65083306D01*
X132007850Y-65079187D01*
X132012777Y-65075533D01*
X132018038Y-65072380D01*
X132023582Y-65069758D01*
X132029357Y-65067691D01*
X132035307Y-65066201D01*
X132041374Y-65065301D01*
X132047500Y-65065000D01*
X132172500Y-65065000D01*
X132178626Y-65065301D01*
X132178626Y-65065301D01*
G37*
D16*
X132110000Y-65502500D03*
D10*
G36*
X131678626Y-65065301D02*
G01*
X131684693Y-65066201D01*
X131690643Y-65067691D01*
X131696418Y-65069758D01*
X131701962Y-65072380D01*
X131707223Y-65075533D01*
X131712150Y-65079187D01*
X131716694Y-65083306D01*
X131720813Y-65087850D01*
X131724467Y-65092777D01*
X131727620Y-65098038D01*
X131730242Y-65103582D01*
X131732309Y-65109357D01*
X131733799Y-65115307D01*
X131734699Y-65121374D01*
X131735000Y-65127500D01*
X131735000Y-65877500D01*
X131734699Y-65883626D01*
X131733799Y-65889693D01*
X131732309Y-65895643D01*
X131730242Y-65901418D01*
X131727620Y-65906962D01*
X131724467Y-65912223D01*
X131720813Y-65917150D01*
X131716694Y-65921694D01*
X131712150Y-65925813D01*
X131707223Y-65929467D01*
X131701962Y-65932620D01*
X131696418Y-65935242D01*
X131690643Y-65937309D01*
X131684693Y-65938799D01*
X131678626Y-65939699D01*
X131672500Y-65940000D01*
X131547500Y-65940000D01*
X131541374Y-65939699D01*
X131535307Y-65938799D01*
X131529357Y-65937309D01*
X131523582Y-65935242D01*
X131518038Y-65932620D01*
X131512777Y-65929467D01*
X131507850Y-65925813D01*
X131503306Y-65921694D01*
X131499187Y-65917150D01*
X131495533Y-65912223D01*
X131492380Y-65906962D01*
X131489758Y-65901418D01*
X131487691Y-65895643D01*
X131486201Y-65889693D01*
X131485301Y-65883626D01*
X131485000Y-65877500D01*
X131485000Y-65127500D01*
X131485301Y-65121374D01*
X131486201Y-65115307D01*
X131487691Y-65109357D01*
X131489758Y-65103582D01*
X131492380Y-65098038D01*
X131495533Y-65092777D01*
X131499187Y-65087850D01*
X131503306Y-65083306D01*
X131507850Y-65079187D01*
X131512777Y-65075533D01*
X131518038Y-65072380D01*
X131523582Y-65069758D01*
X131529357Y-65067691D01*
X131535307Y-65066201D01*
X131541374Y-65065301D01*
X131547500Y-65065000D01*
X131672500Y-65065000D01*
X131678626Y-65065301D01*
X131678626Y-65065301D01*
G37*
D16*
X131610000Y-65502500D03*
D10*
G36*
X131178626Y-65065301D02*
G01*
X131184693Y-65066201D01*
X131190643Y-65067691D01*
X131196418Y-65069758D01*
X131201962Y-65072380D01*
X131207223Y-65075533D01*
X131212150Y-65079187D01*
X131216694Y-65083306D01*
X131220813Y-65087850D01*
X131224467Y-65092777D01*
X131227620Y-65098038D01*
X131230242Y-65103582D01*
X131232309Y-65109357D01*
X131233799Y-65115307D01*
X131234699Y-65121374D01*
X131235000Y-65127500D01*
X131235000Y-65877500D01*
X131234699Y-65883626D01*
X131233799Y-65889693D01*
X131232309Y-65895643D01*
X131230242Y-65901418D01*
X131227620Y-65906962D01*
X131224467Y-65912223D01*
X131220813Y-65917150D01*
X131216694Y-65921694D01*
X131212150Y-65925813D01*
X131207223Y-65929467D01*
X131201962Y-65932620D01*
X131196418Y-65935242D01*
X131190643Y-65937309D01*
X131184693Y-65938799D01*
X131178626Y-65939699D01*
X131172500Y-65940000D01*
X131047500Y-65940000D01*
X131041374Y-65939699D01*
X131035307Y-65938799D01*
X131029357Y-65937309D01*
X131023582Y-65935242D01*
X131018038Y-65932620D01*
X131012777Y-65929467D01*
X131007850Y-65925813D01*
X131003306Y-65921694D01*
X130999187Y-65917150D01*
X130995533Y-65912223D01*
X130992380Y-65906962D01*
X130989758Y-65901418D01*
X130987691Y-65895643D01*
X130986201Y-65889693D01*
X130985301Y-65883626D01*
X130985000Y-65877500D01*
X130985000Y-65127500D01*
X130985301Y-65121374D01*
X130986201Y-65115307D01*
X130987691Y-65109357D01*
X130989758Y-65103582D01*
X130992380Y-65098038D01*
X130995533Y-65092777D01*
X130999187Y-65087850D01*
X131003306Y-65083306D01*
X131007850Y-65079187D01*
X131012777Y-65075533D01*
X131018038Y-65072380D01*
X131023582Y-65069758D01*
X131029357Y-65067691D01*
X131035307Y-65066201D01*
X131041374Y-65065301D01*
X131047500Y-65065000D01*
X131172500Y-65065000D01*
X131178626Y-65065301D01*
X131178626Y-65065301D01*
G37*
D16*
X131110000Y-65502500D03*
D10*
G36*
X130678626Y-65065301D02*
G01*
X130684693Y-65066201D01*
X130690643Y-65067691D01*
X130696418Y-65069758D01*
X130701962Y-65072380D01*
X130707223Y-65075533D01*
X130712150Y-65079187D01*
X130716694Y-65083306D01*
X130720813Y-65087850D01*
X130724467Y-65092777D01*
X130727620Y-65098038D01*
X130730242Y-65103582D01*
X130732309Y-65109357D01*
X130733799Y-65115307D01*
X130734699Y-65121374D01*
X130735000Y-65127500D01*
X130735000Y-65877500D01*
X130734699Y-65883626D01*
X130733799Y-65889693D01*
X130732309Y-65895643D01*
X130730242Y-65901418D01*
X130727620Y-65906962D01*
X130724467Y-65912223D01*
X130720813Y-65917150D01*
X130716694Y-65921694D01*
X130712150Y-65925813D01*
X130707223Y-65929467D01*
X130701962Y-65932620D01*
X130696418Y-65935242D01*
X130690643Y-65937309D01*
X130684693Y-65938799D01*
X130678626Y-65939699D01*
X130672500Y-65940000D01*
X130547500Y-65940000D01*
X130541374Y-65939699D01*
X130535307Y-65938799D01*
X130529357Y-65937309D01*
X130523582Y-65935242D01*
X130518038Y-65932620D01*
X130512777Y-65929467D01*
X130507850Y-65925813D01*
X130503306Y-65921694D01*
X130499187Y-65917150D01*
X130495533Y-65912223D01*
X130492380Y-65906962D01*
X130489758Y-65901418D01*
X130487691Y-65895643D01*
X130486201Y-65889693D01*
X130485301Y-65883626D01*
X130485000Y-65877500D01*
X130485000Y-65127500D01*
X130485301Y-65121374D01*
X130486201Y-65115307D01*
X130487691Y-65109357D01*
X130489758Y-65103582D01*
X130492380Y-65098038D01*
X130495533Y-65092777D01*
X130499187Y-65087850D01*
X130503306Y-65083306D01*
X130507850Y-65079187D01*
X130512777Y-65075533D01*
X130518038Y-65072380D01*
X130523582Y-65069758D01*
X130529357Y-65067691D01*
X130535307Y-65066201D01*
X130541374Y-65065301D01*
X130547500Y-65065000D01*
X130672500Y-65065000D01*
X130678626Y-65065301D01*
X130678626Y-65065301D01*
G37*
D16*
X130610000Y-65502500D03*
D10*
G36*
X130178626Y-65065301D02*
G01*
X130184693Y-65066201D01*
X130190643Y-65067691D01*
X130196418Y-65069758D01*
X130201962Y-65072380D01*
X130207223Y-65075533D01*
X130212150Y-65079187D01*
X130216694Y-65083306D01*
X130220813Y-65087850D01*
X130224467Y-65092777D01*
X130227620Y-65098038D01*
X130230242Y-65103582D01*
X130232309Y-65109357D01*
X130233799Y-65115307D01*
X130234699Y-65121374D01*
X130235000Y-65127500D01*
X130235000Y-65877500D01*
X130234699Y-65883626D01*
X130233799Y-65889693D01*
X130232309Y-65895643D01*
X130230242Y-65901418D01*
X130227620Y-65906962D01*
X130224467Y-65912223D01*
X130220813Y-65917150D01*
X130216694Y-65921694D01*
X130212150Y-65925813D01*
X130207223Y-65929467D01*
X130201962Y-65932620D01*
X130196418Y-65935242D01*
X130190643Y-65937309D01*
X130184693Y-65938799D01*
X130178626Y-65939699D01*
X130172500Y-65940000D01*
X130047500Y-65940000D01*
X130041374Y-65939699D01*
X130035307Y-65938799D01*
X130029357Y-65937309D01*
X130023582Y-65935242D01*
X130018038Y-65932620D01*
X130012777Y-65929467D01*
X130007850Y-65925813D01*
X130003306Y-65921694D01*
X129999187Y-65917150D01*
X129995533Y-65912223D01*
X129992380Y-65906962D01*
X129989758Y-65901418D01*
X129987691Y-65895643D01*
X129986201Y-65889693D01*
X129985301Y-65883626D01*
X129985000Y-65877500D01*
X129985000Y-65127500D01*
X129985301Y-65121374D01*
X129986201Y-65115307D01*
X129987691Y-65109357D01*
X129989758Y-65103582D01*
X129992380Y-65098038D01*
X129995533Y-65092777D01*
X129999187Y-65087850D01*
X130003306Y-65083306D01*
X130007850Y-65079187D01*
X130012777Y-65075533D01*
X130018038Y-65072380D01*
X130023582Y-65069758D01*
X130029357Y-65067691D01*
X130035307Y-65066201D01*
X130041374Y-65065301D01*
X130047500Y-65065000D01*
X130172500Y-65065000D01*
X130178626Y-65065301D01*
X130178626Y-65065301D01*
G37*
D16*
X130110000Y-65502500D03*
D10*
G36*
X129678626Y-65065301D02*
G01*
X129684693Y-65066201D01*
X129690643Y-65067691D01*
X129696418Y-65069758D01*
X129701962Y-65072380D01*
X129707223Y-65075533D01*
X129712150Y-65079187D01*
X129716694Y-65083306D01*
X129720813Y-65087850D01*
X129724467Y-65092777D01*
X129727620Y-65098038D01*
X129730242Y-65103582D01*
X129732309Y-65109357D01*
X129733799Y-65115307D01*
X129734699Y-65121374D01*
X129735000Y-65127500D01*
X129735000Y-65877500D01*
X129734699Y-65883626D01*
X129733799Y-65889693D01*
X129732309Y-65895643D01*
X129730242Y-65901418D01*
X129727620Y-65906962D01*
X129724467Y-65912223D01*
X129720813Y-65917150D01*
X129716694Y-65921694D01*
X129712150Y-65925813D01*
X129707223Y-65929467D01*
X129701962Y-65932620D01*
X129696418Y-65935242D01*
X129690643Y-65937309D01*
X129684693Y-65938799D01*
X129678626Y-65939699D01*
X129672500Y-65940000D01*
X129547500Y-65940000D01*
X129541374Y-65939699D01*
X129535307Y-65938799D01*
X129529357Y-65937309D01*
X129523582Y-65935242D01*
X129518038Y-65932620D01*
X129512777Y-65929467D01*
X129507850Y-65925813D01*
X129503306Y-65921694D01*
X129499187Y-65917150D01*
X129495533Y-65912223D01*
X129492380Y-65906962D01*
X129489758Y-65901418D01*
X129487691Y-65895643D01*
X129486201Y-65889693D01*
X129485301Y-65883626D01*
X129485000Y-65877500D01*
X129485000Y-65127500D01*
X129485301Y-65121374D01*
X129486201Y-65115307D01*
X129487691Y-65109357D01*
X129489758Y-65103582D01*
X129492380Y-65098038D01*
X129495533Y-65092777D01*
X129499187Y-65087850D01*
X129503306Y-65083306D01*
X129507850Y-65079187D01*
X129512777Y-65075533D01*
X129518038Y-65072380D01*
X129523582Y-65069758D01*
X129529357Y-65067691D01*
X129535307Y-65066201D01*
X129541374Y-65065301D01*
X129547500Y-65065000D01*
X129672500Y-65065000D01*
X129678626Y-65065301D01*
X129678626Y-65065301D01*
G37*
D16*
X129610000Y-65502500D03*
D10*
G36*
X129178626Y-65065301D02*
G01*
X129184693Y-65066201D01*
X129190643Y-65067691D01*
X129196418Y-65069758D01*
X129201962Y-65072380D01*
X129207223Y-65075533D01*
X129212150Y-65079187D01*
X129216694Y-65083306D01*
X129220813Y-65087850D01*
X129224467Y-65092777D01*
X129227620Y-65098038D01*
X129230242Y-65103582D01*
X129232309Y-65109357D01*
X129233799Y-65115307D01*
X129234699Y-65121374D01*
X129235000Y-65127500D01*
X129235000Y-65877500D01*
X129234699Y-65883626D01*
X129233799Y-65889693D01*
X129232309Y-65895643D01*
X129230242Y-65901418D01*
X129227620Y-65906962D01*
X129224467Y-65912223D01*
X129220813Y-65917150D01*
X129216694Y-65921694D01*
X129212150Y-65925813D01*
X129207223Y-65929467D01*
X129201962Y-65932620D01*
X129196418Y-65935242D01*
X129190643Y-65937309D01*
X129184693Y-65938799D01*
X129178626Y-65939699D01*
X129172500Y-65940000D01*
X129047500Y-65940000D01*
X129041374Y-65939699D01*
X129035307Y-65938799D01*
X129029357Y-65937309D01*
X129023582Y-65935242D01*
X129018038Y-65932620D01*
X129012777Y-65929467D01*
X129007850Y-65925813D01*
X129003306Y-65921694D01*
X128999187Y-65917150D01*
X128995533Y-65912223D01*
X128992380Y-65906962D01*
X128989758Y-65901418D01*
X128987691Y-65895643D01*
X128986201Y-65889693D01*
X128985301Y-65883626D01*
X128985000Y-65877500D01*
X128985000Y-65127500D01*
X128985301Y-65121374D01*
X128986201Y-65115307D01*
X128987691Y-65109357D01*
X128989758Y-65103582D01*
X128992380Y-65098038D01*
X128995533Y-65092777D01*
X128999187Y-65087850D01*
X129003306Y-65083306D01*
X129007850Y-65079187D01*
X129012777Y-65075533D01*
X129018038Y-65072380D01*
X129023582Y-65069758D01*
X129029357Y-65067691D01*
X129035307Y-65066201D01*
X129041374Y-65065301D01*
X129047500Y-65065000D01*
X129172500Y-65065000D01*
X129178626Y-65065301D01*
X129178626Y-65065301D01*
G37*
D16*
X129110000Y-65502500D03*
D17*
X118390000Y-61310000D03*
X118390000Y-62260000D03*
X118390000Y-63210000D03*
X120590000Y-63210000D03*
X120590000Y-61310000D03*
D12*
X129970000Y-57550000D03*
X131620000Y-57530000D03*
X133270000Y-57540000D03*
X134920000Y-57540000D03*
M02*
