G04 #@! TF.GenerationSoftware,KiCad,Pcbnew,(5.1.4)-1*
G04 #@! TF.CreationDate,2019-11-10T16:51:08-05:00*
G04 #@! TF.ProjectId,UniAmp,556e6941-6d70-42e6-9b69-6361645f7063,rev?*
G04 #@! TF.SameCoordinates,Original*
G04 #@! TF.FileFunction,Legend,Top*
G04 #@! TF.FilePolarity,Positive*
%FSLAX46Y46*%
G04 Gerber Fmt 4.6, Leading zero omitted, Abs format (unit mm)*
G04 Created by KiCad (PCBNEW (5.1.4)-1) date 2019-11-10 16:51:08*
%MOMM*%
%LPD*%
G04 APERTURE LIST*
%ADD10C,0.125000*%
%ADD11C,0.120000*%
G04 APERTURE END LIST*
D10*
X122433333Y-59026190D02*
X122433333Y-58526190D01*
X122600000Y-58883333D01*
X122766666Y-58526190D01*
X122766666Y-59026190D01*
X123290476Y-58978571D02*
X123266666Y-59002380D01*
X123195238Y-59026190D01*
X123147619Y-59026190D01*
X123076190Y-59002380D01*
X123028571Y-58954761D01*
X123004761Y-58907142D01*
X122980952Y-58811904D01*
X122980952Y-58740476D01*
X123004761Y-58645238D01*
X123028571Y-58597619D01*
X123076190Y-58550000D01*
X123147619Y-58526190D01*
X123195238Y-58526190D01*
X123266666Y-58550000D01*
X123290476Y-58573809D01*
X124654761Y-58998571D02*
X124630952Y-59022380D01*
X124559523Y-59046190D01*
X124511904Y-59046190D01*
X124440476Y-59022380D01*
X124392857Y-58974761D01*
X124369047Y-58927142D01*
X124345238Y-58831904D01*
X124345238Y-58760476D01*
X124369047Y-58665238D01*
X124392857Y-58617619D01*
X124440476Y-58570000D01*
X124511904Y-58546190D01*
X124559523Y-58546190D01*
X124630952Y-58570000D01*
X124654761Y-58593809D01*
X127387619Y-58576190D02*
X127506666Y-59076190D01*
X127601904Y-58719047D01*
X127697142Y-59076190D01*
X127816190Y-58576190D01*
X127982857Y-59052380D02*
X128054285Y-59076190D01*
X128173333Y-59076190D01*
X128220952Y-59052380D01*
X128244761Y-59028571D01*
X128268571Y-58980952D01*
X128268571Y-58933333D01*
X128244761Y-58885714D01*
X128220952Y-58861904D01*
X128173333Y-58838095D01*
X128078095Y-58814285D01*
X128030476Y-58790476D01*
X128006666Y-58766666D01*
X127982857Y-58719047D01*
X127982857Y-58671428D01*
X128006666Y-58623809D01*
X128030476Y-58600000D01*
X128078095Y-58576190D01*
X128197142Y-58576190D01*
X128268571Y-58600000D01*
X126039047Y-59066190D02*
X126039047Y-58566190D01*
X126158095Y-58566190D01*
X126229523Y-58590000D01*
X126277142Y-58637619D01*
X126300952Y-58685238D01*
X126324761Y-58780476D01*
X126324761Y-58851904D01*
X126300952Y-58947142D01*
X126277142Y-58994761D01*
X126229523Y-59042380D01*
X126158095Y-59066190D01*
X126039047Y-59066190D01*
X117173333Y-70296190D02*
X117173333Y-70653333D01*
X117149523Y-70724761D01*
X117101904Y-70772380D01*
X117030476Y-70796190D01*
X116982857Y-70796190D01*
X117673333Y-70796190D02*
X117387619Y-70796190D01*
X117530476Y-70796190D02*
X117530476Y-70296190D01*
X117482857Y-70367619D01*
X117435238Y-70415238D01*
X117387619Y-70439047D01*
X117133333Y-67686190D02*
X117133333Y-68043333D01*
X117109523Y-68114761D01*
X117061904Y-68162380D01*
X116990476Y-68186190D01*
X116942857Y-68186190D01*
X117466666Y-67686190D02*
X117514285Y-67686190D01*
X117561904Y-67710000D01*
X117585714Y-67733809D01*
X117609523Y-67781428D01*
X117633333Y-67876666D01*
X117633333Y-67995714D01*
X117609523Y-68090952D01*
X117585714Y-68138571D01*
X117561904Y-68162380D01*
X117514285Y-68186190D01*
X117466666Y-68186190D01*
X117419047Y-68162380D01*
X117395238Y-68138571D01*
X117371428Y-68090952D01*
X117347619Y-67995714D01*
X117347619Y-67876666D01*
X117371428Y-67781428D01*
X117395238Y-67733809D01*
X117419047Y-67710000D01*
X117466666Y-67686190D01*
X140670000Y-72806190D02*
X140670000Y-72306190D01*
X141193809Y-72806190D02*
X141027142Y-72568095D01*
X140908095Y-72806190D02*
X140908095Y-72306190D01*
X141098571Y-72306190D01*
X141146190Y-72330000D01*
X141170000Y-72353809D01*
X141193809Y-72401428D01*
X141193809Y-72472857D01*
X141170000Y-72520476D01*
X141146190Y-72544285D01*
X141098571Y-72568095D01*
X140908095Y-72568095D01*
X140647619Y-69896190D02*
X140647619Y-69396190D01*
X141123809Y-69896190D02*
X140885714Y-69896190D01*
X140885714Y-69396190D01*
X139365238Y-64146190D02*
X139198571Y-63908095D01*
X139079523Y-64146190D02*
X139079523Y-63646190D01*
X139270000Y-63646190D01*
X139317619Y-63670000D01*
X139341428Y-63693809D01*
X139365238Y-63741428D01*
X139365238Y-63812857D01*
X139341428Y-63860476D01*
X139317619Y-63884285D01*
X139270000Y-63908095D01*
X139079523Y-63908095D01*
X139579523Y-63955714D02*
X139960476Y-63955714D01*
X139335238Y-62506190D02*
X139168571Y-62268095D01*
X139049523Y-62506190D02*
X139049523Y-62006190D01*
X139240000Y-62006190D01*
X139287619Y-62030000D01*
X139311428Y-62053809D01*
X139335238Y-62101428D01*
X139335238Y-62172857D01*
X139311428Y-62220476D01*
X139287619Y-62244285D01*
X139240000Y-62268095D01*
X139049523Y-62268095D01*
X139549523Y-62315714D02*
X139930476Y-62315714D01*
X139740000Y-62506190D02*
X139740000Y-62125238D01*
X139405238Y-65836190D02*
X139167142Y-65836190D01*
X139167142Y-65336190D01*
X139571904Y-65645714D02*
X139952857Y-65645714D01*
X139475238Y-67496190D02*
X139237142Y-67496190D01*
X139237142Y-66996190D01*
X139641904Y-67305714D02*
X140022857Y-67305714D01*
X139832380Y-67496190D02*
X139832380Y-67115238D01*
X114889523Y-65195714D02*
X115270476Y-65195714D01*
X114829523Y-63565714D02*
X115210476Y-63565714D01*
X115020000Y-63756190D02*
X115020000Y-63375238D01*
X120470952Y-59586190D02*
X120780476Y-59586190D01*
X120613809Y-59776666D01*
X120685238Y-59776666D01*
X120732857Y-59800476D01*
X120756666Y-59824285D01*
X120780476Y-59871904D01*
X120780476Y-59990952D01*
X120756666Y-60038571D01*
X120732857Y-60062380D01*
X120685238Y-60086190D01*
X120542380Y-60086190D01*
X120494761Y-60062380D01*
X120470952Y-60038571D01*
X120923333Y-59586190D02*
X121090000Y-60086190D01*
X121256666Y-59586190D01*
X121375714Y-59586190D02*
X121685238Y-59586190D01*
X121518571Y-59776666D01*
X121590000Y-59776666D01*
X121637619Y-59800476D01*
X121661428Y-59824285D01*
X121685238Y-59871904D01*
X121685238Y-59990952D01*
X121661428Y-60038571D01*
X121637619Y-60062380D01*
X121590000Y-60086190D01*
X121447142Y-60086190D01*
X121399523Y-60062380D01*
X121375714Y-60038571D01*
X118505714Y-60056190D02*
X118505714Y-59556190D01*
X118672380Y-59556190D02*
X118839047Y-60056190D01*
X119005714Y-59556190D01*
X119172380Y-60056190D02*
X119172380Y-59556190D01*
X119291428Y-59556190D01*
X119362857Y-59580000D01*
X119410476Y-59627619D01*
X119434285Y-59675238D01*
X119458095Y-59770476D01*
X119458095Y-59841904D01*
X119434285Y-59937142D01*
X119410476Y-59984761D01*
X119362857Y-60032380D01*
X119291428Y-60056190D01*
X119172380Y-60056190D01*
X119672380Y-60056190D02*
X119672380Y-59556190D01*
X119791428Y-59556190D01*
X119862857Y-59580000D01*
X119910476Y-59627619D01*
X119934285Y-59675238D01*
X119958095Y-59770476D01*
X119958095Y-59841904D01*
X119934285Y-59937142D01*
X119910476Y-59984761D01*
X119862857Y-60032380D01*
X119791428Y-60056190D01*
X119672380Y-60056190D01*
X117760952Y-59560000D02*
X117713333Y-59536190D01*
X117641904Y-59536190D01*
X117570476Y-59560000D01*
X117522857Y-59607619D01*
X117499047Y-59655238D01*
X117475238Y-59750476D01*
X117475238Y-59821904D01*
X117499047Y-59917142D01*
X117522857Y-59964761D01*
X117570476Y-60012380D01*
X117641904Y-60036190D01*
X117689523Y-60036190D01*
X117760952Y-60012380D01*
X117784761Y-59988571D01*
X117784761Y-59821904D01*
X117689523Y-59821904D01*
X134547142Y-59026190D02*
X134547142Y-58526190D01*
X134547142Y-58764285D02*
X134832857Y-58764285D01*
X134832857Y-59026190D02*
X134832857Y-58526190D01*
X135332857Y-58550000D02*
X135285238Y-58526190D01*
X135213809Y-58526190D01*
X135142380Y-58550000D01*
X135094761Y-58597619D01*
X135070952Y-58645238D01*
X135047142Y-58740476D01*
X135047142Y-58811904D01*
X135070952Y-58907142D01*
X135094761Y-58954761D01*
X135142380Y-59002380D01*
X135213809Y-59026190D01*
X135261428Y-59026190D01*
X135332857Y-59002380D01*
X135356666Y-58978571D01*
X135356666Y-58811904D01*
X135261428Y-58811904D01*
X133117142Y-59022380D02*
X133188571Y-59046190D01*
X133307619Y-59046190D01*
X133355238Y-59022380D01*
X133379047Y-58998571D01*
X133402857Y-58950952D01*
X133402857Y-58903333D01*
X133379047Y-58855714D01*
X133355238Y-58831904D01*
X133307619Y-58808095D01*
X133212380Y-58784285D01*
X133164761Y-58760476D01*
X133140952Y-58736666D01*
X133117142Y-58689047D01*
X133117142Y-58641428D01*
X133140952Y-58593809D01*
X133164761Y-58570000D01*
X133212380Y-58546190D01*
X133331428Y-58546190D01*
X133402857Y-58570000D01*
X131157142Y-59036190D02*
X131157142Y-58536190D01*
X131157142Y-58774285D02*
X131442857Y-58774285D01*
X131442857Y-59036190D02*
X131442857Y-58536190D01*
X131966666Y-59036190D02*
X131800000Y-58798095D01*
X131680952Y-59036190D02*
X131680952Y-58536190D01*
X131871428Y-58536190D01*
X131919047Y-58560000D01*
X131942857Y-58583809D01*
X131966666Y-58631428D01*
X131966666Y-58702857D01*
X131942857Y-58750476D01*
X131919047Y-58774285D01*
X131871428Y-58798095D01*
X131680952Y-58798095D01*
X129624761Y-59026190D02*
X129624761Y-58526190D01*
X129624761Y-58764285D02*
X129910476Y-58764285D01*
X129910476Y-59026190D02*
X129910476Y-58526190D01*
X130386666Y-59026190D02*
X130148571Y-59026190D01*
X130148571Y-58526190D01*
X134647619Y-60768690D02*
X134647619Y-61173452D01*
X134671428Y-61221071D01*
X134695238Y-61244880D01*
X134742857Y-61268690D01*
X134838095Y-61268690D01*
X134885714Y-61244880D01*
X134909523Y-61221071D01*
X134933333Y-61173452D01*
X134933333Y-60768690D01*
X135171428Y-61078214D02*
X135552380Y-61078214D01*
X135766666Y-61125833D02*
X136004761Y-61125833D01*
X135719047Y-61268690D02*
X135885714Y-60768690D01*
X136052380Y-61268690D01*
X136219047Y-61268690D02*
X136219047Y-60768690D01*
X136385714Y-61125833D01*
X136552380Y-60768690D01*
X136552380Y-61268690D01*
X136790476Y-61268690D02*
X136790476Y-60768690D01*
X136980952Y-60768690D01*
X137028571Y-60792500D01*
X137052380Y-60816309D01*
X137076190Y-60863928D01*
X137076190Y-60935357D01*
X137052380Y-60982976D01*
X137028571Y-61006785D01*
X136980952Y-61030595D01*
X136790476Y-61030595D01*
X133933333Y-62143690D02*
X133933333Y-61643690D01*
X133933333Y-61834166D02*
X133980952Y-61810357D01*
X134076190Y-61810357D01*
X134123809Y-61834166D01*
X134147619Y-61857976D01*
X134171428Y-61905595D01*
X134171428Y-62048452D01*
X134147619Y-62096071D01*
X134123809Y-62119880D01*
X134076190Y-62143690D01*
X133980952Y-62143690D01*
X133933333Y-62119880D01*
X134385714Y-62143690D02*
X134385714Y-61810357D01*
X134385714Y-61643690D02*
X134361904Y-61667500D01*
X134385714Y-61691309D01*
X134409523Y-61667500D01*
X134385714Y-61643690D01*
X134385714Y-61691309D01*
X134552380Y-61810357D02*
X134742857Y-61810357D01*
X134623809Y-61643690D02*
X134623809Y-62072261D01*
X134647619Y-62119880D01*
X134695238Y-62143690D01*
X134742857Y-62143690D01*
X134909523Y-62143690D02*
X134909523Y-61643690D01*
X134909523Y-61834166D02*
X134957142Y-61810357D01*
X135052380Y-61810357D01*
X135100000Y-61834166D01*
X135123809Y-61857976D01*
X135147619Y-61905595D01*
X135147619Y-62048452D01*
X135123809Y-62096071D01*
X135100000Y-62119880D01*
X135052380Y-62143690D01*
X134957142Y-62143690D01*
X134909523Y-62119880D01*
X135576190Y-61810357D02*
X135576190Y-62143690D01*
X135361904Y-61810357D02*
X135361904Y-62072261D01*
X135385714Y-62119880D01*
X135433333Y-62143690D01*
X135504761Y-62143690D01*
X135552380Y-62119880D01*
X135576190Y-62096071D01*
X135814285Y-62143690D02*
X135814285Y-61810357D01*
X135814285Y-61643690D02*
X135790476Y-61667500D01*
X135814285Y-61691309D01*
X135838095Y-61667500D01*
X135814285Y-61643690D01*
X135814285Y-61691309D01*
X136123809Y-62143690D02*
X136076190Y-62119880D01*
X136052380Y-62072261D01*
X136052380Y-61643690D01*
X136242857Y-61810357D02*
X136433333Y-61810357D01*
X136314285Y-61643690D02*
X136314285Y-62072261D01*
X136338095Y-62119880D01*
X136385714Y-62143690D01*
X136433333Y-62143690D01*
X136600000Y-62096071D02*
X136623809Y-62119880D01*
X136600000Y-62143690D01*
X136576190Y-62119880D01*
X136600000Y-62096071D01*
X136600000Y-62143690D01*
X136838095Y-61810357D02*
X136838095Y-62143690D01*
X136838095Y-61857976D02*
X136861904Y-61834166D01*
X136909523Y-61810357D01*
X136980952Y-61810357D01*
X137028571Y-61834166D01*
X137052380Y-61881785D01*
X137052380Y-62143690D01*
X137480952Y-62119880D02*
X137433333Y-62143690D01*
X137338095Y-62143690D01*
X137290476Y-62119880D01*
X137266666Y-62072261D01*
X137266666Y-61881785D01*
X137290476Y-61834166D01*
X137338095Y-61810357D01*
X137433333Y-61810357D01*
X137480952Y-61834166D01*
X137504761Y-61881785D01*
X137504761Y-61929404D01*
X137266666Y-61977023D01*
X137647619Y-61810357D02*
X137838095Y-61810357D01*
X137719047Y-61643690D02*
X137719047Y-62072261D01*
X137742857Y-62119880D01*
X137790476Y-62143690D01*
X137838095Y-62143690D01*
D11*
X126820000Y-64987221D02*
X126820000Y-65312779D01*
X125800000Y-64987221D02*
X125800000Y-65312779D01*
X120942779Y-66110000D02*
X120617221Y-66110000D01*
X120942779Y-65090000D02*
X120617221Y-65090000D01*
X126840000Y-61684721D02*
X126840000Y-62010279D01*
X127860000Y-61684721D02*
X127860000Y-62010279D01*
X129460000Y-73874721D02*
X129460000Y-74200279D01*
X128440000Y-73874721D02*
X128440000Y-74200279D01*
X128540000Y-61684721D02*
X128540000Y-62010279D01*
X129560000Y-61684721D02*
X129560000Y-62010279D01*
X131600000Y-61684721D02*
X131600000Y-62010279D01*
X130580000Y-61684721D02*
X130580000Y-62010279D01*
X130440000Y-73874721D02*
X130440000Y-74200279D01*
X131460000Y-73874721D02*
X131460000Y-74200279D01*
X136050000Y-65139721D02*
X136050000Y-65465279D01*
X135030000Y-65139721D02*
X135030000Y-65465279D01*
X135200000Y-70514721D02*
X135200000Y-70840279D01*
X136220000Y-70514721D02*
X136220000Y-70840279D01*
X134315279Y-72450000D02*
X133989721Y-72450000D01*
X134315279Y-73470000D02*
X133989721Y-73470000D01*
X134315279Y-75090000D02*
X133989721Y-75090000D01*
X134315279Y-74070000D02*
X133989721Y-74070000D01*
X115990000Y-62104721D02*
X115990000Y-62430279D01*
X117010000Y-62104721D02*
X117010000Y-62430279D01*
X122940000Y-62114721D02*
X122940000Y-62440279D01*
X121920000Y-62114721D02*
X121920000Y-62440279D01*
X115900000Y-68530000D02*
X114500000Y-68530000D01*
X113800000Y-67830000D02*
X113800000Y-67230000D01*
X114500000Y-66530000D02*
X115900000Y-66530000D01*
X116600000Y-67230000D02*
X116600000Y-67830000D01*
X116600000Y-67830000D02*
G75*
G02X115900000Y-68530000I-700000J0D01*
G01*
X115900000Y-66530000D02*
G75*
G02X116600000Y-67230000I0J-700000D01*
G01*
X113800000Y-67230000D02*
G75*
G02X114500000Y-66530000I700000J0D01*
G01*
X114500000Y-68530000D02*
G75*
G02X113800000Y-67830000I0J700000D01*
G01*
X114500000Y-71020000D02*
G75*
G02X113800000Y-70320000I0J700000D01*
G01*
X113800000Y-69720000D02*
G75*
G02X114500000Y-69020000I700000J0D01*
G01*
X115900000Y-69020000D02*
G75*
G02X116600000Y-69720000I0J-700000D01*
G01*
X116600000Y-70320000D02*
G75*
G02X115900000Y-71020000I-700000J0D01*
G01*
X116600000Y-69720000D02*
X116600000Y-70320000D01*
X114500000Y-69020000D02*
X115900000Y-69020000D01*
X113800000Y-70320000D02*
X113800000Y-69720000D01*
X115900000Y-71020000D02*
X114500000Y-71020000D01*
X124135000Y-75340000D02*
X124135000Y-74537530D01*
X124135000Y-73922470D02*
X124135000Y-73120000D01*
X119120000Y-75340000D02*
X124135000Y-75340000D01*
X119120000Y-73120000D02*
X124135000Y-73120000D01*
X119120000Y-75340000D02*
X119120000Y-74793471D01*
X119120000Y-73666529D02*
X119120000Y-73120000D01*
X118360000Y-75340000D02*
X117600000Y-75340000D01*
X117600000Y-75340000D02*
X117600000Y-74230000D01*
X126100000Y-73602779D02*
X126100000Y-73277221D01*
X125080000Y-73602779D02*
X125080000Y-73277221D01*
X127740000Y-73287221D02*
X127740000Y-73612779D01*
X126720000Y-73287221D02*
X126720000Y-73612779D01*
X137970000Y-71130279D02*
X137970000Y-70804721D01*
X136950000Y-71130279D02*
X136950000Y-70804721D01*
X137970000Y-73914721D02*
X137970000Y-74240279D01*
X136950000Y-73914721D02*
X136950000Y-74240279D01*
X139570000Y-70814721D02*
X139570000Y-71140279D01*
X138550000Y-70814721D02*
X138550000Y-71140279D01*
X139560000Y-74260279D02*
X139560000Y-73934721D01*
X138540000Y-74260279D02*
X138540000Y-73934721D01*
X122145000Y-67210000D02*
X122870000Y-67210000D01*
X122870000Y-67210000D02*
X122870000Y-67935000D01*
X119375000Y-71430000D02*
X118650000Y-71430000D01*
X118650000Y-71430000D02*
X118650000Y-70705000D01*
X122145000Y-71430000D02*
X122870000Y-71430000D01*
X122870000Y-71430000D02*
X122870000Y-70705000D01*
X119375000Y-67210000D02*
X118650000Y-67210000D01*
X132995000Y-65330000D02*
X133470000Y-65330000D01*
X133470000Y-65330000D02*
X133470000Y-65805000D01*
X128725000Y-70550000D02*
X128250000Y-70550000D01*
X128250000Y-70550000D02*
X128250000Y-70075000D01*
X132995000Y-70550000D02*
X133470000Y-70550000D01*
X133470000Y-70550000D02*
X133470000Y-70075000D01*
X128725000Y-65330000D02*
X128250000Y-65330000D01*
X118590000Y-63870000D02*
X120390000Y-63870000D01*
X120390000Y-60650000D02*
X117940000Y-60650000D01*
D10*
X125168571Y-65203333D02*
X125192380Y-65227142D01*
X125216190Y-65298571D01*
X125216190Y-65346190D01*
X125192380Y-65417619D01*
X125144761Y-65465238D01*
X125097142Y-65489047D01*
X125001904Y-65512857D01*
X124930476Y-65512857D01*
X124835238Y-65489047D01*
X124787619Y-65465238D01*
X124740000Y-65417619D01*
X124716190Y-65346190D01*
X124716190Y-65298571D01*
X124740000Y-65227142D01*
X124763809Y-65203333D01*
X124763809Y-65012857D02*
X124740000Y-64989047D01*
X124716190Y-64941428D01*
X124716190Y-64822380D01*
X124740000Y-64774761D01*
X124763809Y-64750952D01*
X124811428Y-64727142D01*
X124859047Y-64727142D01*
X124930476Y-64750952D01*
X125216190Y-65036666D01*
X125216190Y-64727142D01*
X122716666Y-65003571D02*
X122692857Y-65027380D01*
X122621428Y-65051190D01*
X122573809Y-65051190D01*
X122502380Y-65027380D01*
X122454761Y-64979761D01*
X122430952Y-64932142D01*
X122407142Y-64836904D01*
X122407142Y-64765476D01*
X122430952Y-64670238D01*
X122454761Y-64622619D01*
X122502380Y-64575000D01*
X122573809Y-64551190D01*
X122621428Y-64551190D01*
X122692857Y-64575000D01*
X122716666Y-64598809D01*
X123192857Y-65051190D02*
X122907142Y-65051190D01*
X123050000Y-65051190D02*
X123050000Y-64551190D01*
X123002380Y-64622619D01*
X122954761Y-64670238D01*
X122907142Y-64694047D01*
X126428571Y-61903333D02*
X126452380Y-61927142D01*
X126476190Y-61998571D01*
X126476190Y-62046190D01*
X126452380Y-62117619D01*
X126404761Y-62165238D01*
X126357142Y-62189047D01*
X126261904Y-62212857D01*
X126190476Y-62212857D01*
X126095238Y-62189047D01*
X126047619Y-62165238D01*
X126000000Y-62117619D01*
X125976190Y-62046190D01*
X125976190Y-61998571D01*
X126000000Y-61927142D01*
X126023809Y-61903333D01*
X125976190Y-61736666D02*
X125976190Y-61427142D01*
X126166666Y-61593809D01*
X126166666Y-61522380D01*
X126190476Y-61474761D01*
X126214285Y-61450952D01*
X126261904Y-61427142D01*
X126380952Y-61427142D01*
X126428571Y-61450952D01*
X126452380Y-61474761D01*
X126476190Y-61522380D01*
X126476190Y-61665238D01*
X126452380Y-61712857D01*
X126428571Y-61736666D01*
X128306666Y-71688571D02*
X128282857Y-71712380D01*
X128211428Y-71736190D01*
X128163809Y-71736190D01*
X128092380Y-71712380D01*
X128044761Y-71664761D01*
X128020952Y-71617142D01*
X127997142Y-71521904D01*
X127997142Y-71450476D01*
X128020952Y-71355238D01*
X128044761Y-71307619D01*
X128092380Y-71260000D01*
X128163809Y-71236190D01*
X128211428Y-71236190D01*
X128282857Y-71260000D01*
X128306666Y-71283809D01*
X128735238Y-71402857D02*
X128735238Y-71736190D01*
X128616190Y-71212380D02*
X128497142Y-71569523D01*
X128806666Y-71569523D01*
X129108571Y-63983333D02*
X129132380Y-64007142D01*
X129156190Y-64078571D01*
X129156190Y-64126190D01*
X129132380Y-64197619D01*
X129084761Y-64245238D01*
X129037142Y-64269047D01*
X128941904Y-64292857D01*
X128870476Y-64292857D01*
X128775238Y-64269047D01*
X128727619Y-64245238D01*
X128680000Y-64197619D01*
X128656190Y-64126190D01*
X128656190Y-64078571D01*
X128680000Y-64007142D01*
X128703809Y-63983333D01*
X128656190Y-63530952D02*
X128656190Y-63769047D01*
X128894285Y-63792857D01*
X128870476Y-63769047D01*
X128846666Y-63721428D01*
X128846666Y-63602380D01*
X128870476Y-63554761D01*
X128894285Y-63530952D01*
X128941904Y-63507142D01*
X129060952Y-63507142D01*
X129108571Y-63530952D01*
X129132380Y-63554761D01*
X129156190Y-63602380D01*
X129156190Y-63721428D01*
X129132380Y-63769047D01*
X129108571Y-63792857D01*
X130568571Y-63983333D02*
X130592380Y-64007142D01*
X130616190Y-64078571D01*
X130616190Y-64126190D01*
X130592380Y-64197619D01*
X130544761Y-64245238D01*
X130497142Y-64269047D01*
X130401904Y-64292857D01*
X130330476Y-64292857D01*
X130235238Y-64269047D01*
X130187619Y-64245238D01*
X130140000Y-64197619D01*
X130116190Y-64126190D01*
X130116190Y-64078571D01*
X130140000Y-64007142D01*
X130163809Y-63983333D01*
X130116190Y-63554761D02*
X130116190Y-63650000D01*
X130140000Y-63697619D01*
X130163809Y-63721428D01*
X130235238Y-63769047D01*
X130330476Y-63792857D01*
X130520952Y-63792857D01*
X130568571Y-63769047D01*
X130592380Y-63745238D01*
X130616190Y-63697619D01*
X130616190Y-63602380D01*
X130592380Y-63554761D01*
X130568571Y-63530952D01*
X130520952Y-63507142D01*
X130401904Y-63507142D01*
X130354285Y-63530952D01*
X130330476Y-63554761D01*
X130306666Y-63602380D01*
X130306666Y-63697619D01*
X130330476Y-63745238D01*
X130354285Y-63769047D01*
X130401904Y-63792857D01*
X131216666Y-72278571D02*
X131192857Y-72302380D01*
X131121428Y-72326190D01*
X131073809Y-72326190D01*
X131002380Y-72302380D01*
X130954761Y-72254761D01*
X130930952Y-72207142D01*
X130907142Y-72111904D01*
X130907142Y-72040476D01*
X130930952Y-71945238D01*
X130954761Y-71897619D01*
X131002380Y-71850000D01*
X131073809Y-71826190D01*
X131121428Y-71826190D01*
X131192857Y-71850000D01*
X131216666Y-71873809D01*
X131383333Y-71826190D02*
X131716666Y-71826190D01*
X131502380Y-72326190D01*
X137028571Y-65263333D02*
X137052380Y-65287142D01*
X137076190Y-65358571D01*
X137076190Y-65406190D01*
X137052380Y-65477619D01*
X137004761Y-65525238D01*
X136957142Y-65549047D01*
X136861904Y-65572857D01*
X136790476Y-65572857D01*
X136695238Y-65549047D01*
X136647619Y-65525238D01*
X136600000Y-65477619D01*
X136576190Y-65406190D01*
X136576190Y-65358571D01*
X136600000Y-65287142D01*
X136623809Y-65263333D01*
X136790476Y-64977619D02*
X136766666Y-65025238D01*
X136742857Y-65049047D01*
X136695238Y-65072857D01*
X136671428Y-65072857D01*
X136623809Y-65049047D01*
X136600000Y-65025238D01*
X136576190Y-64977619D01*
X136576190Y-64882380D01*
X136600000Y-64834761D01*
X136623809Y-64810952D01*
X136671428Y-64787142D01*
X136695238Y-64787142D01*
X136742857Y-64810952D01*
X136766666Y-64834761D01*
X136790476Y-64882380D01*
X136790476Y-64977619D01*
X136814285Y-65025238D01*
X136838095Y-65049047D01*
X136885714Y-65072857D01*
X136980952Y-65072857D01*
X137028571Y-65049047D01*
X137052380Y-65025238D01*
X137076190Y-64977619D01*
X137076190Y-64882380D01*
X137052380Y-64834761D01*
X137028571Y-64810952D01*
X136980952Y-64787142D01*
X136885714Y-64787142D01*
X136838095Y-64810952D01*
X136814285Y-64834761D01*
X136790476Y-64882380D01*
X135918571Y-68713333D02*
X135942380Y-68737142D01*
X135966190Y-68808571D01*
X135966190Y-68856190D01*
X135942380Y-68927619D01*
X135894761Y-68975238D01*
X135847142Y-68999047D01*
X135751904Y-69022857D01*
X135680476Y-69022857D01*
X135585238Y-68999047D01*
X135537619Y-68975238D01*
X135490000Y-68927619D01*
X135466190Y-68856190D01*
X135466190Y-68808571D01*
X135490000Y-68737142D01*
X135513809Y-68713333D01*
X135966190Y-68475238D02*
X135966190Y-68380000D01*
X135942380Y-68332380D01*
X135918571Y-68308571D01*
X135847142Y-68260952D01*
X135751904Y-68237142D01*
X135561428Y-68237142D01*
X135513809Y-68260952D01*
X135490000Y-68284761D01*
X135466190Y-68332380D01*
X135466190Y-68427619D01*
X135490000Y-68475238D01*
X135513809Y-68499047D01*
X135561428Y-68522857D01*
X135680476Y-68522857D01*
X135728095Y-68499047D01*
X135751904Y-68475238D01*
X135775714Y-68427619D01*
X135775714Y-68332380D01*
X135751904Y-68284761D01*
X135728095Y-68260952D01*
X135680476Y-68237142D01*
X132458571Y-72471428D02*
X132482380Y-72495238D01*
X132506190Y-72566666D01*
X132506190Y-72614285D01*
X132482380Y-72685714D01*
X132434761Y-72733333D01*
X132387142Y-72757142D01*
X132291904Y-72780952D01*
X132220476Y-72780952D01*
X132125238Y-72757142D01*
X132077619Y-72733333D01*
X132030000Y-72685714D01*
X132006190Y-72614285D01*
X132006190Y-72566666D01*
X132030000Y-72495238D01*
X132053809Y-72471428D01*
X132506190Y-71995238D02*
X132506190Y-72280952D01*
X132506190Y-72138095D02*
X132006190Y-72138095D01*
X132077619Y-72185714D01*
X132125238Y-72233333D01*
X132149047Y-72280952D01*
X132006190Y-71685714D02*
X132006190Y-71638095D01*
X132030000Y-71590476D01*
X132053809Y-71566666D01*
X132101428Y-71542857D01*
X132196666Y-71519047D01*
X132315714Y-71519047D01*
X132410952Y-71542857D01*
X132458571Y-71566666D01*
X132482380Y-71590476D01*
X132506190Y-71638095D01*
X132506190Y-71685714D01*
X132482380Y-71733333D01*
X132458571Y-71757142D01*
X132410952Y-71780952D01*
X132315714Y-71804761D01*
X132196666Y-71804761D01*
X132101428Y-71780952D01*
X132053809Y-71757142D01*
X132030000Y-71733333D01*
X132006190Y-71685714D01*
X132448571Y-74001428D02*
X132472380Y-74025238D01*
X132496190Y-74096666D01*
X132496190Y-74144285D01*
X132472380Y-74215714D01*
X132424761Y-74263333D01*
X132377142Y-74287142D01*
X132281904Y-74310952D01*
X132210476Y-74310952D01*
X132115238Y-74287142D01*
X132067619Y-74263333D01*
X132020000Y-74215714D01*
X131996190Y-74144285D01*
X131996190Y-74096666D01*
X132020000Y-74025238D01*
X132043809Y-74001428D01*
X132496190Y-73525238D02*
X132496190Y-73810952D01*
X132496190Y-73668095D02*
X131996190Y-73668095D01*
X132067619Y-73715714D01*
X132115238Y-73763333D01*
X132139047Y-73810952D01*
X132496190Y-73049047D02*
X132496190Y-73334761D01*
X132496190Y-73191904D02*
X131996190Y-73191904D01*
X132067619Y-73239523D01*
X132115238Y-73287142D01*
X132139047Y-73334761D01*
X115508571Y-62281428D02*
X115532380Y-62305238D01*
X115556190Y-62376666D01*
X115556190Y-62424285D01*
X115532380Y-62495714D01*
X115484761Y-62543333D01*
X115437142Y-62567142D01*
X115341904Y-62590952D01*
X115270476Y-62590952D01*
X115175238Y-62567142D01*
X115127619Y-62543333D01*
X115080000Y-62495714D01*
X115056190Y-62424285D01*
X115056190Y-62376666D01*
X115080000Y-62305238D01*
X115103809Y-62281428D01*
X115556190Y-61805238D02*
X115556190Y-62090952D01*
X115556190Y-61948095D02*
X115056190Y-61948095D01*
X115127619Y-61995714D01*
X115175238Y-62043333D01*
X115199047Y-62090952D01*
X115103809Y-61614761D02*
X115080000Y-61590952D01*
X115056190Y-61543333D01*
X115056190Y-61424285D01*
X115080000Y-61376666D01*
X115103809Y-61352857D01*
X115151428Y-61329047D01*
X115199047Y-61329047D01*
X115270476Y-61352857D01*
X115556190Y-61638571D01*
X115556190Y-61329047D01*
X123818571Y-62131428D02*
X123842380Y-62155238D01*
X123866190Y-62226666D01*
X123866190Y-62274285D01*
X123842380Y-62345714D01*
X123794761Y-62393333D01*
X123747142Y-62417142D01*
X123651904Y-62440952D01*
X123580476Y-62440952D01*
X123485238Y-62417142D01*
X123437619Y-62393333D01*
X123390000Y-62345714D01*
X123366190Y-62274285D01*
X123366190Y-62226666D01*
X123390000Y-62155238D01*
X123413809Y-62131428D01*
X123866190Y-61655238D02*
X123866190Y-61940952D01*
X123866190Y-61798095D02*
X123366190Y-61798095D01*
X123437619Y-61845714D01*
X123485238Y-61893333D01*
X123509047Y-61940952D01*
X123366190Y-61488571D02*
X123366190Y-61179047D01*
X123556666Y-61345714D01*
X123556666Y-61274285D01*
X123580476Y-61226666D01*
X123604285Y-61202857D01*
X123651904Y-61179047D01*
X123770952Y-61179047D01*
X123818571Y-61202857D01*
X123842380Y-61226666D01*
X123866190Y-61274285D01*
X123866190Y-61417142D01*
X123842380Y-61464761D01*
X123818571Y-61488571D01*
X125846190Y-71493333D02*
X125608095Y-71660000D01*
X125846190Y-71779047D02*
X125346190Y-71779047D01*
X125346190Y-71588571D01*
X125370000Y-71540952D01*
X125393809Y-71517142D01*
X125441428Y-71493333D01*
X125512857Y-71493333D01*
X125560476Y-71517142D01*
X125584285Y-71540952D01*
X125608095Y-71588571D01*
X125608095Y-71779047D01*
X125846190Y-71017142D02*
X125846190Y-71302857D01*
X125846190Y-71160000D02*
X125346190Y-71160000D01*
X125417619Y-71207619D01*
X125465238Y-71255238D01*
X125489047Y-71302857D01*
X126796190Y-71553333D02*
X126558095Y-71720000D01*
X126796190Y-71839047D02*
X126296190Y-71839047D01*
X126296190Y-71648571D01*
X126320000Y-71600952D01*
X126343809Y-71577142D01*
X126391428Y-71553333D01*
X126462857Y-71553333D01*
X126510476Y-71577142D01*
X126534285Y-71600952D01*
X126558095Y-71648571D01*
X126558095Y-71839047D01*
X126343809Y-71362857D02*
X126320000Y-71339047D01*
X126296190Y-71291428D01*
X126296190Y-71172380D01*
X126320000Y-71124761D01*
X126343809Y-71100952D01*
X126391428Y-71077142D01*
X126439047Y-71077142D01*
X126510476Y-71100952D01*
X126796190Y-71386666D01*
X126796190Y-71077142D01*
X137736190Y-69043333D02*
X137498095Y-69210000D01*
X137736190Y-69329047D02*
X137236190Y-69329047D01*
X137236190Y-69138571D01*
X137260000Y-69090952D01*
X137283809Y-69067142D01*
X137331428Y-69043333D01*
X137402857Y-69043333D01*
X137450476Y-69067142D01*
X137474285Y-69090952D01*
X137498095Y-69138571D01*
X137498095Y-69329047D01*
X137236190Y-68876666D02*
X137236190Y-68567142D01*
X137426666Y-68733809D01*
X137426666Y-68662380D01*
X137450476Y-68614761D01*
X137474285Y-68590952D01*
X137521904Y-68567142D01*
X137640952Y-68567142D01*
X137688571Y-68590952D01*
X137712380Y-68614761D01*
X137736190Y-68662380D01*
X137736190Y-68805238D01*
X137712380Y-68852857D01*
X137688571Y-68876666D01*
X136576190Y-73413333D02*
X136338095Y-73580000D01*
X136576190Y-73699047D02*
X136076190Y-73699047D01*
X136076190Y-73508571D01*
X136100000Y-73460952D01*
X136123809Y-73437142D01*
X136171428Y-73413333D01*
X136242857Y-73413333D01*
X136290476Y-73437142D01*
X136314285Y-73460952D01*
X136338095Y-73508571D01*
X136338095Y-73699047D01*
X136242857Y-72984761D02*
X136576190Y-72984761D01*
X136052380Y-73103809D02*
X136409523Y-73222857D01*
X136409523Y-72913333D01*
X139306190Y-69063333D02*
X139068095Y-69230000D01*
X139306190Y-69349047D02*
X138806190Y-69349047D01*
X138806190Y-69158571D01*
X138830000Y-69110952D01*
X138853809Y-69087142D01*
X138901428Y-69063333D01*
X138972857Y-69063333D01*
X139020476Y-69087142D01*
X139044285Y-69110952D01*
X139068095Y-69158571D01*
X139068095Y-69349047D01*
X138806190Y-68610952D02*
X138806190Y-68849047D01*
X139044285Y-68872857D01*
X139020476Y-68849047D01*
X138996666Y-68801428D01*
X138996666Y-68682380D01*
X139020476Y-68634761D01*
X139044285Y-68610952D01*
X139091904Y-68587142D01*
X139210952Y-68587142D01*
X139258571Y-68610952D01*
X139282380Y-68634761D01*
X139306190Y-68682380D01*
X139306190Y-68801428D01*
X139282380Y-68849047D01*
X139258571Y-68872857D01*
X140476190Y-75063333D02*
X140238095Y-75230000D01*
X140476190Y-75349047D02*
X139976190Y-75349047D01*
X139976190Y-75158571D01*
X140000000Y-75110952D01*
X140023809Y-75087142D01*
X140071428Y-75063333D01*
X140142857Y-75063333D01*
X140190476Y-75087142D01*
X140214285Y-75110952D01*
X140238095Y-75158571D01*
X140238095Y-75349047D01*
X139976190Y-74634761D02*
X139976190Y-74730000D01*
X140000000Y-74777619D01*
X140023809Y-74801428D01*
X140095238Y-74849047D01*
X140190476Y-74872857D01*
X140380952Y-74872857D01*
X140428571Y-74849047D01*
X140452380Y-74825238D01*
X140476190Y-74777619D01*
X140476190Y-74682380D01*
X140452380Y-74634761D01*
X140428571Y-74610952D01*
X140380952Y-74587142D01*
X140261904Y-74587142D01*
X140214285Y-74610952D01*
X140190476Y-74634761D01*
X140166666Y-74682380D01*
X140166666Y-74777619D01*
X140190476Y-74825238D01*
X140214285Y-74849047D01*
X140261904Y-74872857D01*
X123079047Y-66596190D02*
X123079047Y-67000952D01*
X123102857Y-67048571D01*
X123126666Y-67072380D01*
X123174285Y-67096190D01*
X123269523Y-67096190D01*
X123317142Y-67072380D01*
X123340952Y-67048571D01*
X123364761Y-67000952D01*
X123364761Y-66596190D01*
X123864761Y-67096190D02*
X123579047Y-67096190D01*
X123721904Y-67096190D02*
X123721904Y-66596190D01*
X123674285Y-66667619D01*
X123626666Y-66715238D01*
X123579047Y-66739047D01*
X131689047Y-64106190D02*
X131689047Y-64510952D01*
X131712857Y-64558571D01*
X131736666Y-64582380D01*
X131784285Y-64606190D01*
X131879523Y-64606190D01*
X131927142Y-64582380D01*
X131950952Y-64558571D01*
X131974761Y-64510952D01*
X131974761Y-64106190D01*
X132189047Y-64153809D02*
X132212857Y-64130000D01*
X132260476Y-64106190D01*
X132379523Y-64106190D01*
X132427142Y-64130000D01*
X132450952Y-64153809D01*
X132474761Y-64201428D01*
X132474761Y-64249047D01*
X132450952Y-64320476D01*
X132165238Y-64606190D01*
X132474761Y-64606190D01*
X119129047Y-64186190D02*
X119129047Y-64590952D01*
X119152857Y-64638571D01*
X119176666Y-64662380D01*
X119224285Y-64686190D01*
X119319523Y-64686190D01*
X119367142Y-64662380D01*
X119390952Y-64638571D01*
X119414761Y-64590952D01*
X119414761Y-64186190D01*
X119605238Y-64186190D02*
X119914761Y-64186190D01*
X119748095Y-64376666D01*
X119819523Y-64376666D01*
X119867142Y-64400476D01*
X119890952Y-64424285D01*
X119914761Y-64471904D01*
X119914761Y-64590952D01*
X119890952Y-64638571D01*
X119867142Y-64662380D01*
X119819523Y-64686190D01*
X119676666Y-64686190D01*
X119629047Y-64662380D01*
X119605238Y-64638571D01*
M02*
