G04 #@! TF.GenerationSoftware,KiCad,Pcbnew,(5.1.4)-1*
G04 #@! TF.CreationDate,2019-11-10T16:51:08-05:00*
G04 #@! TF.ProjectId,UniAmp,556e6941-6d70-42e6-9b69-6361645f7063,rev?*
G04 #@! TF.SameCoordinates,Original*
G04 #@! TF.FileFunction,Soldermask,Bot*
G04 #@! TF.FilePolarity,Negative*
%FSLAX46Y46*%
G04 Gerber Fmt 4.6, Leading zero omitted, Abs format (unit mm)*
G04 Created by KiCad (PCBNEW (5.1.4)-1) date 2019-11-10 16:51:08*
%MOMM*%
%LPD*%
G04 APERTURE LIST*
%ADD10C,0.100000*%
G04 APERTURE END LIST*
D10*
G36*
X115524549Y-72531116D02*
G01*
X115635734Y-72553232D01*
X115845203Y-72639997D01*
X116033720Y-72765960D01*
X116194040Y-72926280D01*
X116320003Y-73114797D01*
X116406768Y-73324266D01*
X116451000Y-73546636D01*
X116451000Y-73773364D01*
X116406768Y-73995734D01*
X116320003Y-74205203D01*
X116194040Y-74393720D01*
X116033720Y-74554040D01*
X115845203Y-74680003D01*
X115845202Y-74680004D01*
X115845201Y-74680004D01*
X115783850Y-74705416D01*
X115635734Y-74766768D01*
X115524549Y-74788884D01*
X115413365Y-74811000D01*
X115186635Y-74811000D01*
X115075451Y-74788884D01*
X114964266Y-74766768D01*
X114816150Y-74705416D01*
X114754799Y-74680004D01*
X114754798Y-74680004D01*
X114754797Y-74680003D01*
X114566280Y-74554040D01*
X114405960Y-74393720D01*
X114279997Y-74205203D01*
X114193232Y-73995734D01*
X114149000Y-73773364D01*
X114149000Y-73546636D01*
X114193232Y-73324266D01*
X114279997Y-73114797D01*
X114405960Y-72926280D01*
X114566280Y-72765960D01*
X114754797Y-72639997D01*
X114964266Y-72553232D01*
X115075451Y-72531116D01*
X115186635Y-72509000D01*
X115413365Y-72509000D01*
X115524549Y-72531116D01*
X115524549Y-72531116D01*
G37*
G36*
X118911000Y-73907265D02*
G01*
X118913402Y-73931651D01*
X118920515Y-73955100D01*
X118932066Y-73976711D01*
X118947611Y-73995653D01*
X118966553Y-74011198D01*
X118988164Y-74022749D01*
X119011613Y-74029862D01*
X119035999Y-74032264D01*
X119060385Y-74029862D01*
X119083834Y-74022749D01*
X119105445Y-74011198D01*
X119124387Y-73995653D01*
X119139932Y-73976711D01*
X119146233Y-73966198D01*
X119169644Y-73922400D01*
X119238499Y-73838499D01*
X119322400Y-73769643D01*
X119390945Y-73733005D01*
X119418121Y-73718479D01*
X119521985Y-73686973D01*
X119602933Y-73679000D01*
X119657067Y-73679000D01*
X119738015Y-73686973D01*
X119841879Y-73718479D01*
X119869055Y-73733005D01*
X119937600Y-73769643D01*
X120021501Y-73838499D01*
X120090357Y-73922400D01*
X120126995Y-73990945D01*
X120141521Y-74018121D01*
X120145388Y-74030869D01*
X120154760Y-74053496D01*
X120168374Y-74073870D01*
X120185701Y-74091197D01*
X120206075Y-74104811D01*
X120228714Y-74114188D01*
X120252747Y-74118969D01*
X120277251Y-74118969D01*
X120301285Y-74114189D01*
X120323924Y-74104812D01*
X120344298Y-74091198D01*
X120361625Y-74073871D01*
X120375239Y-74053497D01*
X120384612Y-74030869D01*
X120388479Y-74018121D01*
X120403005Y-73990945D01*
X120439643Y-73922400D01*
X120508499Y-73838499D01*
X120592400Y-73769643D01*
X120660945Y-73733005D01*
X120688121Y-73718479D01*
X120791985Y-73686973D01*
X120872933Y-73679000D01*
X120927067Y-73679000D01*
X121008015Y-73686973D01*
X121111879Y-73718479D01*
X121139055Y-73733005D01*
X121207600Y-73769643D01*
X121291501Y-73838499D01*
X121360357Y-73922400D01*
X121396995Y-73990945D01*
X121411521Y-74018121D01*
X121415388Y-74030869D01*
X121424760Y-74053496D01*
X121438374Y-74073870D01*
X121455701Y-74091197D01*
X121476075Y-74104811D01*
X121498714Y-74114188D01*
X121522747Y-74118969D01*
X121547251Y-74118969D01*
X121571285Y-74114189D01*
X121593924Y-74104812D01*
X121614298Y-74091198D01*
X121631625Y-74073871D01*
X121645239Y-74053497D01*
X121654612Y-74030869D01*
X121658479Y-74018121D01*
X121673005Y-73990945D01*
X121709643Y-73922400D01*
X121778499Y-73838499D01*
X121862400Y-73769643D01*
X121930945Y-73733005D01*
X121958121Y-73718479D01*
X122061985Y-73686973D01*
X122142933Y-73679000D01*
X122197067Y-73679000D01*
X122278015Y-73686973D01*
X122381879Y-73718479D01*
X122409055Y-73733005D01*
X122477600Y-73769643D01*
X122561501Y-73838499D01*
X122630357Y-73922400D01*
X122666995Y-73990945D01*
X122681521Y-74018121D01*
X122685388Y-74030869D01*
X122694760Y-74053496D01*
X122708374Y-74073870D01*
X122725701Y-74091197D01*
X122746075Y-74104811D01*
X122768714Y-74114188D01*
X122792747Y-74118969D01*
X122817251Y-74118969D01*
X122841285Y-74114189D01*
X122863924Y-74104812D01*
X122884298Y-74091198D01*
X122901625Y-74073871D01*
X122915239Y-74053497D01*
X122924612Y-74030869D01*
X122928479Y-74018121D01*
X122943005Y-73990945D01*
X122979643Y-73922400D01*
X123048499Y-73838499D01*
X123132400Y-73769643D01*
X123200945Y-73733005D01*
X123228121Y-73718479D01*
X123331985Y-73686973D01*
X123412933Y-73679000D01*
X123467067Y-73679000D01*
X123548015Y-73686973D01*
X123651879Y-73718479D01*
X123679055Y-73733005D01*
X123747600Y-73769643D01*
X123831501Y-73838499D01*
X123900357Y-73922400D01*
X123936995Y-73990945D01*
X123951521Y-74018121D01*
X123983027Y-74121985D01*
X123993666Y-74230000D01*
X123983027Y-74338015D01*
X123951521Y-74441879D01*
X123951191Y-74442496D01*
X123900357Y-74537600D01*
X123831501Y-74621501D01*
X123747600Y-74690357D01*
X123679055Y-74726995D01*
X123651879Y-74741521D01*
X123548015Y-74773027D01*
X123467067Y-74781000D01*
X123412933Y-74781000D01*
X123331985Y-74773027D01*
X123228121Y-74741521D01*
X123200945Y-74726995D01*
X123132400Y-74690357D01*
X123048499Y-74621501D01*
X122979643Y-74537600D01*
X122928809Y-74442496D01*
X122928479Y-74441879D01*
X122924612Y-74429131D01*
X122915240Y-74406504D01*
X122901626Y-74386130D01*
X122884299Y-74368803D01*
X122863925Y-74355189D01*
X122841286Y-74345812D01*
X122817253Y-74341031D01*
X122792749Y-74341031D01*
X122768715Y-74345811D01*
X122746076Y-74355188D01*
X122725702Y-74368802D01*
X122708375Y-74386129D01*
X122694761Y-74406503D01*
X122685388Y-74429131D01*
X122681521Y-74441879D01*
X122681191Y-74442496D01*
X122630357Y-74537600D01*
X122561501Y-74621501D01*
X122477600Y-74690357D01*
X122409055Y-74726995D01*
X122381879Y-74741521D01*
X122278015Y-74773027D01*
X122197067Y-74781000D01*
X122142933Y-74781000D01*
X122061985Y-74773027D01*
X121958121Y-74741521D01*
X121930945Y-74726995D01*
X121862400Y-74690357D01*
X121778499Y-74621501D01*
X121709643Y-74537600D01*
X121658809Y-74442496D01*
X121658479Y-74441879D01*
X121654612Y-74429131D01*
X121645240Y-74406504D01*
X121631626Y-74386130D01*
X121614299Y-74368803D01*
X121593925Y-74355189D01*
X121571286Y-74345812D01*
X121547253Y-74341031D01*
X121522749Y-74341031D01*
X121498715Y-74345811D01*
X121476076Y-74355188D01*
X121455702Y-74368802D01*
X121438375Y-74386129D01*
X121424761Y-74406503D01*
X121415388Y-74429131D01*
X121411521Y-74441879D01*
X121411191Y-74442496D01*
X121360357Y-74537600D01*
X121291501Y-74621501D01*
X121207600Y-74690357D01*
X121139055Y-74726995D01*
X121111879Y-74741521D01*
X121008015Y-74773027D01*
X120927067Y-74781000D01*
X120872933Y-74781000D01*
X120791985Y-74773027D01*
X120688121Y-74741521D01*
X120660945Y-74726995D01*
X120592400Y-74690357D01*
X120508499Y-74621501D01*
X120439643Y-74537600D01*
X120388809Y-74442496D01*
X120388479Y-74441879D01*
X120384612Y-74429131D01*
X120375240Y-74406504D01*
X120361626Y-74386130D01*
X120344299Y-74368803D01*
X120323925Y-74355189D01*
X120301286Y-74345812D01*
X120277253Y-74341031D01*
X120252749Y-74341031D01*
X120228715Y-74345811D01*
X120206076Y-74355188D01*
X120185702Y-74368802D01*
X120168375Y-74386129D01*
X120154761Y-74406503D01*
X120145388Y-74429131D01*
X120141521Y-74441879D01*
X120141191Y-74442496D01*
X120090357Y-74537600D01*
X120021501Y-74621501D01*
X119937600Y-74690357D01*
X119869055Y-74726995D01*
X119841879Y-74741521D01*
X119738015Y-74773027D01*
X119657067Y-74781000D01*
X119602933Y-74781000D01*
X119521985Y-74773027D01*
X119418121Y-74741521D01*
X119390945Y-74726995D01*
X119322400Y-74690357D01*
X119238499Y-74621501D01*
X119169645Y-74537601D01*
X119169644Y-74537600D01*
X119146236Y-74493807D01*
X119132625Y-74473437D01*
X119115298Y-74456110D01*
X119094924Y-74442496D01*
X119072285Y-74433119D01*
X119048252Y-74428338D01*
X119023748Y-74428338D01*
X118999714Y-74433118D01*
X118977076Y-74442495D01*
X118956701Y-74456109D01*
X118939374Y-74473436D01*
X118925760Y-74493810D01*
X118916383Y-74516449D01*
X118911602Y-74540482D01*
X118911000Y-74552735D01*
X118911000Y-74781000D01*
X117809000Y-74781000D01*
X117809000Y-73679000D01*
X118911000Y-73679000D01*
X118911000Y-73907265D01*
X118911000Y-73907265D01*
G37*
G36*
X139904549Y-57611116D02*
G01*
X140015734Y-57633232D01*
X140163850Y-57694584D01*
X140201059Y-57709996D01*
X140225203Y-57719997D01*
X140413720Y-57845960D01*
X140574040Y-58006280D01*
X140700003Y-58194797D01*
X140786768Y-58404266D01*
X140831000Y-58626636D01*
X140831000Y-58853364D01*
X140786768Y-59075734D01*
X140700003Y-59285203D01*
X140574040Y-59473720D01*
X140413720Y-59634040D01*
X140225203Y-59760003D01*
X140015734Y-59846768D01*
X139904549Y-59868884D01*
X139793365Y-59891000D01*
X139566635Y-59891000D01*
X139455451Y-59868884D01*
X139344266Y-59846768D01*
X139134797Y-59760003D01*
X138946280Y-59634040D01*
X138785960Y-59473720D01*
X138659997Y-59285203D01*
X138573232Y-59075734D01*
X138529000Y-58853364D01*
X138529000Y-58626636D01*
X138573232Y-58404266D01*
X138659997Y-58194797D01*
X138785960Y-58006280D01*
X138946280Y-57845960D01*
X139134797Y-57719997D01*
X139158942Y-57709996D01*
X139196150Y-57694584D01*
X139344266Y-57633232D01*
X139455451Y-57611116D01*
X139566635Y-57589000D01*
X139793365Y-57589000D01*
X139904549Y-57611116D01*
X139904549Y-57611116D01*
G37*
G36*
X115363638Y-57589000D02*
G01*
X115535734Y-57623232D01*
X115745203Y-57709997D01*
X115933720Y-57835960D01*
X116094040Y-57996280D01*
X116220003Y-58184797D01*
X116306768Y-58394266D01*
X116351000Y-58616636D01*
X116351000Y-58843364D01*
X116306768Y-59065734D01*
X116220003Y-59275203D01*
X116094040Y-59463720D01*
X115933720Y-59624040D01*
X115745203Y-59750003D01*
X115745202Y-59750004D01*
X115745201Y-59750004D01*
X115683850Y-59775416D01*
X115535734Y-59836768D01*
X115485460Y-59846768D01*
X115313365Y-59881000D01*
X115086635Y-59881000D01*
X114914540Y-59846768D01*
X114864266Y-59836768D01*
X114716150Y-59775416D01*
X114654799Y-59750004D01*
X114654798Y-59750004D01*
X114654797Y-59750003D01*
X114466280Y-59624040D01*
X114305960Y-59463720D01*
X114179997Y-59275203D01*
X114093232Y-59065734D01*
X114049000Y-58843364D01*
X114049000Y-58616636D01*
X114093232Y-58394266D01*
X114179997Y-58184797D01*
X114305960Y-57996280D01*
X114466280Y-57835960D01*
X114654797Y-57709997D01*
X114864266Y-57623232D01*
X115036362Y-57589000D01*
X115086635Y-57579000D01*
X115313365Y-57579000D01*
X115363638Y-57589000D01*
X115363638Y-57589000D01*
G37*
M02*
