M48
; DRILL file {KiCad (5.1.4)-1} date 11/10/2019 4:51:10 PM
; FORMAT={-:-/ absolute / inch / decimal}
; #@! TF.CreationDate,2019-11-10T16:51:10-05:00
; #@! TF.GenerationSoftware,Kicad,Pcbnew,(5.1.4)-1
; #@! TF.FileFunction,Plated,1,2,PTH
FMAT,2
INCH
T1C0.0157
T2C0.0256
%
G90
G05
T1
X4.476Y-2.7079
X4.6201Y-2.5441
X4.6331Y-2.3173
X4.6335Y-2.7421
X4.6713Y-2.5827
X4.6961Y-2.3189
X4.748Y-2.8642
X4.7543Y-2.7291
X4.7564Y-2.3173
X4.7969Y-2.5205
X4.8201Y-2.3772
X4.8435Y-2.5856
X4.8843Y-2.7028
X4.8902Y-2.8709
X4.8906Y-2.8064
X4.9083Y-2.7354
X4.9402Y-2.7654
X4.9764Y-2.9616
X4.9996Y-2.6461
X5.0098Y-2.7902
X5.039Y-2.5054
X5.0429Y-2.5669
X5.0559Y-2.3504
X5.0843Y-2.8354
X5.13Y-2.8256
X5.152Y-2.6748
X5.1622Y-2.3512
X5.1622Y-2.5039
X5.2012Y-2.9445
X5.248Y-2.3583
X5.2559Y-2.815
X5.2969Y-2.7512
X5.3118Y-2.3594
X5.337Y-2.4933
X5.3654Y-2.9472
X5.387Y-2.6024
X5.4222Y-2.4931
X5.439Y-2.4124
X5.5209Y-2.7146
T2
X4.6598Y-2.9224
X4.7098Y-2.9224
X4.7598Y-2.9224
X4.8098Y-2.9224
X4.8598Y-2.9224
T0
M30
