G04 #@! TF.GenerationSoftware,KiCad,Pcbnew,(5.1.4)-1*
G04 #@! TF.CreationDate,2019-11-10T16:51:08-05:00*
G04 #@! TF.ProjectId,UniAmp,556e6941-6d70-42e6-9b69-6361645f7063,rev?*
G04 #@! TF.SameCoordinates,Original*
G04 #@! TF.FileFunction,Copper,L2,Bot*
G04 #@! TF.FilePolarity,Positive*
%FSLAX46Y46*%
G04 Gerber Fmt 4.6, Leading zero omitted, Abs format (unit mm)*
G04 Created by KiCad (PCBNEW (5.1.4)-1) date 2019-11-10 16:51:08*
%MOMM*%
%LPD*%
G04 APERTURE LIST*
%ADD10R,1.000000X1.000000*%
%ADD11O,1.000000X1.000000*%
%ADD12C,0.800000*%
%ADD13C,0.250000*%
%ADD14C,0.500000*%
%ADD15C,0.254000*%
G04 APERTURE END LIST*
D10*
X118360000Y-74230000D03*
D11*
X119630000Y-74230000D03*
X120900000Y-74230000D03*
X122170000Y-74230000D03*
X123440000Y-74230000D03*
D12*
X131120000Y-59720000D03*
X128420000Y-59700000D03*
X132110000Y-74790000D03*
X130860000Y-67940000D03*
X120760000Y-69320000D03*
X136280000Y-74860000D03*
X113690000Y-68780000D03*
X135560000Y-63330000D03*
X140230000Y-68950000D03*
X117350000Y-64620000D03*
X121840000Y-64020000D03*
X125480000Y-70240000D03*
X127250000Y-70870000D03*
X124210000Y-72920000D03*
X117680000Y-58860000D03*
X134920000Y-59930000D03*
X123025000Y-65675000D03*
X137725000Y-63325000D03*
X138150000Y-61275000D03*
X136830000Y-66100000D03*
X129140000Y-72020000D03*
X133500000Y-71500000D03*
X134540000Y-69880000D03*
X120811724Y-58858722D03*
X131120000Y-63600000D03*
X128090000Y-65200000D03*
X127990000Y-63637500D03*
X122430000Y-60380000D03*
X117690000Y-69650000D03*
X124060000Y-68650000D03*
X124670000Y-69480000D03*
X126990000Y-67210000D03*
X124220000Y-71282500D03*
X130300740Y-71770236D03*
X119280000Y-58900000D03*
X126400000Y-75225000D03*
X118650000Y-65600000D03*
X120600000Y-72750000D03*
X133300000Y-59900000D03*
D13*
X120760000Y-67870000D02*
X121690000Y-66940000D01*
X120760000Y-69320000D02*
X120760000Y-67870000D01*
X121690000Y-66940000D02*
X125290000Y-66940000D01*
X125290000Y-66940000D02*
X125720000Y-67370000D01*
X125720000Y-67370000D02*
X125720000Y-70000000D01*
X125720000Y-70000000D02*
X125480000Y-70240000D01*
X137725000Y-63325000D02*
X137725000Y-61700000D01*
X137725000Y-61700000D02*
X138150000Y-61275000D01*
D14*
X129140000Y-72585685D02*
X129814315Y-73260000D01*
X129140000Y-72020000D02*
X129140000Y-72585685D01*
X131740000Y-73260000D02*
X133500000Y-71500000D01*
X129814315Y-73260000D02*
X131740000Y-73260000D01*
X133500000Y-70920000D02*
X134540000Y-69880000D01*
X133500000Y-71500000D02*
X133500000Y-70920000D01*
X136830000Y-67590000D02*
X136830000Y-66100000D01*
X134540000Y-69880000D02*
X136830000Y-67590000D01*
D13*
X136830000Y-65534315D02*
X136825000Y-65529315D01*
X136830000Y-66100000D02*
X136830000Y-65534315D01*
D14*
X136825000Y-59275000D02*
X134850000Y-57300000D01*
X134850000Y-57300000D02*
X121525000Y-57300000D01*
X121525000Y-57300000D02*
X120811724Y-58013276D01*
X120811724Y-58013276D02*
X120811724Y-58858722D01*
X136830000Y-64780000D02*
X136825000Y-64775000D01*
X136830000Y-66100000D02*
X136830000Y-64780000D01*
X136825000Y-65529315D02*
X136825000Y-64775000D01*
X136825000Y-64775000D02*
X136825000Y-59275000D01*
X127424315Y-63637500D02*
X127990000Y-63637500D01*
X125121815Y-63637500D02*
X127424315Y-63637500D01*
X122430000Y-60945685D02*
X125121815Y-63637500D01*
X122430000Y-60380000D02*
X122430000Y-60945685D01*
X131082500Y-63637500D02*
X131120000Y-63600000D01*
X127990000Y-63637500D02*
X131082500Y-63637500D01*
X128090000Y-63737500D02*
X127990000Y-63637500D01*
X128090000Y-65200000D02*
X128090000Y-63737500D01*
D13*
X118360000Y-70320000D02*
X117690000Y-69650000D01*
X118360000Y-74230000D02*
X118360000Y-70320000D01*
X122170000Y-73522894D02*
X122170000Y-74230000D01*
X122989990Y-72702904D02*
X122170000Y-73522894D01*
X122989991Y-70087007D02*
X122989990Y-72702904D01*
X124060000Y-69016998D02*
X122989991Y-70087007D01*
X124060000Y-68650000D02*
X124060000Y-69016998D01*
X123440000Y-70710000D02*
X124670000Y-69480000D01*
X123440000Y-74230000D02*
X123440000Y-70710000D01*
X126990000Y-67210000D02*
X126480000Y-67720000D01*
X126480000Y-67720000D02*
X126480000Y-70440000D01*
X126480000Y-70440000D02*
X125637500Y-71282500D01*
X125637500Y-71282500D02*
X124220000Y-71282500D01*
D14*
X119280000Y-58900000D02*
X119280000Y-59465685D01*
X119630000Y-74937106D02*
X120117894Y-75425000D01*
X119630000Y-74230000D02*
X119630000Y-74937106D01*
X120117894Y-75425000D02*
X126275000Y-75425000D01*
D13*
X126275000Y-75425000D02*
X126275000Y-75350000D01*
X126275000Y-75350000D02*
X126400000Y-75225000D01*
D14*
X126400000Y-75225000D02*
X128100000Y-73525000D01*
X128100000Y-73525000D02*
X128100000Y-71575000D01*
X118650000Y-66165685D02*
X119100000Y-66615685D01*
X118650000Y-65600000D02*
X118650000Y-66165685D01*
X119100000Y-66615685D02*
X119100000Y-72725000D01*
X119630000Y-73255000D02*
X119630000Y-74230000D01*
X119100000Y-72725000D02*
X119630000Y-73255000D01*
X119280000Y-64970000D02*
X118650000Y-65600000D01*
X119280000Y-58900000D02*
X119280000Y-64970000D01*
X130300740Y-71204551D02*
X129946189Y-70850000D01*
X128825000Y-70850000D02*
X128100000Y-71575000D01*
X129946189Y-70850000D02*
X128825000Y-70850000D01*
X130300740Y-71770236D02*
X130300740Y-71204551D01*
D13*
X123483002Y-58200000D02*
X120550000Y-61133002D01*
X132675000Y-58200000D02*
X123483002Y-58200000D01*
X133300000Y-58825000D02*
X132675000Y-58200000D01*
X133300000Y-59900000D02*
X133300000Y-58825000D01*
X120600000Y-72750000D02*
X119900000Y-72050000D01*
X119900000Y-72050000D02*
X119900000Y-66550000D01*
X120550000Y-65900000D02*
X120550000Y-61133002D01*
X119900000Y-66550000D02*
X120550000Y-65900000D01*
D15*
G36*
X120289293Y-57436864D02*
G01*
X120259644Y-57461196D01*
X120235315Y-57490842D01*
X120162547Y-57579510D01*
X120122058Y-57655260D01*
X120090397Y-57714493D01*
X120045967Y-57860958D01*
X120037268Y-57949283D01*
X120030965Y-58013276D01*
X120034724Y-58051439D01*
X120034724Y-58353029D01*
X120032072Y-58356999D01*
X120000048Y-58309072D01*
X119870928Y-58179952D01*
X119719099Y-58078504D01*
X119550396Y-58008624D01*
X119371301Y-57973000D01*
X119188699Y-57973000D01*
X119009604Y-58008624D01*
X118840901Y-58078504D01*
X118689072Y-58179952D01*
X118559952Y-58309072D01*
X118458504Y-58460901D01*
X118388624Y-58629604D01*
X118353000Y-58808699D01*
X118353000Y-58991301D01*
X118388624Y-59170396D01*
X118458504Y-59339099D01*
X118503000Y-59405693D01*
X118503001Y-64648155D01*
X118458158Y-64692999D01*
X118379604Y-64708624D01*
X118210901Y-64778504D01*
X118059072Y-64879952D01*
X117929952Y-65009072D01*
X117828504Y-65160901D01*
X117758624Y-65329604D01*
X117723000Y-65508699D01*
X117723000Y-65691301D01*
X117758624Y-65870396D01*
X117828504Y-66039099D01*
X117873000Y-66105693D01*
X117873000Y-66127522D01*
X117869241Y-66165685D01*
X117873000Y-66203848D01*
X117873000Y-66203851D01*
X117884243Y-66318004D01*
X117928673Y-66464469D01*
X117950489Y-66505283D01*
X118000823Y-66599451D01*
X118065134Y-66677814D01*
X118097921Y-66717765D01*
X118127565Y-66742093D01*
X118323000Y-66937528D01*
X118323000Y-68972024D01*
X118280928Y-68929952D01*
X118129099Y-68828504D01*
X117960396Y-68758624D01*
X117781301Y-68723000D01*
X117598699Y-68723000D01*
X117419604Y-68758624D01*
X117250901Y-68828504D01*
X117099072Y-68929952D01*
X116969952Y-69059072D01*
X116868504Y-69210901D01*
X116798624Y-69379604D01*
X116763000Y-69558699D01*
X116763000Y-69741301D01*
X116798624Y-69920396D01*
X116868504Y-70089099D01*
X116969952Y-70240928D01*
X117099072Y-70370048D01*
X117250901Y-70471496D01*
X117419604Y-70541376D01*
X117598699Y-70577000D01*
X117694933Y-70577000D01*
X117708001Y-70590068D01*
X117708000Y-73225396D01*
X117657350Y-73240761D01*
X117565798Y-73289696D01*
X117485552Y-73355552D01*
X117419696Y-73435798D01*
X117370761Y-73527350D01*
X117340626Y-73626690D01*
X117330451Y-73730000D01*
X117330451Y-74730000D01*
X117340626Y-74833310D01*
X117370761Y-74932650D01*
X117419696Y-75024202D01*
X117485552Y-75104448D01*
X117565798Y-75170304D01*
X117657350Y-75219239D01*
X117756690Y-75249374D01*
X117860000Y-75259549D01*
X118860000Y-75259549D01*
X118918253Y-75253812D01*
X118980823Y-75370872D01*
X119011293Y-75408000D01*
X113562000Y-75408000D01*
X113562000Y-73499755D01*
X113673000Y-73499755D01*
X113673000Y-73820245D01*
X113735525Y-74134578D01*
X113858172Y-74430673D01*
X114036227Y-74697152D01*
X114262848Y-74923773D01*
X114529327Y-75101828D01*
X114825422Y-75224475D01*
X115139755Y-75287000D01*
X115460245Y-75287000D01*
X115774578Y-75224475D01*
X116070673Y-75101828D01*
X116337152Y-74923773D01*
X116563773Y-74697152D01*
X116741828Y-74430673D01*
X116864475Y-74134578D01*
X116927000Y-73820245D01*
X116927000Y-73499755D01*
X116864475Y-73185422D01*
X116741828Y-72889327D01*
X116563773Y-72622848D01*
X116337152Y-72396227D01*
X116070673Y-72218172D01*
X115774578Y-72095525D01*
X115460245Y-72033000D01*
X115139755Y-72033000D01*
X114825422Y-72095525D01*
X114529327Y-72218172D01*
X114262848Y-72396227D01*
X114036227Y-72622848D01*
X113858172Y-72889327D01*
X113735525Y-73185422D01*
X113673000Y-73499755D01*
X113562000Y-73499755D01*
X113562000Y-58569755D01*
X113573000Y-58569755D01*
X113573000Y-58890245D01*
X113635525Y-59204578D01*
X113758172Y-59500673D01*
X113936227Y-59767152D01*
X114162848Y-59993773D01*
X114429327Y-60171828D01*
X114725422Y-60294475D01*
X115039755Y-60357000D01*
X115360245Y-60357000D01*
X115674578Y-60294475D01*
X115970673Y-60171828D01*
X116237152Y-59993773D01*
X116463773Y-59767152D01*
X116641828Y-59500673D01*
X116764475Y-59204578D01*
X116827000Y-58890245D01*
X116827000Y-58569755D01*
X116764475Y-58255422D01*
X116641828Y-57959327D01*
X116463773Y-57692848D01*
X116237152Y-57466227D01*
X115970673Y-57288172D01*
X115674578Y-57165525D01*
X115360245Y-57103000D01*
X115039755Y-57103000D01*
X114725422Y-57165525D01*
X114429327Y-57288172D01*
X114162848Y-57466227D01*
X113936227Y-57692848D01*
X113758172Y-57959327D01*
X113635525Y-58255422D01*
X113573000Y-58569755D01*
X113562000Y-58569755D01*
X113562000Y-57082000D01*
X120644156Y-57082000D01*
X120289293Y-57436864D01*
X120289293Y-57436864D01*
G37*
X120289293Y-57436864D02*
X120259644Y-57461196D01*
X120235315Y-57490842D01*
X120162547Y-57579510D01*
X120122058Y-57655260D01*
X120090397Y-57714493D01*
X120045967Y-57860958D01*
X120037268Y-57949283D01*
X120030965Y-58013276D01*
X120034724Y-58051439D01*
X120034724Y-58353029D01*
X120032072Y-58356999D01*
X120000048Y-58309072D01*
X119870928Y-58179952D01*
X119719099Y-58078504D01*
X119550396Y-58008624D01*
X119371301Y-57973000D01*
X119188699Y-57973000D01*
X119009604Y-58008624D01*
X118840901Y-58078504D01*
X118689072Y-58179952D01*
X118559952Y-58309072D01*
X118458504Y-58460901D01*
X118388624Y-58629604D01*
X118353000Y-58808699D01*
X118353000Y-58991301D01*
X118388624Y-59170396D01*
X118458504Y-59339099D01*
X118503000Y-59405693D01*
X118503001Y-64648155D01*
X118458158Y-64692999D01*
X118379604Y-64708624D01*
X118210901Y-64778504D01*
X118059072Y-64879952D01*
X117929952Y-65009072D01*
X117828504Y-65160901D01*
X117758624Y-65329604D01*
X117723000Y-65508699D01*
X117723000Y-65691301D01*
X117758624Y-65870396D01*
X117828504Y-66039099D01*
X117873000Y-66105693D01*
X117873000Y-66127522D01*
X117869241Y-66165685D01*
X117873000Y-66203848D01*
X117873000Y-66203851D01*
X117884243Y-66318004D01*
X117928673Y-66464469D01*
X117950489Y-66505283D01*
X118000823Y-66599451D01*
X118065134Y-66677814D01*
X118097921Y-66717765D01*
X118127565Y-66742093D01*
X118323000Y-66937528D01*
X118323000Y-68972024D01*
X118280928Y-68929952D01*
X118129099Y-68828504D01*
X117960396Y-68758624D01*
X117781301Y-68723000D01*
X117598699Y-68723000D01*
X117419604Y-68758624D01*
X117250901Y-68828504D01*
X117099072Y-68929952D01*
X116969952Y-69059072D01*
X116868504Y-69210901D01*
X116798624Y-69379604D01*
X116763000Y-69558699D01*
X116763000Y-69741301D01*
X116798624Y-69920396D01*
X116868504Y-70089099D01*
X116969952Y-70240928D01*
X117099072Y-70370048D01*
X117250901Y-70471496D01*
X117419604Y-70541376D01*
X117598699Y-70577000D01*
X117694933Y-70577000D01*
X117708001Y-70590068D01*
X117708000Y-73225396D01*
X117657350Y-73240761D01*
X117565798Y-73289696D01*
X117485552Y-73355552D01*
X117419696Y-73435798D01*
X117370761Y-73527350D01*
X117340626Y-73626690D01*
X117330451Y-73730000D01*
X117330451Y-74730000D01*
X117340626Y-74833310D01*
X117370761Y-74932650D01*
X117419696Y-75024202D01*
X117485552Y-75104448D01*
X117565798Y-75170304D01*
X117657350Y-75219239D01*
X117756690Y-75249374D01*
X117860000Y-75259549D01*
X118860000Y-75259549D01*
X118918253Y-75253812D01*
X118980823Y-75370872D01*
X119011293Y-75408000D01*
X113562000Y-75408000D01*
X113562000Y-73499755D01*
X113673000Y-73499755D01*
X113673000Y-73820245D01*
X113735525Y-74134578D01*
X113858172Y-74430673D01*
X114036227Y-74697152D01*
X114262848Y-74923773D01*
X114529327Y-75101828D01*
X114825422Y-75224475D01*
X115139755Y-75287000D01*
X115460245Y-75287000D01*
X115774578Y-75224475D01*
X116070673Y-75101828D01*
X116337152Y-74923773D01*
X116563773Y-74697152D01*
X116741828Y-74430673D01*
X116864475Y-74134578D01*
X116927000Y-73820245D01*
X116927000Y-73499755D01*
X116864475Y-73185422D01*
X116741828Y-72889327D01*
X116563773Y-72622848D01*
X116337152Y-72396227D01*
X116070673Y-72218172D01*
X115774578Y-72095525D01*
X115460245Y-72033000D01*
X115139755Y-72033000D01*
X114825422Y-72095525D01*
X114529327Y-72218172D01*
X114262848Y-72396227D01*
X114036227Y-72622848D01*
X113858172Y-72889327D01*
X113735525Y-73185422D01*
X113673000Y-73499755D01*
X113562000Y-73499755D01*
X113562000Y-58569755D01*
X113573000Y-58569755D01*
X113573000Y-58890245D01*
X113635525Y-59204578D01*
X113758172Y-59500673D01*
X113936227Y-59767152D01*
X114162848Y-59993773D01*
X114429327Y-60171828D01*
X114725422Y-60294475D01*
X115039755Y-60357000D01*
X115360245Y-60357000D01*
X115674578Y-60294475D01*
X115970673Y-60171828D01*
X116237152Y-59993773D01*
X116463773Y-59767152D01*
X116641828Y-59500673D01*
X116764475Y-59204578D01*
X116827000Y-58890245D01*
X116827000Y-58569755D01*
X116764475Y-58255422D01*
X116641828Y-57959327D01*
X116463773Y-57692848D01*
X116237152Y-57466227D01*
X115970673Y-57288172D01*
X115674578Y-57165525D01*
X115360245Y-57103000D01*
X115039755Y-57103000D01*
X114725422Y-57165525D01*
X114429327Y-57288172D01*
X114162848Y-57466227D01*
X113936227Y-57692848D01*
X113758172Y-57959327D01*
X113635525Y-58255422D01*
X113573000Y-58569755D01*
X113562000Y-58569755D01*
X113562000Y-57082000D01*
X120644156Y-57082000D01*
X120289293Y-57436864D01*
G36*
X141298001Y-58534514D02*
G01*
X141244475Y-58265422D01*
X141121828Y-57969327D01*
X140943773Y-57702848D01*
X140717152Y-57476227D01*
X140450673Y-57298172D01*
X140154578Y-57175525D01*
X139840245Y-57113000D01*
X139519755Y-57113000D01*
X139205422Y-57175525D01*
X138909327Y-57298172D01*
X138642848Y-57476227D01*
X138416227Y-57702848D01*
X138238172Y-57969327D01*
X138115525Y-58265422D01*
X138053000Y-58579755D01*
X138053000Y-58900245D01*
X138115525Y-59214578D01*
X138238172Y-59510673D01*
X138416227Y-59777152D01*
X138642848Y-60003773D01*
X138909327Y-60181828D01*
X139205422Y-60304475D01*
X139519755Y-60367000D01*
X139840245Y-60367000D01*
X140154578Y-60304475D01*
X140450673Y-60181828D01*
X140717152Y-60003773D01*
X140943773Y-59777152D01*
X141121828Y-59510673D01*
X141244475Y-59214578D01*
X141298001Y-58945486D01*
X141298000Y-75408000D01*
X127315843Y-75408000D01*
X128622437Y-74101407D01*
X128652080Y-74077080D01*
X128681888Y-74040759D01*
X128749177Y-73958767D01*
X128821327Y-73823784D01*
X128849776Y-73730000D01*
X128865757Y-73677319D01*
X128877000Y-73563166D01*
X128877000Y-73563157D01*
X128880758Y-73525001D01*
X128877000Y-73486845D01*
X128877000Y-73421528D01*
X129237907Y-73782436D01*
X129262235Y-73812080D01*
X129291879Y-73836408D01*
X129291880Y-73836409D01*
X129380548Y-73909177D01*
X129506177Y-73976327D01*
X129515531Y-73981327D01*
X129661996Y-74025757D01*
X129776149Y-74037000D01*
X129776158Y-74037000D01*
X129814314Y-74040758D01*
X129852470Y-74037000D01*
X131701837Y-74037000D01*
X131740000Y-74040759D01*
X131778163Y-74037000D01*
X131778166Y-74037000D01*
X131892319Y-74025757D01*
X132038784Y-73981327D01*
X132173766Y-73909177D01*
X132292080Y-73812080D01*
X132316412Y-73782431D01*
X133691843Y-72407001D01*
X133770396Y-72391376D01*
X133939099Y-72321496D01*
X134090928Y-72220048D01*
X134220048Y-72090928D01*
X134321496Y-71939099D01*
X134391376Y-71770396D01*
X134427000Y-71591301D01*
X134427000Y-71408699D01*
X134391376Y-71229604D01*
X134361461Y-71157383D01*
X134731842Y-70787001D01*
X134810396Y-70771376D01*
X134979099Y-70701496D01*
X135130928Y-70600048D01*
X135260048Y-70470928D01*
X135361496Y-70319099D01*
X135431376Y-70150396D01*
X135447001Y-70071842D01*
X137352437Y-68166407D01*
X137382080Y-68142080D01*
X137429759Y-68083983D01*
X137479177Y-68023767D01*
X137551327Y-67888784D01*
X137563755Y-67847814D01*
X137595757Y-67742319D01*
X137607000Y-67628166D01*
X137607000Y-67628157D01*
X137610758Y-67590001D01*
X137607000Y-67551845D01*
X137607000Y-66605693D01*
X137651496Y-66539099D01*
X137721376Y-66370396D01*
X137757000Y-66191301D01*
X137757000Y-66008699D01*
X137721376Y-65829604D01*
X137651496Y-65660901D01*
X137607000Y-65594307D01*
X137607000Y-64818155D01*
X137610758Y-64779999D01*
X137607000Y-64741844D01*
X137607000Y-64741834D01*
X137602000Y-64691068D01*
X137602000Y-59313163D01*
X137605759Y-59275000D01*
X137597287Y-59188983D01*
X137590757Y-59122681D01*
X137546327Y-58976216D01*
X137479932Y-58852000D01*
X137474177Y-58841233D01*
X137401409Y-58752565D01*
X137401408Y-58752564D01*
X137377080Y-58722920D01*
X137347436Y-58698592D01*
X135730843Y-57082000D01*
X141298001Y-57082000D01*
X141298001Y-58534514D01*
X141298001Y-58534514D01*
G37*
X141298001Y-58534514D02*
X141244475Y-58265422D01*
X141121828Y-57969327D01*
X140943773Y-57702848D01*
X140717152Y-57476227D01*
X140450673Y-57298172D01*
X140154578Y-57175525D01*
X139840245Y-57113000D01*
X139519755Y-57113000D01*
X139205422Y-57175525D01*
X138909327Y-57298172D01*
X138642848Y-57476227D01*
X138416227Y-57702848D01*
X138238172Y-57969327D01*
X138115525Y-58265422D01*
X138053000Y-58579755D01*
X138053000Y-58900245D01*
X138115525Y-59214578D01*
X138238172Y-59510673D01*
X138416227Y-59777152D01*
X138642848Y-60003773D01*
X138909327Y-60181828D01*
X139205422Y-60304475D01*
X139519755Y-60367000D01*
X139840245Y-60367000D01*
X140154578Y-60304475D01*
X140450673Y-60181828D01*
X140717152Y-60003773D01*
X140943773Y-59777152D01*
X141121828Y-59510673D01*
X141244475Y-59214578D01*
X141298001Y-58945486D01*
X141298000Y-75408000D01*
X127315843Y-75408000D01*
X128622437Y-74101407D01*
X128652080Y-74077080D01*
X128681888Y-74040759D01*
X128749177Y-73958767D01*
X128821327Y-73823784D01*
X128849776Y-73730000D01*
X128865757Y-73677319D01*
X128877000Y-73563166D01*
X128877000Y-73563157D01*
X128880758Y-73525001D01*
X128877000Y-73486845D01*
X128877000Y-73421528D01*
X129237907Y-73782436D01*
X129262235Y-73812080D01*
X129291879Y-73836408D01*
X129291880Y-73836409D01*
X129380548Y-73909177D01*
X129506177Y-73976327D01*
X129515531Y-73981327D01*
X129661996Y-74025757D01*
X129776149Y-74037000D01*
X129776158Y-74037000D01*
X129814314Y-74040758D01*
X129852470Y-74037000D01*
X131701837Y-74037000D01*
X131740000Y-74040759D01*
X131778163Y-74037000D01*
X131778166Y-74037000D01*
X131892319Y-74025757D01*
X132038784Y-73981327D01*
X132173766Y-73909177D01*
X132292080Y-73812080D01*
X132316412Y-73782431D01*
X133691843Y-72407001D01*
X133770396Y-72391376D01*
X133939099Y-72321496D01*
X134090928Y-72220048D01*
X134220048Y-72090928D01*
X134321496Y-71939099D01*
X134391376Y-71770396D01*
X134427000Y-71591301D01*
X134427000Y-71408699D01*
X134391376Y-71229604D01*
X134361461Y-71157383D01*
X134731842Y-70787001D01*
X134810396Y-70771376D01*
X134979099Y-70701496D01*
X135130928Y-70600048D01*
X135260048Y-70470928D01*
X135361496Y-70319099D01*
X135431376Y-70150396D01*
X135447001Y-70071842D01*
X137352437Y-68166407D01*
X137382080Y-68142080D01*
X137429759Y-68083983D01*
X137479177Y-68023767D01*
X137551327Y-67888784D01*
X137563755Y-67847814D01*
X137595757Y-67742319D01*
X137607000Y-67628166D01*
X137607000Y-67628157D01*
X137610758Y-67590001D01*
X137607000Y-67551845D01*
X137607000Y-66605693D01*
X137651496Y-66539099D01*
X137721376Y-66370396D01*
X137757000Y-66191301D01*
X137757000Y-66008699D01*
X137721376Y-65829604D01*
X137651496Y-65660901D01*
X137607000Y-65594307D01*
X137607000Y-64818155D01*
X137610758Y-64779999D01*
X137607000Y-64741844D01*
X137607000Y-64741834D01*
X137602000Y-64691068D01*
X137602000Y-59313163D01*
X137605759Y-59275000D01*
X137597287Y-59188983D01*
X137590757Y-59122681D01*
X137546327Y-58976216D01*
X137479932Y-58852000D01*
X137474177Y-58841233D01*
X137401409Y-58752565D01*
X137401408Y-58752564D01*
X137377080Y-58722920D01*
X137347436Y-58698592D01*
X135730843Y-57082000D01*
X141298001Y-57082000D01*
X141298001Y-58534514D01*
G36*
X136048001Y-59596845D02*
G01*
X136048000Y-64736834D01*
X136044241Y-64775000D01*
X136048000Y-64813163D01*
X136048000Y-65567480D01*
X136050945Y-65597383D01*
X136008504Y-65660901D01*
X135938624Y-65829604D01*
X135903000Y-66008699D01*
X135903000Y-66191301D01*
X135938624Y-66370396D01*
X136008504Y-66539099D01*
X136053001Y-66605694D01*
X136053000Y-67268156D01*
X134348158Y-68972999D01*
X134269604Y-68988624D01*
X134100901Y-69058504D01*
X133949072Y-69159952D01*
X133819952Y-69289072D01*
X133718504Y-69440901D01*
X133648624Y-69609604D01*
X133632999Y-69688158D01*
X132977565Y-70343592D01*
X132947921Y-70367920D01*
X132923593Y-70397564D01*
X132923591Y-70397566D01*
X132850823Y-70486234D01*
X132816089Y-70551217D01*
X132778673Y-70621216D01*
X132734243Y-70767681D01*
X132725774Y-70853673D01*
X132719241Y-70920000D01*
X132723000Y-70958163D01*
X132723000Y-70994307D01*
X132678504Y-71060901D01*
X132608624Y-71229604D01*
X132592999Y-71308157D01*
X131418157Y-72483000D01*
X130898952Y-72483000D01*
X131020788Y-72361164D01*
X131122236Y-72209335D01*
X131192116Y-72040632D01*
X131227740Y-71861537D01*
X131227740Y-71678935D01*
X131192116Y-71499840D01*
X131122236Y-71331137D01*
X131077740Y-71264543D01*
X131077740Y-71242714D01*
X131081499Y-71204551D01*
X131077740Y-71166385D01*
X131066497Y-71052232D01*
X131022067Y-70905767D01*
X130949917Y-70770785D01*
X130852820Y-70652471D01*
X130823170Y-70628138D01*
X130522602Y-70327570D01*
X130498269Y-70297920D01*
X130379955Y-70200823D01*
X130244973Y-70128673D01*
X130098508Y-70084243D01*
X129984355Y-70073000D01*
X129984352Y-70073000D01*
X129946189Y-70069241D01*
X129908026Y-70073000D01*
X128863163Y-70073000D01*
X128825000Y-70069241D01*
X128786836Y-70073000D01*
X128786834Y-70073000D01*
X128672681Y-70084243D01*
X128526216Y-70128673D01*
X128458725Y-70164748D01*
X128391233Y-70200823D01*
X128335288Y-70246736D01*
X128272920Y-70297920D01*
X128248592Y-70327564D01*
X127577565Y-70998592D01*
X127547921Y-71022920D01*
X127523593Y-71052564D01*
X127523591Y-71052566D01*
X127450823Y-71141234D01*
X127378673Y-71276217D01*
X127355149Y-71353766D01*
X127338486Y-71408699D01*
X127334244Y-71422682D01*
X127319241Y-71575000D01*
X127323001Y-71613173D01*
X127323000Y-73203156D01*
X126208158Y-74317999D01*
X126129604Y-74333624D01*
X125960901Y-74403504D01*
X125809072Y-74504952D01*
X125679952Y-74634072D01*
X125670646Y-74648000D01*
X124381077Y-74648000D01*
X124393415Y-74624917D01*
X124452140Y-74431327D01*
X124471969Y-74230000D01*
X124452140Y-74028673D01*
X124393415Y-73835083D01*
X124298051Y-73656669D01*
X124169712Y-73500288D01*
X124092000Y-73436511D01*
X124092000Y-72202200D01*
X124128699Y-72209500D01*
X124311301Y-72209500D01*
X124490396Y-72173876D01*
X124659099Y-72103996D01*
X124810928Y-72002548D01*
X124878976Y-71934500D01*
X125605478Y-71934500D01*
X125637500Y-71937654D01*
X125669522Y-71934500D01*
X125765314Y-71925065D01*
X125888217Y-71887783D01*
X126001484Y-71827241D01*
X126100764Y-71745764D01*
X126121185Y-71720882D01*
X126918387Y-70923680D01*
X126943264Y-70903264D01*
X127024741Y-70803984D01*
X127085283Y-70690717D01*
X127122565Y-70567815D01*
X127135154Y-70440000D01*
X127132000Y-70407978D01*
X127132000Y-68126915D01*
X127260396Y-68101376D01*
X127429099Y-68031496D01*
X127580928Y-67930048D01*
X127710048Y-67800928D01*
X127811496Y-67649099D01*
X127881376Y-67480396D01*
X127917000Y-67301301D01*
X127917000Y-67118699D01*
X127881376Y-66939604D01*
X127811496Y-66770901D01*
X127710048Y-66619072D01*
X127580928Y-66489952D01*
X127429099Y-66388504D01*
X127260396Y-66318624D01*
X127081301Y-66283000D01*
X126898699Y-66283000D01*
X126719604Y-66318624D01*
X126550901Y-66388504D01*
X126399072Y-66489952D01*
X126269952Y-66619072D01*
X126168504Y-66770901D01*
X126098624Y-66939604D01*
X126063000Y-67118699D01*
X126063000Y-67214934D01*
X126041618Y-67236316D01*
X126016736Y-67256736D01*
X125935259Y-67356017D01*
X125879297Y-67460716D01*
X125874717Y-67469284D01*
X125837435Y-67592186D01*
X125824846Y-67720000D01*
X125828000Y-67752022D01*
X125828001Y-70169932D01*
X125367434Y-70630500D01*
X124878976Y-70630500D01*
X124810928Y-70562452D01*
X124659099Y-70461004D01*
X124625132Y-70446934D01*
X124665067Y-70407000D01*
X124761301Y-70407000D01*
X124940396Y-70371376D01*
X125109099Y-70301496D01*
X125260928Y-70200048D01*
X125390048Y-70070928D01*
X125491496Y-69919099D01*
X125561376Y-69750396D01*
X125597000Y-69571301D01*
X125597000Y-69388699D01*
X125561376Y-69209604D01*
X125491496Y-69040901D01*
X125390048Y-68889072D01*
X125260928Y-68759952D01*
X125109099Y-68658504D01*
X124987000Y-68607928D01*
X124987000Y-68558699D01*
X124951376Y-68379604D01*
X124881496Y-68210901D01*
X124780048Y-68059072D01*
X124650928Y-67929952D01*
X124499099Y-67828504D01*
X124330396Y-67758624D01*
X124151301Y-67723000D01*
X123968699Y-67723000D01*
X123789604Y-67758624D01*
X123620901Y-67828504D01*
X123469072Y-67929952D01*
X123339952Y-68059072D01*
X123238504Y-68210901D01*
X123168624Y-68379604D01*
X123133000Y-68558699D01*
X123133000Y-68741301D01*
X123168624Y-68920396D01*
X123187929Y-68967002D01*
X122551605Y-69603327D01*
X122526728Y-69623743D01*
X122445251Y-69723023D01*
X122415965Y-69777814D01*
X122384708Y-69836291D01*
X122347426Y-69959193D01*
X122334837Y-70087007D01*
X122337992Y-70119039D01*
X122337990Y-72432837D01*
X121731618Y-73039210D01*
X121706736Y-73059630D01*
X121625259Y-73158911D01*
X121589283Y-73226218D01*
X121564717Y-73272178D01*
X121527435Y-73395080D01*
X121523825Y-73431731D01*
X121440288Y-73500288D01*
X121311949Y-73656669D01*
X121216585Y-73835083D01*
X121157860Y-74028673D01*
X121138031Y-74230000D01*
X121157860Y-74431327D01*
X121216585Y-74624917D01*
X121228923Y-74648000D01*
X120571077Y-74648000D01*
X120583415Y-74624917D01*
X120642140Y-74431327D01*
X120661969Y-74230000D01*
X120642140Y-74028673D01*
X120583415Y-73835083D01*
X120497754Y-73674823D01*
X120508699Y-73677000D01*
X120691301Y-73677000D01*
X120870396Y-73641376D01*
X121039099Y-73571496D01*
X121190928Y-73470048D01*
X121320048Y-73340928D01*
X121421496Y-73189099D01*
X121491376Y-73020396D01*
X121527000Y-72841301D01*
X121527000Y-72658699D01*
X121491376Y-72479604D01*
X121421496Y-72310901D01*
X121320048Y-72159072D01*
X121190928Y-72029952D01*
X121039099Y-71928504D01*
X120870396Y-71858624D01*
X120691301Y-71823000D01*
X120595066Y-71823000D01*
X120552000Y-71779934D01*
X120552000Y-66820066D01*
X120988388Y-66383679D01*
X121013264Y-66363264D01*
X121094741Y-66263984D01*
X121155283Y-66150717D01*
X121174691Y-66086736D01*
X121192565Y-66027815D01*
X121205154Y-65900000D01*
X121202000Y-65867978D01*
X121202000Y-61403068D01*
X121650150Y-60954918D01*
X121653000Y-60983848D01*
X121653000Y-60983851D01*
X121664243Y-61098004D01*
X121708673Y-61244469D01*
X121733805Y-61291487D01*
X121780823Y-61379451D01*
X121853591Y-61468119D01*
X121877921Y-61497765D01*
X121907565Y-61522093D01*
X124545405Y-64159934D01*
X124569735Y-64189580D01*
X124599379Y-64213908D01*
X124599380Y-64213909D01*
X124688048Y-64286677D01*
X124750481Y-64320048D01*
X124823031Y-64358827D01*
X124969496Y-64403257D01*
X125083649Y-64414500D01*
X125083658Y-64414500D01*
X125121814Y-64418258D01*
X125159970Y-64414500D01*
X127313001Y-64414500D01*
X127313000Y-64694307D01*
X127268504Y-64760901D01*
X127198624Y-64929604D01*
X127163000Y-65108699D01*
X127163000Y-65291301D01*
X127198624Y-65470396D01*
X127268504Y-65639099D01*
X127369952Y-65790928D01*
X127499072Y-65920048D01*
X127650901Y-66021496D01*
X127819604Y-66091376D01*
X127998699Y-66127000D01*
X128181301Y-66127000D01*
X128360396Y-66091376D01*
X128529099Y-66021496D01*
X128680928Y-65920048D01*
X128810048Y-65790928D01*
X128911496Y-65639099D01*
X128981376Y-65470396D01*
X129017000Y-65291301D01*
X129017000Y-65108699D01*
X128981376Y-64929604D01*
X128911496Y-64760901D01*
X128867000Y-64694307D01*
X128867000Y-64414500D01*
X130670431Y-64414500D01*
X130680901Y-64421496D01*
X130849604Y-64491376D01*
X131028699Y-64527000D01*
X131211301Y-64527000D01*
X131390396Y-64491376D01*
X131559099Y-64421496D01*
X131710928Y-64320048D01*
X131840048Y-64190928D01*
X131941496Y-64039099D01*
X132011376Y-63870396D01*
X132047000Y-63691301D01*
X132047000Y-63508699D01*
X132011376Y-63329604D01*
X131941496Y-63160901D01*
X131840048Y-63009072D01*
X131710928Y-62879952D01*
X131559099Y-62778504D01*
X131390396Y-62708624D01*
X131211301Y-62673000D01*
X131028699Y-62673000D01*
X130849604Y-62708624D01*
X130680901Y-62778504D01*
X130558184Y-62860500D01*
X128495693Y-62860500D01*
X128429099Y-62816004D01*
X128260396Y-62746124D01*
X128081301Y-62710500D01*
X127898699Y-62710500D01*
X127719604Y-62746124D01*
X127550901Y-62816004D01*
X127484307Y-62860500D01*
X125443659Y-62860500D01*
X123295653Y-60712495D01*
X123321376Y-60650396D01*
X123357000Y-60471301D01*
X123357000Y-60288699D01*
X123321376Y-60109604D01*
X123251496Y-59940901D01*
X123150048Y-59789072D01*
X123020928Y-59659952D01*
X122975482Y-59629586D01*
X123753069Y-58852000D01*
X132404934Y-58852000D01*
X132648001Y-59095067D01*
X132648001Y-59241023D01*
X132579952Y-59309072D01*
X132478504Y-59460901D01*
X132408624Y-59629604D01*
X132373000Y-59808699D01*
X132373000Y-59991301D01*
X132408624Y-60170396D01*
X132478504Y-60339099D01*
X132579952Y-60490928D01*
X132709072Y-60620048D01*
X132860901Y-60721496D01*
X133029604Y-60791376D01*
X133208699Y-60827000D01*
X133391301Y-60827000D01*
X133570396Y-60791376D01*
X133739099Y-60721496D01*
X133890928Y-60620048D01*
X134020048Y-60490928D01*
X134121496Y-60339099D01*
X134191376Y-60170396D01*
X134227000Y-59991301D01*
X134227000Y-59808699D01*
X134191376Y-59629604D01*
X134121496Y-59460901D01*
X134020048Y-59309072D01*
X133952000Y-59241024D01*
X133952000Y-58857014D01*
X133955153Y-58824999D01*
X133952000Y-58792985D01*
X133952000Y-58792978D01*
X133942565Y-58697186D01*
X133920918Y-58625823D01*
X133905283Y-58574283D01*
X133899778Y-58563984D01*
X133844741Y-58461016D01*
X133763264Y-58361736D01*
X133738386Y-58341320D01*
X133474067Y-58077000D01*
X134528157Y-58077000D01*
X136048001Y-59596845D01*
X136048001Y-59596845D01*
G37*
X136048001Y-59596845D02*
X136048000Y-64736834D01*
X136044241Y-64775000D01*
X136048000Y-64813163D01*
X136048000Y-65567480D01*
X136050945Y-65597383D01*
X136008504Y-65660901D01*
X135938624Y-65829604D01*
X135903000Y-66008699D01*
X135903000Y-66191301D01*
X135938624Y-66370396D01*
X136008504Y-66539099D01*
X136053001Y-66605694D01*
X136053000Y-67268156D01*
X134348158Y-68972999D01*
X134269604Y-68988624D01*
X134100901Y-69058504D01*
X133949072Y-69159952D01*
X133819952Y-69289072D01*
X133718504Y-69440901D01*
X133648624Y-69609604D01*
X133632999Y-69688158D01*
X132977565Y-70343592D01*
X132947921Y-70367920D01*
X132923593Y-70397564D01*
X132923591Y-70397566D01*
X132850823Y-70486234D01*
X132816089Y-70551217D01*
X132778673Y-70621216D01*
X132734243Y-70767681D01*
X132725774Y-70853673D01*
X132719241Y-70920000D01*
X132723000Y-70958163D01*
X132723000Y-70994307D01*
X132678504Y-71060901D01*
X132608624Y-71229604D01*
X132592999Y-71308157D01*
X131418157Y-72483000D01*
X130898952Y-72483000D01*
X131020788Y-72361164D01*
X131122236Y-72209335D01*
X131192116Y-72040632D01*
X131227740Y-71861537D01*
X131227740Y-71678935D01*
X131192116Y-71499840D01*
X131122236Y-71331137D01*
X131077740Y-71264543D01*
X131077740Y-71242714D01*
X131081499Y-71204551D01*
X131077740Y-71166385D01*
X131066497Y-71052232D01*
X131022067Y-70905767D01*
X130949917Y-70770785D01*
X130852820Y-70652471D01*
X130823170Y-70628138D01*
X130522602Y-70327570D01*
X130498269Y-70297920D01*
X130379955Y-70200823D01*
X130244973Y-70128673D01*
X130098508Y-70084243D01*
X129984355Y-70073000D01*
X129984352Y-70073000D01*
X129946189Y-70069241D01*
X129908026Y-70073000D01*
X128863163Y-70073000D01*
X128825000Y-70069241D01*
X128786836Y-70073000D01*
X128786834Y-70073000D01*
X128672681Y-70084243D01*
X128526216Y-70128673D01*
X128458725Y-70164748D01*
X128391233Y-70200823D01*
X128335288Y-70246736D01*
X128272920Y-70297920D01*
X128248592Y-70327564D01*
X127577565Y-70998592D01*
X127547921Y-71022920D01*
X127523593Y-71052564D01*
X127523591Y-71052566D01*
X127450823Y-71141234D01*
X127378673Y-71276217D01*
X127355149Y-71353766D01*
X127338486Y-71408699D01*
X127334244Y-71422682D01*
X127319241Y-71575000D01*
X127323001Y-71613173D01*
X127323000Y-73203156D01*
X126208158Y-74317999D01*
X126129604Y-74333624D01*
X125960901Y-74403504D01*
X125809072Y-74504952D01*
X125679952Y-74634072D01*
X125670646Y-74648000D01*
X124381077Y-74648000D01*
X124393415Y-74624917D01*
X124452140Y-74431327D01*
X124471969Y-74230000D01*
X124452140Y-74028673D01*
X124393415Y-73835083D01*
X124298051Y-73656669D01*
X124169712Y-73500288D01*
X124092000Y-73436511D01*
X124092000Y-72202200D01*
X124128699Y-72209500D01*
X124311301Y-72209500D01*
X124490396Y-72173876D01*
X124659099Y-72103996D01*
X124810928Y-72002548D01*
X124878976Y-71934500D01*
X125605478Y-71934500D01*
X125637500Y-71937654D01*
X125669522Y-71934500D01*
X125765314Y-71925065D01*
X125888217Y-71887783D01*
X126001484Y-71827241D01*
X126100764Y-71745764D01*
X126121185Y-71720882D01*
X126918387Y-70923680D01*
X126943264Y-70903264D01*
X127024741Y-70803984D01*
X127085283Y-70690717D01*
X127122565Y-70567815D01*
X127135154Y-70440000D01*
X127132000Y-70407978D01*
X127132000Y-68126915D01*
X127260396Y-68101376D01*
X127429099Y-68031496D01*
X127580928Y-67930048D01*
X127710048Y-67800928D01*
X127811496Y-67649099D01*
X127881376Y-67480396D01*
X127917000Y-67301301D01*
X127917000Y-67118699D01*
X127881376Y-66939604D01*
X127811496Y-66770901D01*
X127710048Y-66619072D01*
X127580928Y-66489952D01*
X127429099Y-66388504D01*
X127260396Y-66318624D01*
X127081301Y-66283000D01*
X126898699Y-66283000D01*
X126719604Y-66318624D01*
X126550901Y-66388504D01*
X126399072Y-66489952D01*
X126269952Y-66619072D01*
X126168504Y-66770901D01*
X126098624Y-66939604D01*
X126063000Y-67118699D01*
X126063000Y-67214934D01*
X126041618Y-67236316D01*
X126016736Y-67256736D01*
X125935259Y-67356017D01*
X125879297Y-67460716D01*
X125874717Y-67469284D01*
X125837435Y-67592186D01*
X125824846Y-67720000D01*
X125828000Y-67752022D01*
X125828001Y-70169932D01*
X125367434Y-70630500D01*
X124878976Y-70630500D01*
X124810928Y-70562452D01*
X124659099Y-70461004D01*
X124625132Y-70446934D01*
X124665067Y-70407000D01*
X124761301Y-70407000D01*
X124940396Y-70371376D01*
X125109099Y-70301496D01*
X125260928Y-70200048D01*
X125390048Y-70070928D01*
X125491496Y-69919099D01*
X125561376Y-69750396D01*
X125597000Y-69571301D01*
X125597000Y-69388699D01*
X125561376Y-69209604D01*
X125491496Y-69040901D01*
X125390048Y-68889072D01*
X125260928Y-68759952D01*
X125109099Y-68658504D01*
X124987000Y-68607928D01*
X124987000Y-68558699D01*
X124951376Y-68379604D01*
X124881496Y-68210901D01*
X124780048Y-68059072D01*
X124650928Y-67929952D01*
X124499099Y-67828504D01*
X124330396Y-67758624D01*
X124151301Y-67723000D01*
X123968699Y-67723000D01*
X123789604Y-67758624D01*
X123620901Y-67828504D01*
X123469072Y-67929952D01*
X123339952Y-68059072D01*
X123238504Y-68210901D01*
X123168624Y-68379604D01*
X123133000Y-68558699D01*
X123133000Y-68741301D01*
X123168624Y-68920396D01*
X123187929Y-68967002D01*
X122551605Y-69603327D01*
X122526728Y-69623743D01*
X122445251Y-69723023D01*
X122415965Y-69777814D01*
X122384708Y-69836291D01*
X122347426Y-69959193D01*
X122334837Y-70087007D01*
X122337992Y-70119039D01*
X122337990Y-72432837D01*
X121731618Y-73039210D01*
X121706736Y-73059630D01*
X121625259Y-73158911D01*
X121589283Y-73226218D01*
X121564717Y-73272178D01*
X121527435Y-73395080D01*
X121523825Y-73431731D01*
X121440288Y-73500288D01*
X121311949Y-73656669D01*
X121216585Y-73835083D01*
X121157860Y-74028673D01*
X121138031Y-74230000D01*
X121157860Y-74431327D01*
X121216585Y-74624917D01*
X121228923Y-74648000D01*
X120571077Y-74648000D01*
X120583415Y-74624917D01*
X120642140Y-74431327D01*
X120661969Y-74230000D01*
X120642140Y-74028673D01*
X120583415Y-73835083D01*
X120497754Y-73674823D01*
X120508699Y-73677000D01*
X120691301Y-73677000D01*
X120870396Y-73641376D01*
X121039099Y-73571496D01*
X121190928Y-73470048D01*
X121320048Y-73340928D01*
X121421496Y-73189099D01*
X121491376Y-73020396D01*
X121527000Y-72841301D01*
X121527000Y-72658699D01*
X121491376Y-72479604D01*
X121421496Y-72310901D01*
X121320048Y-72159072D01*
X121190928Y-72029952D01*
X121039099Y-71928504D01*
X120870396Y-71858624D01*
X120691301Y-71823000D01*
X120595066Y-71823000D01*
X120552000Y-71779934D01*
X120552000Y-66820066D01*
X120988388Y-66383679D01*
X121013264Y-66363264D01*
X121094741Y-66263984D01*
X121155283Y-66150717D01*
X121174691Y-66086736D01*
X121192565Y-66027815D01*
X121205154Y-65900000D01*
X121202000Y-65867978D01*
X121202000Y-61403068D01*
X121650150Y-60954918D01*
X121653000Y-60983848D01*
X121653000Y-60983851D01*
X121664243Y-61098004D01*
X121708673Y-61244469D01*
X121733805Y-61291487D01*
X121780823Y-61379451D01*
X121853591Y-61468119D01*
X121877921Y-61497765D01*
X121907565Y-61522093D01*
X124545405Y-64159934D01*
X124569735Y-64189580D01*
X124599379Y-64213908D01*
X124599380Y-64213909D01*
X124688048Y-64286677D01*
X124750481Y-64320048D01*
X124823031Y-64358827D01*
X124969496Y-64403257D01*
X125083649Y-64414500D01*
X125083658Y-64414500D01*
X125121814Y-64418258D01*
X125159970Y-64414500D01*
X127313001Y-64414500D01*
X127313000Y-64694307D01*
X127268504Y-64760901D01*
X127198624Y-64929604D01*
X127163000Y-65108699D01*
X127163000Y-65291301D01*
X127198624Y-65470396D01*
X127268504Y-65639099D01*
X127369952Y-65790928D01*
X127499072Y-65920048D01*
X127650901Y-66021496D01*
X127819604Y-66091376D01*
X127998699Y-66127000D01*
X128181301Y-66127000D01*
X128360396Y-66091376D01*
X128529099Y-66021496D01*
X128680928Y-65920048D01*
X128810048Y-65790928D01*
X128911496Y-65639099D01*
X128981376Y-65470396D01*
X129017000Y-65291301D01*
X129017000Y-65108699D01*
X128981376Y-64929604D01*
X128911496Y-64760901D01*
X128867000Y-64694307D01*
X128867000Y-64414500D01*
X130670431Y-64414500D01*
X130680901Y-64421496D01*
X130849604Y-64491376D01*
X131028699Y-64527000D01*
X131211301Y-64527000D01*
X131390396Y-64491376D01*
X131559099Y-64421496D01*
X131710928Y-64320048D01*
X131840048Y-64190928D01*
X131941496Y-64039099D01*
X132011376Y-63870396D01*
X132047000Y-63691301D01*
X132047000Y-63508699D01*
X132011376Y-63329604D01*
X131941496Y-63160901D01*
X131840048Y-63009072D01*
X131710928Y-62879952D01*
X131559099Y-62778504D01*
X131390396Y-62708624D01*
X131211301Y-62673000D01*
X131028699Y-62673000D01*
X130849604Y-62708624D01*
X130680901Y-62778504D01*
X130558184Y-62860500D01*
X128495693Y-62860500D01*
X128429099Y-62816004D01*
X128260396Y-62746124D01*
X128081301Y-62710500D01*
X127898699Y-62710500D01*
X127719604Y-62746124D01*
X127550901Y-62816004D01*
X127484307Y-62860500D01*
X125443659Y-62860500D01*
X123295653Y-60712495D01*
X123321376Y-60650396D01*
X123357000Y-60471301D01*
X123357000Y-60288699D01*
X123321376Y-60109604D01*
X123251496Y-59940901D01*
X123150048Y-59789072D01*
X123020928Y-59659952D01*
X122975482Y-59629586D01*
X123753069Y-58852000D01*
X132404934Y-58852000D01*
X132648001Y-59095067D01*
X132648001Y-59241023D01*
X132579952Y-59309072D01*
X132478504Y-59460901D01*
X132408624Y-59629604D01*
X132373000Y-59808699D01*
X132373000Y-59991301D01*
X132408624Y-60170396D01*
X132478504Y-60339099D01*
X132579952Y-60490928D01*
X132709072Y-60620048D01*
X132860901Y-60721496D01*
X133029604Y-60791376D01*
X133208699Y-60827000D01*
X133391301Y-60827000D01*
X133570396Y-60791376D01*
X133739099Y-60721496D01*
X133890928Y-60620048D01*
X134020048Y-60490928D01*
X134121496Y-60339099D01*
X134191376Y-60170396D01*
X134227000Y-59991301D01*
X134227000Y-59808699D01*
X134191376Y-59629604D01*
X134121496Y-59460901D01*
X134020048Y-59309072D01*
X133952000Y-59241024D01*
X133952000Y-58857014D01*
X133955153Y-58824999D01*
X133952000Y-58792985D01*
X133952000Y-58792978D01*
X133942565Y-58697186D01*
X133920918Y-58625823D01*
X133905283Y-58574283D01*
X133899778Y-58563984D01*
X133844741Y-58461016D01*
X133763264Y-58361736D01*
X133738386Y-58341320D01*
X133474067Y-58077000D01*
X134528157Y-58077000D01*
X136048001Y-59596845D01*
M02*
